%TF.GenerationSoftware,KiCad,Pcbnew,5.1.10*%
%TF.CreationDate,2021-11-02T12:22:44+00:00*%
%TF.ProjectId,BST900-ESP32,42535439-3030-42d4-9553-5033322e6b69,0.3*%
%TF.SameCoordinates,Original*%
%TF.FileFunction,Paste,Bot*%
%TF.FilePolarity,Positive*%
%FSLAX46Y46*%
G04 Gerber Fmt 4.6, Leading zero omitted, Abs format (unit mm)*
G04 Created by KiCad (PCBNEW 5.1.10) date 2021-11-02 12:22:44*
%MOMM*%
%LPD*%
G01*
G04 APERTURE LIST*
G04 APERTURE END LIST*
%TO.C,C4*%
G36*
G01*
X132350000Y-76350000D02*
X133300000Y-76350000D01*
G75*
G02*
X133550000Y-76600000I0J-250000D01*
G01*
X133550000Y-77100000D01*
G75*
G02*
X133300000Y-77350000I-250000J0D01*
G01*
X132350000Y-77350000D01*
G75*
G02*
X132100000Y-77100000I0J250000D01*
G01*
X132100000Y-76600000D01*
G75*
G02*
X132350000Y-76350000I250000J0D01*
G01*
G37*
G36*
G01*
X132350000Y-74450000D02*
X133300000Y-74450000D01*
G75*
G02*
X133550000Y-74700000I0J-250000D01*
G01*
X133550000Y-75200000D01*
G75*
G02*
X133300000Y-75450000I-250000J0D01*
G01*
X132350000Y-75450000D01*
G75*
G02*
X132100000Y-75200000I0J250000D01*
G01*
X132100000Y-74700000D01*
G75*
G02*
X132350000Y-74450000I250000J0D01*
G01*
G37*
%TD*%
%TO.C,C5*%
G36*
G01*
X135850000Y-75500000D02*
X134900000Y-75500000D01*
G75*
G02*
X134650000Y-75250000I0J250000D01*
G01*
X134650000Y-74750000D01*
G75*
G02*
X134900000Y-74500000I250000J0D01*
G01*
X135850000Y-74500000D01*
G75*
G02*
X136100000Y-74750000I0J-250000D01*
G01*
X136100000Y-75250000D01*
G75*
G02*
X135850000Y-75500000I-250000J0D01*
G01*
G37*
G36*
G01*
X135850000Y-77400000D02*
X134900000Y-77400000D01*
G75*
G02*
X134650000Y-77150000I0J250000D01*
G01*
X134650000Y-76650000D01*
G75*
G02*
X134900000Y-76400000I250000J0D01*
G01*
X135850000Y-76400000D01*
G75*
G02*
X136100000Y-76650000I0J-250000D01*
G01*
X136100000Y-77150000D01*
G75*
G02*
X135850000Y-77400000I-250000J0D01*
G01*
G37*
%TD*%
%TO.C,C6*%
G36*
G01*
X137175000Y-76450000D02*
X138125000Y-76450000D01*
G75*
G02*
X138375000Y-76700000I0J-250000D01*
G01*
X138375000Y-77200000D01*
G75*
G02*
X138125000Y-77450000I-250000J0D01*
G01*
X137175000Y-77450000D01*
G75*
G02*
X136925000Y-77200000I0J250000D01*
G01*
X136925000Y-76700000D01*
G75*
G02*
X137175000Y-76450000I250000J0D01*
G01*
G37*
G36*
G01*
X137175000Y-74550000D02*
X138125000Y-74550000D01*
G75*
G02*
X138375000Y-74800000I0J-250000D01*
G01*
X138375000Y-75300000D01*
G75*
G02*
X138125000Y-75550000I-250000J0D01*
G01*
X137175000Y-75550000D01*
G75*
G02*
X136925000Y-75300000I0J250000D01*
G01*
X136925000Y-74800000D01*
G75*
G02*
X137175000Y-74550000I250000J0D01*
G01*
G37*
%TD*%
%TO.C,C1*%
G36*
G01*
X148475000Y-73950000D02*
X147525000Y-73950000D01*
G75*
G02*
X147275000Y-73700000I0J250000D01*
G01*
X147275000Y-73200000D01*
G75*
G02*
X147525000Y-72950000I250000J0D01*
G01*
X148475000Y-72950000D01*
G75*
G02*
X148725000Y-73200000I0J-250000D01*
G01*
X148725000Y-73700000D01*
G75*
G02*
X148475000Y-73950000I-250000J0D01*
G01*
G37*
G36*
G01*
X148475000Y-75850000D02*
X147525000Y-75850000D01*
G75*
G02*
X147275000Y-75600000I0J250000D01*
G01*
X147275000Y-75100000D01*
G75*
G02*
X147525000Y-74850000I250000J0D01*
G01*
X148475000Y-74850000D01*
G75*
G02*
X148725000Y-75100000I0J-250000D01*
G01*
X148725000Y-75600000D01*
G75*
G02*
X148475000Y-75850000I-250000J0D01*
G01*
G37*
%TD*%
%TO.C,R1*%
G36*
G01*
X120100000Y-82874998D02*
X120100000Y-83775002D01*
G75*
G02*
X119850002Y-84025000I-249998J0D01*
G01*
X119324998Y-84025000D01*
G75*
G02*
X119075000Y-83775002I0J249998D01*
G01*
X119075000Y-82874998D01*
G75*
G02*
X119324998Y-82625000I249998J0D01*
G01*
X119850002Y-82625000D01*
G75*
G02*
X120100000Y-82874998I0J-249998D01*
G01*
G37*
G36*
G01*
X121925000Y-82874998D02*
X121925000Y-83775002D01*
G75*
G02*
X121675002Y-84025000I-249998J0D01*
G01*
X121149998Y-84025000D01*
G75*
G02*
X120900000Y-83775002I0J249998D01*
G01*
X120900000Y-82874998D01*
G75*
G02*
X121149998Y-82625000I249998J0D01*
G01*
X121675002Y-82625000D01*
G75*
G02*
X121925000Y-82874998I0J-249998D01*
G01*
G37*
%TD*%
%TO.C,R2*%
G36*
G01*
X144275000Y-74524998D02*
X144275000Y-75425002D01*
G75*
G02*
X144025002Y-75675000I-249998J0D01*
G01*
X143499998Y-75675000D01*
G75*
G02*
X143250000Y-75425002I0J249998D01*
G01*
X143250000Y-74524998D01*
G75*
G02*
X143499998Y-74275000I249998J0D01*
G01*
X144025002Y-74275000D01*
G75*
G02*
X144275000Y-74524998I0J-249998D01*
G01*
G37*
G36*
G01*
X146100000Y-74524998D02*
X146100000Y-75425002D01*
G75*
G02*
X145850002Y-75675000I-249998J0D01*
G01*
X145324998Y-75675000D01*
G75*
G02*
X145075000Y-75425002I0J249998D01*
G01*
X145075000Y-74524998D01*
G75*
G02*
X145324998Y-74275000I249998J0D01*
G01*
X145850002Y-74275000D01*
G75*
G02*
X146100000Y-74524998I0J-249998D01*
G01*
G37*
%TD*%
%TO.C,R4*%
G36*
G01*
X141325000Y-77950002D02*
X141325000Y-77049998D01*
G75*
G02*
X141574998Y-76800000I249998J0D01*
G01*
X142100002Y-76800000D01*
G75*
G02*
X142350000Y-77049998I0J-249998D01*
G01*
X142350000Y-77950002D01*
G75*
G02*
X142100002Y-78200000I-249998J0D01*
G01*
X141574998Y-78200000D01*
G75*
G02*
X141325000Y-77950002I0J249998D01*
G01*
G37*
G36*
G01*
X139500000Y-77950002D02*
X139500000Y-77049998D01*
G75*
G02*
X139749998Y-76800000I249998J0D01*
G01*
X140275002Y-76800000D01*
G75*
G02*
X140525000Y-77049998I0J-249998D01*
G01*
X140525000Y-77950002D01*
G75*
G02*
X140275002Y-78200000I-249998J0D01*
G01*
X139749998Y-78200000D01*
G75*
G02*
X139500000Y-77950002I0J249998D01*
G01*
G37*
%TD*%
%TO.C,R3*%
G36*
G01*
X119300002Y-73150000D02*
X118399998Y-73150000D01*
G75*
G02*
X118150000Y-72900002I0J249998D01*
G01*
X118150000Y-72374998D01*
G75*
G02*
X118399998Y-72125000I249998J0D01*
G01*
X119300002Y-72125000D01*
G75*
G02*
X119550000Y-72374998I0J-249998D01*
G01*
X119550000Y-72900002D01*
G75*
G02*
X119300002Y-73150000I-249998J0D01*
G01*
G37*
G36*
G01*
X119300002Y-74975000D02*
X118399998Y-74975000D01*
G75*
G02*
X118150000Y-74725002I0J249998D01*
G01*
X118150000Y-74199998D01*
G75*
G02*
X118399998Y-73950000I249998J0D01*
G01*
X119300002Y-73950000D01*
G75*
G02*
X119550000Y-74199998I0J-249998D01*
G01*
X119550000Y-74725002D01*
G75*
G02*
X119300002Y-74975000I-249998J0D01*
G01*
G37*
%TD*%
%TO.C,R5*%
G36*
G01*
X136900000Y-79550002D02*
X136900000Y-78649998D01*
G75*
G02*
X137149998Y-78400000I249998J0D01*
G01*
X137675002Y-78400000D01*
G75*
G02*
X137925000Y-78649998I0J-249998D01*
G01*
X137925000Y-79550002D01*
G75*
G02*
X137675002Y-79800000I-249998J0D01*
G01*
X137149998Y-79800000D01*
G75*
G02*
X136900000Y-79550002I0J249998D01*
G01*
G37*
G36*
G01*
X135075000Y-79550002D02*
X135075000Y-78649998D01*
G75*
G02*
X135324998Y-78400000I249998J0D01*
G01*
X135850002Y-78400000D01*
G75*
G02*
X136100000Y-78649998I0J-249998D01*
G01*
X136100000Y-79550002D01*
G75*
G02*
X135850002Y-79800000I-249998J0D01*
G01*
X135324998Y-79800000D01*
G75*
G02*
X135075000Y-79550002I0J249998D01*
G01*
G37*
%TD*%
%TO.C,U1*%
G36*
G01*
X144275000Y-84280000D02*
X144275000Y-83980000D01*
G75*
G02*
X144425000Y-83830000I150000J0D01*
G01*
X146075000Y-83830000D01*
G75*
G02*
X146225000Y-83980000I0J-150000D01*
G01*
X146225000Y-84280000D01*
G75*
G02*
X146075000Y-84430000I-150000J0D01*
G01*
X144425000Y-84430000D01*
G75*
G02*
X144275000Y-84280000I0J150000D01*
G01*
G37*
G36*
G01*
X144275000Y-83010000D02*
X144275000Y-82710000D01*
G75*
G02*
X144425000Y-82560000I150000J0D01*
G01*
X146075000Y-82560000D01*
G75*
G02*
X146225000Y-82710000I0J-150000D01*
G01*
X146225000Y-83010000D01*
G75*
G02*
X146075000Y-83160000I-150000J0D01*
G01*
X144425000Y-83160000D01*
G75*
G02*
X144275000Y-83010000I0J150000D01*
G01*
G37*
G36*
G01*
X144275000Y-81740000D02*
X144275000Y-81440000D01*
G75*
G02*
X144425000Y-81290000I150000J0D01*
G01*
X146075000Y-81290000D01*
G75*
G02*
X146225000Y-81440000I0J-150000D01*
G01*
X146225000Y-81740000D01*
G75*
G02*
X146075000Y-81890000I-150000J0D01*
G01*
X144425000Y-81890000D01*
G75*
G02*
X144275000Y-81740000I0J150000D01*
G01*
G37*
G36*
G01*
X144275000Y-80470000D02*
X144275000Y-80170000D01*
G75*
G02*
X144425000Y-80020000I150000J0D01*
G01*
X146075000Y-80020000D01*
G75*
G02*
X146225000Y-80170000I0J-150000D01*
G01*
X146225000Y-80470000D01*
G75*
G02*
X146075000Y-80620000I-150000J0D01*
G01*
X144425000Y-80620000D01*
G75*
G02*
X144275000Y-80470000I0J150000D01*
G01*
G37*
G36*
G01*
X139325000Y-80470000D02*
X139325000Y-80170000D01*
G75*
G02*
X139475000Y-80020000I150000J0D01*
G01*
X141125000Y-80020000D01*
G75*
G02*
X141275000Y-80170000I0J-150000D01*
G01*
X141275000Y-80470000D01*
G75*
G02*
X141125000Y-80620000I-150000J0D01*
G01*
X139475000Y-80620000D01*
G75*
G02*
X139325000Y-80470000I0J150000D01*
G01*
G37*
G36*
G01*
X139325000Y-81740000D02*
X139325000Y-81440000D01*
G75*
G02*
X139475000Y-81290000I150000J0D01*
G01*
X141125000Y-81290000D01*
G75*
G02*
X141275000Y-81440000I0J-150000D01*
G01*
X141275000Y-81740000D01*
G75*
G02*
X141125000Y-81890000I-150000J0D01*
G01*
X139475000Y-81890000D01*
G75*
G02*
X139325000Y-81740000I0J150000D01*
G01*
G37*
G36*
G01*
X139325000Y-83010000D02*
X139325000Y-82710000D01*
G75*
G02*
X139475000Y-82560000I150000J0D01*
G01*
X141125000Y-82560000D01*
G75*
G02*
X141275000Y-82710000I0J-150000D01*
G01*
X141275000Y-83010000D01*
G75*
G02*
X141125000Y-83160000I-150000J0D01*
G01*
X139475000Y-83160000D01*
G75*
G02*
X139325000Y-83010000I0J150000D01*
G01*
G37*
G36*
G01*
X139325000Y-84280000D02*
X139325000Y-83980000D01*
G75*
G02*
X139475000Y-83830000I150000J0D01*
G01*
X141125000Y-83830000D01*
G75*
G02*
X141275000Y-83980000I0J-150000D01*
G01*
X141275000Y-84280000D01*
G75*
G02*
X141125000Y-84430000I-150000J0D01*
G01*
X139475000Y-84430000D01*
G75*
G02*
X139325000Y-84280000I0J150000D01*
G01*
G37*
%TD*%
%TO.C,R6*%
G36*
G01*
X130550002Y-75350000D02*
X129649998Y-75350000D01*
G75*
G02*
X129400000Y-75100002I0J249998D01*
G01*
X129400000Y-74574998D01*
G75*
G02*
X129649998Y-74325000I249998J0D01*
G01*
X130550002Y-74325000D01*
G75*
G02*
X130800000Y-74574998I0J-249998D01*
G01*
X130800000Y-75100002D01*
G75*
G02*
X130550002Y-75350000I-249998J0D01*
G01*
G37*
G36*
G01*
X130550002Y-77175000D02*
X129649998Y-77175000D01*
G75*
G02*
X129400000Y-76925002I0J249998D01*
G01*
X129400000Y-76399998D01*
G75*
G02*
X129649998Y-76150000I249998J0D01*
G01*
X130550002Y-76150000D01*
G75*
G02*
X130800000Y-76399998I0J-249998D01*
G01*
X130800000Y-76925002D01*
G75*
G02*
X130550002Y-77175000I-249998J0D01*
G01*
G37*
%TD*%
%TO.C,R7*%
G36*
G01*
X128025002Y-75325000D02*
X127124998Y-75325000D01*
G75*
G02*
X126875000Y-75075002I0J249998D01*
G01*
X126875000Y-74549998D01*
G75*
G02*
X127124998Y-74300000I249998J0D01*
G01*
X128025002Y-74300000D01*
G75*
G02*
X128275000Y-74549998I0J-249998D01*
G01*
X128275000Y-75075002D01*
G75*
G02*
X128025002Y-75325000I-249998J0D01*
G01*
G37*
G36*
G01*
X128025002Y-77150000D02*
X127124998Y-77150000D01*
G75*
G02*
X126875000Y-76900002I0J249998D01*
G01*
X126875000Y-76374998D01*
G75*
G02*
X127124998Y-76125000I249998J0D01*
G01*
X128025002Y-76125000D01*
G75*
G02*
X128275000Y-76374998I0J-249998D01*
G01*
X128275000Y-76900002D01*
G75*
G02*
X128025002Y-77150000I-249998J0D01*
G01*
G37*
%TD*%
%TO.C,C3*%
G36*
G01*
X150675000Y-73675000D02*
X150675000Y-74625000D01*
G75*
G02*
X150425000Y-74875000I-250000J0D01*
G01*
X149925000Y-74875000D01*
G75*
G02*
X149675000Y-74625000I0J250000D01*
G01*
X149675000Y-73675000D01*
G75*
G02*
X149925000Y-73425000I250000J0D01*
G01*
X150425000Y-73425000D01*
G75*
G02*
X150675000Y-73675000I0J-250000D01*
G01*
G37*
G36*
G01*
X152575000Y-73675000D02*
X152575000Y-74625000D01*
G75*
G02*
X152325000Y-74875000I-250000J0D01*
G01*
X151825000Y-74875000D01*
G75*
G02*
X151575000Y-74625000I0J250000D01*
G01*
X151575000Y-73675000D01*
G75*
G02*
X151825000Y-73425000I250000J0D01*
G01*
X152325000Y-73425000D01*
G75*
G02*
X152575000Y-73675000I0J-250000D01*
G01*
G37*
%TD*%
%TO.C,R9*%
G36*
G01*
X135050000Y-67250002D02*
X135050000Y-66349998D01*
G75*
G02*
X135299998Y-66100000I249998J0D01*
G01*
X135825002Y-66100000D01*
G75*
G02*
X136075000Y-66349998I0J-249998D01*
G01*
X136075000Y-67250002D01*
G75*
G02*
X135825002Y-67500000I-249998J0D01*
G01*
X135299998Y-67500000D01*
G75*
G02*
X135050000Y-67250002I0J249998D01*
G01*
G37*
G36*
G01*
X133225000Y-67250002D02*
X133225000Y-66349998D01*
G75*
G02*
X133474998Y-66100000I249998J0D01*
G01*
X134000002Y-66100000D01*
G75*
G02*
X134250000Y-66349998I0J-249998D01*
G01*
X134250000Y-67250002D01*
G75*
G02*
X134000002Y-67500000I-249998J0D01*
G01*
X133474998Y-67500000D01*
G75*
G02*
X133225000Y-67250002I0J249998D01*
G01*
G37*
%TD*%
M02*
