%TF.GenerationSoftware,KiCad,Pcbnew,5.1.10*%
%TF.CreationDate,2021-11-02T12:22:44+00:00*%
%TF.ProjectId,BST900-ESP32,42535439-3030-42d4-9553-5033322e6b69,0.3*%
%TF.SameCoordinates,Original*%
%TF.FileFunction,Legend,Top*%
%TF.FilePolarity,Positive*%
%FSLAX46Y46*%
G04 Gerber Fmt 4.6, Leading zero omitted, Abs format (unit mm)*
G04 Created by KiCad (PCBNEW 5.1.10) date 2021-11-02 12:22:44*
%MOMM*%
%LPD*%
G01*
G04 APERTURE LIST*
%ADD10C,0.150000*%
%ADD11C,0.200000*%
%ADD12C,0.220000*%
%ADD13C,0.300000*%
%ADD14C,0.120000*%
%ADD15C,0.127000*%
%ADD16C,0.015000*%
G04 APERTURE END LIST*
D10*
X169205952Y-96188095D02*
X169205952Y-94888095D01*
X169763095Y-95011904D02*
X169825000Y-94950000D01*
X169948809Y-94888095D01*
X170258333Y-94888095D01*
X170382142Y-94950000D01*
X170444047Y-95011904D01*
X170505952Y-95135714D01*
X170505952Y-95259523D01*
X170444047Y-95445238D01*
X169701190Y-96188095D01*
X170505952Y-96188095D01*
X171805952Y-96064285D02*
X171744047Y-96126190D01*
X171558333Y-96188095D01*
X171434523Y-96188095D01*
X171248809Y-96126190D01*
X171125000Y-96002380D01*
X171063095Y-95878571D01*
X171001190Y-95630952D01*
X171001190Y-95445238D01*
X171063095Y-95197619D01*
X171125000Y-95073809D01*
X171248809Y-94950000D01*
X171434523Y-94888095D01*
X171558333Y-94888095D01*
X171744047Y-94950000D01*
X171805952Y-95011904D01*
D11*
X121020238Y-74966666D02*
X121496428Y-74966666D01*
X120925000Y-75252380D02*
X121258333Y-74252380D01*
X121591666Y-75252380D01*
X121925000Y-75252380D02*
X121925000Y-74252380D01*
X122163095Y-74252380D01*
X122305952Y-74300000D01*
X122401190Y-74395238D01*
X122448809Y-74490476D01*
X122496428Y-74680952D01*
X122496428Y-74823809D01*
X122448809Y-75014285D01*
X122401190Y-75109523D01*
X122305952Y-75204761D01*
X122163095Y-75252380D01*
X121925000Y-75252380D01*
X122877380Y-75204761D02*
X123020238Y-75252380D01*
X123258333Y-75252380D01*
X123353571Y-75204761D01*
X123401190Y-75157142D01*
X123448809Y-75061904D01*
X123448809Y-74966666D01*
X123401190Y-74871428D01*
X123353571Y-74823809D01*
X123258333Y-74776190D01*
X123067857Y-74728571D01*
X122972619Y-74680952D01*
X122925000Y-74633333D01*
X122877380Y-74538095D01*
X122877380Y-74442857D01*
X122925000Y-74347619D01*
X122972619Y-74300000D01*
X123067857Y-74252380D01*
X123305952Y-74252380D01*
X123448809Y-74300000D01*
X124401190Y-75252380D02*
X123829761Y-75252380D01*
X124115476Y-75252380D02*
X124115476Y-74252380D01*
X124020238Y-74395238D01*
X123925000Y-74490476D01*
X123829761Y-74538095D01*
X125353571Y-75252380D02*
X124782142Y-75252380D01*
X125067857Y-75252380D02*
X125067857Y-74252380D01*
X124972619Y-74395238D01*
X124877380Y-74490476D01*
X124782142Y-74538095D01*
X126305952Y-75252380D02*
X125734523Y-75252380D01*
X126020238Y-75252380D02*
X126020238Y-74252380D01*
X125925000Y-74395238D01*
X125829761Y-74490476D01*
X125734523Y-74538095D01*
X127210714Y-74252380D02*
X126734523Y-74252380D01*
X126686904Y-74728571D01*
X126734523Y-74680952D01*
X126829761Y-74633333D01*
X127067857Y-74633333D01*
X127163095Y-74680952D01*
X127210714Y-74728571D01*
X127258333Y-74823809D01*
X127258333Y-75061904D01*
X127210714Y-75157142D01*
X127163095Y-75204761D01*
X127067857Y-75252380D01*
X126829761Y-75252380D01*
X126734523Y-75204761D01*
X126686904Y-75157142D01*
X128448809Y-75252380D02*
X128448809Y-74252380D01*
X128782142Y-74966666D01*
X129115476Y-74252380D01*
X129115476Y-75252380D01*
X129734523Y-75252380D02*
X129639285Y-75204761D01*
X129591666Y-75157142D01*
X129544047Y-75061904D01*
X129544047Y-74776190D01*
X129591666Y-74680952D01*
X129639285Y-74633333D01*
X129734523Y-74585714D01*
X129877380Y-74585714D01*
X129972619Y-74633333D01*
X130020238Y-74680952D01*
X130067857Y-74776190D01*
X130067857Y-75061904D01*
X130020238Y-75157142D01*
X129972619Y-75204761D01*
X129877380Y-75252380D01*
X129734523Y-75252380D01*
X130925000Y-75252380D02*
X130925000Y-74252380D01*
X130925000Y-75204761D02*
X130829761Y-75252380D01*
X130639285Y-75252380D01*
X130544047Y-75204761D01*
X130496428Y-75157142D01*
X130448809Y-75061904D01*
X130448809Y-74776190D01*
X130496428Y-74680952D01*
X130544047Y-74633333D01*
X130639285Y-74585714D01*
X130829761Y-74585714D01*
X130925000Y-74633333D01*
X131829761Y-74585714D02*
X131829761Y-75252380D01*
X131401190Y-74585714D02*
X131401190Y-75109523D01*
X131448809Y-75204761D01*
X131544047Y-75252380D01*
X131686904Y-75252380D01*
X131782142Y-75204761D01*
X131829761Y-75157142D01*
X132448809Y-75252380D02*
X132353571Y-75204761D01*
X132305952Y-75109523D01*
X132305952Y-74252380D01*
X133210714Y-75204761D02*
X133115476Y-75252380D01*
X132925000Y-75252380D01*
X132829761Y-75204761D01*
X132782142Y-75109523D01*
X132782142Y-74728571D01*
X132829761Y-74633333D01*
X132925000Y-74585714D01*
X133115476Y-74585714D01*
X133210714Y-74633333D01*
X133258333Y-74728571D01*
X133258333Y-74823809D01*
X132782142Y-74919047D01*
X134448809Y-74871428D02*
X135210714Y-74871428D01*
X136448809Y-75252380D02*
X136448809Y-74252380D01*
X136829761Y-74252380D01*
X136925000Y-74300000D01*
X136972619Y-74347619D01*
X137020238Y-74442857D01*
X137020238Y-74585714D01*
X136972619Y-74680952D01*
X136925000Y-74728571D01*
X136829761Y-74776190D01*
X136448809Y-74776190D01*
X137877380Y-74585714D02*
X137877380Y-75252380D01*
X137448809Y-74585714D02*
X137448809Y-75109523D01*
X137496428Y-75204761D01*
X137591666Y-75252380D01*
X137734523Y-75252380D01*
X137829761Y-75204761D01*
X137877380Y-75157142D01*
X138353571Y-75252380D02*
X138353571Y-74585714D01*
X138353571Y-74776190D02*
X138401190Y-74680952D01*
X138448809Y-74633333D01*
X138544047Y-74585714D01*
X138639285Y-74585714D01*
X138972619Y-74585714D02*
X138972619Y-75585714D01*
X138972619Y-74633333D02*
X139067857Y-74585714D01*
X139258333Y-74585714D01*
X139353571Y-74633333D01*
X139401190Y-74680952D01*
X139448809Y-74776190D01*
X139448809Y-75061904D01*
X139401190Y-75157142D01*
X139353571Y-75204761D01*
X139258333Y-75252380D01*
X139067857Y-75252380D01*
X138972619Y-75204761D01*
X140020238Y-75252380D02*
X139925000Y-75204761D01*
X139877380Y-75109523D01*
X139877380Y-74252380D01*
X140782142Y-75204761D02*
X140686904Y-75252380D01*
X140496428Y-75252380D01*
X140401190Y-75204761D01*
X140353571Y-75109523D01*
X140353571Y-74728571D01*
X140401190Y-74633333D01*
X140496428Y-74585714D01*
X140686904Y-74585714D01*
X140782142Y-74633333D01*
X140829761Y-74728571D01*
X140829761Y-74823809D01*
X140353571Y-74919047D01*
X120957142Y-66916666D02*
X121433333Y-66916666D01*
X120861904Y-67202380D02*
X121195238Y-66202380D01*
X121528571Y-67202380D01*
X121861904Y-67202380D02*
X121861904Y-66202380D01*
X122100000Y-66202380D01*
X122242857Y-66250000D01*
X122338095Y-66345238D01*
X122385714Y-66440476D01*
X122433333Y-66630952D01*
X122433333Y-66773809D01*
X122385714Y-66964285D01*
X122338095Y-67059523D01*
X122242857Y-67154761D01*
X122100000Y-67202380D01*
X121861904Y-67202380D01*
X122814285Y-67154761D02*
X122957142Y-67202380D01*
X123195238Y-67202380D01*
X123290476Y-67154761D01*
X123338095Y-67107142D01*
X123385714Y-67011904D01*
X123385714Y-66916666D01*
X123338095Y-66821428D01*
X123290476Y-66773809D01*
X123195238Y-66726190D01*
X123004761Y-66678571D01*
X122909523Y-66630952D01*
X122861904Y-66583333D01*
X122814285Y-66488095D01*
X122814285Y-66392857D01*
X122861904Y-66297619D01*
X122909523Y-66250000D01*
X123004761Y-66202380D01*
X123242857Y-66202380D01*
X123385714Y-66250000D01*
X124338095Y-67202380D02*
X123766666Y-67202380D01*
X124052380Y-67202380D02*
X124052380Y-66202380D01*
X123957142Y-66345238D01*
X123861904Y-66440476D01*
X123766666Y-66488095D01*
X125290476Y-67202380D02*
X124719047Y-67202380D01*
X125004761Y-67202380D02*
X125004761Y-66202380D01*
X124909523Y-66345238D01*
X124814285Y-66440476D01*
X124719047Y-66488095D01*
X126242857Y-67202380D02*
X125671428Y-67202380D01*
X125957142Y-67202380D02*
X125957142Y-66202380D01*
X125861904Y-66345238D01*
X125766666Y-66440476D01*
X125671428Y-66488095D01*
X127147619Y-66202380D02*
X126671428Y-66202380D01*
X126623809Y-66678571D01*
X126671428Y-66630952D01*
X126766666Y-66583333D01*
X127004761Y-66583333D01*
X127100000Y-66630952D01*
X127147619Y-66678571D01*
X127195238Y-66773809D01*
X127195238Y-67011904D01*
X127147619Y-67107142D01*
X127100000Y-67154761D01*
X127004761Y-67202380D01*
X126766666Y-67202380D01*
X126671428Y-67154761D01*
X126623809Y-67107142D01*
X128385714Y-67202380D02*
X128385714Y-66202380D01*
X128719047Y-66916666D01*
X129052380Y-66202380D01*
X129052380Y-67202380D01*
X129671428Y-67202380D02*
X129576190Y-67154761D01*
X129528571Y-67107142D01*
X129480952Y-67011904D01*
X129480952Y-66726190D01*
X129528571Y-66630952D01*
X129576190Y-66583333D01*
X129671428Y-66535714D01*
X129814285Y-66535714D01*
X129909523Y-66583333D01*
X129957142Y-66630952D01*
X130004761Y-66726190D01*
X130004761Y-67011904D01*
X129957142Y-67107142D01*
X129909523Y-67154761D01*
X129814285Y-67202380D01*
X129671428Y-67202380D01*
X130861904Y-67202380D02*
X130861904Y-66202380D01*
X130861904Y-67154761D02*
X130766666Y-67202380D01*
X130576190Y-67202380D01*
X130480952Y-67154761D01*
X130433333Y-67107142D01*
X130385714Y-67011904D01*
X130385714Y-66726190D01*
X130433333Y-66630952D01*
X130480952Y-66583333D01*
X130576190Y-66535714D01*
X130766666Y-66535714D01*
X130861904Y-66583333D01*
X131766666Y-66535714D02*
X131766666Y-67202380D01*
X131338095Y-66535714D02*
X131338095Y-67059523D01*
X131385714Y-67154761D01*
X131480952Y-67202380D01*
X131623809Y-67202380D01*
X131719047Y-67154761D01*
X131766666Y-67107142D01*
X132385714Y-67202380D02*
X132290476Y-67154761D01*
X132242857Y-67059523D01*
X132242857Y-66202380D01*
X133147619Y-67154761D02*
X133052380Y-67202380D01*
X132861904Y-67202380D01*
X132766666Y-67154761D01*
X132719047Y-67059523D01*
X132719047Y-66678571D01*
X132766666Y-66583333D01*
X132861904Y-66535714D01*
X133052380Y-66535714D01*
X133147619Y-66583333D01*
X133195238Y-66678571D01*
X133195238Y-66773809D01*
X132719047Y-66869047D01*
X134385714Y-66821428D02*
X135147619Y-66821428D01*
X136719047Y-66678571D02*
X136861904Y-66726190D01*
X136909523Y-66773809D01*
X136957142Y-66869047D01*
X136957142Y-67011904D01*
X136909523Y-67107142D01*
X136861904Y-67154761D01*
X136766666Y-67202380D01*
X136385714Y-67202380D01*
X136385714Y-66202380D01*
X136719047Y-66202380D01*
X136814285Y-66250000D01*
X136861904Y-66297619D01*
X136909523Y-66392857D01*
X136909523Y-66488095D01*
X136861904Y-66583333D01*
X136814285Y-66630952D01*
X136719047Y-66678571D01*
X136385714Y-66678571D01*
X137528571Y-67202380D02*
X137433333Y-67154761D01*
X137385714Y-67059523D01*
X137385714Y-66202380D01*
X138338095Y-66535714D02*
X138338095Y-67202380D01*
X137909523Y-66535714D02*
X137909523Y-67059523D01*
X137957142Y-67154761D01*
X138052380Y-67202380D01*
X138195238Y-67202380D01*
X138290476Y-67154761D01*
X138338095Y-67107142D01*
X139195238Y-67154761D02*
X139100000Y-67202380D01*
X138909523Y-67202380D01*
X138814285Y-67154761D01*
X138766666Y-67059523D01*
X138766666Y-66678571D01*
X138814285Y-66583333D01*
X138909523Y-66535714D01*
X139100000Y-66535714D01*
X139195238Y-66583333D01*
X139242857Y-66678571D01*
X139242857Y-66773809D01*
X138766666Y-66869047D01*
D12*
X164816666Y-78852380D02*
X165388095Y-78852380D01*
X165102380Y-79852380D02*
X165102380Y-78852380D01*
X165721428Y-79852380D02*
X165721428Y-78852380D01*
X166150000Y-79852380D02*
X166150000Y-79328571D01*
X166102380Y-79233333D01*
X166007142Y-79185714D01*
X165864285Y-79185714D01*
X165769047Y-79233333D01*
X165721428Y-79280952D01*
X167007142Y-79804761D02*
X166911904Y-79852380D01*
X166721428Y-79852380D01*
X166626190Y-79804761D01*
X166578571Y-79709523D01*
X166578571Y-79328571D01*
X166626190Y-79233333D01*
X166721428Y-79185714D01*
X166911904Y-79185714D01*
X167007142Y-79233333D01*
X167054761Y-79328571D01*
X167054761Y-79423809D01*
X166578571Y-79519047D01*
X167483333Y-79852380D02*
X167483333Y-79185714D01*
X167483333Y-79376190D02*
X167530952Y-79280952D01*
X167578571Y-79233333D01*
X167673809Y-79185714D01*
X167769047Y-79185714D01*
X168102380Y-79852380D02*
X168102380Y-79185714D01*
X168102380Y-79280952D02*
X168150000Y-79233333D01*
X168245238Y-79185714D01*
X168388095Y-79185714D01*
X168483333Y-79233333D01*
X168530952Y-79328571D01*
X168530952Y-79852380D01*
X168530952Y-79328571D02*
X168578571Y-79233333D01*
X168673809Y-79185714D01*
X168816666Y-79185714D01*
X168911904Y-79233333D01*
X168959523Y-79328571D01*
X168959523Y-79852380D01*
X169435714Y-79852380D02*
X169435714Y-79185714D01*
X169435714Y-78852380D02*
X169388095Y-78900000D01*
X169435714Y-78947619D01*
X169483333Y-78900000D01*
X169435714Y-78852380D01*
X169435714Y-78947619D01*
X169864285Y-79804761D02*
X169959523Y-79852380D01*
X170150000Y-79852380D01*
X170245238Y-79804761D01*
X170292857Y-79709523D01*
X170292857Y-79661904D01*
X170245238Y-79566666D01*
X170150000Y-79519047D01*
X170007142Y-79519047D01*
X169911904Y-79471428D01*
X169864285Y-79376190D01*
X169864285Y-79328571D01*
X169911904Y-79233333D01*
X170007142Y-79185714D01*
X170150000Y-79185714D01*
X170245238Y-79233333D01*
X170578571Y-79185714D02*
X170959523Y-79185714D01*
X170721428Y-78852380D02*
X170721428Y-79709523D01*
X170769047Y-79804761D01*
X170864285Y-79852380D01*
X170959523Y-79852380D01*
X171435714Y-79852380D02*
X171340476Y-79804761D01*
X171292857Y-79757142D01*
X171245238Y-79661904D01*
X171245238Y-79376190D01*
X171292857Y-79280952D01*
X171340476Y-79233333D01*
X171435714Y-79185714D01*
X171578571Y-79185714D01*
X171673809Y-79233333D01*
X171721428Y-79280952D01*
X171769047Y-79376190D01*
X171769047Y-79661904D01*
X171721428Y-79757142D01*
X171673809Y-79804761D01*
X171578571Y-79852380D01*
X171435714Y-79852380D01*
X172197619Y-79852380D02*
X172197619Y-79185714D01*
X172197619Y-79376190D02*
X172245238Y-79280952D01*
X172292857Y-79233333D01*
X172388095Y-79185714D01*
X172483333Y-79185714D01*
D13*
X113885714Y-95067857D02*
X113885714Y-93867857D01*
X114171428Y-93867857D01*
X114342857Y-93925000D01*
X114457142Y-94039285D01*
X114514285Y-94153571D01*
X114571428Y-94382142D01*
X114571428Y-94553571D01*
X114514285Y-94782142D01*
X114457142Y-94896428D01*
X114342857Y-95010714D01*
X114171428Y-95067857D01*
X113885714Y-95067857D01*
X115085714Y-95067857D02*
X115085714Y-94267857D01*
X115085714Y-93867857D02*
X115028571Y-93925000D01*
X115085714Y-93982142D01*
X115142857Y-93925000D01*
X115085714Y-93867857D01*
X115085714Y-93982142D01*
X115600000Y-95010714D02*
X115714285Y-95067857D01*
X115942857Y-95067857D01*
X116057142Y-95010714D01*
X116114285Y-94896428D01*
X116114285Y-94839285D01*
X116057142Y-94725000D01*
X115942857Y-94667857D01*
X115771428Y-94667857D01*
X115657142Y-94610714D01*
X115600000Y-94496428D01*
X115600000Y-94439285D01*
X115657142Y-94325000D01*
X115771428Y-94267857D01*
X115942857Y-94267857D01*
X116057142Y-94325000D01*
X117485714Y-93810714D02*
X116457142Y-95353571D01*
X117885714Y-94439285D02*
X118285714Y-94439285D01*
X118457142Y-95067857D02*
X117885714Y-95067857D01*
X117885714Y-93867857D01*
X118457142Y-93867857D01*
X118971428Y-94267857D02*
X118971428Y-95067857D01*
X118971428Y-94382142D02*
X119028571Y-94325000D01*
X119142857Y-94267857D01*
X119314285Y-94267857D01*
X119428571Y-94325000D01*
X119485714Y-94439285D01*
X119485714Y-95067857D01*
X120571428Y-95067857D02*
X120571428Y-94439285D01*
X120514285Y-94325000D01*
X120400000Y-94267857D01*
X120171428Y-94267857D01*
X120057142Y-94325000D01*
X120571428Y-95010714D02*
X120457142Y-95067857D01*
X120171428Y-95067857D01*
X120057142Y-95010714D01*
X120000000Y-94896428D01*
X120000000Y-94782142D01*
X120057142Y-94667857D01*
X120171428Y-94610714D01*
X120457142Y-94610714D01*
X120571428Y-94553571D01*
X121142857Y-95067857D02*
X121142857Y-93867857D01*
X121142857Y-94325000D02*
X121257142Y-94267857D01*
X121485714Y-94267857D01*
X121600000Y-94325000D01*
X121657142Y-94382142D01*
X121714285Y-94496428D01*
X121714285Y-94839285D01*
X121657142Y-94953571D01*
X121600000Y-95010714D01*
X121485714Y-95067857D01*
X121257142Y-95067857D01*
X121142857Y-95010714D01*
X122400000Y-95067857D02*
X122285714Y-95010714D01*
X122228571Y-94896428D01*
X122228571Y-93867857D01*
X123314285Y-95010714D02*
X123200000Y-95067857D01*
X122971428Y-95067857D01*
X122857142Y-95010714D01*
X122800000Y-94896428D01*
X122800000Y-94439285D01*
X122857142Y-94325000D01*
X122971428Y-94267857D01*
X123200000Y-94267857D01*
X123314285Y-94325000D01*
X123371428Y-94439285D01*
X123371428Y-94553571D01*
X122800000Y-94667857D01*
X142333333Y-95600000D02*
X142266666Y-95666666D01*
X142066666Y-95733333D01*
X141933333Y-95733333D01*
X141733333Y-95666666D01*
X141600000Y-95533333D01*
X141533333Y-95400000D01*
X141466666Y-95133333D01*
X141466666Y-94933333D01*
X141533333Y-94666666D01*
X141600000Y-94533333D01*
X141733333Y-94400000D01*
X141933333Y-94333333D01*
X142066666Y-94333333D01*
X142266666Y-94400000D01*
X142333333Y-94466666D01*
X142733333Y-94333333D02*
X143200000Y-95733333D01*
X143666666Y-94333333D01*
X150410714Y-93742857D02*
X150010714Y-93171428D01*
X149725000Y-93742857D02*
X149725000Y-92542857D01*
X150182142Y-92542857D01*
X150296428Y-92600000D01*
X150353571Y-92657142D01*
X150410714Y-92771428D01*
X150410714Y-92942857D01*
X150353571Y-93057142D01*
X150296428Y-93114285D01*
X150182142Y-93171428D01*
X149725000Y-93171428D01*
X150867857Y-93685714D02*
X151039285Y-93742857D01*
X151325000Y-93742857D01*
X151439285Y-93685714D01*
X151496428Y-93628571D01*
X151553571Y-93514285D01*
X151553571Y-93400000D01*
X151496428Y-93285714D01*
X151439285Y-93228571D01*
X151325000Y-93171428D01*
X151096428Y-93114285D01*
X150982142Y-93057142D01*
X150925000Y-93000000D01*
X150867857Y-92885714D01*
X150867857Y-92771428D01*
X150925000Y-92657142D01*
X150982142Y-92600000D01*
X151096428Y-92542857D01*
X151382142Y-92542857D01*
X151553571Y-92600000D01*
X152582142Y-92942857D02*
X152582142Y-93742857D01*
X152296428Y-92485714D02*
X152010714Y-93342857D01*
X152753571Y-93342857D01*
X153382142Y-93057142D02*
X153267857Y-93000000D01*
X153210714Y-92942857D01*
X153153571Y-92828571D01*
X153153571Y-92771428D01*
X153210714Y-92657142D01*
X153267857Y-92600000D01*
X153382142Y-92542857D01*
X153610714Y-92542857D01*
X153725000Y-92600000D01*
X153782142Y-92657142D01*
X153839285Y-92771428D01*
X153839285Y-92828571D01*
X153782142Y-92942857D01*
X153725000Y-93000000D01*
X153610714Y-93057142D01*
X153382142Y-93057142D01*
X153267857Y-93114285D01*
X153210714Y-93171428D01*
X153153571Y-93285714D01*
X153153571Y-93514285D01*
X153210714Y-93628571D01*
X153267857Y-93685714D01*
X153382142Y-93742857D01*
X153610714Y-93742857D01*
X153725000Y-93685714D01*
X153782142Y-93628571D01*
X153839285Y-93514285D01*
X153839285Y-93285714D01*
X153782142Y-93171428D01*
X153725000Y-93114285D01*
X153610714Y-93057142D01*
X154925000Y-92542857D02*
X154353571Y-92542857D01*
X154296428Y-93114285D01*
X154353571Y-93057142D01*
X154467857Y-93000000D01*
X154753571Y-93000000D01*
X154867857Y-93057142D01*
X154925000Y-93114285D01*
X154982142Y-93228571D01*
X154982142Y-93514285D01*
X154925000Y-93628571D01*
X154867857Y-93685714D01*
X154753571Y-93742857D01*
X154467857Y-93742857D01*
X154353571Y-93685714D01*
X154296428Y-93628571D01*
D12*
X150670238Y-72577380D02*
X150670238Y-71577380D01*
X151051190Y-71577380D01*
X151146428Y-71625000D01*
X151194047Y-71672619D01*
X151241666Y-71767857D01*
X151241666Y-71910714D01*
X151194047Y-72005952D01*
X151146428Y-72053571D01*
X151051190Y-72101190D01*
X150670238Y-72101190D01*
X151813095Y-72577380D02*
X151717857Y-72529761D01*
X151670238Y-72482142D01*
X151622619Y-72386904D01*
X151622619Y-72101190D01*
X151670238Y-72005952D01*
X151717857Y-71958333D01*
X151813095Y-71910714D01*
X151955952Y-71910714D01*
X152051190Y-71958333D01*
X152098809Y-72005952D01*
X152146428Y-72101190D01*
X152146428Y-72386904D01*
X152098809Y-72482142D01*
X152051190Y-72529761D01*
X151955952Y-72577380D01*
X151813095Y-72577380D01*
X152479761Y-71910714D02*
X152670238Y-72577380D01*
X152860714Y-72101190D01*
X153051190Y-72577380D01*
X153241666Y-71910714D01*
X154003571Y-72529761D02*
X153908333Y-72577380D01*
X153717857Y-72577380D01*
X153622619Y-72529761D01*
X153575000Y-72434523D01*
X153575000Y-72053571D01*
X153622619Y-71958333D01*
X153717857Y-71910714D01*
X153908333Y-71910714D01*
X154003571Y-71958333D01*
X154051190Y-72053571D01*
X154051190Y-72148809D01*
X153575000Y-72244047D01*
X154479761Y-72577380D02*
X154479761Y-71910714D01*
X154479761Y-72101190D02*
X154527380Y-72005952D01*
X154575000Y-71958333D01*
X154670238Y-71910714D01*
X154765476Y-71910714D01*
X155813095Y-72529761D02*
X155955952Y-72577380D01*
X156194047Y-72577380D01*
X156289285Y-72529761D01*
X156336904Y-72482142D01*
X156384523Y-72386904D01*
X156384523Y-72291666D01*
X156336904Y-72196428D01*
X156289285Y-72148809D01*
X156194047Y-72101190D01*
X156003571Y-72053571D01*
X155908333Y-72005952D01*
X155860714Y-71958333D01*
X155813095Y-71863095D01*
X155813095Y-71767857D01*
X155860714Y-71672619D01*
X155908333Y-71625000D01*
X156003571Y-71577380D01*
X156241666Y-71577380D01*
X156384523Y-71625000D01*
X156955952Y-72577380D02*
X156860714Y-72529761D01*
X156813095Y-72482142D01*
X156765476Y-72386904D01*
X156765476Y-72101190D01*
X156813095Y-72005952D01*
X156860714Y-71958333D01*
X156955952Y-71910714D01*
X157098809Y-71910714D01*
X157194047Y-71958333D01*
X157241666Y-72005952D01*
X157289285Y-72101190D01*
X157289285Y-72386904D01*
X157241666Y-72482142D01*
X157194047Y-72529761D01*
X157098809Y-72577380D01*
X156955952Y-72577380D01*
X158146428Y-71910714D02*
X158146428Y-72577380D01*
X157717857Y-71910714D02*
X157717857Y-72434523D01*
X157765476Y-72529761D01*
X157860714Y-72577380D01*
X158003571Y-72577380D01*
X158098809Y-72529761D01*
X158146428Y-72482142D01*
X158622619Y-72577380D02*
X158622619Y-71910714D01*
X158622619Y-72101190D02*
X158670238Y-72005952D01*
X158717857Y-71958333D01*
X158813095Y-71910714D01*
X158908333Y-71910714D01*
X159670238Y-72529761D02*
X159575000Y-72577380D01*
X159384523Y-72577380D01*
X159289285Y-72529761D01*
X159241666Y-72482142D01*
X159194047Y-72386904D01*
X159194047Y-72101190D01*
X159241666Y-72005952D01*
X159289285Y-71958333D01*
X159384523Y-71910714D01*
X159575000Y-71910714D01*
X159670238Y-71958333D01*
X160479761Y-72529761D02*
X160384523Y-72577380D01*
X160194047Y-72577380D01*
X160098809Y-72529761D01*
X160051190Y-72434523D01*
X160051190Y-72053571D01*
X160098809Y-71958333D01*
X160194047Y-71910714D01*
X160384523Y-71910714D01*
X160479761Y-71958333D01*
X160527380Y-72053571D01*
X160527380Y-72148809D01*
X160051190Y-72244047D01*
D14*
%TO.C,D1*%
X141500000Y-92960000D02*
X144360000Y-92960000D01*
X144360000Y-92960000D02*
X144360000Y-91040000D01*
X144360000Y-91040000D02*
X141500000Y-91040000D01*
%TO.C,J1*%
X114170000Y-86560000D02*
X116830000Y-86560000D01*
X114170000Y-68720000D02*
X114170000Y-86560000D01*
X116830000Y-68720000D02*
X116830000Y-86560000D01*
X114170000Y-68720000D02*
X116830000Y-68720000D01*
X114170000Y-67450000D02*
X114170000Y-66120000D01*
X114170000Y-66120000D02*
X115500000Y-66120000D01*
%TO.C,J4*%
X146780000Y-70480000D02*
X146780000Y-67820000D01*
X123860000Y-70480000D02*
X146780000Y-70480000D01*
X123860000Y-67820000D02*
X146780000Y-67820000D01*
X123860000Y-70480000D02*
X123860000Y-67820000D01*
X122590000Y-70480000D02*
X121260000Y-70480000D01*
X121260000Y-70480000D02*
X121260000Y-69150000D01*
%TO.C,J6*%
X162170000Y-86560000D02*
X164830000Y-86560000D01*
X162170000Y-68720000D02*
X162170000Y-86560000D01*
X164830000Y-68720000D02*
X164830000Y-86560000D01*
X162170000Y-68720000D02*
X164830000Y-68720000D01*
X162170000Y-67450000D02*
X162170000Y-66120000D01*
X162170000Y-66120000D02*
X163500000Y-66120000D01*
%TO.C,J5*%
X146740000Y-73380000D02*
X146740000Y-70720000D01*
X123820000Y-73380000D02*
X146740000Y-73380000D01*
X123820000Y-70720000D02*
X146740000Y-70720000D01*
X123820000Y-73380000D02*
X123820000Y-70720000D01*
X122550000Y-73380000D02*
X121220000Y-73380000D01*
X121220000Y-73380000D02*
X121220000Y-72050000D01*
D15*
%TO.C,U2*%
X167000000Y-71170000D02*
X167000000Y-81330000D01*
X167000000Y-81330000D02*
X164460000Y-81330000D01*
X164460000Y-81330000D02*
X164460000Y-87680000D01*
X164460000Y-87680000D02*
X163190000Y-88950000D01*
X163190000Y-88950000D02*
X113660000Y-88950000D01*
X113660000Y-88950000D02*
X113660000Y-63550000D01*
X113660000Y-63550000D02*
X163190000Y-63550000D01*
X163190000Y-63550000D02*
X164460000Y-64820000D01*
X164460000Y-64820000D02*
X164460000Y-71170000D01*
X164460000Y-71170000D02*
X167000000Y-71170000D01*
X162301000Y-84378000D02*
G75*
G03*
X162301000Y-84378000I-1270000J0D01*
G01*
X162301000Y-68122000D02*
G75*
G03*
X162301000Y-68122000I-1270000J0D01*
G01*
X121534000Y-84759000D02*
X121534000Y-67614000D01*
X121534000Y-67614000D02*
X148712000Y-67614000D01*
X148712000Y-67614000D02*
X148712000Y-84759000D01*
X148712000Y-84759000D02*
X121534000Y-84759000D01*
D14*
%TO.C,C2*%
X165890000Y-70285000D02*
X168240000Y-70285000D01*
X172710000Y-70285000D02*
X170360000Y-70285000D01*
X172710000Y-64529437D02*
X172710000Y-70285000D01*
X165890000Y-64529437D02*
X165890000Y-70285000D01*
X166954437Y-63465000D02*
X168240000Y-63465000D01*
X171645563Y-63465000D02*
X170360000Y-63465000D01*
X171645563Y-63465000D02*
X172710000Y-64529437D01*
X166954437Y-63465000D02*
X165890000Y-64529437D01*
X171147500Y-62437500D02*
X171147500Y-63225000D01*
X171541250Y-62831250D02*
X170753750Y-62831250D01*
%TO.C,JP2*%
X157175000Y-73125000D02*
X156875000Y-72825000D01*
X157475000Y-72825000D02*
X156875000Y-72825000D01*
X157175000Y-73125000D02*
X157475000Y-72825000D01*
X158025000Y-74025000D02*
X158025000Y-74625000D01*
X154575000Y-73325000D02*
X157375000Y-73325000D01*
X153925000Y-74625000D02*
X153925000Y-74025000D01*
X157375000Y-75325000D02*
X154575000Y-75325000D01*
X158025000Y-74625000D02*
G75*
G02*
X157325000Y-75325000I-700000J0D01*
G01*
X157325000Y-73325000D02*
G75*
G02*
X158025000Y-74025000I0J-700000D01*
G01*
X153925000Y-74025000D02*
G75*
G02*
X154625000Y-73325000I700000J0D01*
G01*
X154625000Y-75325000D02*
G75*
G02*
X153925000Y-74625000I0J700000D01*
G01*
%TO.C,J2*%
X170790000Y-72795000D02*
X170790000Y-77995000D01*
X170790000Y-77995000D02*
X173450000Y-77995000D01*
X173450000Y-77995000D02*
X173450000Y-72795000D01*
X173450000Y-72795000D02*
X170790000Y-72795000D01*
X173450000Y-73745000D02*
X179450000Y-73745000D01*
X179450000Y-73745000D02*
X179450000Y-74505000D01*
X179450000Y-74505000D02*
X173450000Y-74505000D01*
X173450000Y-73805000D02*
X179450000Y-73805000D01*
X173450000Y-73925000D02*
X179450000Y-73925000D01*
X173450000Y-74045000D02*
X179450000Y-74045000D01*
X173450000Y-74165000D02*
X179450000Y-74165000D01*
X173450000Y-74285000D02*
X179450000Y-74285000D01*
X173450000Y-74405000D02*
X179450000Y-74405000D01*
X170460000Y-73745000D02*
X170790000Y-73745000D01*
X170460000Y-74505000D02*
X170790000Y-74505000D01*
X170790000Y-75395000D02*
X173450000Y-75395000D01*
X173450000Y-76285000D02*
X179450000Y-76285000D01*
X179450000Y-76285000D02*
X179450000Y-77045000D01*
X179450000Y-77045000D02*
X173450000Y-77045000D01*
X170392929Y-76285000D02*
X170790000Y-76285000D01*
X170392929Y-77045000D02*
X170790000Y-77045000D01*
X168080000Y-74125000D02*
X168080000Y-72855000D01*
X168080000Y-72855000D02*
X169350000Y-72855000D01*
%TO.C,J3*%
X157465000Y-92365000D02*
X157185000Y-92365000D01*
X157185000Y-92365000D02*
X157185000Y-90765000D01*
X157185000Y-90765000D02*
X156265000Y-90765000D01*
X156265000Y-90765000D02*
X156265000Y-98585000D01*
X156265000Y-98585000D02*
X166385000Y-98585000D01*
X166385000Y-98585000D02*
X166385000Y-90765000D01*
X166385000Y-90765000D02*
X165465000Y-90765000D01*
X165465000Y-90765000D02*
X165465000Y-92365000D01*
X165465000Y-92365000D02*
X165185000Y-92365000D01*
X158825000Y-98585000D02*
X158825000Y-94225000D01*
X158825000Y-94225000D02*
X163825000Y-94225000D01*
X163825000Y-94225000D02*
X163825000Y-98585000D01*
X156265000Y-92365000D02*
X157185000Y-92365000D01*
X166385000Y-92365000D02*
X165465000Y-92365000D01*
X157025000Y-94725000D02*
X157025000Y-96325000D01*
X157025000Y-96325000D02*
X158025000Y-96325000D01*
X158025000Y-96325000D02*
X158025000Y-94725000D01*
X158025000Y-94725000D02*
X157025000Y-94725000D01*
X165625000Y-94725000D02*
X165625000Y-96325000D01*
X165625000Y-96325000D02*
X164625000Y-96325000D01*
X164625000Y-96325000D02*
X164625000Y-94725000D01*
X164625000Y-94725000D02*
X165625000Y-94725000D01*
X158025000Y-96325000D02*
X158025000Y-98585000D01*
X157525000Y-96325000D02*
X157525000Y-98585000D01*
X157465000Y-92365000D02*
X157465000Y-91150000D01*
%TO.C,SW1*%
X132680000Y-90120000D02*
X132680000Y-90150000D01*
X132680000Y-96580000D02*
X132680000Y-96550000D01*
X126220000Y-96580000D02*
X126220000Y-96550000D01*
X126220000Y-90150000D02*
X126220000Y-90120000D01*
X132680000Y-92050000D02*
X132680000Y-94650000D01*
X126220000Y-90120000D02*
X132680000Y-90120000D01*
X126220000Y-92050000D02*
X126220000Y-94650000D01*
X126220000Y-96580000D02*
X132680000Y-96580000D01*
%TO.C,J7*%
X168995000Y-83620000D02*
X170325000Y-83620000D01*
X168995000Y-84950000D02*
X168995000Y-83620000D01*
X168995000Y-86220000D02*
X171655000Y-86220000D01*
X171655000Y-86220000D02*
X171655000Y-93900000D01*
X168995000Y-86220000D02*
X168995000Y-93900000D01*
X168995000Y-93900000D02*
X171655000Y-93900000D01*
%TO.C,D1*%
D10*
X144511904Y-90677380D02*
X144511904Y-89677380D01*
X144750000Y-89677380D01*
X144892857Y-89725000D01*
X144988095Y-89820238D01*
X145035714Y-89915476D01*
X145083333Y-90105952D01*
X145083333Y-90248809D01*
X145035714Y-90439285D01*
X144988095Y-90534523D01*
X144892857Y-90629761D01*
X144750000Y-90677380D01*
X144511904Y-90677380D01*
X146035714Y-90677380D02*
X145464285Y-90677380D01*
X145750000Y-90677380D02*
X145750000Y-89677380D01*
X145654761Y-89820238D01*
X145559523Y-89915476D01*
X145464285Y-89963095D01*
%TO.C,J1*%
X115166666Y-64572380D02*
X115166666Y-65286666D01*
X115119047Y-65429523D01*
X115023809Y-65524761D01*
X114880952Y-65572380D01*
X114785714Y-65572380D01*
X116166666Y-65572380D02*
X115595238Y-65572380D01*
X115880952Y-65572380D02*
X115880952Y-64572380D01*
X115785714Y-64715238D01*
X115690476Y-64810476D01*
X115595238Y-64858095D01*
%TO.C,J4*%
X119712380Y-69483333D02*
X120426666Y-69483333D01*
X120569523Y-69530952D01*
X120664761Y-69626190D01*
X120712380Y-69769047D01*
X120712380Y-69864285D01*
X120045714Y-68578571D02*
X120712380Y-68578571D01*
X119664761Y-68816666D02*
X120379047Y-69054761D01*
X120379047Y-68435714D01*
%TO.C,J6*%
X163166666Y-64572380D02*
X163166666Y-65286666D01*
X163119047Y-65429523D01*
X163023809Y-65524761D01*
X162880952Y-65572380D01*
X162785714Y-65572380D01*
X164071428Y-64572380D02*
X163880952Y-64572380D01*
X163785714Y-64620000D01*
X163738095Y-64667619D01*
X163642857Y-64810476D01*
X163595238Y-65000952D01*
X163595238Y-65381904D01*
X163642857Y-65477142D01*
X163690476Y-65524761D01*
X163785714Y-65572380D01*
X163976190Y-65572380D01*
X164071428Y-65524761D01*
X164119047Y-65477142D01*
X164166666Y-65381904D01*
X164166666Y-65143809D01*
X164119047Y-65048571D01*
X164071428Y-65000952D01*
X163976190Y-64953333D01*
X163785714Y-64953333D01*
X163690476Y-65000952D01*
X163642857Y-65048571D01*
X163595238Y-65143809D01*
%TO.C,J5*%
X119672380Y-72383333D02*
X120386666Y-72383333D01*
X120529523Y-72430952D01*
X120624761Y-72526190D01*
X120672380Y-72669047D01*
X120672380Y-72764285D01*
X119672380Y-71430952D02*
X119672380Y-71907142D01*
X120148571Y-71954761D01*
X120100952Y-71907142D01*
X120053333Y-71811904D01*
X120053333Y-71573809D01*
X120100952Y-71478571D01*
X120148571Y-71430952D01*
X120243809Y-71383333D01*
X120481904Y-71383333D01*
X120577142Y-71430952D01*
X120624761Y-71478571D01*
X120672380Y-71573809D01*
X120672380Y-71811904D01*
X120624761Y-71907142D01*
X120577142Y-71954761D01*
%TO.C,U2*%
D16*
X111633123Y-84865619D02*
X112151219Y-84865619D01*
X112212171Y-84835142D01*
X112242647Y-84804666D01*
X112273123Y-84743714D01*
X112273123Y-84621809D01*
X112242647Y-84560857D01*
X112212171Y-84530380D01*
X112151219Y-84499904D01*
X111633123Y-84499904D01*
X111694076Y-84225619D02*
X111663600Y-84195142D01*
X111633123Y-84134190D01*
X111633123Y-83981809D01*
X111663600Y-83920857D01*
X111694076Y-83890380D01*
X111755028Y-83859904D01*
X111815980Y-83859904D01*
X111907409Y-83890380D01*
X112273123Y-84256095D01*
X112273123Y-83859904D01*
X116589142Y-81575428D02*
X116589142Y-79861142D01*
X119589142Y-80718285D02*
X116589142Y-80718285D01*
X116589142Y-79289714D02*
X116589142Y-77575428D01*
X119589142Y-78432571D02*
X116589142Y-78432571D01*
X116732000Y-75004000D02*
X116589142Y-75289714D01*
X116589142Y-75718285D01*
X116732000Y-76146857D01*
X117017714Y-76432571D01*
X117303428Y-76575428D01*
X117874857Y-76718285D01*
X118303428Y-76718285D01*
X118874857Y-76575428D01*
X119160571Y-76432571D01*
X119446285Y-76146857D01*
X119589142Y-75718285D01*
X119589142Y-75432571D01*
X119446285Y-75004000D01*
X119303428Y-74861142D01*
X118303428Y-74861142D01*
X118303428Y-75432571D01*
X116589142Y-73004000D02*
X116589142Y-72432571D01*
X116732000Y-72146857D01*
X117017714Y-71861142D01*
X117589142Y-71718285D01*
X118589142Y-71718285D01*
X119160571Y-71861142D01*
X119446285Y-72146857D01*
X119589142Y-72432571D01*
X119589142Y-73004000D01*
X119446285Y-73289714D01*
X119160571Y-73575428D01*
X118589142Y-73718285D01*
X117589142Y-73718285D01*
X117017714Y-73575428D01*
X116732000Y-73289714D01*
X116589142Y-73004000D01*
%TO.C,C2*%
D10*
X174007142Y-67041666D02*
X174054761Y-67089285D01*
X174102380Y-67232142D01*
X174102380Y-67327380D01*
X174054761Y-67470238D01*
X173959523Y-67565476D01*
X173864285Y-67613095D01*
X173673809Y-67660714D01*
X173530952Y-67660714D01*
X173340476Y-67613095D01*
X173245238Y-67565476D01*
X173150000Y-67470238D01*
X173102380Y-67327380D01*
X173102380Y-67232142D01*
X173150000Y-67089285D01*
X173197619Y-67041666D01*
X173197619Y-66660714D02*
X173150000Y-66613095D01*
X173102380Y-66517857D01*
X173102380Y-66279761D01*
X173150000Y-66184523D01*
X173197619Y-66136904D01*
X173292857Y-66089285D01*
X173388095Y-66089285D01*
X173530952Y-66136904D01*
X174102380Y-66708333D01*
X174102380Y-66089285D01*
%TO.C,JP2*%
X155141666Y-75577380D02*
X155141666Y-76291666D01*
X155094047Y-76434523D01*
X154998809Y-76529761D01*
X154855952Y-76577380D01*
X154760714Y-76577380D01*
X155617857Y-76577380D02*
X155617857Y-75577380D01*
X155998809Y-75577380D01*
X156094047Y-75625000D01*
X156141666Y-75672619D01*
X156189285Y-75767857D01*
X156189285Y-75910714D01*
X156141666Y-76005952D01*
X156094047Y-76053571D01*
X155998809Y-76101190D01*
X155617857Y-76101190D01*
X156570238Y-75672619D02*
X156617857Y-75625000D01*
X156713095Y-75577380D01*
X156951190Y-75577380D01*
X157046428Y-75625000D01*
X157094047Y-75672619D01*
X157141666Y-75767857D01*
X157141666Y-75863095D01*
X157094047Y-76005952D01*
X156522619Y-76577380D01*
X157141666Y-76577380D01*
%TO.C,J2*%
X173401666Y-71307380D02*
X173401666Y-72021666D01*
X173354047Y-72164523D01*
X173258809Y-72259761D01*
X173115952Y-72307380D01*
X173020714Y-72307380D01*
X173830238Y-71402619D02*
X173877857Y-71355000D01*
X173973095Y-71307380D01*
X174211190Y-71307380D01*
X174306428Y-71355000D01*
X174354047Y-71402619D01*
X174401666Y-71497857D01*
X174401666Y-71593095D01*
X174354047Y-71735952D01*
X173782619Y-72307380D01*
X174401666Y-72307380D01*
%TO.C,J3*%
X160991666Y-89127380D02*
X160991666Y-89841666D01*
X160944047Y-89984523D01*
X160848809Y-90079761D01*
X160705952Y-90127380D01*
X160610714Y-90127380D01*
X161372619Y-89127380D02*
X161991666Y-89127380D01*
X161658333Y-89508333D01*
X161801190Y-89508333D01*
X161896428Y-89555952D01*
X161944047Y-89603571D01*
X161991666Y-89698809D01*
X161991666Y-89936904D01*
X161944047Y-90032142D01*
X161896428Y-90079761D01*
X161801190Y-90127380D01*
X161515476Y-90127380D01*
X161420238Y-90079761D01*
X161372619Y-90032142D01*
%TO.C,SW1*%
X128116666Y-89704761D02*
X128259523Y-89752380D01*
X128497619Y-89752380D01*
X128592857Y-89704761D01*
X128640476Y-89657142D01*
X128688095Y-89561904D01*
X128688095Y-89466666D01*
X128640476Y-89371428D01*
X128592857Y-89323809D01*
X128497619Y-89276190D01*
X128307142Y-89228571D01*
X128211904Y-89180952D01*
X128164285Y-89133333D01*
X128116666Y-89038095D01*
X128116666Y-88942857D01*
X128164285Y-88847619D01*
X128211904Y-88800000D01*
X128307142Y-88752380D01*
X128545238Y-88752380D01*
X128688095Y-88800000D01*
X129021428Y-88752380D02*
X129259523Y-89752380D01*
X129450000Y-89038095D01*
X129640476Y-89752380D01*
X129878571Y-88752380D01*
X130783333Y-89752380D02*
X130211904Y-89752380D01*
X130497619Y-89752380D02*
X130497619Y-88752380D01*
X130402380Y-88895238D01*
X130307142Y-88990476D01*
X130211904Y-89038095D01*
%TO.C,J7*%
X169991666Y-82072380D02*
X169991666Y-82786666D01*
X169944047Y-82929523D01*
X169848809Y-83024761D01*
X169705952Y-83072380D01*
X169610714Y-83072380D01*
X170372619Y-82072380D02*
X171039285Y-82072380D01*
X170610714Y-83072380D01*
%TD*%
M02*
