M48
; DRILL file {KiCad 5.1.10} date Tue Nov  2 12:22:29 2021
; FORMAT={-:-/ absolute / inch / decimal}
; #@! TF.CreationDate,2021-11-02T12:22:29+00:00
; #@! TF.GenerationSoftware,Kicad,Pcbnew,5.1.10
; #@! TF.FileFunction,Plated,1,2,PTH
FMAT,2
INCH
T1C0.0157
T2C0.0295
T3C0.0394
%
G90
G05
T1
X4.564Y-2.564
X4.5896Y-3.6398
X4.6289Y-2.8179
X4.6299Y-3.498
X4.7441Y-2.9213
X4.749Y-2.7283
X4.7667Y-3.5531
X4.814Y-3.1339
X4.8425Y-3.3524
X4.8976Y-2.9469
X5.0079Y-3.6772
X5.0148Y-3.1703
X5.0197Y-3.2756
X5.0256Y-3.0748
X5.0827Y-2.4724
X5.1043Y-3.0846
X5.1329Y-3.5866
X5.1447Y-3.6644
X5.2175Y-3.1083
X5.2608Y-3.1506
X5.2677Y-3.2766
X5.3258Y-3.1969
X5.3701Y-3.31
X5.3878Y-2.622
X5.3878Y-2.622
X5.4124Y-2.9026
X5.4252Y-3.3081
X5.4449Y-3.6417
X5.5049Y-2.4843
X5.5167Y-3.1122
X5.6742Y-3.1161
X5.8317Y-3.3366
X5.8543Y-3.1112
X5.9065Y-2.6998
X5.9232Y-3.3622
X5.9252Y-2.8553
X5.9528Y-3.5935
X6.0157Y-2.8425
X6.2067Y-2.628
X6.2126Y-3.1496
X6.2795Y-3.4528
T2
X6.2333Y-3.6309
X6.312Y-3.6309
X6.3907Y-3.6309
X6.4695Y-3.6309
T3
X4.5472Y-2.6555
X4.5472Y-2.7555
X4.5472Y-2.8555
X4.5472Y-2.9555
X4.5472Y-3.0555
X4.5472Y-3.1555
X4.5472Y-3.2555
X4.5472Y-3.3555
X4.7748Y-2.552
X4.7748Y-3.452
X4.8248Y-2.8366
X4.8264Y-2.7224
X4.8748Y-2.552
X4.8748Y-3.452
X4.9248Y-2.8366
X4.9264Y-2.7224
X4.9748Y-2.552
X4.9748Y-3.452
X5.0248Y-2.8366
X5.0264Y-2.7224
X5.0748Y-2.552
X5.0748Y-3.452
X5.1248Y-2.8366
X5.1264Y-2.7224
X5.1748Y-2.552
X5.1748Y-3.452
X5.2248Y-2.8366
X5.2264Y-2.7224
X5.2748Y-2.552
X5.2748Y-3.452
X5.3248Y-2.8366
X5.3264Y-2.7224
X5.3748Y-2.552
X5.3748Y-3.452
X5.4248Y-2.8366
X5.4264Y-2.7224
X5.4748Y-2.552
X5.4748Y-3.452
X5.5248Y-2.8366
X5.5264Y-2.7224
X5.5748Y-2.552
X5.5748Y-3.452
X5.6248Y-2.8366
X5.6264Y-2.7224
X5.6748Y-2.552
X5.6748Y-3.452
X5.7248Y-2.8366
X5.7264Y-2.7224
X5.7748Y-2.552
X5.7748Y-3.452
X5.8748Y-2.552
X5.8748Y-3.452
X6.437Y-2.6555
X6.437Y-2.7555
X6.437Y-2.8555
X6.437Y-2.9555
X6.437Y-3.0555
X6.437Y-3.1555
X6.437Y-3.2555
X6.437Y-3.3555
X6.6673Y-2.9183
X6.6673Y-3.0183
X6.7057Y-3.3445
X6.7057Y-3.4445
X6.7057Y-3.5445
X6.7057Y-3.6445
T0
M30
