%TF.GenerationSoftware,KiCad,Pcbnew,5.1.10*%
%TF.CreationDate,2021-11-02T12:22:44+00:00*%
%TF.ProjectId,BST900-ESP32,42535439-3030-42d4-9553-5033322e6b69,0.3*%
%TF.SameCoordinates,Original*%
%TF.FileFunction,Soldermask,Bot*%
%TF.FilePolarity,Negative*%
%FSLAX46Y46*%
G04 Gerber Fmt 4.6, Leading zero omitted, Abs format (unit mm)*
G04 Created by KiCad (PCBNEW 5.1.10) date 2021-11-02 12:22:44*
%MOMM*%
%LPD*%
G01*
G04 APERTURE LIST*
%ADD10O,1.700000X1.700000*%
%ADD11R,1.700000X1.700000*%
%ADD12C,1.700000*%
%ADD13C,0.100000*%
%ADD14O,1.200000X1.750000*%
G04 APERTURE END LIST*
%TO.C,C4*%
G36*
G01*
X132350000Y-76350000D02*
X133300000Y-76350000D01*
G75*
G02*
X133550000Y-76600000I0J-250000D01*
G01*
X133550000Y-77100000D01*
G75*
G02*
X133300000Y-77350000I-250000J0D01*
G01*
X132350000Y-77350000D01*
G75*
G02*
X132100000Y-77100000I0J250000D01*
G01*
X132100000Y-76600000D01*
G75*
G02*
X132350000Y-76350000I250000J0D01*
G01*
G37*
G36*
G01*
X132350000Y-74450000D02*
X133300000Y-74450000D01*
G75*
G02*
X133550000Y-74700000I0J-250000D01*
G01*
X133550000Y-75200000D01*
G75*
G02*
X133300000Y-75450000I-250000J0D01*
G01*
X132350000Y-75450000D01*
G75*
G02*
X132100000Y-75200000I0J250000D01*
G01*
X132100000Y-74700000D01*
G75*
G02*
X132350000Y-74450000I250000J0D01*
G01*
G37*
%TD*%
%TO.C,C5*%
G36*
G01*
X135850000Y-75500000D02*
X134900000Y-75500000D01*
G75*
G02*
X134650000Y-75250000I0J250000D01*
G01*
X134650000Y-74750000D01*
G75*
G02*
X134900000Y-74500000I250000J0D01*
G01*
X135850000Y-74500000D01*
G75*
G02*
X136100000Y-74750000I0J-250000D01*
G01*
X136100000Y-75250000D01*
G75*
G02*
X135850000Y-75500000I-250000J0D01*
G01*
G37*
G36*
G01*
X135850000Y-77400000D02*
X134900000Y-77400000D01*
G75*
G02*
X134650000Y-77150000I0J250000D01*
G01*
X134650000Y-76650000D01*
G75*
G02*
X134900000Y-76400000I250000J0D01*
G01*
X135850000Y-76400000D01*
G75*
G02*
X136100000Y-76650000I0J-250000D01*
G01*
X136100000Y-77150000D01*
G75*
G02*
X135850000Y-77400000I-250000J0D01*
G01*
G37*
%TD*%
%TO.C,C6*%
G36*
G01*
X137175000Y-76450000D02*
X138125000Y-76450000D01*
G75*
G02*
X138375000Y-76700000I0J-250000D01*
G01*
X138375000Y-77200000D01*
G75*
G02*
X138125000Y-77450000I-250000J0D01*
G01*
X137175000Y-77450000D01*
G75*
G02*
X136925000Y-77200000I0J250000D01*
G01*
X136925000Y-76700000D01*
G75*
G02*
X137175000Y-76450000I250000J0D01*
G01*
G37*
G36*
G01*
X137175000Y-74550000D02*
X138125000Y-74550000D01*
G75*
G02*
X138375000Y-74800000I0J-250000D01*
G01*
X138375000Y-75300000D01*
G75*
G02*
X138125000Y-75550000I-250000J0D01*
G01*
X137175000Y-75550000D01*
G75*
G02*
X136925000Y-75300000I0J250000D01*
G01*
X136925000Y-74800000D01*
G75*
G02*
X137175000Y-74550000I250000J0D01*
G01*
G37*
%TD*%
%TO.C,C1*%
G36*
G01*
X148475000Y-73950000D02*
X147525000Y-73950000D01*
G75*
G02*
X147275000Y-73700000I0J250000D01*
G01*
X147275000Y-73200000D01*
G75*
G02*
X147525000Y-72950000I250000J0D01*
G01*
X148475000Y-72950000D01*
G75*
G02*
X148725000Y-73200000I0J-250000D01*
G01*
X148725000Y-73700000D01*
G75*
G02*
X148475000Y-73950000I-250000J0D01*
G01*
G37*
G36*
G01*
X148475000Y-75850000D02*
X147525000Y-75850000D01*
G75*
G02*
X147275000Y-75600000I0J250000D01*
G01*
X147275000Y-75100000D01*
G75*
G02*
X147525000Y-74850000I250000J0D01*
G01*
X148475000Y-74850000D01*
G75*
G02*
X148725000Y-75100000I0J-250000D01*
G01*
X148725000Y-75600000D01*
G75*
G02*
X148475000Y-75850000I-250000J0D01*
G01*
G37*
%TD*%
D10*
%TO.C,J1*%
X115500000Y-85230000D03*
X115500000Y-82690000D03*
X115500000Y-80150000D03*
X115500000Y-77610000D03*
X115500000Y-75070000D03*
X115500000Y-72530000D03*
X115500000Y-69990000D03*
D11*
X115500000Y-67450000D03*
%TD*%
D10*
%TO.C,J4*%
X145450000Y-69150000D03*
X142910000Y-69150000D03*
X140370000Y-69150000D03*
X137830000Y-69150000D03*
X135290000Y-69150000D03*
X132750000Y-69150000D03*
X130210000Y-69150000D03*
X127670000Y-69150000D03*
X125130000Y-69150000D03*
D11*
X122590000Y-69150000D03*
%TD*%
D10*
%TO.C,J6*%
X163500000Y-85230000D03*
X163500000Y-82690000D03*
X163500000Y-80150000D03*
X163500000Y-77610000D03*
X163500000Y-75070000D03*
X163500000Y-72530000D03*
X163500000Y-69990000D03*
D11*
X163500000Y-67450000D03*
%TD*%
D10*
%TO.C,J5*%
X145410000Y-72050000D03*
X142870000Y-72050000D03*
X140330000Y-72050000D03*
X137790000Y-72050000D03*
X135250000Y-72050000D03*
X132710000Y-72050000D03*
X130170000Y-72050000D03*
X127630000Y-72050000D03*
X125090000Y-72050000D03*
D11*
X122550000Y-72050000D03*
%TD*%
%TO.C,R1*%
G36*
G01*
X120100000Y-82874998D02*
X120100000Y-83775002D01*
G75*
G02*
X119850002Y-84025000I-249998J0D01*
G01*
X119324998Y-84025000D01*
G75*
G02*
X119075000Y-83775002I0J249998D01*
G01*
X119075000Y-82874998D01*
G75*
G02*
X119324998Y-82625000I249998J0D01*
G01*
X119850002Y-82625000D01*
G75*
G02*
X120100000Y-82874998I0J-249998D01*
G01*
G37*
G36*
G01*
X121925000Y-82874998D02*
X121925000Y-83775002D01*
G75*
G02*
X121675002Y-84025000I-249998J0D01*
G01*
X121149998Y-84025000D01*
G75*
G02*
X120900000Y-83775002I0J249998D01*
G01*
X120900000Y-82874998D01*
G75*
G02*
X121149998Y-82625000I249998J0D01*
G01*
X121675002Y-82625000D01*
G75*
G02*
X121925000Y-82874998I0J-249998D01*
G01*
G37*
%TD*%
%TO.C,R2*%
G36*
G01*
X144275000Y-74524998D02*
X144275000Y-75425002D01*
G75*
G02*
X144025002Y-75675000I-249998J0D01*
G01*
X143499998Y-75675000D01*
G75*
G02*
X143250000Y-75425002I0J249998D01*
G01*
X143250000Y-74524998D01*
G75*
G02*
X143499998Y-74275000I249998J0D01*
G01*
X144025002Y-74275000D01*
G75*
G02*
X144275000Y-74524998I0J-249998D01*
G01*
G37*
G36*
G01*
X146100000Y-74524998D02*
X146100000Y-75425002D01*
G75*
G02*
X145850002Y-75675000I-249998J0D01*
G01*
X145324998Y-75675000D01*
G75*
G02*
X145075000Y-75425002I0J249998D01*
G01*
X145075000Y-74524998D01*
G75*
G02*
X145324998Y-74275000I249998J0D01*
G01*
X145850002Y-74275000D01*
G75*
G02*
X146100000Y-74524998I0J-249998D01*
G01*
G37*
%TD*%
%TO.C,R4*%
G36*
G01*
X141325000Y-77950002D02*
X141325000Y-77049998D01*
G75*
G02*
X141574998Y-76800000I249998J0D01*
G01*
X142100002Y-76800000D01*
G75*
G02*
X142350000Y-77049998I0J-249998D01*
G01*
X142350000Y-77950002D01*
G75*
G02*
X142100002Y-78200000I-249998J0D01*
G01*
X141574998Y-78200000D01*
G75*
G02*
X141325000Y-77950002I0J249998D01*
G01*
G37*
G36*
G01*
X139500000Y-77950002D02*
X139500000Y-77049998D01*
G75*
G02*
X139749998Y-76800000I249998J0D01*
G01*
X140275002Y-76800000D01*
G75*
G02*
X140525000Y-77049998I0J-249998D01*
G01*
X140525000Y-77950002D01*
G75*
G02*
X140275002Y-78200000I-249998J0D01*
G01*
X139749998Y-78200000D01*
G75*
G02*
X139500000Y-77950002I0J249998D01*
G01*
G37*
%TD*%
%TO.C,R3*%
G36*
G01*
X119300002Y-73150000D02*
X118399998Y-73150000D01*
G75*
G02*
X118150000Y-72900002I0J249998D01*
G01*
X118150000Y-72374998D01*
G75*
G02*
X118399998Y-72125000I249998J0D01*
G01*
X119300002Y-72125000D01*
G75*
G02*
X119550000Y-72374998I0J-249998D01*
G01*
X119550000Y-72900002D01*
G75*
G02*
X119300002Y-73150000I-249998J0D01*
G01*
G37*
G36*
G01*
X119300002Y-74975000D02*
X118399998Y-74975000D01*
G75*
G02*
X118150000Y-74725002I0J249998D01*
G01*
X118150000Y-74199998D01*
G75*
G02*
X118399998Y-73950000I249998J0D01*
G01*
X119300002Y-73950000D01*
G75*
G02*
X119550000Y-74199998I0J-249998D01*
G01*
X119550000Y-74725002D01*
G75*
G02*
X119300002Y-74975000I-249998J0D01*
G01*
G37*
%TD*%
%TO.C,R5*%
G36*
G01*
X136900000Y-79550002D02*
X136900000Y-78649998D01*
G75*
G02*
X137149998Y-78400000I249998J0D01*
G01*
X137675002Y-78400000D01*
G75*
G02*
X137925000Y-78649998I0J-249998D01*
G01*
X137925000Y-79550002D01*
G75*
G02*
X137675002Y-79800000I-249998J0D01*
G01*
X137149998Y-79800000D01*
G75*
G02*
X136900000Y-79550002I0J249998D01*
G01*
G37*
G36*
G01*
X135075000Y-79550002D02*
X135075000Y-78649998D01*
G75*
G02*
X135324998Y-78400000I249998J0D01*
G01*
X135850002Y-78400000D01*
G75*
G02*
X136100000Y-78649998I0J-249998D01*
G01*
X136100000Y-79550002D01*
G75*
G02*
X135850002Y-79800000I-249998J0D01*
G01*
X135324998Y-79800000D01*
G75*
G02*
X135075000Y-79550002I0J249998D01*
G01*
G37*
%TD*%
D12*
%TO.C,U2*%
X121280000Y-64820000D03*
X123820000Y-64820000D03*
X126360000Y-64820000D03*
X128900000Y-64820000D03*
X131440000Y-64820000D03*
X133980000Y-64820000D03*
X136520000Y-64820000D03*
X139060000Y-64820000D03*
X141600000Y-64820000D03*
X144140000Y-64820000D03*
X146680000Y-64820000D03*
X149220000Y-64820000D03*
X149220000Y-87680000D03*
X146680000Y-87680000D03*
X144140000Y-87680000D03*
X141600000Y-87680000D03*
X139060000Y-87680000D03*
X136520000Y-87680000D03*
X133980000Y-87680000D03*
X131440000Y-87680000D03*
X128900000Y-87680000D03*
X126360000Y-87680000D03*
X123820000Y-87680000D03*
D11*
X121280000Y-87680000D03*
%TD*%
D13*
%TO.C,JP1*%
G36*
X145475000Y-76675602D02*
G01*
X145499534Y-76675602D01*
X145548365Y-76680412D01*
X145596490Y-76689984D01*
X145643445Y-76704228D01*
X145688778Y-76723005D01*
X145732051Y-76746136D01*
X145772850Y-76773396D01*
X145810779Y-76804524D01*
X145845476Y-76839221D01*
X145876604Y-76877150D01*
X145903864Y-76917949D01*
X145926995Y-76961222D01*
X145945772Y-77006555D01*
X145960016Y-77053510D01*
X145969588Y-77101635D01*
X145974398Y-77150466D01*
X145974398Y-77175000D01*
X145975000Y-77175000D01*
X145975000Y-77675000D01*
X145974398Y-77675000D01*
X145974398Y-77699534D01*
X145969588Y-77748365D01*
X145960016Y-77796490D01*
X145945772Y-77843445D01*
X145926995Y-77888778D01*
X145903864Y-77932051D01*
X145876604Y-77972850D01*
X145845476Y-78010779D01*
X145810779Y-78045476D01*
X145772850Y-78076604D01*
X145732051Y-78103864D01*
X145688778Y-78126995D01*
X145643445Y-78145772D01*
X145596490Y-78160016D01*
X145548365Y-78169588D01*
X145499534Y-78174398D01*
X145475000Y-78174398D01*
X145475000Y-78175000D01*
X144975000Y-78175000D01*
X144975000Y-76675000D01*
X145475000Y-76675000D01*
X145475000Y-76675602D01*
G37*
G36*
X144675000Y-78175000D02*
G01*
X144175000Y-78175000D01*
X144175000Y-78174398D01*
X144150466Y-78174398D01*
X144101635Y-78169588D01*
X144053510Y-78160016D01*
X144006555Y-78145772D01*
X143961222Y-78126995D01*
X143917949Y-78103864D01*
X143877150Y-78076604D01*
X143839221Y-78045476D01*
X143804524Y-78010779D01*
X143773396Y-77972850D01*
X143746136Y-77932051D01*
X143723005Y-77888778D01*
X143704228Y-77843445D01*
X143689984Y-77796490D01*
X143680412Y-77748365D01*
X143675602Y-77699534D01*
X143675602Y-77675000D01*
X143675000Y-77675000D01*
X143675000Y-77175000D01*
X143675602Y-77175000D01*
X143675602Y-77150466D01*
X143680412Y-77101635D01*
X143689984Y-77053510D01*
X143704228Y-77006555D01*
X143723005Y-76961222D01*
X143746136Y-76917949D01*
X143773396Y-76877150D01*
X143804524Y-76839221D01*
X143839221Y-76804524D01*
X143877150Y-76773396D01*
X143917949Y-76746136D01*
X143961222Y-76723005D01*
X144006555Y-76704228D01*
X144053510Y-76689984D01*
X144101635Y-76680412D01*
X144150466Y-76675602D01*
X144175000Y-76675602D01*
X144175000Y-76675000D01*
X144675000Y-76675000D01*
X144675000Y-78175000D01*
G37*
%TD*%
%TO.C,U1*%
G36*
G01*
X144275000Y-84280000D02*
X144275000Y-83980000D01*
G75*
G02*
X144425000Y-83830000I150000J0D01*
G01*
X146075000Y-83830000D01*
G75*
G02*
X146225000Y-83980000I0J-150000D01*
G01*
X146225000Y-84280000D01*
G75*
G02*
X146075000Y-84430000I-150000J0D01*
G01*
X144425000Y-84430000D01*
G75*
G02*
X144275000Y-84280000I0J150000D01*
G01*
G37*
G36*
G01*
X144275000Y-83010000D02*
X144275000Y-82710000D01*
G75*
G02*
X144425000Y-82560000I150000J0D01*
G01*
X146075000Y-82560000D01*
G75*
G02*
X146225000Y-82710000I0J-150000D01*
G01*
X146225000Y-83010000D01*
G75*
G02*
X146075000Y-83160000I-150000J0D01*
G01*
X144425000Y-83160000D01*
G75*
G02*
X144275000Y-83010000I0J150000D01*
G01*
G37*
G36*
G01*
X144275000Y-81740000D02*
X144275000Y-81440000D01*
G75*
G02*
X144425000Y-81290000I150000J0D01*
G01*
X146075000Y-81290000D01*
G75*
G02*
X146225000Y-81440000I0J-150000D01*
G01*
X146225000Y-81740000D01*
G75*
G02*
X146075000Y-81890000I-150000J0D01*
G01*
X144425000Y-81890000D01*
G75*
G02*
X144275000Y-81740000I0J150000D01*
G01*
G37*
G36*
G01*
X144275000Y-80470000D02*
X144275000Y-80170000D01*
G75*
G02*
X144425000Y-80020000I150000J0D01*
G01*
X146075000Y-80020000D01*
G75*
G02*
X146225000Y-80170000I0J-150000D01*
G01*
X146225000Y-80470000D01*
G75*
G02*
X146075000Y-80620000I-150000J0D01*
G01*
X144425000Y-80620000D01*
G75*
G02*
X144275000Y-80470000I0J150000D01*
G01*
G37*
G36*
G01*
X139325000Y-80470000D02*
X139325000Y-80170000D01*
G75*
G02*
X139475000Y-80020000I150000J0D01*
G01*
X141125000Y-80020000D01*
G75*
G02*
X141275000Y-80170000I0J-150000D01*
G01*
X141275000Y-80470000D01*
G75*
G02*
X141125000Y-80620000I-150000J0D01*
G01*
X139475000Y-80620000D01*
G75*
G02*
X139325000Y-80470000I0J150000D01*
G01*
G37*
G36*
G01*
X139325000Y-81740000D02*
X139325000Y-81440000D01*
G75*
G02*
X139475000Y-81290000I150000J0D01*
G01*
X141125000Y-81290000D01*
G75*
G02*
X141275000Y-81440000I0J-150000D01*
G01*
X141275000Y-81740000D01*
G75*
G02*
X141125000Y-81890000I-150000J0D01*
G01*
X139475000Y-81890000D01*
G75*
G02*
X139325000Y-81740000I0J150000D01*
G01*
G37*
G36*
G01*
X139325000Y-83010000D02*
X139325000Y-82710000D01*
G75*
G02*
X139475000Y-82560000I150000J0D01*
G01*
X141125000Y-82560000D01*
G75*
G02*
X141275000Y-82710000I0J-150000D01*
G01*
X141275000Y-83010000D01*
G75*
G02*
X141125000Y-83160000I-150000J0D01*
G01*
X139475000Y-83160000D01*
G75*
G02*
X139325000Y-83010000I0J150000D01*
G01*
G37*
G36*
G01*
X139325000Y-84280000D02*
X139325000Y-83980000D01*
G75*
G02*
X139475000Y-83830000I150000J0D01*
G01*
X141125000Y-83830000D01*
G75*
G02*
X141275000Y-83980000I0J-150000D01*
G01*
X141275000Y-84280000D01*
G75*
G02*
X141125000Y-84430000I-150000J0D01*
G01*
X139475000Y-84430000D01*
G75*
G02*
X139325000Y-84280000I0J150000D01*
G01*
G37*
%TD*%
%TO.C,R6*%
G36*
G01*
X130550002Y-75350000D02*
X129649998Y-75350000D01*
G75*
G02*
X129400000Y-75100002I0J249998D01*
G01*
X129400000Y-74574998D01*
G75*
G02*
X129649998Y-74325000I249998J0D01*
G01*
X130550002Y-74325000D01*
G75*
G02*
X130800000Y-74574998I0J-249998D01*
G01*
X130800000Y-75100002D01*
G75*
G02*
X130550002Y-75350000I-249998J0D01*
G01*
G37*
G36*
G01*
X130550002Y-77175000D02*
X129649998Y-77175000D01*
G75*
G02*
X129400000Y-76925002I0J249998D01*
G01*
X129400000Y-76399998D01*
G75*
G02*
X129649998Y-76150000I249998J0D01*
G01*
X130550002Y-76150000D01*
G75*
G02*
X130800000Y-76399998I0J-249998D01*
G01*
X130800000Y-76925002D01*
G75*
G02*
X130550002Y-77175000I-249998J0D01*
G01*
G37*
%TD*%
%TO.C,R7*%
G36*
G01*
X128025002Y-75325000D02*
X127124998Y-75325000D01*
G75*
G02*
X126875000Y-75075002I0J249998D01*
G01*
X126875000Y-74549998D01*
G75*
G02*
X127124998Y-74300000I249998J0D01*
G01*
X128025002Y-74300000D01*
G75*
G02*
X128275000Y-74549998I0J-249998D01*
G01*
X128275000Y-75075002D01*
G75*
G02*
X128025002Y-75325000I-249998J0D01*
G01*
G37*
G36*
G01*
X128025002Y-77150000D02*
X127124998Y-77150000D01*
G75*
G02*
X126875000Y-76900002I0J249998D01*
G01*
X126875000Y-76374998D01*
G75*
G02*
X127124998Y-76125000I249998J0D01*
G01*
X128025002Y-76125000D01*
G75*
G02*
X128275000Y-76374998I0J-249998D01*
G01*
X128275000Y-76900002D01*
G75*
G02*
X128025002Y-77150000I-249998J0D01*
G01*
G37*
%TD*%
%TO.C,C3*%
G36*
G01*
X150675000Y-73675000D02*
X150675000Y-74625000D01*
G75*
G02*
X150425000Y-74875000I-250000J0D01*
G01*
X149925000Y-74875000D01*
G75*
G02*
X149675000Y-74625000I0J250000D01*
G01*
X149675000Y-73675000D01*
G75*
G02*
X149925000Y-73425000I250000J0D01*
G01*
X150425000Y-73425000D01*
G75*
G02*
X150675000Y-73675000I0J-250000D01*
G01*
G37*
G36*
G01*
X152575000Y-73675000D02*
X152575000Y-74625000D01*
G75*
G02*
X152325000Y-74875000I-250000J0D01*
G01*
X151825000Y-74875000D01*
G75*
G02*
X151575000Y-74625000I0J250000D01*
G01*
X151575000Y-73675000D01*
G75*
G02*
X151825000Y-73425000I250000J0D01*
G01*
X152325000Y-73425000D01*
G75*
G02*
X152575000Y-73675000I0J-250000D01*
G01*
G37*
%TD*%
D10*
%TO.C,J2*%
X169350000Y-76665000D03*
D11*
X169350000Y-74125000D03*
%TD*%
D14*
%TO.C,J3*%
X164325000Y-92225000D03*
X162325000Y-92225000D03*
X160325000Y-92225000D03*
G36*
G01*
X157725000Y-92850001D02*
X157725000Y-91599999D01*
G75*
G02*
X157974999Y-91350000I249999J0D01*
G01*
X158675001Y-91350000D01*
G75*
G02*
X158925000Y-91599999I0J-249999D01*
G01*
X158925000Y-92850001D01*
G75*
G02*
X158675001Y-93100000I-249999J0D01*
G01*
X157974999Y-93100000D01*
G75*
G02*
X157725000Y-92850001I0J249999D01*
G01*
G37*
%TD*%
%TO.C,R9*%
G36*
G01*
X135050000Y-67250002D02*
X135050000Y-66349998D01*
G75*
G02*
X135299998Y-66100000I249998J0D01*
G01*
X135825002Y-66100000D01*
G75*
G02*
X136075000Y-66349998I0J-249998D01*
G01*
X136075000Y-67250002D01*
G75*
G02*
X135825002Y-67500000I-249998J0D01*
G01*
X135299998Y-67500000D01*
G75*
G02*
X135050000Y-67250002I0J249998D01*
G01*
G37*
G36*
G01*
X133225000Y-67250002D02*
X133225000Y-66349998D01*
G75*
G02*
X133474998Y-66100000I249998J0D01*
G01*
X134000002Y-66100000D01*
G75*
G02*
X134250000Y-66349998I0J-249998D01*
G01*
X134250000Y-67250002D01*
G75*
G02*
X134000002Y-67500000I-249998J0D01*
G01*
X133474998Y-67500000D01*
G75*
G02*
X133225000Y-67250002I0J249998D01*
G01*
G37*
%TD*%
D11*
%TO.C,J7*%
X170325000Y-84950000D03*
D10*
X170325000Y-87490000D03*
X170325000Y-90030000D03*
X170325000Y-92570000D03*
%TD*%
M02*
