%TF.GenerationSoftware,KiCad,Pcbnew,5.1.10*%
%TF.CreationDate,2021-11-02T12:22:44+00:00*%
%TF.ProjectId,BST900-ESP32,42535439-3030-42d4-9553-5033322e6b69,0.3*%
%TF.SameCoordinates,Original*%
%TF.FileFunction,Copper,L1,Top*%
%TF.FilePolarity,Positive*%
%FSLAX46Y46*%
G04 Gerber Fmt 4.6, Leading zero omitted, Abs format (unit mm)*
G04 Created by KiCad (PCBNEW 5.1.10) date 2021-11-02 12:22:44*
%MOMM*%
%LPD*%
G01*
G04 APERTURE LIST*
%TA.AperFunction,ComponentPad*%
%ADD10O,1.700000X1.700000*%
%TD*%
%TA.AperFunction,ComponentPad*%
%ADD11R,1.700000X1.700000*%
%TD*%
%TA.AperFunction,ComponentPad*%
%ADD12C,1.700000*%
%TD*%
%TA.AperFunction,SMDPad,CuDef*%
%ADD13R,1.000000X1.500000*%
%TD*%
%TA.AperFunction,SMDPad,CuDef*%
%ADD14C,0.100000*%
%TD*%
%TA.AperFunction,ComponentPad*%
%ADD15O,1.200000X1.750000*%
%TD*%
%TA.AperFunction,SMDPad,CuDef*%
%ADD16R,1.550000X1.300000*%
%TD*%
%TA.AperFunction,ViaPad*%
%ADD17C,0.800000*%
%TD*%
%TA.AperFunction,Conductor*%
%ADD18C,0.250000*%
%TD*%
%TA.AperFunction,Conductor*%
%ADD19C,0.500000*%
%TD*%
%TA.AperFunction,Conductor*%
%ADD20C,1.000000*%
%TD*%
%TA.AperFunction,Conductor*%
%ADD21C,0.254000*%
%TD*%
%TA.AperFunction,Conductor*%
%ADD22C,0.100000*%
%TD*%
G04 APERTURE END LIST*
%TO.P,D1,2*%
%TO.N,GPIO_27*%
%TA.AperFunction,SMDPad,CuDef*%
G36*
G01*
X142050000Y-91549999D02*
X142050000Y-92450001D01*
G75*
G02*
X141800001Y-92700000I-249999J0D01*
G01*
X141149999Y-92700000D01*
G75*
G02*
X140900000Y-92450001I0J249999D01*
G01*
X140900000Y-91549999D01*
G75*
G02*
X141149999Y-91300000I249999J0D01*
G01*
X141800001Y-91300000D01*
G75*
G02*
X142050000Y-91549999I0J-249999D01*
G01*
G37*
%TD.AperFunction*%
%TO.P,D1,1*%
%TO.N,GND*%
%TA.AperFunction,SMDPad,CuDef*%
G36*
G01*
X144100000Y-91549999D02*
X144100000Y-92450001D01*
G75*
G02*
X143850001Y-92700000I-249999J0D01*
G01*
X143199999Y-92700000D01*
G75*
G02*
X142950000Y-92450001I0J249999D01*
G01*
X142950000Y-91549999D01*
G75*
G02*
X143199999Y-91300000I249999J0D01*
G01*
X143850001Y-91300000D01*
G75*
G02*
X144100000Y-91549999I0J-249999D01*
G01*
G37*
%TD.AperFunction*%
%TD*%
D10*
%TO.P,J1,8*%
%TO.N,Fan_PWM*%
X115500000Y-85230000D03*
%TO.P,J1,7*%
%TO.N,CV_CC*%
X115500000Y-82690000D03*
%TO.P,J1,6*%
%TO.N,Enable*%
X115500000Y-80150000D03*
%TO.P,J1,5*%
%TO.N,Vout_PWM*%
X115500000Y-77610000D03*
%TO.P,J1,4*%
%TO.N,Iout_PWM*%
X115500000Y-75070000D03*
%TO.P,J1,3*%
%TO.N,Vin_sense*%
X115500000Y-72530000D03*
%TO.P,J1,2*%
%TO.N,Vout_sense*%
X115500000Y-69990000D03*
D11*
%TO.P,J1,1*%
%TO.N,Net-(J1-Pad1)*%
X115500000Y-67450000D03*
%TD*%
D10*
%TO.P,J4,10*%
%TO.N,ANALOGUE_3*%
X145450000Y-69150000D03*
%TO.P,J4,9*%
%TO.N,Vout_sense*%
X142910000Y-69150000D03*
%TO.P,J4,8*%
%TO.N,Iout_sense*%
X140370000Y-69150000D03*
%TO.P,J4,7*%
%TO.N,Vin_sense*%
X137830000Y-69150000D03*
%TO.P,J4,6*%
%TO.N,N/C*%
X135290000Y-69150000D03*
%TO.P,J4,5*%
X132750000Y-69150000D03*
%TO.P,J4,4*%
%TO.N,SDA*%
X130210000Y-69150000D03*
%TO.P,J4,3*%
%TO.N,SCL*%
X127670000Y-69150000D03*
%TO.P,J4,2*%
%TO.N,GND*%
X125130000Y-69150000D03*
D11*
%TO.P,J4,1*%
%TO.N,+3.3V*%
X122590000Y-69150000D03*
%TD*%
D10*
%TO.P,J6,8*%
%TO.N,N/C*%
X163500000Y-85230000D03*
%TO.P,J6,7*%
X163500000Y-82690000D03*
%TO.P,J6,6*%
%TO.N,Net-(J6-Pad5)*%
X163500000Y-80150000D03*
%TO.P,J6,5*%
X163500000Y-77610000D03*
%TO.P,J6,4*%
%TO.N,Net-(J6-Pad3)*%
X163500000Y-75070000D03*
%TO.P,J6,3*%
X163500000Y-72530000D03*
%TO.P,J6,2*%
%TO.N,GND*%
X163500000Y-69990000D03*
D11*
%TO.P,J6,1*%
X163500000Y-67450000D03*
%TD*%
D10*
%TO.P,J5,10*%
%TO.N,ANALOGUE_3*%
X145410000Y-72050000D03*
%TO.P,J5,9*%
%TO.N,Vout_sense*%
X142870000Y-72050000D03*
%TO.P,J5,8*%
%TO.N,Iout_sense*%
X140330000Y-72050000D03*
%TO.P,J5,7*%
%TO.N,Vin_sense*%
X137790000Y-72050000D03*
%TO.P,J5,6*%
%TO.N,N/C*%
X135250000Y-72050000D03*
%TO.P,J5,5*%
X132710000Y-72050000D03*
%TO.P,J5,4*%
%TO.N,SCL*%
X130170000Y-72050000D03*
%TO.P,J5,3*%
%TO.N,SDA*%
X127630000Y-72050000D03*
%TO.P,J5,2*%
%TO.N,GND*%
X125090000Y-72050000D03*
D11*
%TO.P,J5,1*%
%TO.N,+3.3V*%
X122550000Y-72050000D03*
%TD*%
D12*
%TO.P,U2,24*%
%TO.N,+3.3V*%
X121280000Y-64820000D03*
%TO.P,U2,23*%
%TO.N,ANALOGUE_3*%
X123820000Y-64820000D03*
%TO.P,U2,22*%
%TO.N,Vin_sense*%
X126360000Y-64820000D03*
%TO.P,U2,21*%
%TO.N,Iout_sense*%
X128900000Y-64820000D03*
%TO.P,U2,20*%
%TO.N,Vout_sense*%
X131440000Y-64820000D03*
%TO.P,U2,19*%
%TO.N,/GPIO_32*%
X133980000Y-64820000D03*
%TO.P,U2,18*%
%TO.N,/GPIO_33*%
X136520000Y-64820000D03*
%TO.P,U2,17*%
%TO.N,RS485_RX*%
X139060000Y-64820000D03*
%TO.P,U2,16*%
%TO.N,RS485_TX*%
X141600000Y-64820000D03*
%TO.P,U2,15*%
%TO.N,GPIO_27*%
X144140000Y-64820000D03*
%TO.P,U2,14*%
%TO.N,GND*%
X146680000Y-64820000D03*
%TO.P,U2,13*%
%TO.N,+5V*%
X149220000Y-64820000D03*
%TO.P,U2,12*%
%TO.N,+3.3V*%
X149220000Y-87680000D03*
%TO.P,U2,11*%
%TO.N,GND*%
X146680000Y-87680000D03*
%TO.P,U2,10*%
X144140000Y-87680000D03*
%TO.P,U2,9*%
%TO.N,Enable*%
X141600000Y-87680000D03*
%TO.P,U2,8*%
%TO.N,Iout_PWM*%
X139060000Y-87680000D03*
%TO.P,U2,7*%
%TO.N,Vout_PWM*%
X136520000Y-87680000D03*
%TO.P,U2,6*%
%TO.N,Fan_PWM*%
X133980000Y-87680000D03*
%TO.P,U2,5*%
%TO.N,RX485_ENA*%
X131440000Y-87680000D03*
%TO.P,U2,4*%
%TO.N,SCL*%
X128900000Y-87680000D03*
%TO.P,U2,3*%
%TO.N,SDA*%
X126360000Y-87680000D03*
%TO.P,U2,2*%
%TO.N,GND*%
X123820000Y-87680000D03*
D11*
%TO.P,U2,1*%
X121280000Y-87680000D03*
%TD*%
%TO.P,C2,2*%
%TO.N,GND*%
%TA.AperFunction,SMDPad,CuDef*%
G36*
G01*
X168750000Y-67825000D02*
X169850000Y-67825000D01*
G75*
G02*
X170100000Y-68075000I0J-250000D01*
G01*
X170100000Y-71075000D01*
G75*
G02*
X169850000Y-71325000I-250000J0D01*
G01*
X168750000Y-71325000D01*
G75*
G02*
X168500000Y-71075000I0J250000D01*
G01*
X168500000Y-68075000D01*
G75*
G02*
X168750000Y-67825000I250000J0D01*
G01*
G37*
%TD.AperFunction*%
%TO.P,C2,1*%
%TO.N,+5V*%
%TA.AperFunction,SMDPad,CuDef*%
G36*
G01*
X168750000Y-62425000D02*
X169850000Y-62425000D01*
G75*
G02*
X170100000Y-62675000I0J-250000D01*
G01*
X170100000Y-65675000D01*
G75*
G02*
X169850000Y-65925000I-250000J0D01*
G01*
X168750000Y-65925000D01*
G75*
G02*
X168500000Y-65675000I0J250000D01*
G01*
X168500000Y-62675000D01*
G75*
G02*
X168750000Y-62425000I250000J0D01*
G01*
G37*
%TD.AperFunction*%
%TD*%
D13*
%TO.P,JP2,2*%
%TO.N,+5V*%
X155975000Y-74325000D03*
%TA.AperFunction,SMDPad,CuDef*%
D14*
%TO.P,JP2,3*%
%TO.N,EXT_5V*%
G36*
X154675000Y-75074398D02*
G01*
X154650466Y-75074398D01*
X154601635Y-75069588D01*
X154553510Y-75060016D01*
X154506555Y-75045772D01*
X154461222Y-75026995D01*
X154417949Y-75003864D01*
X154377150Y-74976604D01*
X154339221Y-74945476D01*
X154304524Y-74910779D01*
X154273396Y-74872850D01*
X154246136Y-74832051D01*
X154223005Y-74788778D01*
X154204228Y-74743445D01*
X154189984Y-74696490D01*
X154180412Y-74648365D01*
X154175602Y-74599534D01*
X154175602Y-74575000D01*
X154175000Y-74575000D01*
X154175000Y-74075000D01*
X154175602Y-74075000D01*
X154175602Y-74050466D01*
X154180412Y-74001635D01*
X154189984Y-73953510D01*
X154204228Y-73906555D01*
X154223005Y-73861222D01*
X154246136Y-73817949D01*
X154273396Y-73777150D01*
X154304524Y-73739221D01*
X154339221Y-73704524D01*
X154377150Y-73673396D01*
X154417949Y-73646136D01*
X154461222Y-73623005D01*
X154506555Y-73604228D01*
X154553510Y-73589984D01*
X154601635Y-73580412D01*
X154650466Y-73575602D01*
X154675000Y-73575602D01*
X154675000Y-73575000D01*
X155225000Y-73575000D01*
X155225000Y-75075000D01*
X154675000Y-75075000D01*
X154675000Y-75074398D01*
G37*
%TD.AperFunction*%
%TA.AperFunction,SMDPad,CuDef*%
%TO.P,JP2,1*%
%TO.N,Net-(J6-Pad5)*%
G36*
X156725000Y-73575000D02*
G01*
X157275000Y-73575000D01*
X157275000Y-73575602D01*
X157299534Y-73575602D01*
X157348365Y-73580412D01*
X157396490Y-73589984D01*
X157443445Y-73604228D01*
X157488778Y-73623005D01*
X157532051Y-73646136D01*
X157572850Y-73673396D01*
X157610779Y-73704524D01*
X157645476Y-73739221D01*
X157676604Y-73777150D01*
X157703864Y-73817949D01*
X157726995Y-73861222D01*
X157745772Y-73906555D01*
X157760016Y-73953510D01*
X157769588Y-74001635D01*
X157774398Y-74050466D01*
X157774398Y-74075000D01*
X157775000Y-74075000D01*
X157775000Y-74575000D01*
X157774398Y-74575000D01*
X157774398Y-74599534D01*
X157769588Y-74648365D01*
X157760016Y-74696490D01*
X157745772Y-74743445D01*
X157726995Y-74788778D01*
X157703864Y-74832051D01*
X157676604Y-74872850D01*
X157645476Y-74910779D01*
X157610779Y-74945476D01*
X157572850Y-74976604D01*
X157532051Y-75003864D01*
X157488778Y-75026995D01*
X157443445Y-75045772D01*
X157396490Y-75060016D01*
X157348365Y-75069588D01*
X157299534Y-75074398D01*
X157275000Y-75074398D01*
X157275000Y-75075000D01*
X156725000Y-75075000D01*
X156725000Y-73575000D01*
G37*
%TD.AperFunction*%
%TD*%
D10*
%TO.P,J2,2*%
%TO.N,GND*%
X169350000Y-76665000D03*
D11*
%TO.P,J2,1*%
%TO.N,ANALOGUE_3*%
X169350000Y-74125000D03*
%TD*%
D15*
%TO.P,J3,4*%
%TO.N,GND*%
X164325000Y-92225000D03*
%TO.P,J3,3*%
%TO.N,Net-(J3-Pad3)*%
X162325000Y-92225000D03*
%TO.P,J3,2*%
%TO.N,Net-(J3-Pad2)*%
X160325000Y-92225000D03*
%TO.P,J3,1*%
%TO.N,EXT_5V*%
%TA.AperFunction,ComponentPad*%
G36*
G01*
X157725000Y-92850001D02*
X157725000Y-91599999D01*
G75*
G02*
X157974999Y-91350000I249999J0D01*
G01*
X158675001Y-91350000D01*
G75*
G02*
X158925000Y-91599999I0J-249999D01*
G01*
X158925000Y-92850001D01*
G75*
G02*
X158675001Y-93100000I-249999J0D01*
G01*
X157974999Y-93100000D01*
G75*
G02*
X157725000Y-92850001I0J249999D01*
G01*
G37*
%TD.AperFunction*%
%TD*%
D16*
%TO.P,SW1,2*%
%TO.N,GND*%
X133425000Y-95600000D03*
%TO.P,SW1,1*%
%TO.N,/GPIO_32*%
X133425000Y-91100000D03*
X125475000Y-91100000D03*
%TO.P,SW1,2*%
%TO.N,GND*%
X125475000Y-95600000D03*
%TD*%
D11*
%TO.P,J7,1*%
%TO.N,+3.3V*%
X170325000Y-84950000D03*
D10*
%TO.P,J7,2*%
%TO.N,SDA*%
X170325000Y-87490000D03*
%TO.P,J7,3*%
%TO.N,SCL*%
X170325000Y-90030000D03*
%TO.P,J7,4*%
%TO.N,GND*%
X170325000Y-92570000D03*
%TD*%
D17*
%TO.N,Vin_sense*%
X129100000Y-62800000D03*
%TO.N,GND*%
X122275000Y-79600000D03*
X135275000Y-81200000D03*
X157800000Y-80000000D03*
X150025000Y-68575000D03*
X157650000Y-66750000D03*
X151200000Y-91275000D03*
X138300000Y-92500000D03*
X116575000Y-92450000D03*
X150500000Y-72525000D03*
X144125000Y-79150000D03*
X133625000Y-80025000D03*
X129650000Y-78350000D03*
X127375000Y-80525000D03*
X127500000Y-83200000D03*
X133800000Y-83225000D03*
X115925000Y-65125000D03*
%TO.N,Iout_sense*%
X120500000Y-74200000D03*
X139825000Y-63100000D03*
%TO.N,Vout_sense*%
X137475000Y-73725000D03*
X120625000Y-69300000D03*
%TO.N,+3.3V*%
X148700000Y-79025000D03*
X148125000Y-84750000D03*
X127650000Y-78100000D03*
X124400000Y-74850000D03*
X117600000Y-88850000D03*
%TO.N,Enable*%
X136400000Y-84075000D03*
%TO.N,Iout_PWM*%
X121075000Y-90250000D03*
%TO.N,Net-(J1-Pad1)*%
X117575000Y-71575000D03*
%TO.N,ANALOGUE_3*%
X136850000Y-66600000D03*
X136850000Y-66600000D03*
%TO.N,SDA*%
X130675000Y-93075000D03*
X127200000Y-93400000D03*
%TO.N,+5V*%
X152800000Y-72200000D03*
%TO.N,Net-(J3-Pad2)*%
X159500000Y-87700000D03*
%TO.N,RS485_RX*%
X137800000Y-84025000D03*
%TO.N,RS485_TX*%
X140125000Y-79050000D03*
%TO.N,GPIO_27*%
X123000000Y-85150000D03*
%TO.N,/GPIO_32*%
X132525000Y-78950000D03*
X130375000Y-91100000D03*
%TO.N,EXT_5V*%
X150450000Y-85400000D03*
%TD*%
D18*
%TO.N,Vin_sense*%
X137790000Y-69190000D02*
X137830000Y-69150000D01*
X137790000Y-72050000D02*
X137790000Y-69190000D01*
X137830000Y-69150000D02*
X137830000Y-64305000D01*
X136325000Y-62800000D02*
X129100000Y-62800000D01*
X137830000Y-64305000D02*
X136325000Y-62800000D01*
D19*
%TO.N,GND*%
X163915000Y-69575000D02*
X163500000Y-69990000D01*
X163975000Y-67450000D02*
X166100000Y-69575000D01*
X163500000Y-67450000D02*
X163975000Y-67450000D01*
X166100000Y-69575000D02*
X163915000Y-69575000D01*
X169300000Y-69575000D02*
X166100000Y-69575000D01*
D18*
X150025000Y-72050000D02*
X150025000Y-68575000D01*
X150500000Y-72525000D02*
X150025000Y-72050000D01*
%TO.N,Iout_sense*%
X140330000Y-69190000D02*
X140370000Y-69150000D01*
X140330000Y-72050000D02*
X140330000Y-69190000D01*
X120500000Y-74200000D02*
X119900000Y-73600000D01*
X119900000Y-73600000D02*
X119900000Y-63675000D01*
X119900000Y-63675000D02*
X120575000Y-63000000D01*
X120575000Y-63000000D02*
X127500000Y-63000000D01*
X128900000Y-64400000D02*
X128900000Y-64820000D01*
X127500000Y-63000000D02*
X128900000Y-64400000D01*
X140370000Y-63645000D02*
X139825000Y-63100000D01*
X140370000Y-69150000D02*
X140370000Y-63645000D01*
%TO.N,Vout_sense*%
X142870000Y-69190000D02*
X142910000Y-69150000D01*
X142870000Y-72050000D02*
X142870000Y-69190000D01*
X137475000Y-73725000D02*
X133725000Y-77475000D01*
X120625000Y-72410002D02*
X120625000Y-69300000D01*
X127889999Y-79675001D02*
X120625000Y-72410002D01*
X132873001Y-79675001D02*
X127889999Y-79675001D01*
X133725000Y-78823002D02*
X132873001Y-79675001D01*
X133725000Y-77475000D02*
X133725000Y-78823002D01*
D19*
%TO.N,+3.3V*%
X148700000Y-79025000D02*
X148700000Y-84225000D01*
X148700000Y-84225000D02*
X148200000Y-84725000D01*
X148150000Y-84725000D02*
X148125000Y-84750000D01*
X148200000Y-84725000D02*
X148150000Y-84725000D01*
D20*
X122590000Y-69150000D02*
X122590000Y-67890000D01*
X121280000Y-66580000D02*
X121280000Y-64820000D01*
X122590000Y-67890000D02*
X121280000Y-66580000D01*
X122550000Y-69190000D02*
X122590000Y-69150000D01*
X122550000Y-72050000D02*
X122550000Y-69190000D01*
D19*
X170325000Y-84950000D02*
X167200000Y-84950000D01*
X167200000Y-84950000D02*
X165225000Y-86925000D01*
X159908001Y-86849999D02*
X151725001Y-86849999D01*
X159983002Y-86925000D02*
X159908001Y-86849999D01*
X165225000Y-86925000D02*
X159983002Y-86925000D01*
X150895000Y-87680000D02*
X149220000Y-87680000D01*
X151725001Y-86849999D02*
X150895000Y-87680000D01*
X122550000Y-73000000D02*
X122550000Y-72050000D01*
X127650000Y-78100000D02*
X124400000Y-74850000D01*
X124400000Y-74850000D02*
X122550000Y-73000000D01*
X130089997Y-94499999D02*
X132689998Y-97100000D01*
X123249999Y-94499999D02*
X130089997Y-94499999D01*
X117600000Y-88850000D02*
X123249999Y-94499999D01*
X132689998Y-97100000D02*
X141150000Y-97100000D01*
X149220000Y-89030000D02*
X149220000Y-87680000D01*
X141150000Y-97100000D02*
X149220000Y-89030000D01*
D18*
%TO.N,Fan_PWM*%
X133980000Y-87680000D02*
X133980000Y-86880000D01*
X133980000Y-86880000D02*
X133125000Y-86025000D01*
X133125000Y-86025000D02*
X118475000Y-86025000D01*
X117680000Y-85230000D02*
X115500000Y-85230000D01*
X118475000Y-86025000D02*
X117680000Y-85230000D01*
%TO.N,Enable*%
X115500000Y-80150000D02*
X116875000Y-80150000D01*
X116875000Y-80150000D02*
X118625000Y-81900000D01*
X134225000Y-81900000D02*
X136400000Y-84075000D01*
X118625000Y-81900000D02*
X134225000Y-81900000D01*
%TO.N,Vout_PWM*%
X136520000Y-87680000D02*
X134850000Y-89350000D01*
X134850000Y-89350000D02*
X119175000Y-89350000D01*
X119175000Y-89350000D02*
X117650000Y-87825000D01*
X117650000Y-87825000D02*
X115025000Y-87825000D01*
X115025000Y-87825000D02*
X113725000Y-86525000D01*
X113725000Y-79385000D02*
X115500000Y-77610000D01*
X113725000Y-86525000D02*
X113725000Y-79385000D01*
%TO.N,Iout_PWM*%
X139060000Y-87680000D02*
X136075000Y-90665000D01*
X136075000Y-90665000D02*
X136075000Y-91450000D01*
X136075000Y-91450000D02*
X135175000Y-92350000D01*
X135175000Y-92350000D02*
X123175000Y-92350000D01*
X123175000Y-92350000D02*
X121075000Y-90250000D01*
%TO.N,Net-(J1-Pad1)*%
X117575000Y-71575000D02*
X117575000Y-68425000D01*
X116600000Y-67450000D02*
X115500000Y-67450000D01*
X117575000Y-68425000D02*
X116600000Y-67450000D01*
%TO.N,ANALOGUE_3*%
X145410000Y-69190000D02*
X145450000Y-69150000D01*
X145410000Y-72050000D02*
X145410000Y-69190000D01*
X123820000Y-64820000D02*
X126625000Y-67625000D01*
X135344999Y-65660684D02*
X136284315Y-66600000D01*
X135344999Y-64445997D02*
X135344999Y-65660684D01*
X134544001Y-63644999D02*
X135344999Y-64445997D01*
X136284315Y-66600000D02*
X136850000Y-66600000D01*
X133415999Y-63644999D02*
X134544001Y-63644999D01*
X132804999Y-64255999D02*
X133415999Y-63644999D01*
X132804999Y-65384001D02*
X132804999Y-64255999D01*
X130564000Y-67625000D02*
X132804999Y-65384001D01*
X126625000Y-67625000D02*
X130564000Y-67625000D01*
%TO.N,SDA*%
X127525000Y-93075000D02*
X127200000Y-93400000D01*
X130675000Y-93075000D02*
X127525000Y-93075000D01*
D19*
%TO.N,SCL*%
X130170000Y-72050000D02*
X130170000Y-71650000D01*
D18*
X127670000Y-69550000D02*
X127670000Y-69150000D01*
X130170000Y-72050000D02*
X127670000Y-69550000D01*
D20*
%TO.N,+5V*%
X155975000Y-74325000D02*
X155975000Y-69850000D01*
X150945000Y-64820000D02*
X149220000Y-64820000D01*
X155975000Y-69850000D02*
X150945000Y-64820000D01*
X168655000Y-64820000D02*
X169300000Y-64175000D01*
X149220000Y-64820000D02*
X168655000Y-64820000D01*
D19*
X155150000Y-69850000D02*
X152800000Y-72200000D01*
X155975000Y-69850000D02*
X155150000Y-69850000D01*
D18*
%TO.N,Net-(J3-Pad2)*%
X160325000Y-88525000D02*
X160325000Y-92225000D01*
X159500000Y-87700000D02*
X160325000Y-88525000D01*
%TO.N,RS485_RX*%
X139154999Y-64914999D02*
X139060000Y-64820000D01*
X139154999Y-82670001D02*
X139154999Y-64914999D01*
X137800000Y-84025000D02*
X139154999Y-82670001D01*
%TO.N,RS485_TX*%
X141545001Y-64874999D02*
X141600000Y-64820000D01*
X141545001Y-77629999D02*
X141545001Y-64874999D01*
X140125000Y-79050000D02*
X141545001Y-77629999D01*
%TO.N,GPIO_27*%
X142964999Y-73835001D02*
X144140000Y-72660000D01*
X141475000Y-89650000D02*
X142964999Y-88160001D01*
X144140000Y-72660000D02*
X144140000Y-64820000D01*
X141475000Y-92000000D02*
X141475000Y-89650000D01*
X123160001Y-85310001D02*
X123000000Y-85150000D01*
X142964999Y-85310001D02*
X123160001Y-85310001D01*
X142964999Y-88160001D02*
X142964999Y-85310001D01*
X142964999Y-85310001D02*
X142964999Y-73835001D01*
D19*
%TO.N,Net-(J6-Pad5)*%
X163500000Y-77610000D02*
X165285000Y-77610000D01*
X165285000Y-77610000D02*
X165575000Y-77900000D01*
X165575000Y-77900000D02*
X165575000Y-79600000D01*
X165025000Y-80150000D02*
X163500000Y-80150000D01*
X165575000Y-79600000D02*
X165025000Y-80150000D01*
D20*
X163500000Y-77610000D02*
X161910000Y-77610000D01*
X161910000Y-77610000D02*
X159000000Y-74700000D01*
X157650000Y-74700000D02*
X157275000Y-74325000D01*
X159000000Y-74700000D02*
X157650000Y-74700000D01*
D19*
%TO.N,Net-(J6-Pad3)*%
X163500000Y-72530000D02*
X164630000Y-72530000D01*
X164630000Y-72530000D02*
X165100000Y-73000000D01*
X165100000Y-73000000D02*
X165100000Y-74375000D01*
X164405000Y-75070000D02*
X163500000Y-75070000D01*
X165100000Y-74375000D02*
X164405000Y-75070000D01*
D18*
%TO.N,/GPIO_32*%
X133980000Y-72695000D02*
X133980000Y-64820000D01*
X133425000Y-91100000D02*
X132804999Y-90479999D01*
X133425000Y-91100000D02*
X130375000Y-91100000D01*
X133425000Y-91100000D02*
X133875000Y-91100000D01*
X132525000Y-74150000D02*
X132937500Y-73737500D01*
X132937500Y-73737500D02*
X133980000Y-72695000D01*
X132525000Y-78950000D02*
X132525000Y-74150000D01*
X132804999Y-73870001D02*
X132937500Y-73737500D01*
X130375000Y-91100000D02*
X125475000Y-91100000D01*
D20*
%TO.N,EXT_5V*%
X154675000Y-81175000D02*
X154675000Y-74325000D01*
X150450000Y-85400000D02*
X154675000Y-81175000D01*
%TD*%
D21*
%TO.N,GND*%
X114461200Y-88336002D02*
X114484999Y-88365001D01*
X114600724Y-88459974D01*
X114732753Y-88530546D01*
X114876014Y-88574003D01*
X114987667Y-88585000D01*
X114987675Y-88585000D01*
X115025000Y-88588676D01*
X115062325Y-88585000D01*
X116597435Y-88585000D01*
X116565000Y-88748061D01*
X116565000Y-88951939D01*
X116604774Y-89151898D01*
X116682795Y-89340256D01*
X116796063Y-89509774D01*
X116940226Y-89653937D01*
X117109744Y-89767205D01*
X117298102Y-89845226D01*
X117354957Y-89856535D01*
X122593469Y-95095048D01*
X122621182Y-95128816D01*
X122654950Y-95156529D01*
X122654952Y-95156531D01*
X122726451Y-95215209D01*
X122755940Y-95239410D01*
X122909686Y-95321588D01*
X123076509Y-95372194D01*
X123206522Y-95384999D01*
X123206532Y-95384999D01*
X123249998Y-95389280D01*
X123293464Y-95384999D01*
X124135749Y-95384999D01*
X124223750Y-95473000D01*
X125348000Y-95473000D01*
X125348000Y-95453000D01*
X125602000Y-95453000D01*
X125602000Y-95473000D01*
X126726250Y-95473000D01*
X126814251Y-95384999D01*
X129723419Y-95384999D01*
X130786420Y-96448000D01*
X126853511Y-96448000D01*
X126875812Y-96374482D01*
X126888072Y-96250000D01*
X126885000Y-95885750D01*
X126726250Y-95727000D01*
X125602000Y-95727000D01*
X125602000Y-95747000D01*
X125348000Y-95747000D01*
X125348000Y-95727000D01*
X124223750Y-95727000D01*
X124065000Y-95885750D01*
X124061928Y-96250000D01*
X124074188Y-96374482D01*
X124096489Y-96448000D01*
X113302000Y-96448000D01*
X113302000Y-87176801D01*
X114461200Y-88336002D01*
%TA.AperFunction,Conductor*%
D22*
G36*
X114461200Y-88336002D02*
G01*
X114484999Y-88365001D01*
X114600724Y-88459974D01*
X114732753Y-88530546D01*
X114876014Y-88574003D01*
X114987667Y-88585000D01*
X114987675Y-88585000D01*
X115025000Y-88588676D01*
X115062325Y-88585000D01*
X116597435Y-88585000D01*
X116565000Y-88748061D01*
X116565000Y-88951939D01*
X116604774Y-89151898D01*
X116682795Y-89340256D01*
X116796063Y-89509774D01*
X116940226Y-89653937D01*
X117109744Y-89767205D01*
X117298102Y-89845226D01*
X117354957Y-89856535D01*
X122593469Y-95095048D01*
X122621182Y-95128816D01*
X122654950Y-95156529D01*
X122654952Y-95156531D01*
X122726451Y-95215209D01*
X122755940Y-95239410D01*
X122909686Y-95321588D01*
X123076509Y-95372194D01*
X123206522Y-95384999D01*
X123206532Y-95384999D01*
X123249998Y-95389280D01*
X123293464Y-95384999D01*
X124135749Y-95384999D01*
X124223750Y-95473000D01*
X125348000Y-95473000D01*
X125348000Y-95453000D01*
X125602000Y-95453000D01*
X125602000Y-95473000D01*
X126726250Y-95473000D01*
X126814251Y-95384999D01*
X129723419Y-95384999D01*
X130786420Y-96448000D01*
X126853511Y-96448000D01*
X126875812Y-96374482D01*
X126888072Y-96250000D01*
X126885000Y-95885750D01*
X126726250Y-95727000D01*
X125602000Y-95727000D01*
X125602000Y-95747000D01*
X125348000Y-95747000D01*
X125348000Y-95727000D01*
X124223750Y-95727000D01*
X124065000Y-95885750D01*
X124061928Y-96250000D01*
X124074188Y-96374482D01*
X124096489Y-96448000D01*
X113302000Y-96448000D01*
X113302000Y-87176801D01*
X114461200Y-88336002D01*
G37*
%TD.AperFunction*%
D21*
X168849188Y-85924482D02*
X168885498Y-86044180D01*
X168944463Y-86154494D01*
X169023815Y-86251185D01*
X169120506Y-86330537D01*
X169230820Y-86389502D01*
X169303380Y-86411513D01*
X169171525Y-86543368D01*
X169009010Y-86786589D01*
X168897068Y-87056842D01*
X168840000Y-87343740D01*
X168840000Y-87636260D01*
X168897068Y-87923158D01*
X169009010Y-88193411D01*
X169171525Y-88436632D01*
X169378368Y-88643475D01*
X169552760Y-88760000D01*
X169378368Y-88876525D01*
X169171525Y-89083368D01*
X169009010Y-89326589D01*
X168897068Y-89596842D01*
X168840000Y-89883740D01*
X168840000Y-90176260D01*
X168897068Y-90463158D01*
X169009010Y-90733411D01*
X169171525Y-90976632D01*
X169378368Y-91183475D01*
X169560534Y-91305195D01*
X169443645Y-91374822D01*
X169227412Y-91569731D01*
X169053359Y-91803080D01*
X168928175Y-92065901D01*
X168883524Y-92213110D01*
X169004845Y-92443000D01*
X170198000Y-92443000D01*
X170198000Y-92423000D01*
X170452000Y-92423000D01*
X170452000Y-92443000D01*
X170472000Y-92443000D01*
X170472000Y-92697000D01*
X170452000Y-92697000D01*
X170452000Y-93890814D01*
X170681891Y-94011481D01*
X170956252Y-93914157D01*
X171206355Y-93765178D01*
X171422588Y-93570269D01*
X171596641Y-93336920D01*
X171673000Y-93176606D01*
X171673000Y-96448000D01*
X143053578Y-96448000D01*
X149815051Y-89686528D01*
X149848817Y-89658817D01*
X149959411Y-89524059D01*
X150041589Y-89370313D01*
X150092195Y-89203490D01*
X150105000Y-89073477D01*
X150105000Y-89073467D01*
X150109281Y-89030001D01*
X150105000Y-88986535D01*
X150105000Y-88874656D01*
X150166632Y-88833475D01*
X150373475Y-88626632D01*
X150414656Y-88565000D01*
X150851531Y-88565000D01*
X150895000Y-88569281D01*
X150938469Y-88565000D01*
X150938477Y-88565000D01*
X151068490Y-88552195D01*
X151235313Y-88501589D01*
X151389059Y-88419411D01*
X151523817Y-88308817D01*
X151551534Y-88275044D01*
X152091580Y-87734999D01*
X158465000Y-87734999D01*
X158465000Y-87801939D01*
X158504774Y-88001898D01*
X158582795Y-88190256D01*
X158696063Y-88359774D01*
X158840226Y-88503937D01*
X159009744Y-88617205D01*
X159198102Y-88695226D01*
X159398061Y-88735000D01*
X159460198Y-88735000D01*
X159565000Y-88839802D01*
X159565001Y-90976066D01*
X159447498Y-91072498D01*
X159415809Y-91111111D01*
X159413405Y-91106613D01*
X159302962Y-90972038D01*
X159168387Y-90861595D01*
X159014851Y-90779528D01*
X158848255Y-90728992D01*
X158675001Y-90711928D01*
X157974999Y-90711928D01*
X157801745Y-90728992D01*
X157635149Y-90779528D01*
X157481613Y-90861595D01*
X157347038Y-90972038D01*
X157236595Y-91106613D01*
X157154528Y-91260149D01*
X157103992Y-91426745D01*
X157086928Y-91599999D01*
X157086928Y-92850001D01*
X157103992Y-93023255D01*
X157154528Y-93189851D01*
X157236595Y-93343387D01*
X157347038Y-93477962D01*
X157481613Y-93588405D01*
X157635149Y-93670472D01*
X157801745Y-93721008D01*
X157974999Y-93738072D01*
X158675001Y-93738072D01*
X158848255Y-93721008D01*
X159014851Y-93670472D01*
X159168387Y-93588405D01*
X159302962Y-93477962D01*
X159413405Y-93343387D01*
X159415810Y-93338888D01*
X159447499Y-93377502D01*
X159635552Y-93531833D01*
X159850100Y-93646511D01*
X160082899Y-93717130D01*
X160325000Y-93740975D01*
X160567102Y-93717130D01*
X160799901Y-93646511D01*
X161014449Y-93531833D01*
X161202502Y-93377502D01*
X161325001Y-93228237D01*
X161447499Y-93377502D01*
X161635552Y-93531833D01*
X161850100Y-93646511D01*
X162082899Y-93717130D01*
X162325000Y-93740975D01*
X162567102Y-93717130D01*
X162799901Y-93646511D01*
X163014449Y-93531833D01*
X163202502Y-93377502D01*
X163325481Y-93227652D01*
X163368693Y-93291725D01*
X163541526Y-93463078D01*
X163744467Y-93597421D01*
X163969718Y-93689591D01*
X164007391Y-93693462D01*
X164198000Y-93568731D01*
X164198000Y-92352000D01*
X164452000Y-92352000D01*
X164452000Y-93568731D01*
X164642609Y-93693462D01*
X164680282Y-93689591D01*
X164905533Y-93597421D01*
X165108474Y-93463078D01*
X165281307Y-93291725D01*
X165417390Y-93089946D01*
X165485752Y-92926890D01*
X168883524Y-92926890D01*
X168928175Y-93074099D01*
X169053359Y-93336920D01*
X169227412Y-93570269D01*
X169443645Y-93765178D01*
X169693748Y-93914157D01*
X169968109Y-94011481D01*
X170198000Y-93890814D01*
X170198000Y-92697000D01*
X169004845Y-92697000D01*
X168883524Y-92926890D01*
X165485752Y-92926890D01*
X165511493Y-92865496D01*
X165560000Y-92627000D01*
X165560000Y-92352000D01*
X164452000Y-92352000D01*
X164198000Y-92352000D01*
X164178000Y-92352000D01*
X164178000Y-92098000D01*
X164198000Y-92098000D01*
X164198000Y-90881269D01*
X164452000Y-90881269D01*
X164452000Y-92098000D01*
X165560000Y-92098000D01*
X165560000Y-91823000D01*
X165511493Y-91584504D01*
X165417390Y-91360054D01*
X165281307Y-91158275D01*
X165108474Y-90986922D01*
X164905533Y-90852579D01*
X164680282Y-90760409D01*
X164642609Y-90756538D01*
X164452000Y-90881269D01*
X164198000Y-90881269D01*
X164007391Y-90756538D01*
X163969718Y-90760409D01*
X163744467Y-90852579D01*
X163541526Y-90986922D01*
X163368693Y-91158275D01*
X163325481Y-91222348D01*
X163202502Y-91072498D01*
X163014448Y-90918167D01*
X162799900Y-90803489D01*
X162567101Y-90732870D01*
X162325000Y-90709025D01*
X162082898Y-90732870D01*
X161850099Y-90803489D01*
X161635551Y-90918167D01*
X161447498Y-91072498D01*
X161325000Y-91221763D01*
X161202502Y-91072498D01*
X161085000Y-90976067D01*
X161085000Y-88562322D01*
X161088676Y-88524999D01*
X161085000Y-88487676D01*
X161085000Y-88487667D01*
X161074003Y-88376014D01*
X161030546Y-88232753D01*
X160959974Y-88100724D01*
X160865001Y-87984999D01*
X160836004Y-87961202D01*
X160684802Y-87810000D01*
X165181531Y-87810000D01*
X165225000Y-87814281D01*
X165268469Y-87810000D01*
X165268477Y-87810000D01*
X165398490Y-87797195D01*
X165565313Y-87746589D01*
X165719059Y-87664411D01*
X165853817Y-87553817D01*
X165881534Y-87520044D01*
X167566579Y-85835000D01*
X168840375Y-85835000D01*
X168849188Y-85924482D01*
%TA.AperFunction,Conductor*%
D22*
G36*
X168849188Y-85924482D02*
G01*
X168885498Y-86044180D01*
X168944463Y-86154494D01*
X169023815Y-86251185D01*
X169120506Y-86330537D01*
X169230820Y-86389502D01*
X169303380Y-86411513D01*
X169171525Y-86543368D01*
X169009010Y-86786589D01*
X168897068Y-87056842D01*
X168840000Y-87343740D01*
X168840000Y-87636260D01*
X168897068Y-87923158D01*
X169009010Y-88193411D01*
X169171525Y-88436632D01*
X169378368Y-88643475D01*
X169552760Y-88760000D01*
X169378368Y-88876525D01*
X169171525Y-89083368D01*
X169009010Y-89326589D01*
X168897068Y-89596842D01*
X168840000Y-89883740D01*
X168840000Y-90176260D01*
X168897068Y-90463158D01*
X169009010Y-90733411D01*
X169171525Y-90976632D01*
X169378368Y-91183475D01*
X169560534Y-91305195D01*
X169443645Y-91374822D01*
X169227412Y-91569731D01*
X169053359Y-91803080D01*
X168928175Y-92065901D01*
X168883524Y-92213110D01*
X169004845Y-92443000D01*
X170198000Y-92443000D01*
X170198000Y-92423000D01*
X170452000Y-92423000D01*
X170452000Y-92443000D01*
X170472000Y-92443000D01*
X170472000Y-92697000D01*
X170452000Y-92697000D01*
X170452000Y-93890814D01*
X170681891Y-94011481D01*
X170956252Y-93914157D01*
X171206355Y-93765178D01*
X171422588Y-93570269D01*
X171596641Y-93336920D01*
X171673000Y-93176606D01*
X171673000Y-96448000D01*
X143053578Y-96448000D01*
X149815051Y-89686528D01*
X149848817Y-89658817D01*
X149959411Y-89524059D01*
X150041589Y-89370313D01*
X150092195Y-89203490D01*
X150105000Y-89073477D01*
X150105000Y-89073467D01*
X150109281Y-89030001D01*
X150105000Y-88986535D01*
X150105000Y-88874656D01*
X150166632Y-88833475D01*
X150373475Y-88626632D01*
X150414656Y-88565000D01*
X150851531Y-88565000D01*
X150895000Y-88569281D01*
X150938469Y-88565000D01*
X150938477Y-88565000D01*
X151068490Y-88552195D01*
X151235313Y-88501589D01*
X151389059Y-88419411D01*
X151523817Y-88308817D01*
X151551534Y-88275044D01*
X152091580Y-87734999D01*
X158465000Y-87734999D01*
X158465000Y-87801939D01*
X158504774Y-88001898D01*
X158582795Y-88190256D01*
X158696063Y-88359774D01*
X158840226Y-88503937D01*
X159009744Y-88617205D01*
X159198102Y-88695226D01*
X159398061Y-88735000D01*
X159460198Y-88735000D01*
X159565000Y-88839802D01*
X159565001Y-90976066D01*
X159447498Y-91072498D01*
X159415809Y-91111111D01*
X159413405Y-91106613D01*
X159302962Y-90972038D01*
X159168387Y-90861595D01*
X159014851Y-90779528D01*
X158848255Y-90728992D01*
X158675001Y-90711928D01*
X157974999Y-90711928D01*
X157801745Y-90728992D01*
X157635149Y-90779528D01*
X157481613Y-90861595D01*
X157347038Y-90972038D01*
X157236595Y-91106613D01*
X157154528Y-91260149D01*
X157103992Y-91426745D01*
X157086928Y-91599999D01*
X157086928Y-92850001D01*
X157103992Y-93023255D01*
X157154528Y-93189851D01*
X157236595Y-93343387D01*
X157347038Y-93477962D01*
X157481613Y-93588405D01*
X157635149Y-93670472D01*
X157801745Y-93721008D01*
X157974999Y-93738072D01*
X158675001Y-93738072D01*
X158848255Y-93721008D01*
X159014851Y-93670472D01*
X159168387Y-93588405D01*
X159302962Y-93477962D01*
X159413405Y-93343387D01*
X159415810Y-93338888D01*
X159447499Y-93377502D01*
X159635552Y-93531833D01*
X159850100Y-93646511D01*
X160082899Y-93717130D01*
X160325000Y-93740975D01*
X160567102Y-93717130D01*
X160799901Y-93646511D01*
X161014449Y-93531833D01*
X161202502Y-93377502D01*
X161325001Y-93228237D01*
X161447499Y-93377502D01*
X161635552Y-93531833D01*
X161850100Y-93646511D01*
X162082899Y-93717130D01*
X162325000Y-93740975D01*
X162567102Y-93717130D01*
X162799901Y-93646511D01*
X163014449Y-93531833D01*
X163202502Y-93377502D01*
X163325481Y-93227652D01*
X163368693Y-93291725D01*
X163541526Y-93463078D01*
X163744467Y-93597421D01*
X163969718Y-93689591D01*
X164007391Y-93693462D01*
X164198000Y-93568731D01*
X164198000Y-92352000D01*
X164452000Y-92352000D01*
X164452000Y-93568731D01*
X164642609Y-93693462D01*
X164680282Y-93689591D01*
X164905533Y-93597421D01*
X165108474Y-93463078D01*
X165281307Y-93291725D01*
X165417390Y-93089946D01*
X165485752Y-92926890D01*
X168883524Y-92926890D01*
X168928175Y-93074099D01*
X169053359Y-93336920D01*
X169227412Y-93570269D01*
X169443645Y-93765178D01*
X169693748Y-93914157D01*
X169968109Y-94011481D01*
X170198000Y-93890814D01*
X170198000Y-92697000D01*
X169004845Y-92697000D01*
X168883524Y-92926890D01*
X165485752Y-92926890D01*
X165511493Y-92865496D01*
X165560000Y-92627000D01*
X165560000Y-92352000D01*
X164452000Y-92352000D01*
X164198000Y-92352000D01*
X164178000Y-92352000D01*
X164178000Y-92098000D01*
X164198000Y-92098000D01*
X164198000Y-90881269D01*
X164452000Y-90881269D01*
X164452000Y-92098000D01*
X165560000Y-92098000D01*
X165560000Y-91823000D01*
X165511493Y-91584504D01*
X165417390Y-91360054D01*
X165281307Y-91158275D01*
X165108474Y-90986922D01*
X164905533Y-90852579D01*
X164680282Y-90760409D01*
X164642609Y-90756538D01*
X164452000Y-90881269D01*
X164198000Y-90881269D01*
X164007391Y-90756538D01*
X163969718Y-90760409D01*
X163744467Y-90852579D01*
X163541526Y-90986922D01*
X163368693Y-91158275D01*
X163325481Y-91222348D01*
X163202502Y-91072498D01*
X163014448Y-90918167D01*
X162799900Y-90803489D01*
X162567101Y-90732870D01*
X162325000Y-90709025D01*
X162082898Y-90732870D01*
X161850099Y-90803489D01*
X161635551Y-90918167D01*
X161447498Y-91072498D01*
X161325000Y-91221763D01*
X161202502Y-91072498D01*
X161085000Y-90976067D01*
X161085000Y-88562322D01*
X161088676Y-88524999D01*
X161085000Y-88487676D01*
X161085000Y-88487667D01*
X161074003Y-88376014D01*
X161030546Y-88232753D01*
X160959974Y-88100724D01*
X160865001Y-87984999D01*
X160836004Y-87961202D01*
X160684802Y-87810000D01*
X165181531Y-87810000D01*
X165225000Y-87814281D01*
X165268469Y-87810000D01*
X165268477Y-87810000D01*
X165398490Y-87797195D01*
X165565313Y-87746589D01*
X165719059Y-87664411D01*
X165853817Y-87553817D01*
X165881534Y-87520044D01*
X167566579Y-85835000D01*
X168840375Y-85835000D01*
X168849188Y-85924482D01*
G37*
%TD.AperFunction*%
D21*
X146321981Y-63371401D02*
X146046253Y-63469081D01*
X145908843Y-63542528D01*
X145831208Y-63791603D01*
X146680000Y-64640395D01*
X147528792Y-63791603D01*
X147451157Y-63542528D01*
X147187117Y-63416629D01*
X146932502Y-63352000D01*
X148988276Y-63352000D01*
X148786842Y-63392068D01*
X148516589Y-63504010D01*
X148273368Y-63666525D01*
X148066525Y-63873368D01*
X147950689Y-64046729D01*
X147708397Y-63971208D01*
X146859605Y-64820000D01*
X147708397Y-65668792D01*
X147950689Y-65593271D01*
X148066525Y-65766632D01*
X148273368Y-65973475D01*
X148516589Y-66135990D01*
X148786842Y-66247932D01*
X149073740Y-66305000D01*
X149366260Y-66305000D01*
X149653158Y-66247932D01*
X149923411Y-66135990D01*
X150166632Y-65973475D01*
X150185107Y-65955000D01*
X150474869Y-65955000D01*
X154134145Y-69614276D01*
X152554957Y-71193465D01*
X152498102Y-71204774D01*
X152309744Y-71282795D01*
X152140226Y-71396063D01*
X151996063Y-71540226D01*
X151882795Y-71709744D01*
X151804774Y-71898102D01*
X151765000Y-72098061D01*
X151765000Y-72301939D01*
X151804774Y-72501898D01*
X151882795Y-72690256D01*
X151996063Y-72859774D01*
X152140226Y-73003937D01*
X152309744Y-73117205D01*
X152498102Y-73195226D01*
X152698061Y-73235000D01*
X152901939Y-73235000D01*
X153101898Y-73195226D01*
X153290256Y-73117205D01*
X153459774Y-73003937D01*
X153603937Y-72859774D01*
X153717205Y-72690256D01*
X153795226Y-72501898D01*
X153806535Y-72445043D01*
X154840001Y-71411578D01*
X154840000Y-72936928D01*
X154675000Y-72936928D01*
X154650550Y-72939336D01*
X154625991Y-72939336D01*
X154501510Y-72951596D01*
X154405377Y-72970718D01*
X154285681Y-73007027D01*
X154195125Y-73044536D01*
X154084808Y-73103502D01*
X154003309Y-73157958D01*
X153906618Y-73237310D01*
X153837310Y-73306618D01*
X153757958Y-73403309D01*
X153703502Y-73484808D01*
X153644536Y-73595125D01*
X153607027Y-73685681D01*
X153570718Y-73805377D01*
X153551596Y-73901510D01*
X153539336Y-74025991D01*
X153539336Y-74050550D01*
X153536928Y-74075000D01*
X153536928Y-74575000D01*
X153539336Y-74599450D01*
X153539336Y-74624009D01*
X153540001Y-74630761D01*
X153540000Y-80704868D01*
X149608012Y-84636857D01*
X149501717Y-84766378D01*
X149396324Y-84963554D01*
X149331423Y-85177502D01*
X149309509Y-85400000D01*
X149331423Y-85622498D01*
X149396324Y-85836446D01*
X149501717Y-86033622D01*
X149643552Y-86206448D01*
X149745998Y-86290523D01*
X149653158Y-86252068D01*
X149366260Y-86195000D01*
X149073740Y-86195000D01*
X148786842Y-86252068D01*
X148516589Y-86364010D01*
X148273368Y-86526525D01*
X148066525Y-86733368D01*
X147950689Y-86906729D01*
X147708397Y-86831208D01*
X146859605Y-87680000D01*
X147708397Y-88528792D01*
X147950689Y-88453271D01*
X148066525Y-88626632D01*
X148219157Y-88779264D01*
X144723836Y-92274586D01*
X144576250Y-92127000D01*
X143652000Y-92127000D01*
X143652000Y-93176250D01*
X143737086Y-93261336D01*
X140783422Y-96215000D01*
X134837777Y-96215000D01*
X134835000Y-95885750D01*
X134676250Y-95727000D01*
X133552000Y-95727000D01*
X133552000Y-95747000D01*
X133298000Y-95747000D01*
X133298000Y-95727000D01*
X133278000Y-95727000D01*
X133278000Y-95473000D01*
X133298000Y-95473000D01*
X133298000Y-94473750D01*
X133552000Y-94473750D01*
X133552000Y-95473000D01*
X134676250Y-95473000D01*
X134835000Y-95314250D01*
X134838072Y-94950000D01*
X134825812Y-94825518D01*
X134789502Y-94705820D01*
X134730537Y-94595506D01*
X134651185Y-94498815D01*
X134554494Y-94419463D01*
X134444180Y-94360498D01*
X134324482Y-94324188D01*
X134200000Y-94311928D01*
X133710750Y-94315000D01*
X133552000Y-94473750D01*
X133298000Y-94473750D01*
X133139250Y-94315000D01*
X132650000Y-94311928D01*
X132525518Y-94324188D01*
X132405820Y-94360498D01*
X132295506Y-94419463D01*
X132198815Y-94498815D01*
X132119463Y-94595506D01*
X132060498Y-94705820D01*
X132024188Y-94825518D01*
X132011928Y-94950000D01*
X132013802Y-95172226D01*
X130922602Y-94081026D01*
X130976898Y-94070226D01*
X131165256Y-93992205D01*
X131334774Y-93878937D01*
X131478937Y-93734774D01*
X131592205Y-93565256D01*
X131670226Y-93376898D01*
X131710000Y-93176939D01*
X131710000Y-93110000D01*
X135137678Y-93110000D01*
X135175000Y-93113676D01*
X135212322Y-93110000D01*
X135212333Y-93110000D01*
X135323986Y-93099003D01*
X135467247Y-93055546D01*
X135599276Y-92984974D01*
X135715001Y-92890001D01*
X135738803Y-92860998D01*
X136586003Y-92013799D01*
X136615001Y-91990001D01*
X136709974Y-91874276D01*
X136780546Y-91742247D01*
X136824003Y-91598986D01*
X136835000Y-91487333D01*
X136835000Y-91487324D01*
X136838676Y-91450001D01*
X136835000Y-91412678D01*
X136835000Y-90979801D01*
X138693593Y-89121210D01*
X138913740Y-89165000D01*
X139206260Y-89165000D01*
X139493158Y-89107932D01*
X139763411Y-88995990D01*
X140006632Y-88833475D01*
X140213475Y-88626632D01*
X140330000Y-88452240D01*
X140446525Y-88626632D01*
X140653368Y-88833475D01*
X140896589Y-88995990D01*
X141008043Y-89042156D01*
X140963998Y-89086201D01*
X140935000Y-89109999D01*
X140911202Y-89138997D01*
X140911201Y-89138998D01*
X140840026Y-89225724D01*
X140769454Y-89357754D01*
X140742975Y-89445046D01*
X140725998Y-89501014D01*
X140717211Y-89590226D01*
X140711324Y-89650000D01*
X140715001Y-89687332D01*
X140715001Y-90780386D01*
X140656613Y-90811595D01*
X140522038Y-90922038D01*
X140411595Y-91056613D01*
X140329528Y-91210149D01*
X140278992Y-91376745D01*
X140261928Y-91549999D01*
X140261928Y-92450001D01*
X140278992Y-92623255D01*
X140329528Y-92789851D01*
X140411595Y-92943387D01*
X140522038Y-93077962D01*
X140656613Y-93188405D01*
X140810149Y-93270472D01*
X140976745Y-93321008D01*
X141149999Y-93338072D01*
X141800001Y-93338072D01*
X141973255Y-93321008D01*
X142139851Y-93270472D01*
X142293387Y-93188405D01*
X142427962Y-93077962D01*
X142433342Y-93071406D01*
X142498815Y-93151185D01*
X142595506Y-93230537D01*
X142705820Y-93289502D01*
X142825518Y-93325812D01*
X142950000Y-93338072D01*
X143239250Y-93335000D01*
X143398000Y-93176250D01*
X143398000Y-92127000D01*
X143378000Y-92127000D01*
X143378000Y-91873000D01*
X143398000Y-91873000D01*
X143398000Y-90823750D01*
X143652000Y-90823750D01*
X143652000Y-91873000D01*
X144576250Y-91873000D01*
X144735000Y-91714250D01*
X144738072Y-91300000D01*
X144725812Y-91175518D01*
X144689502Y-91055820D01*
X144630537Y-90945506D01*
X144551185Y-90848815D01*
X144454494Y-90769463D01*
X144344180Y-90710498D01*
X144224482Y-90674188D01*
X144100000Y-90661928D01*
X143810750Y-90665000D01*
X143652000Y-90823750D01*
X143398000Y-90823750D01*
X143239250Y-90665000D01*
X142950000Y-90661928D01*
X142825518Y-90674188D01*
X142705820Y-90710498D01*
X142595506Y-90769463D01*
X142498815Y-90848815D01*
X142433342Y-90928594D01*
X142427962Y-90922038D01*
X142293387Y-90811595D01*
X142235000Y-90780386D01*
X142235000Y-89964801D01*
X143338780Y-88861022D01*
X143368843Y-88957472D01*
X143632883Y-89083371D01*
X143916411Y-89155339D01*
X144208531Y-89170611D01*
X144498019Y-89128599D01*
X144773747Y-89030919D01*
X144911157Y-88957472D01*
X144988792Y-88708397D01*
X145831208Y-88708397D01*
X145908843Y-88957472D01*
X146172883Y-89083371D01*
X146456411Y-89155339D01*
X146748531Y-89170611D01*
X147038019Y-89128599D01*
X147313747Y-89030919D01*
X147451157Y-88957472D01*
X147528792Y-88708397D01*
X146680000Y-87859605D01*
X145831208Y-88708397D01*
X144988792Y-88708397D01*
X144140000Y-87859605D01*
X144125858Y-87873748D01*
X143946253Y-87694143D01*
X143960395Y-87680000D01*
X144319605Y-87680000D01*
X145168397Y-88528792D01*
X145410000Y-88453486D01*
X145651603Y-88528792D01*
X146500395Y-87680000D01*
X145651603Y-86831208D01*
X145410000Y-86906514D01*
X145168397Y-86831208D01*
X144319605Y-87680000D01*
X143960395Y-87680000D01*
X143946253Y-87665858D01*
X144125858Y-87486253D01*
X144140000Y-87500395D01*
X144988792Y-86651603D01*
X145831208Y-86651603D01*
X146680000Y-87500395D01*
X147528792Y-86651603D01*
X147451157Y-86402528D01*
X147187117Y-86276629D01*
X146903589Y-86204661D01*
X146611469Y-86189389D01*
X146321981Y-86231401D01*
X146046253Y-86329081D01*
X145908843Y-86402528D01*
X145831208Y-86651603D01*
X144988792Y-86651603D01*
X144911157Y-86402528D01*
X144647117Y-86276629D01*
X144363589Y-86204661D01*
X144071469Y-86189389D01*
X143781981Y-86231401D01*
X143724999Y-86251588D01*
X143724999Y-85347333D01*
X143728676Y-85310001D01*
X143724999Y-85272668D01*
X143724999Y-84648061D01*
X147090000Y-84648061D01*
X147090000Y-84851939D01*
X147129774Y-85051898D01*
X147207795Y-85240256D01*
X147321063Y-85409774D01*
X147465226Y-85553937D01*
X147634744Y-85667205D01*
X147823102Y-85745226D01*
X148023061Y-85785000D01*
X148226939Y-85785000D01*
X148426898Y-85745226D01*
X148615256Y-85667205D01*
X148784774Y-85553937D01*
X148928937Y-85409774D01*
X149042205Y-85240256D01*
X149117077Y-85059501D01*
X149295044Y-84881534D01*
X149328817Y-84853817D01*
X149439411Y-84719059D01*
X149521589Y-84565313D01*
X149572195Y-84398490D01*
X149585000Y-84268477D01*
X149585000Y-84268469D01*
X149589281Y-84225000D01*
X149585000Y-84181531D01*
X149585000Y-79563454D01*
X149617205Y-79515256D01*
X149695226Y-79326898D01*
X149735000Y-79126939D01*
X149735000Y-78923061D01*
X149695226Y-78723102D01*
X149617205Y-78534744D01*
X149503937Y-78365226D01*
X149359774Y-78221063D01*
X149190256Y-78107795D01*
X149001898Y-78029774D01*
X148801939Y-77990000D01*
X148598061Y-77990000D01*
X148398102Y-78029774D01*
X148209744Y-78107795D01*
X148040226Y-78221063D01*
X147896063Y-78365226D01*
X147782795Y-78534744D01*
X147704774Y-78723102D01*
X147665000Y-78923061D01*
X147665000Y-79126939D01*
X147704774Y-79326898D01*
X147782795Y-79515256D01*
X147815000Y-79563454D01*
X147815001Y-83758130D01*
X147634744Y-83832795D01*
X147465226Y-83946063D01*
X147321063Y-84090226D01*
X147207795Y-84259744D01*
X147129774Y-84448102D01*
X147090000Y-84648061D01*
X143724999Y-84648061D01*
X143724999Y-74149802D01*
X144588030Y-73286772D01*
X144706589Y-73365990D01*
X144976842Y-73477932D01*
X145263740Y-73535000D01*
X145556260Y-73535000D01*
X145843158Y-73477932D01*
X146113411Y-73365990D01*
X146356632Y-73203475D01*
X146563475Y-72996632D01*
X146725990Y-72753411D01*
X146837932Y-72483158D01*
X146895000Y-72196260D01*
X146895000Y-71903740D01*
X146837932Y-71616842D01*
X146725990Y-71346589D01*
X146563475Y-71103368D01*
X146356632Y-70896525D01*
X146170000Y-70771822D01*
X146170000Y-70454906D01*
X146396632Y-70303475D01*
X146603475Y-70096632D01*
X146765990Y-69853411D01*
X146877932Y-69583158D01*
X146935000Y-69296260D01*
X146935000Y-69003740D01*
X146877932Y-68716842D01*
X146765990Y-68446589D01*
X146603475Y-68203368D01*
X146396632Y-67996525D01*
X146153411Y-67834010D01*
X145883158Y-67722068D01*
X145596260Y-67665000D01*
X145303740Y-67665000D01*
X145016842Y-67722068D01*
X144900000Y-67770465D01*
X144900000Y-66098178D01*
X145086632Y-65973475D01*
X145211710Y-65848397D01*
X145831208Y-65848397D01*
X145908843Y-66097472D01*
X146172883Y-66223371D01*
X146456411Y-66295339D01*
X146748531Y-66310611D01*
X147038019Y-66268599D01*
X147313747Y-66170919D01*
X147451157Y-66097472D01*
X147528792Y-65848397D01*
X146680000Y-64999605D01*
X145831208Y-65848397D01*
X145211710Y-65848397D01*
X145293475Y-65766632D01*
X145409311Y-65593271D01*
X145651603Y-65668792D01*
X146500395Y-64820000D01*
X145651603Y-63971208D01*
X145409311Y-64046729D01*
X145293475Y-63873368D01*
X145086632Y-63666525D01*
X144843411Y-63504010D01*
X144573158Y-63392068D01*
X144371724Y-63352000D01*
X146455666Y-63352000D01*
X146321981Y-63371401D01*
%TA.AperFunction,Conductor*%
D22*
G36*
X146321981Y-63371401D02*
G01*
X146046253Y-63469081D01*
X145908843Y-63542528D01*
X145831208Y-63791603D01*
X146680000Y-64640395D01*
X147528792Y-63791603D01*
X147451157Y-63542528D01*
X147187117Y-63416629D01*
X146932502Y-63352000D01*
X148988276Y-63352000D01*
X148786842Y-63392068D01*
X148516589Y-63504010D01*
X148273368Y-63666525D01*
X148066525Y-63873368D01*
X147950689Y-64046729D01*
X147708397Y-63971208D01*
X146859605Y-64820000D01*
X147708397Y-65668792D01*
X147950689Y-65593271D01*
X148066525Y-65766632D01*
X148273368Y-65973475D01*
X148516589Y-66135990D01*
X148786842Y-66247932D01*
X149073740Y-66305000D01*
X149366260Y-66305000D01*
X149653158Y-66247932D01*
X149923411Y-66135990D01*
X150166632Y-65973475D01*
X150185107Y-65955000D01*
X150474869Y-65955000D01*
X154134145Y-69614276D01*
X152554957Y-71193465D01*
X152498102Y-71204774D01*
X152309744Y-71282795D01*
X152140226Y-71396063D01*
X151996063Y-71540226D01*
X151882795Y-71709744D01*
X151804774Y-71898102D01*
X151765000Y-72098061D01*
X151765000Y-72301939D01*
X151804774Y-72501898D01*
X151882795Y-72690256D01*
X151996063Y-72859774D01*
X152140226Y-73003937D01*
X152309744Y-73117205D01*
X152498102Y-73195226D01*
X152698061Y-73235000D01*
X152901939Y-73235000D01*
X153101898Y-73195226D01*
X153290256Y-73117205D01*
X153459774Y-73003937D01*
X153603937Y-72859774D01*
X153717205Y-72690256D01*
X153795226Y-72501898D01*
X153806535Y-72445043D01*
X154840001Y-71411578D01*
X154840000Y-72936928D01*
X154675000Y-72936928D01*
X154650550Y-72939336D01*
X154625991Y-72939336D01*
X154501510Y-72951596D01*
X154405377Y-72970718D01*
X154285681Y-73007027D01*
X154195125Y-73044536D01*
X154084808Y-73103502D01*
X154003309Y-73157958D01*
X153906618Y-73237310D01*
X153837310Y-73306618D01*
X153757958Y-73403309D01*
X153703502Y-73484808D01*
X153644536Y-73595125D01*
X153607027Y-73685681D01*
X153570718Y-73805377D01*
X153551596Y-73901510D01*
X153539336Y-74025991D01*
X153539336Y-74050550D01*
X153536928Y-74075000D01*
X153536928Y-74575000D01*
X153539336Y-74599450D01*
X153539336Y-74624009D01*
X153540001Y-74630761D01*
X153540000Y-80704868D01*
X149608012Y-84636857D01*
X149501717Y-84766378D01*
X149396324Y-84963554D01*
X149331423Y-85177502D01*
X149309509Y-85400000D01*
X149331423Y-85622498D01*
X149396324Y-85836446D01*
X149501717Y-86033622D01*
X149643552Y-86206448D01*
X149745998Y-86290523D01*
X149653158Y-86252068D01*
X149366260Y-86195000D01*
X149073740Y-86195000D01*
X148786842Y-86252068D01*
X148516589Y-86364010D01*
X148273368Y-86526525D01*
X148066525Y-86733368D01*
X147950689Y-86906729D01*
X147708397Y-86831208D01*
X146859605Y-87680000D01*
X147708397Y-88528792D01*
X147950689Y-88453271D01*
X148066525Y-88626632D01*
X148219157Y-88779264D01*
X144723836Y-92274586D01*
X144576250Y-92127000D01*
X143652000Y-92127000D01*
X143652000Y-93176250D01*
X143737086Y-93261336D01*
X140783422Y-96215000D01*
X134837777Y-96215000D01*
X134835000Y-95885750D01*
X134676250Y-95727000D01*
X133552000Y-95727000D01*
X133552000Y-95747000D01*
X133298000Y-95747000D01*
X133298000Y-95727000D01*
X133278000Y-95727000D01*
X133278000Y-95473000D01*
X133298000Y-95473000D01*
X133298000Y-94473750D01*
X133552000Y-94473750D01*
X133552000Y-95473000D01*
X134676250Y-95473000D01*
X134835000Y-95314250D01*
X134838072Y-94950000D01*
X134825812Y-94825518D01*
X134789502Y-94705820D01*
X134730537Y-94595506D01*
X134651185Y-94498815D01*
X134554494Y-94419463D01*
X134444180Y-94360498D01*
X134324482Y-94324188D01*
X134200000Y-94311928D01*
X133710750Y-94315000D01*
X133552000Y-94473750D01*
X133298000Y-94473750D01*
X133139250Y-94315000D01*
X132650000Y-94311928D01*
X132525518Y-94324188D01*
X132405820Y-94360498D01*
X132295506Y-94419463D01*
X132198815Y-94498815D01*
X132119463Y-94595506D01*
X132060498Y-94705820D01*
X132024188Y-94825518D01*
X132011928Y-94950000D01*
X132013802Y-95172226D01*
X130922602Y-94081026D01*
X130976898Y-94070226D01*
X131165256Y-93992205D01*
X131334774Y-93878937D01*
X131478937Y-93734774D01*
X131592205Y-93565256D01*
X131670226Y-93376898D01*
X131710000Y-93176939D01*
X131710000Y-93110000D01*
X135137678Y-93110000D01*
X135175000Y-93113676D01*
X135212322Y-93110000D01*
X135212333Y-93110000D01*
X135323986Y-93099003D01*
X135467247Y-93055546D01*
X135599276Y-92984974D01*
X135715001Y-92890001D01*
X135738803Y-92860998D01*
X136586003Y-92013799D01*
X136615001Y-91990001D01*
X136709974Y-91874276D01*
X136780546Y-91742247D01*
X136824003Y-91598986D01*
X136835000Y-91487333D01*
X136835000Y-91487324D01*
X136838676Y-91450001D01*
X136835000Y-91412678D01*
X136835000Y-90979801D01*
X138693593Y-89121210D01*
X138913740Y-89165000D01*
X139206260Y-89165000D01*
X139493158Y-89107932D01*
X139763411Y-88995990D01*
X140006632Y-88833475D01*
X140213475Y-88626632D01*
X140330000Y-88452240D01*
X140446525Y-88626632D01*
X140653368Y-88833475D01*
X140896589Y-88995990D01*
X141008043Y-89042156D01*
X140963998Y-89086201D01*
X140935000Y-89109999D01*
X140911202Y-89138997D01*
X140911201Y-89138998D01*
X140840026Y-89225724D01*
X140769454Y-89357754D01*
X140742975Y-89445046D01*
X140725998Y-89501014D01*
X140717211Y-89590226D01*
X140711324Y-89650000D01*
X140715001Y-89687332D01*
X140715001Y-90780386D01*
X140656613Y-90811595D01*
X140522038Y-90922038D01*
X140411595Y-91056613D01*
X140329528Y-91210149D01*
X140278992Y-91376745D01*
X140261928Y-91549999D01*
X140261928Y-92450001D01*
X140278992Y-92623255D01*
X140329528Y-92789851D01*
X140411595Y-92943387D01*
X140522038Y-93077962D01*
X140656613Y-93188405D01*
X140810149Y-93270472D01*
X140976745Y-93321008D01*
X141149999Y-93338072D01*
X141800001Y-93338072D01*
X141973255Y-93321008D01*
X142139851Y-93270472D01*
X142293387Y-93188405D01*
X142427962Y-93077962D01*
X142433342Y-93071406D01*
X142498815Y-93151185D01*
X142595506Y-93230537D01*
X142705820Y-93289502D01*
X142825518Y-93325812D01*
X142950000Y-93338072D01*
X143239250Y-93335000D01*
X143398000Y-93176250D01*
X143398000Y-92127000D01*
X143378000Y-92127000D01*
X143378000Y-91873000D01*
X143398000Y-91873000D01*
X143398000Y-90823750D01*
X143652000Y-90823750D01*
X143652000Y-91873000D01*
X144576250Y-91873000D01*
X144735000Y-91714250D01*
X144738072Y-91300000D01*
X144725812Y-91175518D01*
X144689502Y-91055820D01*
X144630537Y-90945506D01*
X144551185Y-90848815D01*
X144454494Y-90769463D01*
X144344180Y-90710498D01*
X144224482Y-90674188D01*
X144100000Y-90661928D01*
X143810750Y-90665000D01*
X143652000Y-90823750D01*
X143398000Y-90823750D01*
X143239250Y-90665000D01*
X142950000Y-90661928D01*
X142825518Y-90674188D01*
X142705820Y-90710498D01*
X142595506Y-90769463D01*
X142498815Y-90848815D01*
X142433342Y-90928594D01*
X142427962Y-90922038D01*
X142293387Y-90811595D01*
X142235000Y-90780386D01*
X142235000Y-89964801D01*
X143338780Y-88861022D01*
X143368843Y-88957472D01*
X143632883Y-89083371D01*
X143916411Y-89155339D01*
X144208531Y-89170611D01*
X144498019Y-89128599D01*
X144773747Y-89030919D01*
X144911157Y-88957472D01*
X144988792Y-88708397D01*
X145831208Y-88708397D01*
X145908843Y-88957472D01*
X146172883Y-89083371D01*
X146456411Y-89155339D01*
X146748531Y-89170611D01*
X147038019Y-89128599D01*
X147313747Y-89030919D01*
X147451157Y-88957472D01*
X147528792Y-88708397D01*
X146680000Y-87859605D01*
X145831208Y-88708397D01*
X144988792Y-88708397D01*
X144140000Y-87859605D01*
X144125858Y-87873748D01*
X143946253Y-87694143D01*
X143960395Y-87680000D01*
X144319605Y-87680000D01*
X145168397Y-88528792D01*
X145410000Y-88453486D01*
X145651603Y-88528792D01*
X146500395Y-87680000D01*
X145651603Y-86831208D01*
X145410000Y-86906514D01*
X145168397Y-86831208D01*
X144319605Y-87680000D01*
X143960395Y-87680000D01*
X143946253Y-87665858D01*
X144125858Y-87486253D01*
X144140000Y-87500395D01*
X144988792Y-86651603D01*
X145831208Y-86651603D01*
X146680000Y-87500395D01*
X147528792Y-86651603D01*
X147451157Y-86402528D01*
X147187117Y-86276629D01*
X146903589Y-86204661D01*
X146611469Y-86189389D01*
X146321981Y-86231401D01*
X146046253Y-86329081D01*
X145908843Y-86402528D01*
X145831208Y-86651603D01*
X144988792Y-86651603D01*
X144911157Y-86402528D01*
X144647117Y-86276629D01*
X144363589Y-86204661D01*
X144071469Y-86189389D01*
X143781981Y-86231401D01*
X143724999Y-86251588D01*
X143724999Y-85347333D01*
X143728676Y-85310001D01*
X143724999Y-85272668D01*
X143724999Y-84648061D01*
X147090000Y-84648061D01*
X147090000Y-84851939D01*
X147129774Y-85051898D01*
X147207795Y-85240256D01*
X147321063Y-85409774D01*
X147465226Y-85553937D01*
X147634744Y-85667205D01*
X147823102Y-85745226D01*
X148023061Y-85785000D01*
X148226939Y-85785000D01*
X148426898Y-85745226D01*
X148615256Y-85667205D01*
X148784774Y-85553937D01*
X148928937Y-85409774D01*
X149042205Y-85240256D01*
X149117077Y-85059501D01*
X149295044Y-84881534D01*
X149328817Y-84853817D01*
X149439411Y-84719059D01*
X149521589Y-84565313D01*
X149572195Y-84398490D01*
X149585000Y-84268477D01*
X149585000Y-84268469D01*
X149589281Y-84225000D01*
X149585000Y-84181531D01*
X149585000Y-79563454D01*
X149617205Y-79515256D01*
X149695226Y-79326898D01*
X149735000Y-79126939D01*
X149735000Y-78923061D01*
X149695226Y-78723102D01*
X149617205Y-78534744D01*
X149503937Y-78365226D01*
X149359774Y-78221063D01*
X149190256Y-78107795D01*
X149001898Y-78029774D01*
X148801939Y-77990000D01*
X148598061Y-77990000D01*
X148398102Y-78029774D01*
X148209744Y-78107795D01*
X148040226Y-78221063D01*
X147896063Y-78365226D01*
X147782795Y-78534744D01*
X147704774Y-78723102D01*
X147665000Y-78923061D01*
X147665000Y-79126939D01*
X147704774Y-79326898D01*
X147782795Y-79515256D01*
X147815000Y-79563454D01*
X147815001Y-83758130D01*
X147634744Y-83832795D01*
X147465226Y-83946063D01*
X147321063Y-84090226D01*
X147207795Y-84259744D01*
X147129774Y-84448102D01*
X147090000Y-84648061D01*
X143724999Y-84648061D01*
X143724999Y-74149802D01*
X144588030Y-73286772D01*
X144706589Y-73365990D01*
X144976842Y-73477932D01*
X145263740Y-73535000D01*
X145556260Y-73535000D01*
X145843158Y-73477932D01*
X146113411Y-73365990D01*
X146356632Y-73203475D01*
X146563475Y-72996632D01*
X146725990Y-72753411D01*
X146837932Y-72483158D01*
X146895000Y-72196260D01*
X146895000Y-71903740D01*
X146837932Y-71616842D01*
X146725990Y-71346589D01*
X146563475Y-71103368D01*
X146356632Y-70896525D01*
X146170000Y-70771822D01*
X146170000Y-70454906D01*
X146396632Y-70303475D01*
X146603475Y-70096632D01*
X146765990Y-69853411D01*
X146877932Y-69583158D01*
X146935000Y-69296260D01*
X146935000Y-69003740D01*
X146877932Y-68716842D01*
X146765990Y-68446589D01*
X146603475Y-68203368D01*
X146396632Y-67996525D01*
X146153411Y-67834010D01*
X145883158Y-67722068D01*
X145596260Y-67665000D01*
X145303740Y-67665000D01*
X145016842Y-67722068D01*
X144900000Y-67770465D01*
X144900000Y-66098178D01*
X145086632Y-65973475D01*
X145211710Y-65848397D01*
X145831208Y-65848397D01*
X145908843Y-66097472D01*
X146172883Y-66223371D01*
X146456411Y-66295339D01*
X146748531Y-66310611D01*
X147038019Y-66268599D01*
X147313747Y-66170919D01*
X147451157Y-66097472D01*
X147528792Y-65848397D01*
X146680000Y-64999605D01*
X145831208Y-65848397D01*
X145211710Y-65848397D01*
X145293475Y-65766632D01*
X145409311Y-65593271D01*
X145651603Y-65668792D01*
X146500395Y-64820000D01*
X145651603Y-63971208D01*
X145409311Y-64046729D01*
X145293475Y-63873368D01*
X145086632Y-63666525D01*
X144843411Y-63504010D01*
X144573158Y-63392068D01*
X144371724Y-63352000D01*
X146455666Y-63352000D01*
X146321981Y-63371401D01*
G37*
%TD.AperFunction*%
D21*
X117911201Y-86536002D02*
X117934999Y-86565001D01*
X118050724Y-86659974D01*
X118182753Y-86730546D01*
X118326014Y-86774003D01*
X118437667Y-86785000D01*
X118437675Y-86785000D01*
X118475000Y-86788676D01*
X118512325Y-86785000D01*
X119796360Y-86785000D01*
X119791928Y-86830000D01*
X119795000Y-87394250D01*
X119953750Y-87553000D01*
X121153000Y-87553000D01*
X121153000Y-87533000D01*
X121407000Y-87533000D01*
X121407000Y-87553000D01*
X121427000Y-87553000D01*
X121427000Y-87807000D01*
X121407000Y-87807000D01*
X121407000Y-87827000D01*
X121153000Y-87827000D01*
X121153000Y-87807000D01*
X119953750Y-87807000D01*
X119795000Y-87965750D01*
X119791928Y-88530000D01*
X119797837Y-88590000D01*
X119489802Y-88590000D01*
X118213804Y-87314003D01*
X118190001Y-87284999D01*
X118074276Y-87190026D01*
X117942247Y-87119454D01*
X117798986Y-87075997D01*
X117687333Y-87065000D01*
X117687322Y-87065000D01*
X117650000Y-87061324D01*
X117612678Y-87065000D01*
X115339802Y-87065000D01*
X114837905Y-86563104D01*
X115066842Y-86657932D01*
X115353740Y-86715000D01*
X115646260Y-86715000D01*
X115933158Y-86657932D01*
X116203411Y-86545990D01*
X116446632Y-86383475D01*
X116653475Y-86176632D01*
X116778178Y-85990000D01*
X117365199Y-85990000D01*
X117911201Y-86536002D01*
%TA.AperFunction,Conductor*%
D22*
G36*
X117911201Y-86536002D02*
G01*
X117934999Y-86565001D01*
X118050724Y-86659974D01*
X118182753Y-86730546D01*
X118326014Y-86774003D01*
X118437667Y-86785000D01*
X118437675Y-86785000D01*
X118475000Y-86788676D01*
X118512325Y-86785000D01*
X119796360Y-86785000D01*
X119791928Y-86830000D01*
X119795000Y-87394250D01*
X119953750Y-87553000D01*
X121153000Y-87553000D01*
X121153000Y-87533000D01*
X121407000Y-87533000D01*
X121407000Y-87553000D01*
X121427000Y-87553000D01*
X121427000Y-87807000D01*
X121407000Y-87807000D01*
X121407000Y-87827000D01*
X121153000Y-87827000D01*
X121153000Y-87807000D01*
X119953750Y-87807000D01*
X119795000Y-87965750D01*
X119791928Y-88530000D01*
X119797837Y-88590000D01*
X119489802Y-88590000D01*
X118213804Y-87314003D01*
X118190001Y-87284999D01*
X118074276Y-87190026D01*
X117942247Y-87119454D01*
X117798986Y-87075997D01*
X117687333Y-87065000D01*
X117687322Y-87065000D01*
X117650000Y-87061324D01*
X117612678Y-87065000D01*
X115339802Y-87065000D01*
X114837905Y-86563104D01*
X115066842Y-86657932D01*
X115353740Y-86715000D01*
X115646260Y-86715000D01*
X115933158Y-86657932D01*
X116203411Y-86545990D01*
X116446632Y-86383475D01*
X116653475Y-86176632D01*
X116778178Y-85990000D01*
X117365199Y-85990000D01*
X117911201Y-86536002D01*
G37*
%TD.AperFunction*%
D21*
X124013748Y-87665858D02*
X123999605Y-87680000D01*
X124013748Y-87694143D01*
X123834143Y-87873748D01*
X123820000Y-87859605D01*
X123805858Y-87873748D01*
X123626253Y-87694143D01*
X123640395Y-87680000D01*
X123626253Y-87665858D01*
X123805858Y-87486253D01*
X123820000Y-87500395D01*
X123834143Y-87486253D01*
X124013748Y-87665858D01*
%TA.AperFunction,Conductor*%
D22*
G36*
X124013748Y-87665858D02*
G01*
X123999605Y-87680000D01*
X124013748Y-87694143D01*
X123834143Y-87873748D01*
X123820000Y-87859605D01*
X123805858Y-87873748D01*
X123626253Y-87694143D01*
X123640395Y-87680000D01*
X123626253Y-87665858D01*
X123805858Y-87486253D01*
X123820000Y-87500395D01*
X123834143Y-87486253D01*
X124013748Y-87665858D01*
G37*
%TD.AperFunction*%
D21*
X156600518Y-75700812D02*
X156725000Y-75713072D01*
X157137588Y-75713072D01*
X157213553Y-75753676D01*
X157397282Y-75809410D01*
X157427501Y-75818577D01*
X157649999Y-75840491D01*
X157705751Y-75835000D01*
X158529869Y-75835000D01*
X161068009Y-78373141D01*
X161103551Y-78416449D01*
X161276377Y-78558284D01*
X161473553Y-78663676D01*
X161687501Y-78728577D01*
X161854248Y-78745000D01*
X161854257Y-78745000D01*
X161909999Y-78750490D01*
X161965741Y-78745000D01*
X162534893Y-78745000D01*
X162553368Y-78763475D01*
X162727760Y-78880000D01*
X162553368Y-78996525D01*
X162346525Y-79203368D01*
X162184010Y-79446589D01*
X162072068Y-79716842D01*
X162015000Y-80003740D01*
X162015000Y-80296260D01*
X162072068Y-80583158D01*
X162184010Y-80853411D01*
X162346525Y-81096632D01*
X162553368Y-81303475D01*
X162727760Y-81420000D01*
X162553368Y-81536525D01*
X162346525Y-81743368D01*
X162184010Y-81986589D01*
X162072068Y-82256842D01*
X162015000Y-82543740D01*
X162015000Y-82836260D01*
X162072068Y-83123158D01*
X162184010Y-83393411D01*
X162346525Y-83636632D01*
X162553368Y-83843475D01*
X162727760Y-83960000D01*
X162553368Y-84076525D01*
X162346525Y-84283368D01*
X162184010Y-84526589D01*
X162072068Y-84796842D01*
X162015000Y-85083740D01*
X162015000Y-85376260D01*
X162072068Y-85663158D01*
X162184010Y-85933411D01*
X162255230Y-86040000D01*
X160269998Y-86040000D01*
X160248314Y-86028410D01*
X160081491Y-85977804D01*
X159951478Y-85964999D01*
X159951470Y-85964999D01*
X159908001Y-85960718D01*
X159864532Y-85964999D01*
X151768470Y-85964999D01*
X151725001Y-85960718D01*
X151681532Y-85964999D01*
X151681524Y-85964999D01*
X151551511Y-85977804D01*
X151445024Y-86010107D01*
X155438141Y-82016991D01*
X155481449Y-81981449D01*
X155623284Y-81808623D01*
X155728676Y-81611447D01*
X155793577Y-81397499D01*
X155810000Y-81230752D01*
X155810000Y-81230743D01*
X155815490Y-81175001D01*
X155810000Y-81119259D01*
X155810000Y-75713072D01*
X156475000Y-75713072D01*
X156599482Y-75700812D01*
X156600000Y-75700655D01*
X156600518Y-75700812D01*
%TA.AperFunction,Conductor*%
D22*
G36*
X156600518Y-75700812D02*
G01*
X156725000Y-75713072D01*
X157137588Y-75713072D01*
X157213553Y-75753676D01*
X157397282Y-75809410D01*
X157427501Y-75818577D01*
X157649999Y-75840491D01*
X157705751Y-75835000D01*
X158529869Y-75835000D01*
X161068009Y-78373141D01*
X161103551Y-78416449D01*
X161276377Y-78558284D01*
X161473553Y-78663676D01*
X161687501Y-78728577D01*
X161854248Y-78745000D01*
X161854257Y-78745000D01*
X161909999Y-78750490D01*
X161965741Y-78745000D01*
X162534893Y-78745000D01*
X162553368Y-78763475D01*
X162727760Y-78880000D01*
X162553368Y-78996525D01*
X162346525Y-79203368D01*
X162184010Y-79446589D01*
X162072068Y-79716842D01*
X162015000Y-80003740D01*
X162015000Y-80296260D01*
X162072068Y-80583158D01*
X162184010Y-80853411D01*
X162346525Y-81096632D01*
X162553368Y-81303475D01*
X162727760Y-81420000D01*
X162553368Y-81536525D01*
X162346525Y-81743368D01*
X162184010Y-81986589D01*
X162072068Y-82256842D01*
X162015000Y-82543740D01*
X162015000Y-82836260D01*
X162072068Y-83123158D01*
X162184010Y-83393411D01*
X162346525Y-83636632D01*
X162553368Y-83843475D01*
X162727760Y-83960000D01*
X162553368Y-84076525D01*
X162346525Y-84283368D01*
X162184010Y-84526589D01*
X162072068Y-84796842D01*
X162015000Y-85083740D01*
X162015000Y-85376260D01*
X162072068Y-85663158D01*
X162184010Y-85933411D01*
X162255230Y-86040000D01*
X160269998Y-86040000D01*
X160248314Y-86028410D01*
X160081491Y-85977804D01*
X159951478Y-85964999D01*
X159951470Y-85964999D01*
X159908001Y-85960718D01*
X159864532Y-85964999D01*
X151768470Y-85964999D01*
X151725001Y-85960718D01*
X151681532Y-85964999D01*
X151681524Y-85964999D01*
X151551511Y-85977804D01*
X151445024Y-86010107D01*
X155438141Y-82016991D01*
X155481449Y-81981449D01*
X155623284Y-81808623D01*
X155728676Y-81611447D01*
X155793577Y-81397499D01*
X155810000Y-81230752D01*
X155810000Y-81230743D01*
X155815490Y-81175001D01*
X155810000Y-81119259D01*
X155810000Y-75713072D01*
X156475000Y-75713072D01*
X156599482Y-75700812D01*
X156600000Y-75700655D01*
X156600518Y-75700812D01*
G37*
%TD.AperFunction*%
D21*
X171673000Y-83705859D02*
X171626185Y-83648815D01*
X171529494Y-83569463D01*
X171419180Y-83510498D01*
X171299482Y-83474188D01*
X171175000Y-83461928D01*
X169475000Y-83461928D01*
X169350518Y-83474188D01*
X169230820Y-83510498D01*
X169120506Y-83569463D01*
X169023815Y-83648815D01*
X168944463Y-83745506D01*
X168885498Y-83855820D01*
X168849188Y-83975518D01*
X168840375Y-84065000D01*
X167243469Y-84065000D01*
X167200000Y-84060719D01*
X167156531Y-84065000D01*
X167156523Y-84065000D01*
X167026510Y-84077805D01*
X166859687Y-84128411D01*
X166705941Y-84210589D01*
X166604953Y-84293468D01*
X166604951Y-84293470D01*
X166571183Y-84321183D01*
X166543470Y-84354951D01*
X164858422Y-86040000D01*
X164744770Y-86040000D01*
X164815990Y-85933411D01*
X164927932Y-85663158D01*
X164985000Y-85376260D01*
X164985000Y-85083740D01*
X164927932Y-84796842D01*
X164815990Y-84526589D01*
X164653475Y-84283368D01*
X164446632Y-84076525D01*
X164272240Y-83960000D01*
X164446632Y-83843475D01*
X164653475Y-83636632D01*
X164815990Y-83393411D01*
X164927932Y-83123158D01*
X164985000Y-82836260D01*
X164985000Y-82543740D01*
X164927932Y-82256842D01*
X164815990Y-81986589D01*
X164653475Y-81743368D01*
X164446632Y-81536525D01*
X164272240Y-81420000D01*
X164446632Y-81303475D01*
X164653475Y-81096632D01*
X164694656Y-81035000D01*
X164981531Y-81035000D01*
X165025000Y-81039281D01*
X165068469Y-81035000D01*
X165068477Y-81035000D01*
X165198490Y-81022195D01*
X165365313Y-80971589D01*
X165519059Y-80889411D01*
X165653817Y-80778817D01*
X165681534Y-80745044D01*
X166170044Y-80256534D01*
X166203817Y-80228817D01*
X166314411Y-80094059D01*
X166396589Y-79940313D01*
X166447195Y-79773490D01*
X166460000Y-79643477D01*
X166460000Y-79643467D01*
X166464281Y-79600001D01*
X166460000Y-79556535D01*
X166460000Y-77943469D01*
X166464281Y-77900000D01*
X166460000Y-77856531D01*
X166460000Y-77856523D01*
X166447195Y-77726510D01*
X166396589Y-77559687D01*
X166314411Y-77405941D01*
X166203817Y-77271183D01*
X166170045Y-77243467D01*
X165948468Y-77021890D01*
X167908524Y-77021890D01*
X167953175Y-77169099D01*
X168078359Y-77431920D01*
X168252412Y-77665269D01*
X168468645Y-77860178D01*
X168718748Y-78009157D01*
X168993109Y-78106481D01*
X169223000Y-77985814D01*
X169223000Y-76792000D01*
X169477000Y-76792000D01*
X169477000Y-77985814D01*
X169706891Y-78106481D01*
X169981252Y-78009157D01*
X170231355Y-77860178D01*
X170447588Y-77665269D01*
X170621641Y-77431920D01*
X170746825Y-77169099D01*
X170791476Y-77021890D01*
X170670155Y-76792000D01*
X169477000Y-76792000D01*
X169223000Y-76792000D01*
X168029845Y-76792000D01*
X167908524Y-77021890D01*
X165948468Y-77021890D01*
X165941534Y-77014956D01*
X165913817Y-76981183D01*
X165779059Y-76870589D01*
X165625313Y-76788411D01*
X165458490Y-76737805D01*
X165328477Y-76725000D01*
X165328469Y-76725000D01*
X165285000Y-76720719D01*
X165241531Y-76725000D01*
X164694656Y-76725000D01*
X164653475Y-76663368D01*
X164446632Y-76456525D01*
X164272240Y-76340000D01*
X164446632Y-76223475D01*
X164653475Y-76016632D01*
X164734919Y-75894742D01*
X164745313Y-75891589D01*
X164899059Y-75809411D01*
X165033817Y-75698817D01*
X165061534Y-75665044D01*
X165695049Y-75031530D01*
X165728817Y-75003817D01*
X165761233Y-74964319D01*
X165839410Y-74869060D01*
X165839411Y-74869059D01*
X165921589Y-74715313D01*
X165972195Y-74548490D01*
X165985000Y-74418477D01*
X165985000Y-74418467D01*
X165989281Y-74375001D01*
X165985000Y-74331535D01*
X165985000Y-73275000D01*
X167861928Y-73275000D01*
X167861928Y-74975000D01*
X167874188Y-75099482D01*
X167910498Y-75219180D01*
X167969463Y-75329494D01*
X168048815Y-75426185D01*
X168145506Y-75505537D01*
X168255820Y-75564502D01*
X168336466Y-75588966D01*
X168252412Y-75664731D01*
X168078359Y-75898080D01*
X167953175Y-76160901D01*
X167908524Y-76308110D01*
X168029845Y-76538000D01*
X169223000Y-76538000D01*
X169223000Y-76518000D01*
X169477000Y-76518000D01*
X169477000Y-76538000D01*
X170670155Y-76538000D01*
X170791476Y-76308110D01*
X170746825Y-76160901D01*
X170621641Y-75898080D01*
X170447588Y-75664731D01*
X170363534Y-75588966D01*
X170444180Y-75564502D01*
X170554494Y-75505537D01*
X170651185Y-75426185D01*
X170730537Y-75329494D01*
X170789502Y-75219180D01*
X170825812Y-75099482D01*
X170838072Y-74975000D01*
X170838072Y-73275000D01*
X170825812Y-73150518D01*
X170789502Y-73030820D01*
X170730537Y-72920506D01*
X170651185Y-72823815D01*
X170554494Y-72744463D01*
X170444180Y-72685498D01*
X170324482Y-72649188D01*
X170200000Y-72636928D01*
X168500000Y-72636928D01*
X168375518Y-72649188D01*
X168255820Y-72685498D01*
X168145506Y-72744463D01*
X168048815Y-72823815D01*
X167969463Y-72920506D01*
X167910498Y-73030820D01*
X167874188Y-73150518D01*
X167861928Y-73275000D01*
X165985000Y-73275000D01*
X165985000Y-73043465D01*
X165989281Y-72999999D01*
X165985000Y-72956533D01*
X165985000Y-72956523D01*
X165972195Y-72826510D01*
X165921589Y-72659687D01*
X165839411Y-72505941D01*
X165728817Y-72371183D01*
X165695045Y-72343467D01*
X165286534Y-71934956D01*
X165258817Y-71901183D01*
X165124059Y-71790589D01*
X164970313Y-71708411D01*
X164803490Y-71657805D01*
X164696148Y-71647233D01*
X164653475Y-71583368D01*
X164446632Y-71376525D01*
X164369520Y-71325000D01*
X167861928Y-71325000D01*
X167874188Y-71449482D01*
X167910498Y-71569180D01*
X167969463Y-71679494D01*
X168048815Y-71776185D01*
X168145506Y-71855537D01*
X168255820Y-71914502D01*
X168375518Y-71950812D01*
X168500000Y-71963072D01*
X169014250Y-71960000D01*
X169173000Y-71801250D01*
X169173000Y-69702000D01*
X169427000Y-69702000D01*
X169427000Y-71801250D01*
X169585750Y-71960000D01*
X170100000Y-71963072D01*
X170224482Y-71950812D01*
X170344180Y-71914502D01*
X170454494Y-71855537D01*
X170551185Y-71776185D01*
X170630537Y-71679494D01*
X170689502Y-71569180D01*
X170725812Y-71449482D01*
X170738072Y-71325000D01*
X170735000Y-69860750D01*
X170576250Y-69702000D01*
X169427000Y-69702000D01*
X169173000Y-69702000D01*
X168023750Y-69702000D01*
X167865000Y-69860750D01*
X167861928Y-71325000D01*
X164369520Y-71325000D01*
X164264466Y-71254805D01*
X164381355Y-71185178D01*
X164597588Y-70990269D01*
X164771641Y-70756920D01*
X164896825Y-70494099D01*
X164941476Y-70346890D01*
X164820155Y-70117000D01*
X163627000Y-70117000D01*
X163627000Y-70137000D01*
X163373000Y-70137000D01*
X163373000Y-70117000D01*
X162179845Y-70117000D01*
X162058524Y-70346890D01*
X162103175Y-70494099D01*
X162228359Y-70756920D01*
X162402412Y-70990269D01*
X162618645Y-71185178D01*
X162735534Y-71254805D01*
X162553368Y-71376525D01*
X162346525Y-71583368D01*
X162184010Y-71826589D01*
X162072068Y-72096842D01*
X162015000Y-72383740D01*
X162015000Y-72676260D01*
X162072068Y-72963158D01*
X162184010Y-73233411D01*
X162346525Y-73476632D01*
X162553368Y-73683475D01*
X162727760Y-73800000D01*
X162553368Y-73916525D01*
X162346525Y-74123368D01*
X162184010Y-74366589D01*
X162072068Y-74636842D01*
X162015000Y-74923740D01*
X162015000Y-75216260D01*
X162072068Y-75503158D01*
X162184010Y-75773411D01*
X162346525Y-76016632D01*
X162553368Y-76223475D01*
X162727760Y-76340000D01*
X162553368Y-76456525D01*
X162534893Y-76475000D01*
X162380132Y-76475000D01*
X159841996Y-73936865D01*
X159806449Y-73893551D01*
X159633623Y-73751716D01*
X159436447Y-73646324D01*
X159222499Y-73581423D01*
X159055752Y-73565000D01*
X159055751Y-73565000D01*
X159000000Y-73559509D01*
X158944249Y-73565000D01*
X158289362Y-73565000D01*
X158246498Y-73484808D01*
X158192042Y-73403309D01*
X158112690Y-73306618D01*
X158043382Y-73237310D01*
X157946691Y-73157958D01*
X157865192Y-73103502D01*
X157754875Y-73044536D01*
X157664319Y-73007027D01*
X157544623Y-72970718D01*
X157448490Y-72951596D01*
X157324009Y-72939336D01*
X157299450Y-72939336D01*
X157275000Y-72936928D01*
X157110000Y-72936928D01*
X157110000Y-69905743D01*
X157115490Y-69849999D01*
X157110000Y-69794255D01*
X157110000Y-69794248D01*
X157095644Y-69648493D01*
X157093577Y-69627500D01*
X157056990Y-69506891D01*
X157028676Y-69413553D01*
X156923284Y-69216377D01*
X156781449Y-69043551D01*
X156738141Y-69008009D01*
X156030132Y-68300000D01*
X162011928Y-68300000D01*
X162024188Y-68424482D01*
X162060498Y-68544180D01*
X162119463Y-68654494D01*
X162198815Y-68751185D01*
X162295506Y-68830537D01*
X162405820Y-68889502D01*
X162486466Y-68913966D01*
X162402412Y-68989731D01*
X162228359Y-69223080D01*
X162103175Y-69485901D01*
X162058524Y-69633110D01*
X162179845Y-69863000D01*
X163373000Y-69863000D01*
X163373000Y-67577000D01*
X163627000Y-67577000D01*
X163627000Y-69863000D01*
X164820155Y-69863000D01*
X164941476Y-69633110D01*
X164896825Y-69485901D01*
X164771641Y-69223080D01*
X164597588Y-68989731D01*
X164513534Y-68913966D01*
X164594180Y-68889502D01*
X164704494Y-68830537D01*
X164801185Y-68751185D01*
X164880537Y-68654494D01*
X164939502Y-68544180D01*
X164975812Y-68424482D01*
X164988072Y-68300000D01*
X164985486Y-67825000D01*
X167861928Y-67825000D01*
X167865000Y-69289250D01*
X168023750Y-69448000D01*
X169173000Y-69448000D01*
X169173000Y-67348750D01*
X169427000Y-67348750D01*
X169427000Y-69448000D01*
X170576250Y-69448000D01*
X170735000Y-69289250D01*
X170738072Y-67825000D01*
X170725812Y-67700518D01*
X170689502Y-67580820D01*
X170630537Y-67470506D01*
X170551185Y-67373815D01*
X170454494Y-67294463D01*
X170344180Y-67235498D01*
X170224482Y-67199188D01*
X170100000Y-67186928D01*
X169585750Y-67190000D01*
X169427000Y-67348750D01*
X169173000Y-67348750D01*
X169014250Y-67190000D01*
X168500000Y-67186928D01*
X168375518Y-67199188D01*
X168255820Y-67235498D01*
X168145506Y-67294463D01*
X168048815Y-67373815D01*
X167969463Y-67470506D01*
X167910498Y-67580820D01*
X167874188Y-67700518D01*
X167861928Y-67825000D01*
X164985486Y-67825000D01*
X164985000Y-67735750D01*
X164826250Y-67577000D01*
X163627000Y-67577000D01*
X163373000Y-67577000D01*
X162173750Y-67577000D01*
X162015000Y-67735750D01*
X162011928Y-68300000D01*
X156030132Y-68300000D01*
X154330132Y-66600000D01*
X162011928Y-66600000D01*
X162015000Y-67164250D01*
X162173750Y-67323000D01*
X163373000Y-67323000D01*
X163373000Y-66123750D01*
X163627000Y-66123750D01*
X163627000Y-67323000D01*
X164826250Y-67323000D01*
X164985000Y-67164250D01*
X164988072Y-66600000D01*
X164975812Y-66475518D01*
X164939502Y-66355820D01*
X164880537Y-66245506D01*
X164801185Y-66148815D01*
X164704494Y-66069463D01*
X164594180Y-66010498D01*
X164474482Y-65974188D01*
X164350000Y-65961928D01*
X163785750Y-65965000D01*
X163627000Y-66123750D01*
X163373000Y-66123750D01*
X163214250Y-65965000D01*
X162650000Y-65961928D01*
X162525518Y-65974188D01*
X162405820Y-66010498D01*
X162295506Y-66069463D01*
X162198815Y-66148815D01*
X162119463Y-66245506D01*
X162060498Y-66355820D01*
X162024188Y-66475518D01*
X162011928Y-66600000D01*
X154330132Y-66600000D01*
X153685131Y-65955000D01*
X167911373Y-65955000D01*
X167929528Y-66014850D01*
X168011595Y-66168386D01*
X168122038Y-66302962D01*
X168256614Y-66413405D01*
X168410150Y-66495472D01*
X168576746Y-66546008D01*
X168750000Y-66563072D01*
X169850000Y-66563072D01*
X170023254Y-66546008D01*
X170189850Y-66495472D01*
X170343386Y-66413405D01*
X170477962Y-66302962D01*
X170588405Y-66168386D01*
X170670472Y-66014850D01*
X170721008Y-65848254D01*
X170738072Y-65675000D01*
X170738072Y-63352000D01*
X171673000Y-63352000D01*
X171673000Y-83705859D01*
%TA.AperFunction,Conductor*%
D22*
G36*
X171673000Y-83705859D02*
G01*
X171626185Y-83648815D01*
X171529494Y-83569463D01*
X171419180Y-83510498D01*
X171299482Y-83474188D01*
X171175000Y-83461928D01*
X169475000Y-83461928D01*
X169350518Y-83474188D01*
X169230820Y-83510498D01*
X169120506Y-83569463D01*
X169023815Y-83648815D01*
X168944463Y-83745506D01*
X168885498Y-83855820D01*
X168849188Y-83975518D01*
X168840375Y-84065000D01*
X167243469Y-84065000D01*
X167200000Y-84060719D01*
X167156531Y-84065000D01*
X167156523Y-84065000D01*
X167026510Y-84077805D01*
X166859687Y-84128411D01*
X166705941Y-84210589D01*
X166604953Y-84293468D01*
X166604951Y-84293470D01*
X166571183Y-84321183D01*
X166543470Y-84354951D01*
X164858422Y-86040000D01*
X164744770Y-86040000D01*
X164815990Y-85933411D01*
X164927932Y-85663158D01*
X164985000Y-85376260D01*
X164985000Y-85083740D01*
X164927932Y-84796842D01*
X164815990Y-84526589D01*
X164653475Y-84283368D01*
X164446632Y-84076525D01*
X164272240Y-83960000D01*
X164446632Y-83843475D01*
X164653475Y-83636632D01*
X164815990Y-83393411D01*
X164927932Y-83123158D01*
X164985000Y-82836260D01*
X164985000Y-82543740D01*
X164927932Y-82256842D01*
X164815990Y-81986589D01*
X164653475Y-81743368D01*
X164446632Y-81536525D01*
X164272240Y-81420000D01*
X164446632Y-81303475D01*
X164653475Y-81096632D01*
X164694656Y-81035000D01*
X164981531Y-81035000D01*
X165025000Y-81039281D01*
X165068469Y-81035000D01*
X165068477Y-81035000D01*
X165198490Y-81022195D01*
X165365313Y-80971589D01*
X165519059Y-80889411D01*
X165653817Y-80778817D01*
X165681534Y-80745044D01*
X166170044Y-80256534D01*
X166203817Y-80228817D01*
X166314411Y-80094059D01*
X166396589Y-79940313D01*
X166447195Y-79773490D01*
X166460000Y-79643477D01*
X166460000Y-79643467D01*
X166464281Y-79600001D01*
X166460000Y-79556535D01*
X166460000Y-77943469D01*
X166464281Y-77900000D01*
X166460000Y-77856531D01*
X166460000Y-77856523D01*
X166447195Y-77726510D01*
X166396589Y-77559687D01*
X166314411Y-77405941D01*
X166203817Y-77271183D01*
X166170045Y-77243467D01*
X165948468Y-77021890D01*
X167908524Y-77021890D01*
X167953175Y-77169099D01*
X168078359Y-77431920D01*
X168252412Y-77665269D01*
X168468645Y-77860178D01*
X168718748Y-78009157D01*
X168993109Y-78106481D01*
X169223000Y-77985814D01*
X169223000Y-76792000D01*
X169477000Y-76792000D01*
X169477000Y-77985814D01*
X169706891Y-78106481D01*
X169981252Y-78009157D01*
X170231355Y-77860178D01*
X170447588Y-77665269D01*
X170621641Y-77431920D01*
X170746825Y-77169099D01*
X170791476Y-77021890D01*
X170670155Y-76792000D01*
X169477000Y-76792000D01*
X169223000Y-76792000D01*
X168029845Y-76792000D01*
X167908524Y-77021890D01*
X165948468Y-77021890D01*
X165941534Y-77014956D01*
X165913817Y-76981183D01*
X165779059Y-76870589D01*
X165625313Y-76788411D01*
X165458490Y-76737805D01*
X165328477Y-76725000D01*
X165328469Y-76725000D01*
X165285000Y-76720719D01*
X165241531Y-76725000D01*
X164694656Y-76725000D01*
X164653475Y-76663368D01*
X164446632Y-76456525D01*
X164272240Y-76340000D01*
X164446632Y-76223475D01*
X164653475Y-76016632D01*
X164734919Y-75894742D01*
X164745313Y-75891589D01*
X164899059Y-75809411D01*
X165033817Y-75698817D01*
X165061534Y-75665044D01*
X165695049Y-75031530D01*
X165728817Y-75003817D01*
X165761233Y-74964319D01*
X165839410Y-74869060D01*
X165839411Y-74869059D01*
X165921589Y-74715313D01*
X165972195Y-74548490D01*
X165985000Y-74418477D01*
X165985000Y-74418467D01*
X165989281Y-74375001D01*
X165985000Y-74331535D01*
X165985000Y-73275000D01*
X167861928Y-73275000D01*
X167861928Y-74975000D01*
X167874188Y-75099482D01*
X167910498Y-75219180D01*
X167969463Y-75329494D01*
X168048815Y-75426185D01*
X168145506Y-75505537D01*
X168255820Y-75564502D01*
X168336466Y-75588966D01*
X168252412Y-75664731D01*
X168078359Y-75898080D01*
X167953175Y-76160901D01*
X167908524Y-76308110D01*
X168029845Y-76538000D01*
X169223000Y-76538000D01*
X169223000Y-76518000D01*
X169477000Y-76518000D01*
X169477000Y-76538000D01*
X170670155Y-76538000D01*
X170791476Y-76308110D01*
X170746825Y-76160901D01*
X170621641Y-75898080D01*
X170447588Y-75664731D01*
X170363534Y-75588966D01*
X170444180Y-75564502D01*
X170554494Y-75505537D01*
X170651185Y-75426185D01*
X170730537Y-75329494D01*
X170789502Y-75219180D01*
X170825812Y-75099482D01*
X170838072Y-74975000D01*
X170838072Y-73275000D01*
X170825812Y-73150518D01*
X170789502Y-73030820D01*
X170730537Y-72920506D01*
X170651185Y-72823815D01*
X170554494Y-72744463D01*
X170444180Y-72685498D01*
X170324482Y-72649188D01*
X170200000Y-72636928D01*
X168500000Y-72636928D01*
X168375518Y-72649188D01*
X168255820Y-72685498D01*
X168145506Y-72744463D01*
X168048815Y-72823815D01*
X167969463Y-72920506D01*
X167910498Y-73030820D01*
X167874188Y-73150518D01*
X167861928Y-73275000D01*
X165985000Y-73275000D01*
X165985000Y-73043465D01*
X165989281Y-72999999D01*
X165985000Y-72956533D01*
X165985000Y-72956523D01*
X165972195Y-72826510D01*
X165921589Y-72659687D01*
X165839411Y-72505941D01*
X165728817Y-72371183D01*
X165695045Y-72343467D01*
X165286534Y-71934956D01*
X165258817Y-71901183D01*
X165124059Y-71790589D01*
X164970313Y-71708411D01*
X164803490Y-71657805D01*
X164696148Y-71647233D01*
X164653475Y-71583368D01*
X164446632Y-71376525D01*
X164369520Y-71325000D01*
X167861928Y-71325000D01*
X167874188Y-71449482D01*
X167910498Y-71569180D01*
X167969463Y-71679494D01*
X168048815Y-71776185D01*
X168145506Y-71855537D01*
X168255820Y-71914502D01*
X168375518Y-71950812D01*
X168500000Y-71963072D01*
X169014250Y-71960000D01*
X169173000Y-71801250D01*
X169173000Y-69702000D01*
X169427000Y-69702000D01*
X169427000Y-71801250D01*
X169585750Y-71960000D01*
X170100000Y-71963072D01*
X170224482Y-71950812D01*
X170344180Y-71914502D01*
X170454494Y-71855537D01*
X170551185Y-71776185D01*
X170630537Y-71679494D01*
X170689502Y-71569180D01*
X170725812Y-71449482D01*
X170738072Y-71325000D01*
X170735000Y-69860750D01*
X170576250Y-69702000D01*
X169427000Y-69702000D01*
X169173000Y-69702000D01*
X168023750Y-69702000D01*
X167865000Y-69860750D01*
X167861928Y-71325000D01*
X164369520Y-71325000D01*
X164264466Y-71254805D01*
X164381355Y-71185178D01*
X164597588Y-70990269D01*
X164771641Y-70756920D01*
X164896825Y-70494099D01*
X164941476Y-70346890D01*
X164820155Y-70117000D01*
X163627000Y-70117000D01*
X163627000Y-70137000D01*
X163373000Y-70137000D01*
X163373000Y-70117000D01*
X162179845Y-70117000D01*
X162058524Y-70346890D01*
X162103175Y-70494099D01*
X162228359Y-70756920D01*
X162402412Y-70990269D01*
X162618645Y-71185178D01*
X162735534Y-71254805D01*
X162553368Y-71376525D01*
X162346525Y-71583368D01*
X162184010Y-71826589D01*
X162072068Y-72096842D01*
X162015000Y-72383740D01*
X162015000Y-72676260D01*
X162072068Y-72963158D01*
X162184010Y-73233411D01*
X162346525Y-73476632D01*
X162553368Y-73683475D01*
X162727760Y-73800000D01*
X162553368Y-73916525D01*
X162346525Y-74123368D01*
X162184010Y-74366589D01*
X162072068Y-74636842D01*
X162015000Y-74923740D01*
X162015000Y-75216260D01*
X162072068Y-75503158D01*
X162184010Y-75773411D01*
X162346525Y-76016632D01*
X162553368Y-76223475D01*
X162727760Y-76340000D01*
X162553368Y-76456525D01*
X162534893Y-76475000D01*
X162380132Y-76475000D01*
X159841996Y-73936865D01*
X159806449Y-73893551D01*
X159633623Y-73751716D01*
X159436447Y-73646324D01*
X159222499Y-73581423D01*
X159055752Y-73565000D01*
X159055751Y-73565000D01*
X159000000Y-73559509D01*
X158944249Y-73565000D01*
X158289362Y-73565000D01*
X158246498Y-73484808D01*
X158192042Y-73403309D01*
X158112690Y-73306618D01*
X158043382Y-73237310D01*
X157946691Y-73157958D01*
X157865192Y-73103502D01*
X157754875Y-73044536D01*
X157664319Y-73007027D01*
X157544623Y-72970718D01*
X157448490Y-72951596D01*
X157324009Y-72939336D01*
X157299450Y-72939336D01*
X157275000Y-72936928D01*
X157110000Y-72936928D01*
X157110000Y-69905743D01*
X157115490Y-69849999D01*
X157110000Y-69794255D01*
X157110000Y-69794248D01*
X157095644Y-69648493D01*
X157093577Y-69627500D01*
X157056990Y-69506891D01*
X157028676Y-69413553D01*
X156923284Y-69216377D01*
X156781449Y-69043551D01*
X156738141Y-69008009D01*
X156030132Y-68300000D01*
X162011928Y-68300000D01*
X162024188Y-68424482D01*
X162060498Y-68544180D01*
X162119463Y-68654494D01*
X162198815Y-68751185D01*
X162295506Y-68830537D01*
X162405820Y-68889502D01*
X162486466Y-68913966D01*
X162402412Y-68989731D01*
X162228359Y-69223080D01*
X162103175Y-69485901D01*
X162058524Y-69633110D01*
X162179845Y-69863000D01*
X163373000Y-69863000D01*
X163373000Y-67577000D01*
X163627000Y-67577000D01*
X163627000Y-69863000D01*
X164820155Y-69863000D01*
X164941476Y-69633110D01*
X164896825Y-69485901D01*
X164771641Y-69223080D01*
X164597588Y-68989731D01*
X164513534Y-68913966D01*
X164594180Y-68889502D01*
X164704494Y-68830537D01*
X164801185Y-68751185D01*
X164880537Y-68654494D01*
X164939502Y-68544180D01*
X164975812Y-68424482D01*
X164988072Y-68300000D01*
X164985486Y-67825000D01*
X167861928Y-67825000D01*
X167865000Y-69289250D01*
X168023750Y-69448000D01*
X169173000Y-69448000D01*
X169173000Y-67348750D01*
X169427000Y-67348750D01*
X169427000Y-69448000D01*
X170576250Y-69448000D01*
X170735000Y-69289250D01*
X170738072Y-67825000D01*
X170725812Y-67700518D01*
X170689502Y-67580820D01*
X170630537Y-67470506D01*
X170551185Y-67373815D01*
X170454494Y-67294463D01*
X170344180Y-67235498D01*
X170224482Y-67199188D01*
X170100000Y-67186928D01*
X169585750Y-67190000D01*
X169427000Y-67348750D01*
X169173000Y-67348750D01*
X169014250Y-67190000D01*
X168500000Y-67186928D01*
X168375518Y-67199188D01*
X168255820Y-67235498D01*
X168145506Y-67294463D01*
X168048815Y-67373815D01*
X167969463Y-67470506D01*
X167910498Y-67580820D01*
X167874188Y-67700518D01*
X167861928Y-67825000D01*
X164985486Y-67825000D01*
X164985000Y-67735750D01*
X164826250Y-67577000D01*
X163627000Y-67577000D01*
X163373000Y-67577000D01*
X162173750Y-67577000D01*
X162015000Y-67735750D01*
X162011928Y-68300000D01*
X156030132Y-68300000D01*
X154330132Y-66600000D01*
X162011928Y-66600000D01*
X162015000Y-67164250D01*
X162173750Y-67323000D01*
X163373000Y-67323000D01*
X163373000Y-66123750D01*
X163627000Y-66123750D01*
X163627000Y-67323000D01*
X164826250Y-67323000D01*
X164985000Y-67164250D01*
X164988072Y-66600000D01*
X164975812Y-66475518D01*
X164939502Y-66355820D01*
X164880537Y-66245506D01*
X164801185Y-66148815D01*
X164704494Y-66069463D01*
X164594180Y-66010498D01*
X164474482Y-65974188D01*
X164350000Y-65961928D01*
X163785750Y-65965000D01*
X163627000Y-66123750D01*
X163373000Y-66123750D01*
X163214250Y-65965000D01*
X162650000Y-65961928D01*
X162525518Y-65974188D01*
X162405820Y-66010498D01*
X162295506Y-66069463D01*
X162198815Y-66148815D01*
X162119463Y-66245506D01*
X162060498Y-66355820D01*
X162024188Y-66475518D01*
X162011928Y-66600000D01*
X154330132Y-66600000D01*
X153685131Y-65955000D01*
X167911373Y-65955000D01*
X167929528Y-66014850D01*
X168011595Y-66168386D01*
X168122038Y-66302962D01*
X168256614Y-66413405D01*
X168410150Y-66495472D01*
X168576746Y-66546008D01*
X168750000Y-66563072D01*
X169850000Y-66563072D01*
X170023254Y-66546008D01*
X170189850Y-66495472D01*
X170343386Y-66413405D01*
X170477962Y-66302962D01*
X170588405Y-66168386D01*
X170670472Y-66014850D01*
X170721008Y-65848254D01*
X170738072Y-65675000D01*
X170738072Y-63352000D01*
X171673000Y-63352000D01*
X171673000Y-83705859D01*
G37*
%TD.AperFunction*%
D21*
X118061200Y-82411002D02*
X118084999Y-82440001D01*
X118200724Y-82534974D01*
X118332753Y-82605546D01*
X118476014Y-82649003D01*
X118587667Y-82660000D01*
X118587675Y-82660000D01*
X118625000Y-82663676D01*
X118662325Y-82660000D01*
X133910199Y-82660000D01*
X135365000Y-84114803D01*
X135365000Y-84176939D01*
X135404774Y-84376898D01*
X135476476Y-84550001D01*
X123843877Y-84550001D01*
X123803937Y-84490226D01*
X123659774Y-84346063D01*
X123490256Y-84232795D01*
X123301898Y-84154774D01*
X123101939Y-84115000D01*
X122898061Y-84115000D01*
X122698102Y-84154774D01*
X122509744Y-84232795D01*
X122340226Y-84346063D01*
X122196063Y-84490226D01*
X122082795Y-84659744D01*
X122004774Y-84848102D01*
X121965000Y-85048061D01*
X121965000Y-85251939D01*
X121967598Y-85265000D01*
X118789802Y-85265000D01*
X118243803Y-84719002D01*
X118220001Y-84689999D01*
X118104276Y-84595026D01*
X117972247Y-84524454D01*
X117828986Y-84480997D01*
X117717333Y-84470000D01*
X117717322Y-84470000D01*
X117680000Y-84466324D01*
X117642678Y-84470000D01*
X116778178Y-84470000D01*
X116653475Y-84283368D01*
X116446632Y-84076525D01*
X116272240Y-83960000D01*
X116446632Y-83843475D01*
X116653475Y-83636632D01*
X116815990Y-83393411D01*
X116927932Y-83123158D01*
X116985000Y-82836260D01*
X116985000Y-82543740D01*
X116927932Y-82256842D01*
X116815990Y-81986589D01*
X116653475Y-81743368D01*
X116446632Y-81536525D01*
X116272240Y-81420000D01*
X116446632Y-81303475D01*
X116653475Y-81096632D01*
X116690868Y-81040669D01*
X118061200Y-82411002D01*
%TA.AperFunction,Conductor*%
D22*
G36*
X118061200Y-82411002D02*
G01*
X118084999Y-82440001D01*
X118200724Y-82534974D01*
X118332753Y-82605546D01*
X118476014Y-82649003D01*
X118587667Y-82660000D01*
X118587675Y-82660000D01*
X118625000Y-82663676D01*
X118662325Y-82660000D01*
X133910199Y-82660000D01*
X135365000Y-84114803D01*
X135365000Y-84176939D01*
X135404774Y-84376898D01*
X135476476Y-84550001D01*
X123843877Y-84550001D01*
X123803937Y-84490226D01*
X123659774Y-84346063D01*
X123490256Y-84232795D01*
X123301898Y-84154774D01*
X123101939Y-84115000D01*
X122898061Y-84115000D01*
X122698102Y-84154774D01*
X122509744Y-84232795D01*
X122340226Y-84346063D01*
X122196063Y-84490226D01*
X122082795Y-84659744D01*
X122004774Y-84848102D01*
X121965000Y-85048061D01*
X121965000Y-85251939D01*
X121967598Y-85265000D01*
X118789802Y-85265000D01*
X118243803Y-84719002D01*
X118220001Y-84689999D01*
X118104276Y-84595026D01*
X117972247Y-84524454D01*
X117828986Y-84480997D01*
X117717333Y-84470000D01*
X117717322Y-84470000D01*
X117680000Y-84466324D01*
X117642678Y-84470000D01*
X116778178Y-84470000D01*
X116653475Y-84283368D01*
X116446632Y-84076525D01*
X116272240Y-83960000D01*
X116446632Y-83843475D01*
X116653475Y-83636632D01*
X116815990Y-83393411D01*
X116927932Y-83123158D01*
X116985000Y-82836260D01*
X116985000Y-82543740D01*
X116927932Y-82256842D01*
X116815990Y-81986589D01*
X116653475Y-81743368D01*
X116446632Y-81536525D01*
X116272240Y-81420000D01*
X116446632Y-81303475D01*
X116653475Y-81096632D01*
X116690868Y-81040669D01*
X118061200Y-82411002D01*
G37*
%TD.AperFunction*%
D21*
X119194454Y-63382754D02*
X119174438Y-63448740D01*
X119150998Y-63526014D01*
X119148045Y-63555997D01*
X119136324Y-63675000D01*
X119140001Y-63712332D01*
X119140000Y-73562678D01*
X119136324Y-73600000D01*
X119140000Y-73637322D01*
X119140000Y-73637332D01*
X119150997Y-73748985D01*
X119188372Y-73872195D01*
X119194454Y-73892246D01*
X119265026Y-74024276D01*
X119286589Y-74050550D01*
X119359999Y-74140001D01*
X119389002Y-74163803D01*
X119465000Y-74239801D01*
X119465000Y-74301939D01*
X119504774Y-74501898D01*
X119582795Y-74690256D01*
X119696063Y-74859774D01*
X119840226Y-75003937D01*
X120009744Y-75117205D01*
X120198102Y-75195226D01*
X120398061Y-75235000D01*
X120601939Y-75235000D01*
X120801898Y-75195226D01*
X120990256Y-75117205D01*
X121159774Y-75003937D01*
X121303937Y-74859774D01*
X121417205Y-74690256D01*
X121495226Y-74501898D01*
X121519593Y-74379396D01*
X127326200Y-80186004D01*
X127349998Y-80215002D01*
X127378996Y-80238800D01*
X127465722Y-80309975D01*
X127575311Y-80368552D01*
X127597752Y-80380547D01*
X127741013Y-80424004D01*
X127852666Y-80435001D01*
X127852675Y-80435001D01*
X127889998Y-80438677D01*
X127927321Y-80435001D01*
X132835679Y-80435001D01*
X132873001Y-80438677D01*
X132910323Y-80435001D01*
X132910334Y-80435001D01*
X133021987Y-80424004D01*
X133165248Y-80380547D01*
X133297277Y-80309975D01*
X133413002Y-80215002D01*
X133436804Y-80185999D01*
X134236003Y-79386801D01*
X134265001Y-79363003D01*
X134359974Y-79247278D01*
X134430546Y-79115249D01*
X134474003Y-78971988D01*
X134485000Y-78860335D01*
X134488677Y-78823002D01*
X134485000Y-78785669D01*
X134485000Y-77789801D01*
X137514802Y-74760000D01*
X137576939Y-74760000D01*
X137776898Y-74720226D01*
X137965256Y-74642205D01*
X138134774Y-74528937D01*
X138278937Y-74384774D01*
X138392205Y-74215256D01*
X138394999Y-74208510D01*
X138394999Y-82355199D01*
X137760199Y-82990000D01*
X137698061Y-82990000D01*
X137498102Y-83029774D01*
X137309744Y-83107795D01*
X137140226Y-83221063D01*
X137075000Y-83286289D01*
X137059774Y-83271063D01*
X136890256Y-83157795D01*
X136701898Y-83079774D01*
X136501939Y-83040000D01*
X136439803Y-83040000D01*
X134788804Y-81389002D01*
X134765001Y-81359999D01*
X134649276Y-81265026D01*
X134517247Y-81194454D01*
X134373986Y-81150997D01*
X134262333Y-81140000D01*
X134262322Y-81140000D01*
X134225000Y-81136324D01*
X134187678Y-81140000D01*
X118939802Y-81140000D01*
X117438804Y-79639003D01*
X117415001Y-79609999D01*
X117299276Y-79515026D01*
X117167247Y-79444454D01*
X117023986Y-79400997D01*
X116912333Y-79390000D01*
X116912322Y-79390000D01*
X116875000Y-79386324D01*
X116837678Y-79390000D01*
X116778178Y-79390000D01*
X116653475Y-79203368D01*
X116446632Y-78996525D01*
X116272240Y-78880000D01*
X116446632Y-78763475D01*
X116653475Y-78556632D01*
X116815990Y-78313411D01*
X116927932Y-78043158D01*
X116985000Y-77756260D01*
X116985000Y-77463740D01*
X116927932Y-77176842D01*
X116815990Y-76906589D01*
X116653475Y-76663368D01*
X116446632Y-76456525D01*
X116272240Y-76340000D01*
X116446632Y-76223475D01*
X116653475Y-76016632D01*
X116815990Y-75773411D01*
X116927932Y-75503158D01*
X116985000Y-75216260D01*
X116985000Y-74923740D01*
X116927932Y-74636842D01*
X116815990Y-74366589D01*
X116653475Y-74123368D01*
X116446632Y-73916525D01*
X116272240Y-73800000D01*
X116446632Y-73683475D01*
X116653475Y-73476632D01*
X116815990Y-73233411D01*
X116927932Y-72963158D01*
X116985000Y-72676260D01*
X116985000Y-72425558D01*
X117084744Y-72492205D01*
X117273102Y-72570226D01*
X117473061Y-72610000D01*
X117676939Y-72610000D01*
X117876898Y-72570226D01*
X118065256Y-72492205D01*
X118234774Y-72378937D01*
X118378937Y-72234774D01*
X118492205Y-72065256D01*
X118570226Y-71876898D01*
X118610000Y-71676939D01*
X118610000Y-71473061D01*
X118570226Y-71273102D01*
X118492205Y-71084744D01*
X118378937Y-70915226D01*
X118335000Y-70871289D01*
X118335000Y-68462322D01*
X118338676Y-68424999D01*
X118335000Y-68387676D01*
X118335000Y-68387667D01*
X118324003Y-68276014D01*
X118280546Y-68132753D01*
X118209974Y-68000724D01*
X118115001Y-67884999D01*
X118086003Y-67861201D01*
X117163804Y-66939002D01*
X117140001Y-66909999D01*
X117024276Y-66815026D01*
X116988072Y-66795674D01*
X116988072Y-66600000D01*
X116975812Y-66475518D01*
X116939502Y-66355820D01*
X116880537Y-66245506D01*
X116801185Y-66148815D01*
X116704494Y-66069463D01*
X116594180Y-66010498D01*
X116474482Y-65974188D01*
X116350000Y-65961928D01*
X114650000Y-65961928D01*
X114525518Y-65974188D01*
X114405820Y-66010498D01*
X114295506Y-66069463D01*
X114198815Y-66148815D01*
X114119463Y-66245506D01*
X114060498Y-66355820D01*
X114024188Y-66475518D01*
X114011928Y-66600000D01*
X114011928Y-68300000D01*
X114024188Y-68424482D01*
X114060498Y-68544180D01*
X114119463Y-68654494D01*
X114198815Y-68751185D01*
X114295506Y-68830537D01*
X114405820Y-68889502D01*
X114478380Y-68911513D01*
X114346525Y-69043368D01*
X114184010Y-69286589D01*
X114072068Y-69556842D01*
X114015000Y-69843740D01*
X114015000Y-70136260D01*
X114072068Y-70423158D01*
X114184010Y-70693411D01*
X114346525Y-70936632D01*
X114553368Y-71143475D01*
X114727760Y-71260000D01*
X114553368Y-71376525D01*
X114346525Y-71583368D01*
X114184010Y-71826589D01*
X114072068Y-72096842D01*
X114015000Y-72383740D01*
X114015000Y-72676260D01*
X114072068Y-72963158D01*
X114184010Y-73233411D01*
X114346525Y-73476632D01*
X114553368Y-73683475D01*
X114727760Y-73800000D01*
X114553368Y-73916525D01*
X114346525Y-74123368D01*
X114184010Y-74366589D01*
X114072068Y-74636842D01*
X114015000Y-74923740D01*
X114015000Y-75216260D01*
X114072068Y-75503158D01*
X114184010Y-75773411D01*
X114346525Y-76016632D01*
X114553368Y-76223475D01*
X114727760Y-76340000D01*
X114553368Y-76456525D01*
X114346525Y-76663368D01*
X114184010Y-76906589D01*
X114072068Y-77176842D01*
X114015000Y-77463740D01*
X114015000Y-77756260D01*
X114058790Y-77976408D01*
X113302000Y-78733199D01*
X113302000Y-63352000D01*
X119210892Y-63352000D01*
X119194454Y-63382754D01*
%TA.AperFunction,Conductor*%
D22*
G36*
X119194454Y-63382754D02*
G01*
X119174438Y-63448740D01*
X119150998Y-63526014D01*
X119148045Y-63555997D01*
X119136324Y-63675000D01*
X119140001Y-63712332D01*
X119140000Y-73562678D01*
X119136324Y-73600000D01*
X119140000Y-73637322D01*
X119140000Y-73637332D01*
X119150997Y-73748985D01*
X119188372Y-73872195D01*
X119194454Y-73892246D01*
X119265026Y-74024276D01*
X119286589Y-74050550D01*
X119359999Y-74140001D01*
X119389002Y-74163803D01*
X119465000Y-74239801D01*
X119465000Y-74301939D01*
X119504774Y-74501898D01*
X119582795Y-74690256D01*
X119696063Y-74859774D01*
X119840226Y-75003937D01*
X120009744Y-75117205D01*
X120198102Y-75195226D01*
X120398061Y-75235000D01*
X120601939Y-75235000D01*
X120801898Y-75195226D01*
X120990256Y-75117205D01*
X121159774Y-75003937D01*
X121303937Y-74859774D01*
X121417205Y-74690256D01*
X121495226Y-74501898D01*
X121519593Y-74379396D01*
X127326200Y-80186004D01*
X127349998Y-80215002D01*
X127378996Y-80238800D01*
X127465722Y-80309975D01*
X127575311Y-80368552D01*
X127597752Y-80380547D01*
X127741013Y-80424004D01*
X127852666Y-80435001D01*
X127852675Y-80435001D01*
X127889998Y-80438677D01*
X127927321Y-80435001D01*
X132835679Y-80435001D01*
X132873001Y-80438677D01*
X132910323Y-80435001D01*
X132910334Y-80435001D01*
X133021987Y-80424004D01*
X133165248Y-80380547D01*
X133297277Y-80309975D01*
X133413002Y-80215002D01*
X133436804Y-80185999D01*
X134236003Y-79386801D01*
X134265001Y-79363003D01*
X134359974Y-79247278D01*
X134430546Y-79115249D01*
X134474003Y-78971988D01*
X134485000Y-78860335D01*
X134488677Y-78823002D01*
X134485000Y-78785669D01*
X134485000Y-77789801D01*
X137514802Y-74760000D01*
X137576939Y-74760000D01*
X137776898Y-74720226D01*
X137965256Y-74642205D01*
X138134774Y-74528937D01*
X138278937Y-74384774D01*
X138392205Y-74215256D01*
X138394999Y-74208510D01*
X138394999Y-82355199D01*
X137760199Y-82990000D01*
X137698061Y-82990000D01*
X137498102Y-83029774D01*
X137309744Y-83107795D01*
X137140226Y-83221063D01*
X137075000Y-83286289D01*
X137059774Y-83271063D01*
X136890256Y-83157795D01*
X136701898Y-83079774D01*
X136501939Y-83040000D01*
X136439803Y-83040000D01*
X134788804Y-81389002D01*
X134765001Y-81359999D01*
X134649276Y-81265026D01*
X134517247Y-81194454D01*
X134373986Y-81150997D01*
X134262333Y-81140000D01*
X134262322Y-81140000D01*
X134225000Y-81136324D01*
X134187678Y-81140000D01*
X118939802Y-81140000D01*
X117438804Y-79639003D01*
X117415001Y-79609999D01*
X117299276Y-79515026D01*
X117167247Y-79444454D01*
X117023986Y-79400997D01*
X116912333Y-79390000D01*
X116912322Y-79390000D01*
X116875000Y-79386324D01*
X116837678Y-79390000D01*
X116778178Y-79390000D01*
X116653475Y-79203368D01*
X116446632Y-78996525D01*
X116272240Y-78880000D01*
X116446632Y-78763475D01*
X116653475Y-78556632D01*
X116815990Y-78313411D01*
X116927932Y-78043158D01*
X116985000Y-77756260D01*
X116985000Y-77463740D01*
X116927932Y-77176842D01*
X116815990Y-76906589D01*
X116653475Y-76663368D01*
X116446632Y-76456525D01*
X116272240Y-76340000D01*
X116446632Y-76223475D01*
X116653475Y-76016632D01*
X116815990Y-75773411D01*
X116927932Y-75503158D01*
X116985000Y-75216260D01*
X116985000Y-74923740D01*
X116927932Y-74636842D01*
X116815990Y-74366589D01*
X116653475Y-74123368D01*
X116446632Y-73916525D01*
X116272240Y-73800000D01*
X116446632Y-73683475D01*
X116653475Y-73476632D01*
X116815990Y-73233411D01*
X116927932Y-72963158D01*
X116985000Y-72676260D01*
X116985000Y-72425558D01*
X117084744Y-72492205D01*
X117273102Y-72570226D01*
X117473061Y-72610000D01*
X117676939Y-72610000D01*
X117876898Y-72570226D01*
X118065256Y-72492205D01*
X118234774Y-72378937D01*
X118378937Y-72234774D01*
X118492205Y-72065256D01*
X118570226Y-71876898D01*
X118610000Y-71676939D01*
X118610000Y-71473061D01*
X118570226Y-71273102D01*
X118492205Y-71084744D01*
X118378937Y-70915226D01*
X118335000Y-70871289D01*
X118335000Y-68462322D01*
X118338676Y-68424999D01*
X118335000Y-68387676D01*
X118335000Y-68387667D01*
X118324003Y-68276014D01*
X118280546Y-68132753D01*
X118209974Y-68000724D01*
X118115001Y-67884999D01*
X118086003Y-67861201D01*
X117163804Y-66939002D01*
X117140001Y-66909999D01*
X117024276Y-66815026D01*
X116988072Y-66795674D01*
X116988072Y-66600000D01*
X116975812Y-66475518D01*
X116939502Y-66355820D01*
X116880537Y-66245506D01*
X116801185Y-66148815D01*
X116704494Y-66069463D01*
X116594180Y-66010498D01*
X116474482Y-65974188D01*
X116350000Y-65961928D01*
X114650000Y-65961928D01*
X114525518Y-65974188D01*
X114405820Y-66010498D01*
X114295506Y-66069463D01*
X114198815Y-66148815D01*
X114119463Y-66245506D01*
X114060498Y-66355820D01*
X114024188Y-66475518D01*
X114011928Y-66600000D01*
X114011928Y-68300000D01*
X114024188Y-68424482D01*
X114060498Y-68544180D01*
X114119463Y-68654494D01*
X114198815Y-68751185D01*
X114295506Y-68830537D01*
X114405820Y-68889502D01*
X114478380Y-68911513D01*
X114346525Y-69043368D01*
X114184010Y-69286589D01*
X114072068Y-69556842D01*
X114015000Y-69843740D01*
X114015000Y-70136260D01*
X114072068Y-70423158D01*
X114184010Y-70693411D01*
X114346525Y-70936632D01*
X114553368Y-71143475D01*
X114727760Y-71260000D01*
X114553368Y-71376525D01*
X114346525Y-71583368D01*
X114184010Y-71826589D01*
X114072068Y-72096842D01*
X114015000Y-72383740D01*
X114015000Y-72676260D01*
X114072068Y-72963158D01*
X114184010Y-73233411D01*
X114346525Y-73476632D01*
X114553368Y-73683475D01*
X114727760Y-73800000D01*
X114553368Y-73916525D01*
X114346525Y-74123368D01*
X114184010Y-74366589D01*
X114072068Y-74636842D01*
X114015000Y-74923740D01*
X114015000Y-75216260D01*
X114072068Y-75503158D01*
X114184010Y-75773411D01*
X114346525Y-76016632D01*
X114553368Y-76223475D01*
X114727760Y-76340000D01*
X114553368Y-76456525D01*
X114346525Y-76663368D01*
X114184010Y-76906589D01*
X114072068Y-77176842D01*
X114015000Y-77463740D01*
X114015000Y-77756260D01*
X114058790Y-77976408D01*
X113302000Y-78733199D01*
X113302000Y-63352000D01*
X119210892Y-63352000D01*
X119194454Y-63382754D01*
G37*
%TD.AperFunction*%
D21*
X122666525Y-65766632D02*
X122873368Y-65973475D01*
X123116589Y-66135990D01*
X123386842Y-66247932D01*
X123673740Y-66305000D01*
X123966260Y-66305000D01*
X124186408Y-66261209D01*
X125718641Y-67793443D01*
X125634099Y-67753175D01*
X125486890Y-67708524D01*
X125257000Y-67829845D01*
X125257000Y-69023000D01*
X125277000Y-69023000D01*
X125277000Y-69277000D01*
X125257000Y-69277000D01*
X125257000Y-70470155D01*
X125486890Y-70591476D01*
X125634099Y-70546825D01*
X125896920Y-70421641D01*
X126130269Y-70247588D01*
X126325178Y-70031355D01*
X126394805Y-69914466D01*
X126516525Y-70096632D01*
X126723368Y-70303475D01*
X126966589Y-70465990D01*
X127236842Y-70577932D01*
X127327784Y-70596022D01*
X127196842Y-70622068D01*
X126926589Y-70734010D01*
X126683368Y-70896525D01*
X126476525Y-71103368D01*
X126354805Y-71285534D01*
X126285178Y-71168645D01*
X126090269Y-70952412D01*
X125856920Y-70778359D01*
X125594099Y-70653175D01*
X125446890Y-70608524D01*
X125217000Y-70729845D01*
X125217000Y-71923000D01*
X125237000Y-71923000D01*
X125237000Y-72177000D01*
X125217000Y-72177000D01*
X125217000Y-73370155D01*
X125446890Y-73491476D01*
X125594099Y-73446825D01*
X125856920Y-73321641D01*
X126090269Y-73147588D01*
X126285178Y-72931355D01*
X126354805Y-72814466D01*
X126476525Y-72996632D01*
X126683368Y-73203475D01*
X126926589Y-73365990D01*
X127196842Y-73477932D01*
X127483740Y-73535000D01*
X127776260Y-73535000D01*
X128063158Y-73477932D01*
X128333411Y-73365990D01*
X128576632Y-73203475D01*
X128783475Y-72996632D01*
X128900000Y-72822240D01*
X129016525Y-72996632D01*
X129223368Y-73203475D01*
X129466589Y-73365990D01*
X129736842Y-73477932D01*
X130023740Y-73535000D01*
X130316260Y-73535000D01*
X130603158Y-73477932D01*
X130873411Y-73365990D01*
X131116632Y-73203475D01*
X131323475Y-72996632D01*
X131440000Y-72822240D01*
X131556525Y-72996632D01*
X131763368Y-73203475D01*
X132006589Y-73365990D01*
X132167541Y-73432658D01*
X132013998Y-73586201D01*
X131985000Y-73609999D01*
X131961202Y-73638997D01*
X131961201Y-73638998D01*
X131890026Y-73725724D01*
X131819454Y-73857754D01*
X131795459Y-73936857D01*
X131775998Y-74001014D01*
X131769560Y-74066377D01*
X131761324Y-74150000D01*
X131765001Y-74187332D01*
X131765000Y-78246289D01*
X131721063Y-78290226D01*
X131607795Y-78459744D01*
X131529774Y-78648102D01*
X131490000Y-78848061D01*
X131490000Y-78915001D01*
X128293216Y-78915001D01*
X128309774Y-78903937D01*
X128453937Y-78759774D01*
X128567205Y-78590256D01*
X128645226Y-78401898D01*
X128685000Y-78201939D01*
X128685000Y-77998061D01*
X128645226Y-77798102D01*
X128567205Y-77609744D01*
X128453937Y-77440226D01*
X128309774Y-77296063D01*
X128140256Y-77182795D01*
X127951898Y-77104774D01*
X127895044Y-77093465D01*
X125406535Y-74604957D01*
X125395226Y-74548102D01*
X125317205Y-74359744D01*
X125203937Y-74190226D01*
X125059774Y-74046063D01*
X124890256Y-73932795D01*
X124701898Y-73854774D01*
X124645044Y-73843465D01*
X123974265Y-73172686D01*
X123989502Y-73144180D01*
X124013966Y-73063534D01*
X124089731Y-73147588D01*
X124323080Y-73321641D01*
X124585901Y-73446825D01*
X124733110Y-73491476D01*
X124963000Y-73370155D01*
X124963000Y-72177000D01*
X124943000Y-72177000D01*
X124943000Y-71923000D01*
X124963000Y-71923000D01*
X124963000Y-70729845D01*
X124733110Y-70608524D01*
X124585901Y-70653175D01*
X124323080Y-70778359D01*
X124089731Y-70952412D01*
X124013966Y-71036466D01*
X123989502Y-70955820D01*
X123930537Y-70845506D01*
X123851185Y-70748815D01*
X123754494Y-70669463D01*
X123685000Y-70632317D01*
X123685000Y-70589064D01*
X123794494Y-70530537D01*
X123891185Y-70451185D01*
X123970537Y-70354494D01*
X124029502Y-70244180D01*
X124053966Y-70163534D01*
X124129731Y-70247588D01*
X124363080Y-70421641D01*
X124625901Y-70546825D01*
X124773110Y-70591476D01*
X125003000Y-70470155D01*
X125003000Y-69277000D01*
X124983000Y-69277000D01*
X124983000Y-69023000D01*
X125003000Y-69023000D01*
X125003000Y-67829845D01*
X124773110Y-67708524D01*
X124625901Y-67753175D01*
X124363080Y-67878359D01*
X124129731Y-68052412D01*
X124053966Y-68136466D01*
X124029502Y-68055820D01*
X123970537Y-67945506D01*
X123891185Y-67848815D01*
X123794494Y-67769463D01*
X123714403Y-67726653D01*
X123708577Y-67667501D01*
X123643676Y-67453553D01*
X123538284Y-67256377D01*
X123520718Y-67234973D01*
X123396449Y-67083551D01*
X123353140Y-67048008D01*
X122415000Y-66109869D01*
X122415000Y-65785107D01*
X122433475Y-65766632D01*
X122550000Y-65592240D01*
X122666525Y-65766632D01*
%TA.AperFunction,Conductor*%
D22*
G36*
X122666525Y-65766632D02*
G01*
X122873368Y-65973475D01*
X123116589Y-66135990D01*
X123386842Y-66247932D01*
X123673740Y-66305000D01*
X123966260Y-66305000D01*
X124186408Y-66261209D01*
X125718641Y-67793443D01*
X125634099Y-67753175D01*
X125486890Y-67708524D01*
X125257000Y-67829845D01*
X125257000Y-69023000D01*
X125277000Y-69023000D01*
X125277000Y-69277000D01*
X125257000Y-69277000D01*
X125257000Y-70470155D01*
X125486890Y-70591476D01*
X125634099Y-70546825D01*
X125896920Y-70421641D01*
X126130269Y-70247588D01*
X126325178Y-70031355D01*
X126394805Y-69914466D01*
X126516525Y-70096632D01*
X126723368Y-70303475D01*
X126966589Y-70465990D01*
X127236842Y-70577932D01*
X127327784Y-70596022D01*
X127196842Y-70622068D01*
X126926589Y-70734010D01*
X126683368Y-70896525D01*
X126476525Y-71103368D01*
X126354805Y-71285534D01*
X126285178Y-71168645D01*
X126090269Y-70952412D01*
X125856920Y-70778359D01*
X125594099Y-70653175D01*
X125446890Y-70608524D01*
X125217000Y-70729845D01*
X125217000Y-71923000D01*
X125237000Y-71923000D01*
X125237000Y-72177000D01*
X125217000Y-72177000D01*
X125217000Y-73370155D01*
X125446890Y-73491476D01*
X125594099Y-73446825D01*
X125856920Y-73321641D01*
X126090269Y-73147588D01*
X126285178Y-72931355D01*
X126354805Y-72814466D01*
X126476525Y-72996632D01*
X126683368Y-73203475D01*
X126926589Y-73365990D01*
X127196842Y-73477932D01*
X127483740Y-73535000D01*
X127776260Y-73535000D01*
X128063158Y-73477932D01*
X128333411Y-73365990D01*
X128576632Y-73203475D01*
X128783475Y-72996632D01*
X128900000Y-72822240D01*
X129016525Y-72996632D01*
X129223368Y-73203475D01*
X129466589Y-73365990D01*
X129736842Y-73477932D01*
X130023740Y-73535000D01*
X130316260Y-73535000D01*
X130603158Y-73477932D01*
X130873411Y-73365990D01*
X131116632Y-73203475D01*
X131323475Y-72996632D01*
X131440000Y-72822240D01*
X131556525Y-72996632D01*
X131763368Y-73203475D01*
X132006589Y-73365990D01*
X132167541Y-73432658D01*
X132013998Y-73586201D01*
X131985000Y-73609999D01*
X131961202Y-73638997D01*
X131961201Y-73638998D01*
X131890026Y-73725724D01*
X131819454Y-73857754D01*
X131795459Y-73936857D01*
X131775998Y-74001014D01*
X131769560Y-74066377D01*
X131761324Y-74150000D01*
X131765001Y-74187332D01*
X131765000Y-78246289D01*
X131721063Y-78290226D01*
X131607795Y-78459744D01*
X131529774Y-78648102D01*
X131490000Y-78848061D01*
X131490000Y-78915001D01*
X128293216Y-78915001D01*
X128309774Y-78903937D01*
X128453937Y-78759774D01*
X128567205Y-78590256D01*
X128645226Y-78401898D01*
X128685000Y-78201939D01*
X128685000Y-77998061D01*
X128645226Y-77798102D01*
X128567205Y-77609744D01*
X128453937Y-77440226D01*
X128309774Y-77296063D01*
X128140256Y-77182795D01*
X127951898Y-77104774D01*
X127895044Y-77093465D01*
X125406535Y-74604957D01*
X125395226Y-74548102D01*
X125317205Y-74359744D01*
X125203937Y-74190226D01*
X125059774Y-74046063D01*
X124890256Y-73932795D01*
X124701898Y-73854774D01*
X124645044Y-73843465D01*
X123974265Y-73172686D01*
X123989502Y-73144180D01*
X124013966Y-73063534D01*
X124089731Y-73147588D01*
X124323080Y-73321641D01*
X124585901Y-73446825D01*
X124733110Y-73491476D01*
X124963000Y-73370155D01*
X124963000Y-72177000D01*
X124943000Y-72177000D01*
X124943000Y-71923000D01*
X124963000Y-71923000D01*
X124963000Y-70729845D01*
X124733110Y-70608524D01*
X124585901Y-70653175D01*
X124323080Y-70778359D01*
X124089731Y-70952412D01*
X124013966Y-71036466D01*
X123989502Y-70955820D01*
X123930537Y-70845506D01*
X123851185Y-70748815D01*
X123754494Y-70669463D01*
X123685000Y-70632317D01*
X123685000Y-70589064D01*
X123794494Y-70530537D01*
X123891185Y-70451185D01*
X123970537Y-70354494D01*
X124029502Y-70244180D01*
X124053966Y-70163534D01*
X124129731Y-70247588D01*
X124363080Y-70421641D01*
X124625901Y-70546825D01*
X124773110Y-70591476D01*
X125003000Y-70470155D01*
X125003000Y-69277000D01*
X124983000Y-69277000D01*
X124983000Y-69023000D01*
X125003000Y-69023000D01*
X125003000Y-67829845D01*
X124773110Y-67708524D01*
X124625901Y-67753175D01*
X124363080Y-67878359D01*
X124129731Y-68052412D01*
X124053966Y-68136466D01*
X124029502Y-68055820D01*
X123970537Y-67945506D01*
X123891185Y-67848815D01*
X123794494Y-67769463D01*
X123714403Y-67726653D01*
X123708577Y-67667501D01*
X123643676Y-67453553D01*
X123538284Y-67256377D01*
X123520718Y-67234973D01*
X123396449Y-67083551D01*
X123353140Y-67048008D01*
X122415000Y-66109869D01*
X122415000Y-65785107D01*
X122433475Y-65766632D01*
X122550000Y-65592240D01*
X122666525Y-65766632D01*
G37*
%TD.AperFunction*%
%TD*%
M02*
