%TF.GenerationSoftware,KiCad,Pcbnew,5.1.10*%
%TF.CreationDate,2021-11-02T12:22:44+00:00*%
%TF.ProjectId,BST900-ESP32,42535439-3030-42d4-9553-5033322e6b69,0.3*%
%TF.SameCoordinates,Original*%
%TF.FileFunction,Copper,L2,Bot*%
%TF.FilePolarity,Positive*%
%FSLAX46Y46*%
G04 Gerber Fmt 4.6, Leading zero omitted, Abs format (unit mm)*
G04 Created by KiCad (PCBNEW 5.1.10) date 2021-11-02 12:22:44*
%MOMM*%
%LPD*%
G01*
G04 APERTURE LIST*
%TA.AperFunction,ComponentPad*%
%ADD10O,1.700000X1.700000*%
%TD*%
%TA.AperFunction,ComponentPad*%
%ADD11R,1.700000X1.700000*%
%TD*%
%TA.AperFunction,ComponentPad*%
%ADD12C,1.700000*%
%TD*%
%TA.AperFunction,SMDPad,CuDef*%
%ADD13C,0.100000*%
%TD*%
%TA.AperFunction,ComponentPad*%
%ADD14O,1.200000X1.750000*%
%TD*%
%TA.AperFunction,ViaPad*%
%ADD15C,0.800000*%
%TD*%
%TA.AperFunction,Conductor*%
%ADD16C,0.250000*%
%TD*%
%TA.AperFunction,Conductor*%
%ADD17C,0.500000*%
%TD*%
%TA.AperFunction,Conductor*%
%ADD18C,1.000000*%
%TD*%
%TA.AperFunction,Conductor*%
%ADD19C,0.254000*%
%TD*%
%TA.AperFunction,Conductor*%
%ADD20C,0.100000*%
%TD*%
G04 APERTURE END LIST*
%TO.P,C4,2*%
%TO.N,GND*%
%TA.AperFunction,SMDPad,CuDef*%
G36*
G01*
X132350000Y-76350000D02*
X133300000Y-76350000D01*
G75*
G02*
X133550000Y-76600000I0J-250000D01*
G01*
X133550000Y-77100000D01*
G75*
G02*
X133300000Y-77350000I-250000J0D01*
G01*
X132350000Y-77350000D01*
G75*
G02*
X132100000Y-77100000I0J250000D01*
G01*
X132100000Y-76600000D01*
G75*
G02*
X132350000Y-76350000I250000J0D01*
G01*
G37*
%TD.AperFunction*%
%TO.P,C4,1*%
%TO.N,Vin_sense*%
%TA.AperFunction,SMDPad,CuDef*%
G36*
G01*
X132350000Y-74450000D02*
X133300000Y-74450000D01*
G75*
G02*
X133550000Y-74700000I0J-250000D01*
G01*
X133550000Y-75200000D01*
G75*
G02*
X133300000Y-75450000I-250000J0D01*
G01*
X132350000Y-75450000D01*
G75*
G02*
X132100000Y-75200000I0J250000D01*
G01*
X132100000Y-74700000D01*
G75*
G02*
X132350000Y-74450000I250000J0D01*
G01*
G37*
%TD.AperFunction*%
%TD*%
%TO.P,C5,2*%
%TO.N,GND*%
%TA.AperFunction,SMDPad,CuDef*%
G36*
G01*
X135850000Y-75500000D02*
X134900000Y-75500000D01*
G75*
G02*
X134650000Y-75250000I0J250000D01*
G01*
X134650000Y-74750000D01*
G75*
G02*
X134900000Y-74500000I250000J0D01*
G01*
X135850000Y-74500000D01*
G75*
G02*
X136100000Y-74750000I0J-250000D01*
G01*
X136100000Y-75250000D01*
G75*
G02*
X135850000Y-75500000I-250000J0D01*
G01*
G37*
%TD.AperFunction*%
%TO.P,C5,1*%
%TO.N,Iout_sense*%
%TA.AperFunction,SMDPad,CuDef*%
G36*
G01*
X135850000Y-77400000D02*
X134900000Y-77400000D01*
G75*
G02*
X134650000Y-77150000I0J250000D01*
G01*
X134650000Y-76650000D01*
G75*
G02*
X134900000Y-76400000I250000J0D01*
G01*
X135850000Y-76400000D01*
G75*
G02*
X136100000Y-76650000I0J-250000D01*
G01*
X136100000Y-77150000D01*
G75*
G02*
X135850000Y-77400000I-250000J0D01*
G01*
G37*
%TD.AperFunction*%
%TD*%
%TO.P,C6,2*%
%TO.N,GND*%
%TA.AperFunction,SMDPad,CuDef*%
G36*
G01*
X137175000Y-76450000D02*
X138125000Y-76450000D01*
G75*
G02*
X138375000Y-76700000I0J-250000D01*
G01*
X138375000Y-77200000D01*
G75*
G02*
X138125000Y-77450000I-250000J0D01*
G01*
X137175000Y-77450000D01*
G75*
G02*
X136925000Y-77200000I0J250000D01*
G01*
X136925000Y-76700000D01*
G75*
G02*
X137175000Y-76450000I250000J0D01*
G01*
G37*
%TD.AperFunction*%
%TO.P,C6,1*%
%TO.N,Vout_sense*%
%TA.AperFunction,SMDPad,CuDef*%
G36*
G01*
X137175000Y-74550000D02*
X138125000Y-74550000D01*
G75*
G02*
X138375000Y-74800000I0J-250000D01*
G01*
X138375000Y-75300000D01*
G75*
G02*
X138125000Y-75550000I-250000J0D01*
G01*
X137175000Y-75550000D01*
G75*
G02*
X136925000Y-75300000I0J250000D01*
G01*
X136925000Y-74800000D01*
G75*
G02*
X137175000Y-74550000I250000J0D01*
G01*
G37*
%TD.AperFunction*%
%TD*%
%TO.P,C1,2*%
%TO.N,GND*%
%TA.AperFunction,SMDPad,CuDef*%
G36*
G01*
X148475000Y-73950000D02*
X147525000Y-73950000D01*
G75*
G02*
X147275000Y-73700000I0J250000D01*
G01*
X147275000Y-73200000D01*
G75*
G02*
X147525000Y-72950000I250000J0D01*
G01*
X148475000Y-72950000D01*
G75*
G02*
X148725000Y-73200000I0J-250000D01*
G01*
X148725000Y-73700000D01*
G75*
G02*
X148475000Y-73950000I-250000J0D01*
G01*
G37*
%TD.AperFunction*%
%TO.P,C1,1*%
%TO.N,+3.3V*%
%TA.AperFunction,SMDPad,CuDef*%
G36*
G01*
X148475000Y-75850000D02*
X147525000Y-75850000D01*
G75*
G02*
X147275000Y-75600000I0J250000D01*
G01*
X147275000Y-75100000D01*
G75*
G02*
X147525000Y-74850000I250000J0D01*
G01*
X148475000Y-74850000D01*
G75*
G02*
X148725000Y-75100000I0J-250000D01*
G01*
X148725000Y-75600000D01*
G75*
G02*
X148475000Y-75850000I-250000J0D01*
G01*
G37*
%TD.AperFunction*%
%TD*%
D10*
%TO.P,J1,8*%
%TO.N,Fan_PWM*%
X115500000Y-85230000D03*
%TO.P,J1,7*%
%TO.N,CV_CC*%
X115500000Y-82690000D03*
%TO.P,J1,6*%
%TO.N,Enable*%
X115500000Y-80150000D03*
%TO.P,J1,5*%
%TO.N,Vout_PWM*%
X115500000Y-77610000D03*
%TO.P,J1,4*%
%TO.N,Iout_PWM*%
X115500000Y-75070000D03*
%TO.P,J1,3*%
%TO.N,Vin_sense*%
X115500000Y-72530000D03*
%TO.P,J1,2*%
%TO.N,Vout_sense*%
X115500000Y-69990000D03*
D11*
%TO.P,J1,1*%
%TO.N,Net-(J1-Pad1)*%
X115500000Y-67450000D03*
%TD*%
D10*
%TO.P,J4,10*%
%TO.N,ANALOGUE_3*%
X145450000Y-69150000D03*
%TO.P,J4,9*%
%TO.N,Vout_sense*%
X142910000Y-69150000D03*
%TO.P,J4,8*%
%TO.N,Iout_sense*%
X140370000Y-69150000D03*
%TO.P,J4,7*%
%TO.N,Vin_sense*%
X137830000Y-69150000D03*
%TO.P,J4,6*%
%TO.N,N/C*%
X135290000Y-69150000D03*
%TO.P,J4,5*%
X132750000Y-69150000D03*
%TO.P,J4,4*%
%TO.N,SDA*%
X130210000Y-69150000D03*
%TO.P,J4,3*%
%TO.N,SCL*%
X127670000Y-69150000D03*
%TO.P,J4,2*%
%TO.N,GND*%
X125130000Y-69150000D03*
D11*
%TO.P,J4,1*%
%TO.N,+3.3V*%
X122590000Y-69150000D03*
%TD*%
D10*
%TO.P,J6,8*%
%TO.N,N/C*%
X163500000Y-85230000D03*
%TO.P,J6,7*%
X163500000Y-82690000D03*
%TO.P,J6,6*%
%TO.N,Net-(J6-Pad5)*%
X163500000Y-80150000D03*
%TO.P,J6,5*%
X163500000Y-77610000D03*
%TO.P,J6,4*%
%TO.N,Net-(J6-Pad3)*%
X163500000Y-75070000D03*
%TO.P,J6,3*%
X163500000Y-72530000D03*
%TO.P,J6,2*%
%TO.N,GND*%
X163500000Y-69990000D03*
D11*
%TO.P,J6,1*%
X163500000Y-67450000D03*
%TD*%
D10*
%TO.P,J5,10*%
%TO.N,ANALOGUE_3*%
X145410000Y-72050000D03*
%TO.P,J5,9*%
%TO.N,Vout_sense*%
X142870000Y-72050000D03*
%TO.P,J5,8*%
%TO.N,Iout_sense*%
X140330000Y-72050000D03*
%TO.P,J5,7*%
%TO.N,Vin_sense*%
X137790000Y-72050000D03*
%TO.P,J5,6*%
%TO.N,N/C*%
X135250000Y-72050000D03*
%TO.P,J5,5*%
X132710000Y-72050000D03*
%TO.P,J5,4*%
%TO.N,SCL*%
X130170000Y-72050000D03*
%TO.P,J5,3*%
%TO.N,SDA*%
X127630000Y-72050000D03*
%TO.P,J5,2*%
%TO.N,GND*%
X125090000Y-72050000D03*
D11*
%TO.P,J5,1*%
%TO.N,+3.3V*%
X122550000Y-72050000D03*
%TD*%
%TO.P,R1,2*%
%TO.N,CV_CC*%
%TA.AperFunction,SMDPad,CuDef*%
G36*
G01*
X120100000Y-82874998D02*
X120100000Y-83775002D01*
G75*
G02*
X119850002Y-84025000I-249998J0D01*
G01*
X119324998Y-84025000D01*
G75*
G02*
X119075000Y-83775002I0J249998D01*
G01*
X119075000Y-82874998D01*
G75*
G02*
X119324998Y-82625000I249998J0D01*
G01*
X119850002Y-82625000D01*
G75*
G02*
X120100000Y-82874998I0J-249998D01*
G01*
G37*
%TD.AperFunction*%
%TO.P,R1,1*%
%TO.N,GPIO_27*%
%TA.AperFunction,SMDPad,CuDef*%
G36*
G01*
X121925000Y-82874998D02*
X121925000Y-83775002D01*
G75*
G02*
X121675002Y-84025000I-249998J0D01*
G01*
X121149998Y-84025000D01*
G75*
G02*
X120900000Y-83775002I0J249998D01*
G01*
X120900000Y-82874998D01*
G75*
G02*
X121149998Y-82625000I249998J0D01*
G01*
X121675002Y-82625000D01*
G75*
G02*
X121925000Y-82874998I0J-249998D01*
G01*
G37*
%TD.AperFunction*%
%TD*%
%TO.P,R2,2*%
%TO.N,ANALOGUE_3*%
%TA.AperFunction,SMDPad,CuDef*%
G36*
G01*
X144275000Y-74524998D02*
X144275000Y-75425002D01*
G75*
G02*
X144025002Y-75675000I-249998J0D01*
G01*
X143499998Y-75675000D01*
G75*
G02*
X143250000Y-75425002I0J249998D01*
G01*
X143250000Y-74524998D01*
G75*
G02*
X143499998Y-74275000I249998J0D01*
G01*
X144025002Y-74275000D01*
G75*
G02*
X144275000Y-74524998I0J-249998D01*
G01*
G37*
%TD.AperFunction*%
%TO.P,R2,1*%
%TO.N,+3.3V*%
%TA.AperFunction,SMDPad,CuDef*%
G36*
G01*
X146100000Y-74524998D02*
X146100000Y-75425002D01*
G75*
G02*
X145850002Y-75675000I-249998J0D01*
G01*
X145324998Y-75675000D01*
G75*
G02*
X145075000Y-75425002I0J249998D01*
G01*
X145075000Y-74524998D01*
G75*
G02*
X145324998Y-74275000I249998J0D01*
G01*
X145850002Y-74275000D01*
G75*
G02*
X146100000Y-74524998I0J-249998D01*
G01*
G37*
%TD.AperFunction*%
%TD*%
%TO.P,R4,2*%
%TO.N,Net-(JP1-Pad1)*%
%TA.AperFunction,SMDPad,CuDef*%
G36*
G01*
X141325000Y-77950002D02*
X141325000Y-77049998D01*
G75*
G02*
X141574998Y-76800000I249998J0D01*
G01*
X142100002Y-76800000D01*
G75*
G02*
X142350000Y-77049998I0J-249998D01*
G01*
X142350000Y-77950002D01*
G75*
G02*
X142100002Y-78200000I-249998J0D01*
G01*
X141574998Y-78200000D01*
G75*
G02*
X141325000Y-77950002I0J249998D01*
G01*
G37*
%TD.AperFunction*%
%TO.P,R4,1*%
%TO.N,Net-(J3-Pad3)*%
%TA.AperFunction,SMDPad,CuDef*%
G36*
G01*
X139500000Y-77950002D02*
X139500000Y-77049998D01*
G75*
G02*
X139749998Y-76800000I249998J0D01*
G01*
X140275002Y-76800000D01*
G75*
G02*
X140525000Y-77049998I0J-249998D01*
G01*
X140525000Y-77950002D01*
G75*
G02*
X140275002Y-78200000I-249998J0D01*
G01*
X139749998Y-78200000D01*
G75*
G02*
X139500000Y-77950002I0J249998D01*
G01*
G37*
%TD.AperFunction*%
%TD*%
%TO.P,R3,2*%
%TO.N,Net-(J1-Pad1)*%
%TA.AperFunction,SMDPad,CuDef*%
G36*
G01*
X119300002Y-73150000D02*
X118399998Y-73150000D01*
G75*
G02*
X118150000Y-72900002I0J249998D01*
G01*
X118150000Y-72374998D01*
G75*
G02*
X118399998Y-72125000I249998J0D01*
G01*
X119300002Y-72125000D01*
G75*
G02*
X119550000Y-72374998I0J-249998D01*
G01*
X119550000Y-72900002D01*
G75*
G02*
X119300002Y-73150000I-249998J0D01*
G01*
G37*
%TD.AperFunction*%
%TO.P,R3,1*%
%TO.N,Iout_sense*%
%TA.AperFunction,SMDPad,CuDef*%
G36*
G01*
X119300002Y-74975000D02*
X118399998Y-74975000D01*
G75*
G02*
X118150000Y-74725002I0J249998D01*
G01*
X118150000Y-74199998D01*
G75*
G02*
X118399998Y-73950000I249998J0D01*
G01*
X119300002Y-73950000D01*
G75*
G02*
X119550000Y-74199998I0J-249998D01*
G01*
X119550000Y-74725002D01*
G75*
G02*
X119300002Y-74975000I-249998J0D01*
G01*
G37*
%TD.AperFunction*%
%TD*%
%TO.P,R5,2*%
%TO.N,GND*%
%TA.AperFunction,SMDPad,CuDef*%
G36*
G01*
X136900000Y-79550002D02*
X136900000Y-78649998D01*
G75*
G02*
X137149998Y-78400000I249998J0D01*
G01*
X137675002Y-78400000D01*
G75*
G02*
X137925000Y-78649998I0J-249998D01*
G01*
X137925000Y-79550002D01*
G75*
G02*
X137675002Y-79800000I-249998J0D01*
G01*
X137149998Y-79800000D01*
G75*
G02*
X136900000Y-79550002I0J249998D01*
G01*
G37*
%TD.AperFunction*%
%TO.P,R5,1*%
%TO.N,Iout_sense*%
%TA.AperFunction,SMDPad,CuDef*%
G36*
G01*
X135075000Y-79550002D02*
X135075000Y-78649998D01*
G75*
G02*
X135324998Y-78400000I249998J0D01*
G01*
X135850002Y-78400000D01*
G75*
G02*
X136100000Y-78649998I0J-249998D01*
G01*
X136100000Y-79550002D01*
G75*
G02*
X135850002Y-79800000I-249998J0D01*
G01*
X135324998Y-79800000D01*
G75*
G02*
X135075000Y-79550002I0J249998D01*
G01*
G37*
%TD.AperFunction*%
%TD*%
D12*
%TO.P,U2,24*%
%TO.N,+3.3V*%
X121280000Y-64820000D03*
%TO.P,U2,23*%
%TO.N,ANALOGUE_3*%
X123820000Y-64820000D03*
%TO.P,U2,22*%
%TO.N,Vin_sense*%
X126360000Y-64820000D03*
%TO.P,U2,21*%
%TO.N,Iout_sense*%
X128900000Y-64820000D03*
%TO.P,U2,20*%
%TO.N,Vout_sense*%
X131440000Y-64820000D03*
%TO.P,U2,19*%
%TO.N,/GPIO_32*%
X133980000Y-64820000D03*
%TO.P,U2,18*%
%TO.N,/GPIO_33*%
X136520000Y-64820000D03*
%TO.P,U2,17*%
%TO.N,RS485_RX*%
X139060000Y-64820000D03*
%TO.P,U2,16*%
%TO.N,RS485_TX*%
X141600000Y-64820000D03*
%TO.P,U2,15*%
%TO.N,GPIO_27*%
X144140000Y-64820000D03*
%TO.P,U2,14*%
%TO.N,GND*%
X146680000Y-64820000D03*
%TO.P,U2,13*%
%TO.N,+5V*%
X149220000Y-64820000D03*
%TO.P,U2,12*%
%TO.N,+3.3V*%
X149220000Y-87680000D03*
%TO.P,U2,11*%
%TO.N,GND*%
X146680000Y-87680000D03*
%TO.P,U2,10*%
X144140000Y-87680000D03*
%TO.P,U2,9*%
%TO.N,Enable*%
X141600000Y-87680000D03*
%TO.P,U2,8*%
%TO.N,Iout_PWM*%
X139060000Y-87680000D03*
%TO.P,U2,7*%
%TO.N,Vout_PWM*%
X136520000Y-87680000D03*
%TO.P,U2,6*%
%TO.N,Fan_PWM*%
X133980000Y-87680000D03*
%TO.P,U2,5*%
%TO.N,RX485_ENA*%
X131440000Y-87680000D03*
%TO.P,U2,4*%
%TO.N,SCL*%
X128900000Y-87680000D03*
%TO.P,U2,3*%
%TO.N,SDA*%
X126360000Y-87680000D03*
%TO.P,U2,2*%
%TO.N,GND*%
X123820000Y-87680000D03*
D11*
%TO.P,U2,1*%
X121280000Y-87680000D03*
%TD*%
%TA.AperFunction,SMDPad,CuDef*%
D13*
%TO.P,JP1,2*%
%TO.N,Net-(J3-Pad2)*%
G36*
X145475000Y-76675602D02*
G01*
X145499534Y-76675602D01*
X145548365Y-76680412D01*
X145596490Y-76689984D01*
X145643445Y-76704228D01*
X145688778Y-76723005D01*
X145732051Y-76746136D01*
X145772850Y-76773396D01*
X145810779Y-76804524D01*
X145845476Y-76839221D01*
X145876604Y-76877150D01*
X145903864Y-76917949D01*
X145926995Y-76961222D01*
X145945772Y-77006555D01*
X145960016Y-77053510D01*
X145969588Y-77101635D01*
X145974398Y-77150466D01*
X145974398Y-77175000D01*
X145975000Y-77175000D01*
X145975000Y-77675000D01*
X145974398Y-77675000D01*
X145974398Y-77699534D01*
X145969588Y-77748365D01*
X145960016Y-77796490D01*
X145945772Y-77843445D01*
X145926995Y-77888778D01*
X145903864Y-77932051D01*
X145876604Y-77972850D01*
X145845476Y-78010779D01*
X145810779Y-78045476D01*
X145772850Y-78076604D01*
X145732051Y-78103864D01*
X145688778Y-78126995D01*
X145643445Y-78145772D01*
X145596490Y-78160016D01*
X145548365Y-78169588D01*
X145499534Y-78174398D01*
X145475000Y-78174398D01*
X145475000Y-78175000D01*
X144975000Y-78175000D01*
X144975000Y-76675000D01*
X145475000Y-76675000D01*
X145475000Y-76675602D01*
G37*
%TD.AperFunction*%
%TA.AperFunction,SMDPad,CuDef*%
%TO.P,JP1,1*%
%TO.N,Net-(JP1-Pad1)*%
G36*
X144675000Y-78175000D02*
G01*
X144175000Y-78175000D01*
X144175000Y-78174398D01*
X144150466Y-78174398D01*
X144101635Y-78169588D01*
X144053510Y-78160016D01*
X144006555Y-78145772D01*
X143961222Y-78126995D01*
X143917949Y-78103864D01*
X143877150Y-78076604D01*
X143839221Y-78045476D01*
X143804524Y-78010779D01*
X143773396Y-77972850D01*
X143746136Y-77932051D01*
X143723005Y-77888778D01*
X143704228Y-77843445D01*
X143689984Y-77796490D01*
X143680412Y-77748365D01*
X143675602Y-77699534D01*
X143675602Y-77675000D01*
X143675000Y-77675000D01*
X143675000Y-77175000D01*
X143675602Y-77175000D01*
X143675602Y-77150466D01*
X143680412Y-77101635D01*
X143689984Y-77053510D01*
X143704228Y-77006555D01*
X143723005Y-76961222D01*
X143746136Y-76917949D01*
X143773396Y-76877150D01*
X143804524Y-76839221D01*
X143839221Y-76804524D01*
X143877150Y-76773396D01*
X143917949Y-76746136D01*
X143961222Y-76723005D01*
X144006555Y-76704228D01*
X144053510Y-76689984D01*
X144101635Y-76680412D01*
X144150466Y-76675602D01*
X144175000Y-76675602D01*
X144175000Y-76675000D01*
X144675000Y-76675000D01*
X144675000Y-78175000D01*
G37*
%TD.AperFunction*%
%TD*%
%TO.P,U1,8*%
%TO.N,+3.3V*%
%TA.AperFunction,SMDPad,CuDef*%
G36*
G01*
X144275000Y-84280000D02*
X144275000Y-83980000D01*
G75*
G02*
X144425000Y-83830000I150000J0D01*
G01*
X146075000Y-83830000D01*
G75*
G02*
X146225000Y-83980000I0J-150000D01*
G01*
X146225000Y-84280000D01*
G75*
G02*
X146075000Y-84430000I-150000J0D01*
G01*
X144425000Y-84430000D01*
G75*
G02*
X144275000Y-84280000I0J150000D01*
G01*
G37*
%TD.AperFunction*%
%TO.P,U1,7*%
%TO.N,Net-(J3-Pad3)*%
%TA.AperFunction,SMDPad,CuDef*%
G36*
G01*
X144275000Y-83010000D02*
X144275000Y-82710000D01*
G75*
G02*
X144425000Y-82560000I150000J0D01*
G01*
X146075000Y-82560000D01*
G75*
G02*
X146225000Y-82710000I0J-150000D01*
G01*
X146225000Y-83010000D01*
G75*
G02*
X146075000Y-83160000I-150000J0D01*
G01*
X144425000Y-83160000D01*
G75*
G02*
X144275000Y-83010000I0J150000D01*
G01*
G37*
%TD.AperFunction*%
%TO.P,U1,6*%
%TO.N,Net-(J3-Pad2)*%
%TA.AperFunction,SMDPad,CuDef*%
G36*
G01*
X144275000Y-81740000D02*
X144275000Y-81440000D01*
G75*
G02*
X144425000Y-81290000I150000J0D01*
G01*
X146075000Y-81290000D01*
G75*
G02*
X146225000Y-81440000I0J-150000D01*
G01*
X146225000Y-81740000D01*
G75*
G02*
X146075000Y-81890000I-150000J0D01*
G01*
X144425000Y-81890000D01*
G75*
G02*
X144275000Y-81740000I0J150000D01*
G01*
G37*
%TD.AperFunction*%
%TO.P,U1,5*%
%TO.N,GND*%
%TA.AperFunction,SMDPad,CuDef*%
G36*
G01*
X144275000Y-80470000D02*
X144275000Y-80170000D01*
G75*
G02*
X144425000Y-80020000I150000J0D01*
G01*
X146075000Y-80020000D01*
G75*
G02*
X146225000Y-80170000I0J-150000D01*
G01*
X146225000Y-80470000D01*
G75*
G02*
X146075000Y-80620000I-150000J0D01*
G01*
X144425000Y-80620000D01*
G75*
G02*
X144275000Y-80470000I0J150000D01*
G01*
G37*
%TD.AperFunction*%
%TO.P,U1,4*%
%TO.N,RS485_TX*%
%TA.AperFunction,SMDPad,CuDef*%
G36*
G01*
X139325000Y-80470000D02*
X139325000Y-80170000D01*
G75*
G02*
X139475000Y-80020000I150000J0D01*
G01*
X141125000Y-80020000D01*
G75*
G02*
X141275000Y-80170000I0J-150000D01*
G01*
X141275000Y-80470000D01*
G75*
G02*
X141125000Y-80620000I-150000J0D01*
G01*
X139475000Y-80620000D01*
G75*
G02*
X139325000Y-80470000I0J150000D01*
G01*
G37*
%TD.AperFunction*%
%TO.P,U1,3*%
%TO.N,RX485_ENA*%
%TA.AperFunction,SMDPad,CuDef*%
G36*
G01*
X139325000Y-81740000D02*
X139325000Y-81440000D01*
G75*
G02*
X139475000Y-81290000I150000J0D01*
G01*
X141125000Y-81290000D01*
G75*
G02*
X141275000Y-81440000I0J-150000D01*
G01*
X141275000Y-81740000D01*
G75*
G02*
X141125000Y-81890000I-150000J0D01*
G01*
X139475000Y-81890000D01*
G75*
G02*
X139325000Y-81740000I0J150000D01*
G01*
G37*
%TD.AperFunction*%
%TO.P,U1,2*%
%TA.AperFunction,SMDPad,CuDef*%
G36*
G01*
X139325000Y-83010000D02*
X139325000Y-82710000D01*
G75*
G02*
X139475000Y-82560000I150000J0D01*
G01*
X141125000Y-82560000D01*
G75*
G02*
X141275000Y-82710000I0J-150000D01*
G01*
X141275000Y-83010000D01*
G75*
G02*
X141125000Y-83160000I-150000J0D01*
G01*
X139475000Y-83160000D01*
G75*
G02*
X139325000Y-83010000I0J150000D01*
G01*
G37*
%TD.AperFunction*%
%TO.P,U1,1*%
%TO.N,RS485_RX*%
%TA.AperFunction,SMDPad,CuDef*%
G36*
G01*
X139325000Y-84280000D02*
X139325000Y-83980000D01*
G75*
G02*
X139475000Y-83830000I150000J0D01*
G01*
X141125000Y-83830000D01*
G75*
G02*
X141275000Y-83980000I0J-150000D01*
G01*
X141275000Y-84280000D01*
G75*
G02*
X141125000Y-84430000I-150000J0D01*
G01*
X139475000Y-84430000D01*
G75*
G02*
X139325000Y-84280000I0J150000D01*
G01*
G37*
%TD.AperFunction*%
%TD*%
%TO.P,R6,2*%
%TO.N,SCL*%
%TA.AperFunction,SMDPad,CuDef*%
G36*
G01*
X130550002Y-75350000D02*
X129649998Y-75350000D01*
G75*
G02*
X129400000Y-75100002I0J249998D01*
G01*
X129400000Y-74574998D01*
G75*
G02*
X129649998Y-74325000I249998J0D01*
G01*
X130550002Y-74325000D01*
G75*
G02*
X130800000Y-74574998I0J-249998D01*
G01*
X130800000Y-75100002D01*
G75*
G02*
X130550002Y-75350000I-249998J0D01*
G01*
G37*
%TD.AperFunction*%
%TO.P,R6,1*%
%TO.N,+3.3V*%
%TA.AperFunction,SMDPad,CuDef*%
G36*
G01*
X130550002Y-77175000D02*
X129649998Y-77175000D01*
G75*
G02*
X129400000Y-76925002I0J249998D01*
G01*
X129400000Y-76399998D01*
G75*
G02*
X129649998Y-76150000I249998J0D01*
G01*
X130550002Y-76150000D01*
G75*
G02*
X130800000Y-76399998I0J-249998D01*
G01*
X130800000Y-76925002D01*
G75*
G02*
X130550002Y-77175000I-249998J0D01*
G01*
G37*
%TD.AperFunction*%
%TD*%
%TO.P,R7,2*%
%TO.N,SDA*%
%TA.AperFunction,SMDPad,CuDef*%
G36*
G01*
X128025002Y-75325000D02*
X127124998Y-75325000D01*
G75*
G02*
X126875000Y-75075002I0J249998D01*
G01*
X126875000Y-74549998D01*
G75*
G02*
X127124998Y-74300000I249998J0D01*
G01*
X128025002Y-74300000D01*
G75*
G02*
X128275000Y-74549998I0J-249998D01*
G01*
X128275000Y-75075002D01*
G75*
G02*
X128025002Y-75325000I-249998J0D01*
G01*
G37*
%TD.AperFunction*%
%TO.P,R7,1*%
%TO.N,+3.3V*%
%TA.AperFunction,SMDPad,CuDef*%
G36*
G01*
X128025002Y-77150000D02*
X127124998Y-77150000D01*
G75*
G02*
X126875000Y-76900002I0J249998D01*
G01*
X126875000Y-76374998D01*
G75*
G02*
X127124998Y-76125000I249998J0D01*
G01*
X128025002Y-76125000D01*
G75*
G02*
X128275000Y-76374998I0J-249998D01*
G01*
X128275000Y-76900002D01*
G75*
G02*
X128025002Y-77150000I-249998J0D01*
G01*
G37*
%TD.AperFunction*%
%TD*%
%TO.P,C3,2*%
%TO.N,GND*%
%TA.AperFunction,SMDPad,CuDef*%
G36*
G01*
X150675000Y-73675000D02*
X150675000Y-74625000D01*
G75*
G02*
X150425000Y-74875000I-250000J0D01*
G01*
X149925000Y-74875000D01*
G75*
G02*
X149675000Y-74625000I0J250000D01*
G01*
X149675000Y-73675000D01*
G75*
G02*
X149925000Y-73425000I250000J0D01*
G01*
X150425000Y-73425000D01*
G75*
G02*
X150675000Y-73675000I0J-250000D01*
G01*
G37*
%TD.AperFunction*%
%TO.P,C3,1*%
%TO.N,+5V*%
%TA.AperFunction,SMDPad,CuDef*%
G36*
G01*
X152575000Y-73675000D02*
X152575000Y-74625000D01*
G75*
G02*
X152325000Y-74875000I-250000J0D01*
G01*
X151825000Y-74875000D01*
G75*
G02*
X151575000Y-74625000I0J250000D01*
G01*
X151575000Y-73675000D01*
G75*
G02*
X151825000Y-73425000I250000J0D01*
G01*
X152325000Y-73425000D01*
G75*
G02*
X152575000Y-73675000I0J-250000D01*
G01*
G37*
%TD.AperFunction*%
%TD*%
D10*
%TO.P,J2,2*%
%TO.N,GND*%
X169350000Y-76665000D03*
D11*
%TO.P,J2,1*%
%TO.N,ANALOGUE_3*%
X169350000Y-74125000D03*
%TD*%
D14*
%TO.P,J3,4*%
%TO.N,GND*%
X164325000Y-92225000D03*
%TO.P,J3,3*%
%TO.N,Net-(J3-Pad3)*%
X162325000Y-92225000D03*
%TO.P,J3,2*%
%TO.N,Net-(J3-Pad2)*%
X160325000Y-92225000D03*
%TO.P,J3,1*%
%TO.N,EXT_5V*%
%TA.AperFunction,ComponentPad*%
G36*
G01*
X157725000Y-92850001D02*
X157725000Y-91599999D01*
G75*
G02*
X157974999Y-91350000I249999J0D01*
G01*
X158675001Y-91350000D01*
G75*
G02*
X158925000Y-91599999I0J-249999D01*
G01*
X158925000Y-92850001D01*
G75*
G02*
X158675001Y-93100000I-249999J0D01*
G01*
X157974999Y-93100000D01*
G75*
G02*
X157725000Y-92850001I0J249999D01*
G01*
G37*
%TD.AperFunction*%
%TD*%
%TO.P,R9,2*%
%TO.N,/GPIO_33*%
%TA.AperFunction,SMDPad,CuDef*%
G36*
G01*
X135050000Y-67250002D02*
X135050000Y-66349998D01*
G75*
G02*
X135299998Y-66100000I249998J0D01*
G01*
X135825002Y-66100000D01*
G75*
G02*
X136075000Y-66349998I0J-249998D01*
G01*
X136075000Y-67250002D01*
G75*
G02*
X135825002Y-67500000I-249998J0D01*
G01*
X135299998Y-67500000D01*
G75*
G02*
X135050000Y-67250002I0J249998D01*
G01*
G37*
%TD.AperFunction*%
%TO.P,R9,1*%
%TO.N,+3.3V*%
%TA.AperFunction,SMDPad,CuDef*%
G36*
G01*
X133225000Y-67250002D02*
X133225000Y-66349998D01*
G75*
G02*
X133474998Y-66100000I249998J0D01*
G01*
X134000002Y-66100000D01*
G75*
G02*
X134250000Y-66349998I0J-249998D01*
G01*
X134250000Y-67250002D01*
G75*
G02*
X134000002Y-67500000I-249998J0D01*
G01*
X133474998Y-67500000D01*
G75*
G02*
X133225000Y-67250002I0J249998D01*
G01*
G37*
%TD.AperFunction*%
%TD*%
D11*
%TO.P,J7,1*%
%TO.N,+3.3V*%
X170325000Y-84950000D03*
D10*
%TO.P,J7,2*%
%TO.N,SDA*%
X170325000Y-87490000D03*
%TO.P,J7,3*%
%TO.N,SCL*%
X170325000Y-90030000D03*
%TO.P,J7,4*%
%TO.N,GND*%
X170325000Y-92570000D03*
%TD*%
D15*
%TO.N,Vin_sense*%
X129100000Y-62800000D03*
%TO.N,GND*%
X122275000Y-79600000D03*
X135275000Y-81200000D03*
X157800000Y-80000000D03*
X150025000Y-68575000D03*
X157650000Y-66750000D03*
X151200000Y-91275000D03*
X138300000Y-92500000D03*
X116575000Y-92450000D03*
X150500000Y-72525000D03*
X144125000Y-79150000D03*
X133625000Y-80025000D03*
X129650000Y-78350000D03*
X127375000Y-80525000D03*
X127500000Y-83200000D03*
X133800000Y-83225000D03*
X115925000Y-65125000D03*
%TO.N,Iout_sense*%
X120500000Y-74200000D03*
X139825000Y-63100000D03*
%TO.N,Vout_sense*%
X137475000Y-73725000D03*
X120625000Y-69300000D03*
%TO.N,+3.3V*%
X148700000Y-79025000D03*
X148125000Y-84750000D03*
X127650000Y-78100000D03*
X124400000Y-74850000D03*
X117600000Y-88850000D03*
%TO.N,Enable*%
X136400000Y-84075000D03*
%TO.N,Iout_PWM*%
X121075000Y-90250000D03*
%TO.N,Net-(J1-Pad1)*%
X117575000Y-71575000D03*
%TO.N,ANALOGUE_3*%
X136850000Y-66600000D03*
X136850000Y-66600000D03*
%TO.N,SDA*%
X130675000Y-93075000D03*
X127200000Y-93400000D03*
%TO.N,+5V*%
X152800000Y-72200000D03*
%TO.N,Net-(J3-Pad2)*%
X159500000Y-87700000D03*
%TO.N,RS485_RX*%
X137800000Y-84025000D03*
%TO.N,RS485_TX*%
X140125000Y-79050000D03*
%TO.N,GPIO_27*%
X123000000Y-85150000D03*
%TO.N,/GPIO_32*%
X132525000Y-78950000D03*
X130375000Y-91100000D03*
%TO.N,EXT_5V*%
X150450000Y-85400000D03*
%TD*%
D16*
%TO.N,Vin_sense*%
X137790000Y-72050000D02*
X136215000Y-73625000D01*
X136215000Y-73625000D02*
X133400000Y-73625000D01*
X132825000Y-74200000D02*
X132825000Y-74950000D01*
X133400000Y-73625000D02*
X132825000Y-74200000D01*
X113275000Y-64000000D02*
X113275000Y-71850000D01*
X113975000Y-63300000D02*
X113275000Y-64000000D01*
X113955000Y-72530000D02*
X115500000Y-72530000D01*
X124840000Y-63300000D02*
X113975000Y-63300000D01*
X113275000Y-71850000D02*
X113955000Y-72530000D01*
X126360000Y-64820000D02*
X124840000Y-63300000D01*
X128380000Y-62800000D02*
X126360000Y-64820000D01*
X129100000Y-62800000D02*
X128380000Y-62800000D01*
%TO.N,GND*%
X150175000Y-74150000D02*
X149550000Y-73525000D01*
X148075000Y-73525000D02*
X148000000Y-73450000D01*
X149550000Y-73525000D02*
X148075000Y-73525000D01*
X150175000Y-72850000D02*
X150500000Y-72525000D01*
X150175000Y-74150000D02*
X150175000Y-72850000D01*
X145250000Y-80275000D02*
X144125000Y-79150000D01*
X145250000Y-80320000D02*
X145250000Y-80275000D01*
X134675000Y-75000000D02*
X135375000Y-75000000D01*
X132825000Y-76850000D02*
X134675000Y-75000000D01*
X137412500Y-77187500D02*
X137650000Y-76950000D01*
X137412500Y-79100000D02*
X137412500Y-77187500D01*
X133625000Y-77650000D02*
X132825000Y-76850000D01*
X133625000Y-80025000D02*
X133625000Y-77650000D01*
X137884999Y-92084999D02*
X137884999Y-86884999D01*
X138300000Y-92500000D02*
X137884999Y-92084999D01*
%TO.N,Iout_sense*%
X141562500Y-74975000D02*
X141562500Y-74187500D01*
X140330000Y-72955000D02*
X140330000Y-72050000D01*
X141562500Y-74187500D02*
X140330000Y-72955000D01*
X135587500Y-77112500D02*
X135375000Y-76900000D01*
X135587500Y-79100000D02*
X135587500Y-77112500D01*
X141562500Y-74975000D02*
X141562500Y-75437500D01*
X141562500Y-75437500D02*
X141000000Y-76000000D01*
X136275000Y-76000000D02*
X135375000Y-76900000D01*
X141000000Y-76000000D02*
X136275000Y-76000000D01*
X128900000Y-64820000D02*
X130620000Y-63100000D01*
X130620000Y-63100000D02*
X139825000Y-63100000D01*
X120237500Y-74462500D02*
X120500000Y-74200000D01*
X118850000Y-74462500D02*
X120237500Y-74462500D01*
%TO.N,Vout_sense*%
X118850000Y-66462500D02*
X118850000Y-68387500D01*
X118850000Y-66462500D02*
X130887500Y-66462500D01*
X131440000Y-65910000D02*
X131440000Y-64820000D01*
X130887500Y-66462500D02*
X131440000Y-65910000D01*
X141360000Y-70700000D02*
X142910000Y-69150000D01*
X139450000Y-70700000D02*
X141360000Y-70700000D01*
X138965001Y-71184999D02*
X139450000Y-70700000D01*
X138965001Y-73734999D02*
X138965001Y-71184999D01*
X137650000Y-75050000D02*
X138965001Y-73734999D01*
X137650000Y-73900000D02*
X137475000Y-73725000D01*
X137650000Y-75050000D02*
X137650000Y-73900000D01*
X119762500Y-69300000D02*
X118850000Y-68387500D01*
X120625000Y-69300000D02*
X119762500Y-69300000D01*
X119712500Y-70212500D02*
X120625000Y-69300000D01*
X115722500Y-70212500D02*
X119712500Y-70212500D01*
X115500000Y-69990000D02*
X115722500Y-70212500D01*
D17*
%TO.N,+3.3V*%
X145962500Y-75350000D02*
X145587500Y-74975000D01*
X130075000Y-76637500D02*
X130100000Y-76662500D01*
X127575000Y-76637500D02*
X130075000Y-76637500D01*
D18*
X149220000Y-87680000D02*
X149220000Y-85845000D01*
X149220000Y-85845000D02*
X148125000Y-84750000D01*
D17*
X147505000Y-84130000D02*
X148125000Y-84750000D01*
X145250000Y-84130000D02*
X147505000Y-84130000D01*
X146700000Y-75350000D02*
X146700000Y-76775000D01*
X148000000Y-75350000D02*
X146700000Y-75350000D01*
X146700000Y-75350000D02*
X145962500Y-75350000D01*
X148700000Y-78775000D02*
X148700000Y-79025000D01*
X146700000Y-76775000D02*
X148700000Y-78775000D01*
X127575000Y-78025000D02*
X127650000Y-78100000D01*
X127575000Y-76637500D02*
X127575000Y-78025000D01*
D16*
X133737500Y-66800000D02*
X132075000Y-66800000D01*
X132075000Y-66800000D02*
X131300000Y-67575000D01*
X124165000Y-67575000D02*
X122590000Y-69150000D01*
X131300000Y-67575000D02*
X124165000Y-67575000D01*
D17*
X124400000Y-85008002D02*
X123383002Y-86025000D01*
X124400000Y-74850000D02*
X124400000Y-85008002D01*
X123383002Y-86025000D02*
X119375000Y-86025000D01*
X117600000Y-87800000D02*
X117600000Y-88850000D01*
X119375000Y-86025000D02*
X117600000Y-87800000D01*
D16*
%TO.N,CV_CC*%
X116135000Y-83325000D02*
X115500000Y-82690000D01*
X119587500Y-83325000D02*
X116135000Y-83325000D01*
%TO.N,Enable*%
X136400000Y-84075000D02*
X138075000Y-85750000D01*
X138075000Y-85750000D02*
X141225000Y-85750000D01*
X141600000Y-86125000D02*
X141600000Y-87680000D01*
X141225000Y-85750000D02*
X141600000Y-86125000D01*
%TO.N,Iout_PWM*%
X121075000Y-90250000D02*
X117800000Y-90250000D01*
X117800000Y-90250000D02*
X113925000Y-86375000D01*
X113925000Y-86375000D02*
X113925000Y-76600000D01*
X115455000Y-75070000D02*
X115500000Y-75070000D01*
X113925000Y-76600000D02*
X115455000Y-75070000D01*
%TO.N,Net-(J1-Pad1)*%
X118637500Y-72637500D02*
X117575000Y-71575000D01*
X118850000Y-72637500D02*
X118637500Y-72637500D01*
%TO.N,ANALOGUE_3*%
X145410000Y-72050000D02*
X143725000Y-73735000D01*
X143725000Y-74937500D02*
X143762500Y-74975000D01*
X143725000Y-73735000D02*
X143725000Y-74937500D01*
X145410000Y-72050000D02*
X149275000Y-72050000D01*
X149970001Y-71354999D02*
X165854999Y-71354999D01*
X149275000Y-72050000D02*
X149970001Y-71354999D01*
X165854999Y-71354999D02*
X168025000Y-73525000D01*
X168750000Y-73525000D02*
X169350000Y-74125000D01*
X168025000Y-73525000D02*
X168750000Y-73525000D01*
X145450000Y-69150000D02*
X145450000Y-67450000D01*
X144600000Y-66600000D02*
X136850000Y-66600000D01*
X145450000Y-67450000D02*
X144600000Y-66600000D01*
%TO.N,SDA*%
X127575000Y-72105000D02*
X127630000Y-72050000D01*
X127575000Y-74812500D02*
X127575000Y-72105000D01*
X127575000Y-74812500D02*
X126712500Y-74812500D01*
X126712500Y-74812500D02*
X126275000Y-75250000D01*
X126275000Y-87595000D02*
X126360000Y-87680000D01*
X126275000Y-75250000D02*
X126275000Y-87595000D01*
X130210000Y-69470000D02*
X130210000Y-69150000D01*
X127630000Y-72050000D02*
X130210000Y-69470000D01*
X170325000Y-87490000D02*
X168990000Y-88825000D01*
X168990000Y-88825000D02*
X168990000Y-89660000D01*
X168990000Y-89660000D02*
X166825000Y-91825000D01*
X166825000Y-91825000D02*
X166825000Y-93500000D01*
X166825000Y-93500000D02*
X166075000Y-94250000D01*
X166075000Y-94250000D02*
X131800000Y-94250000D01*
X130675000Y-93125000D02*
X130675000Y-93075000D01*
X131800000Y-94250000D02*
X130675000Y-93125000D01*
X127200000Y-93400000D02*
X123875000Y-93400000D01*
X123875000Y-93400000D02*
X123475000Y-93000000D01*
X123475000Y-90565000D02*
X126360000Y-87680000D01*
X123475000Y-93000000D02*
X123475000Y-90565000D01*
%TO.N,SCL*%
X130100000Y-72120000D02*
X130170000Y-72050000D01*
X130100000Y-74837500D02*
X130100000Y-72120000D01*
X130100000Y-74837500D02*
X131550000Y-76287500D01*
X131550000Y-76287500D02*
X131550000Y-85125000D01*
X128995000Y-87680000D02*
X128900000Y-87680000D01*
X131550000Y-85125000D02*
X128995000Y-87680000D01*
X170325000Y-90030000D02*
X168200000Y-92155000D01*
X168200000Y-92155000D02*
X168200000Y-93700000D01*
X168200000Y-93700000D02*
X166975000Y-94925000D01*
X166975000Y-94925000D02*
X131375000Y-94925000D01*
X128900000Y-92450000D02*
X128900000Y-87680000D01*
X131375000Y-94925000D02*
X128900000Y-92450000D01*
D17*
%TO.N,+5V*%
X152800000Y-73425000D02*
X152075000Y-74150000D01*
X152800000Y-72200000D02*
X152800000Y-73425000D01*
D16*
%TO.N,Net-(JP1-Pad1)*%
X141912500Y-77425000D02*
X141837500Y-77500000D01*
X144175000Y-77425000D02*
X141912500Y-77425000D01*
%TO.N,Net-(J3-Pad2)*%
X145250000Y-81590000D02*
X148290000Y-81590000D01*
X148290000Y-81590000D02*
X149940000Y-81590000D01*
X152800000Y-84450000D02*
X152825000Y-84450000D01*
X149940000Y-81590000D02*
X152800000Y-84450000D01*
X152825000Y-84450000D02*
X156175000Y-87800000D01*
X159400000Y-87800000D02*
X159500000Y-87700000D01*
X156175000Y-87800000D02*
X159400000Y-87800000D01*
X149640000Y-81590000D02*
X145475000Y-77425000D01*
X149940000Y-81590000D02*
X149640000Y-81590000D01*
%TO.N,RS485_RX*%
X137905000Y-84130000D02*
X137800000Y-84025000D01*
X140300000Y-84130000D02*
X137905000Y-84130000D01*
%TO.N,RX485_ENA*%
X140300000Y-82860000D02*
X136415000Y-82860000D01*
X136415000Y-82860000D02*
X134675000Y-84600000D01*
X134675000Y-84600000D02*
X133450000Y-84600000D01*
X131440000Y-86610000D02*
X131440000Y-87680000D01*
X133450000Y-84600000D02*
X131440000Y-86610000D01*
X140300000Y-81590000D02*
X137765000Y-81590000D01*
X136495000Y-82860000D02*
X136415000Y-82860000D01*
X137765000Y-81590000D02*
X136495000Y-82860000D01*
%TO.N,RS485_TX*%
X140300000Y-79225000D02*
X140125000Y-79050000D01*
X140300000Y-80320000D02*
X140300000Y-79225000D01*
%TO.N,GPIO_27*%
X123000000Y-84912500D02*
X121412500Y-83325000D01*
X123000000Y-85150000D02*
X123000000Y-84912500D01*
%TO.N,Net-(J3-Pad3)*%
X140012500Y-77500000D02*
X140012500Y-77687500D01*
X140012500Y-77687500D02*
X143000000Y-80675000D01*
X143000000Y-80675000D02*
X143000000Y-82450000D01*
X143410000Y-82860000D02*
X145250000Y-82860000D01*
X143000000Y-82450000D02*
X143410000Y-82860000D01*
X145250000Y-82860000D02*
X149835000Y-82860000D01*
X149835000Y-82860000D02*
X155525000Y-88550000D01*
X155525000Y-88550000D02*
X160175000Y-88550000D01*
X162325000Y-90700000D02*
X162325000Y-92225000D01*
X160175000Y-88550000D02*
X162325000Y-90700000D01*
%TO.N,/GPIO_33*%
X135562500Y-65777500D02*
X136520000Y-64820000D01*
X135562500Y-66800000D02*
X135562500Y-65777500D01*
%TO.N,/GPIO_32*%
X132525000Y-84888590D02*
X132525000Y-78950000D01*
X130264999Y-87148591D02*
X132525000Y-84888590D01*
X129975001Y-89549999D02*
X130264999Y-89260001D01*
X130264999Y-89260001D02*
X130264999Y-87148591D01*
X129975001Y-90700001D02*
X129975001Y-89549999D01*
X130375000Y-91100000D02*
X129975001Y-90700001D01*
D18*
%TO.N,EXT_5V*%
X157275000Y-92225000D02*
X150450000Y-85400000D01*
X158325000Y-92225000D02*
X157275000Y-92225000D01*
%TD*%
D19*
%TO.N,GND*%
X125257000Y-69023000D02*
X125277000Y-69023000D01*
X125277000Y-69277000D01*
X125257000Y-69277000D01*
X125257000Y-70470155D01*
X125486890Y-70591476D01*
X125634099Y-70546825D01*
X125896920Y-70421641D01*
X126130269Y-70247588D01*
X126325178Y-70031355D01*
X126394805Y-69914466D01*
X126516525Y-70096632D01*
X126723368Y-70303475D01*
X126966589Y-70465990D01*
X127236842Y-70577932D01*
X127327784Y-70596022D01*
X127196842Y-70622068D01*
X126926589Y-70734010D01*
X126683368Y-70896525D01*
X126476525Y-71103368D01*
X126354805Y-71285534D01*
X126285178Y-71168645D01*
X126090269Y-70952412D01*
X125856920Y-70778359D01*
X125594099Y-70653175D01*
X125446890Y-70608524D01*
X125217000Y-70729845D01*
X125217000Y-71923000D01*
X125237000Y-71923000D01*
X125237000Y-72177000D01*
X125217000Y-72177000D01*
X125217000Y-73370155D01*
X125446890Y-73491476D01*
X125594099Y-73446825D01*
X125856920Y-73321641D01*
X126090269Y-73147588D01*
X126285178Y-72931355D01*
X126354805Y-72814466D01*
X126476525Y-72996632D01*
X126683368Y-73203475D01*
X126815001Y-73291429D01*
X126815000Y-73720472D01*
X126785148Y-73729528D01*
X126631613Y-73811595D01*
X126497038Y-73922038D01*
X126386595Y-74056613D01*
X126335461Y-74152277D01*
X126288224Y-74177526D01*
X126172499Y-74272499D01*
X126148700Y-74301498D01*
X125764002Y-74686197D01*
X125734999Y-74709999D01*
X125698276Y-74754747D01*
X125640026Y-74825724D01*
X125601661Y-74897499D01*
X125569454Y-74957754D01*
X125525997Y-75101015D01*
X125515000Y-75212668D01*
X125515000Y-75212678D01*
X125511324Y-75250000D01*
X125515000Y-75287322D01*
X125515001Y-86458616D01*
X125413368Y-86526525D01*
X125206525Y-86733368D01*
X125090689Y-86906729D01*
X124848397Y-86831208D01*
X123999605Y-87680000D01*
X124013748Y-87694143D01*
X123834143Y-87873748D01*
X123820000Y-87859605D01*
X122971208Y-88708397D01*
X123048843Y-88957472D01*
X123312883Y-89083371D01*
X123596411Y-89155339D01*
X123799255Y-89165944D01*
X122963998Y-90001201D01*
X122935000Y-90024999D01*
X122911202Y-90053997D01*
X122911201Y-90053998D01*
X122840026Y-90140724D01*
X122769454Y-90272754D01*
X122741307Y-90365546D01*
X122725998Y-90416014D01*
X122721355Y-90463158D01*
X122711324Y-90565000D01*
X122715001Y-90602332D01*
X122715000Y-92962677D01*
X122711324Y-93000000D01*
X122715000Y-93037322D01*
X122715000Y-93037332D01*
X122725997Y-93148985D01*
X122756947Y-93251014D01*
X122769454Y-93292246D01*
X122840026Y-93424276D01*
X122879871Y-93472826D01*
X122934999Y-93540001D01*
X122964002Y-93563803D01*
X123311200Y-93911002D01*
X123334999Y-93940001D01*
X123450724Y-94034974D01*
X123582753Y-94105546D01*
X123726014Y-94149003D01*
X123837667Y-94160000D01*
X123837676Y-94160000D01*
X123874999Y-94163676D01*
X123912322Y-94160000D01*
X126496289Y-94160000D01*
X126540226Y-94203937D01*
X126709744Y-94317205D01*
X126898102Y-94395226D01*
X127098061Y-94435000D01*
X127301939Y-94435000D01*
X127501898Y-94395226D01*
X127690256Y-94317205D01*
X127859774Y-94203937D01*
X128003937Y-94059774D01*
X128117205Y-93890256D01*
X128195226Y-93701898D01*
X128235000Y-93501939D01*
X128235000Y-93298061D01*
X128195226Y-93098102D01*
X128117205Y-92909744D01*
X128003937Y-92740226D01*
X127859774Y-92596063D01*
X127690256Y-92482795D01*
X127501898Y-92404774D01*
X127301939Y-92365000D01*
X127098061Y-92365000D01*
X126898102Y-92404774D01*
X126709744Y-92482795D01*
X126540226Y-92596063D01*
X126496289Y-92640000D01*
X124235000Y-92640000D01*
X124235000Y-90879801D01*
X125993592Y-89121210D01*
X126213740Y-89165000D01*
X126506260Y-89165000D01*
X126793158Y-89107932D01*
X127063411Y-88995990D01*
X127306632Y-88833475D01*
X127513475Y-88626632D01*
X127630000Y-88452240D01*
X127746525Y-88626632D01*
X127953368Y-88833475D01*
X128140001Y-88958179D01*
X128140000Y-92412677D01*
X128136324Y-92450000D01*
X128140000Y-92487322D01*
X128140000Y-92487332D01*
X128150997Y-92598985D01*
X128179957Y-92694454D01*
X128194454Y-92742246D01*
X128265026Y-92874276D01*
X128289422Y-92904002D01*
X128359999Y-92990001D01*
X128389003Y-93013804D01*
X130811201Y-95436003D01*
X130834999Y-95465001D01*
X130863997Y-95488799D01*
X130950724Y-95559974D01*
X131082753Y-95630546D01*
X131226014Y-95674003D01*
X131375000Y-95688677D01*
X131412333Y-95685000D01*
X166937678Y-95685000D01*
X166975000Y-95688676D01*
X167012322Y-95685000D01*
X167012333Y-95685000D01*
X167123986Y-95674003D01*
X167267247Y-95630546D01*
X167399276Y-95559974D01*
X167515001Y-95465001D01*
X167538804Y-95435997D01*
X168711003Y-94263799D01*
X168740001Y-94240001D01*
X168834974Y-94124276D01*
X168905546Y-93992247D01*
X168949003Y-93848986D01*
X168960000Y-93737333D01*
X168963677Y-93700000D01*
X168960000Y-93662667D01*
X168960000Y-93140915D01*
X169053359Y-93336920D01*
X169227412Y-93570269D01*
X169443645Y-93765178D01*
X169693748Y-93914157D01*
X169968109Y-94011481D01*
X170198000Y-93890814D01*
X170198000Y-92697000D01*
X170178000Y-92697000D01*
X170178000Y-92443000D01*
X170198000Y-92443000D01*
X170198000Y-92423000D01*
X170452000Y-92423000D01*
X170452000Y-92443000D01*
X170472000Y-92443000D01*
X170472000Y-92697000D01*
X170452000Y-92697000D01*
X170452000Y-93890814D01*
X170681891Y-94011481D01*
X170956252Y-93914157D01*
X171206355Y-93765178D01*
X171422588Y-93570269D01*
X171596641Y-93336920D01*
X171698000Y-93124119D01*
X171698000Y-96448000D01*
X113302000Y-96448000D01*
X113302000Y-86813866D01*
X113328370Y-86845998D01*
X113384999Y-86915001D01*
X113414003Y-86938804D01*
X117236201Y-90761003D01*
X117259999Y-90790001D01*
X117288997Y-90813799D01*
X117375724Y-90884974D01*
X117507753Y-90955546D01*
X117651014Y-90999003D01*
X117800000Y-91013677D01*
X117837333Y-91010000D01*
X120371289Y-91010000D01*
X120415226Y-91053937D01*
X120584744Y-91167205D01*
X120773102Y-91245226D01*
X120973061Y-91285000D01*
X121176939Y-91285000D01*
X121376898Y-91245226D01*
X121565256Y-91167205D01*
X121734774Y-91053937D01*
X121878937Y-90909774D01*
X121992205Y-90740256D01*
X122070226Y-90551898D01*
X122110000Y-90351939D01*
X122110000Y-90148061D01*
X122070226Y-89948102D01*
X121992205Y-89759744D01*
X121878937Y-89590226D01*
X121734774Y-89446063D01*
X121565256Y-89332795D01*
X121376898Y-89254774D01*
X121176939Y-89215000D01*
X120973061Y-89215000D01*
X120773102Y-89254774D01*
X120584744Y-89332795D01*
X120415226Y-89446063D01*
X120371289Y-89490000D01*
X118417150Y-89490000D01*
X118517205Y-89340256D01*
X118595226Y-89151898D01*
X118635000Y-88951939D01*
X118635000Y-88748061D01*
X118595226Y-88548102D01*
X118587728Y-88530000D01*
X119791928Y-88530000D01*
X119804188Y-88654482D01*
X119840498Y-88774180D01*
X119899463Y-88884494D01*
X119978815Y-88981185D01*
X120075506Y-89060537D01*
X120185820Y-89119502D01*
X120305518Y-89155812D01*
X120430000Y-89168072D01*
X120994250Y-89165000D01*
X121153000Y-89006250D01*
X121153000Y-87807000D01*
X119953750Y-87807000D01*
X119795000Y-87965750D01*
X119791928Y-88530000D01*
X118587728Y-88530000D01*
X118517205Y-88359744D01*
X118485000Y-88311546D01*
X118485000Y-88166578D01*
X119741579Y-86910000D01*
X119792364Y-86910000D01*
X119795000Y-87394250D01*
X119953750Y-87553000D01*
X121153000Y-87553000D01*
X121153000Y-87533000D01*
X121407000Y-87533000D01*
X121407000Y-87553000D01*
X121427000Y-87553000D01*
X121427000Y-87807000D01*
X121407000Y-87807000D01*
X121407000Y-89006250D01*
X121565750Y-89165000D01*
X122130000Y-89168072D01*
X122254482Y-89155812D01*
X122374180Y-89119502D01*
X122484494Y-89060537D01*
X122581185Y-88981185D01*
X122660537Y-88884494D01*
X122719502Y-88774180D01*
X122755812Y-88654482D01*
X122768072Y-88530000D01*
X122768025Y-88521443D01*
X122791603Y-88528792D01*
X123640395Y-87680000D01*
X123626253Y-87665858D01*
X123805858Y-87486253D01*
X123820000Y-87500395D01*
X124668792Y-86651603D01*
X124591157Y-86402528D01*
X124364924Y-86294656D01*
X124995049Y-85664532D01*
X125028817Y-85636819D01*
X125063847Y-85594136D01*
X125139410Y-85502062D01*
X125139476Y-85501939D01*
X125221589Y-85348315D01*
X125272195Y-85181492D01*
X125285000Y-85051479D01*
X125285000Y-85051469D01*
X125289281Y-85008003D01*
X125285000Y-84964537D01*
X125285000Y-75388454D01*
X125317205Y-75340256D01*
X125395226Y-75151898D01*
X125435000Y-74951939D01*
X125435000Y-74748061D01*
X125395226Y-74548102D01*
X125317205Y-74359744D01*
X125203937Y-74190226D01*
X125059774Y-74046063D01*
X124890256Y-73932795D01*
X124701898Y-73854774D01*
X124501939Y-73815000D01*
X124298061Y-73815000D01*
X124098102Y-73854774D01*
X123909744Y-73932795D01*
X123740226Y-74046063D01*
X123596063Y-74190226D01*
X123482795Y-74359744D01*
X123404774Y-74548102D01*
X123365000Y-74748061D01*
X123365000Y-74951939D01*
X123404774Y-75151898D01*
X123482795Y-75340256D01*
X123515000Y-75388454D01*
X123515001Y-84249329D01*
X123490256Y-84232795D01*
X123327808Y-84165506D01*
X122563072Y-83400771D01*
X122563072Y-82874998D01*
X122546008Y-82701744D01*
X122495472Y-82535148D01*
X122413405Y-82381613D01*
X122302962Y-82247038D01*
X122168387Y-82136595D01*
X122014852Y-82054528D01*
X121848256Y-82003992D01*
X121675002Y-81986928D01*
X121149998Y-81986928D01*
X120976744Y-82003992D01*
X120810148Y-82054528D01*
X120656613Y-82136595D01*
X120522038Y-82247038D01*
X120500000Y-82273891D01*
X120477962Y-82247038D01*
X120343387Y-82136595D01*
X120189852Y-82054528D01*
X120023256Y-82003992D01*
X119850002Y-81986928D01*
X119324998Y-81986928D01*
X119151744Y-82003992D01*
X118985148Y-82054528D01*
X118831613Y-82136595D01*
X118697038Y-82247038D01*
X118586595Y-82381613D01*
X118504528Y-82535148D01*
X118495473Y-82565000D01*
X116985000Y-82565000D01*
X116985000Y-82543740D01*
X116927932Y-82256842D01*
X116815990Y-81986589D01*
X116653475Y-81743368D01*
X116446632Y-81536525D01*
X116272240Y-81420000D01*
X116446632Y-81303475D01*
X116653475Y-81096632D01*
X116815990Y-80853411D01*
X116927932Y-80583158D01*
X116985000Y-80296260D01*
X116985000Y-80003740D01*
X116927932Y-79716842D01*
X116815990Y-79446589D01*
X116653475Y-79203368D01*
X116446632Y-78996525D01*
X116272240Y-78880000D01*
X116446632Y-78763475D01*
X116653475Y-78556632D01*
X116815990Y-78313411D01*
X116927932Y-78043158D01*
X116985000Y-77756260D01*
X116985000Y-77463740D01*
X116927932Y-77176842D01*
X116815990Y-76906589D01*
X116653475Y-76663368D01*
X116446632Y-76456525D01*
X116272240Y-76340000D01*
X116446632Y-76223475D01*
X116653475Y-76016632D01*
X116815990Y-75773411D01*
X116927932Y-75503158D01*
X116985000Y-75216260D01*
X116985000Y-74923740D01*
X116927932Y-74636842D01*
X116815990Y-74366589D01*
X116653475Y-74123368D01*
X116446632Y-73916525D01*
X116272240Y-73800000D01*
X116446632Y-73683475D01*
X116653475Y-73476632D01*
X116815990Y-73233411D01*
X116927932Y-72963158D01*
X116985000Y-72676260D01*
X116985000Y-72425558D01*
X117084744Y-72492205D01*
X117273102Y-72570226D01*
X117473061Y-72610000D01*
X117511928Y-72610000D01*
X117511928Y-72900002D01*
X117528992Y-73073256D01*
X117579528Y-73239852D01*
X117661595Y-73393387D01*
X117772038Y-73527962D01*
X117798891Y-73550000D01*
X117772038Y-73572038D01*
X117661595Y-73706613D01*
X117579528Y-73860148D01*
X117528992Y-74026744D01*
X117511928Y-74199998D01*
X117511928Y-74725002D01*
X117528992Y-74898256D01*
X117579528Y-75064852D01*
X117661595Y-75218387D01*
X117772038Y-75352962D01*
X117906613Y-75463405D01*
X118060148Y-75545472D01*
X118226744Y-75596008D01*
X118399998Y-75613072D01*
X119300002Y-75613072D01*
X119473256Y-75596008D01*
X119639852Y-75545472D01*
X119793387Y-75463405D01*
X119927962Y-75352962D01*
X120035030Y-75222500D01*
X120200178Y-75222500D01*
X120237500Y-75226176D01*
X120274822Y-75222500D01*
X120274833Y-75222500D01*
X120315220Y-75218522D01*
X120398061Y-75235000D01*
X120601939Y-75235000D01*
X120801898Y-75195226D01*
X120990256Y-75117205D01*
X121159774Y-75003937D01*
X121303937Y-74859774D01*
X121417205Y-74690256D01*
X121495226Y-74501898D01*
X121535000Y-74301939D01*
X121535000Y-74098061D01*
X121495226Y-73898102D01*
X121417205Y-73709744D01*
X121303937Y-73540226D01*
X121159774Y-73396063D01*
X120990256Y-73282795D01*
X120801898Y-73204774D01*
X120601939Y-73165000D01*
X120398061Y-73165000D01*
X120198102Y-73204774D01*
X120121486Y-73236510D01*
X120171008Y-73073256D01*
X120188072Y-72900002D01*
X120188072Y-72374998D01*
X120171008Y-72201744D01*
X120120472Y-72035148D01*
X120038405Y-71881613D01*
X119927962Y-71747038D01*
X119793387Y-71636595D01*
X119639852Y-71554528D01*
X119473256Y-71503992D01*
X119300002Y-71486928D01*
X118610000Y-71486928D01*
X118610000Y-71473061D01*
X118570226Y-71273102D01*
X118492205Y-71084744D01*
X118417206Y-70972500D01*
X119675178Y-70972500D01*
X119712500Y-70976176D01*
X119749822Y-70972500D01*
X119749833Y-70972500D01*
X119861486Y-70961503D01*
X120004747Y-70918046D01*
X120136776Y-70847474D01*
X120252501Y-70752501D01*
X120276303Y-70723498D01*
X120664801Y-70335000D01*
X120726939Y-70335000D01*
X120926898Y-70295226D01*
X121115256Y-70217205D01*
X121137755Y-70202172D01*
X121150498Y-70244180D01*
X121209463Y-70354494D01*
X121288815Y-70451185D01*
X121385506Y-70530537D01*
X121495820Y-70589502D01*
X121510427Y-70593933D01*
X121455820Y-70610498D01*
X121345506Y-70669463D01*
X121248815Y-70748815D01*
X121169463Y-70845506D01*
X121110498Y-70955820D01*
X121074188Y-71075518D01*
X121061928Y-71200000D01*
X121061928Y-72900000D01*
X121074188Y-73024482D01*
X121110498Y-73144180D01*
X121169463Y-73254494D01*
X121248815Y-73351185D01*
X121345506Y-73430537D01*
X121455820Y-73489502D01*
X121575518Y-73525812D01*
X121700000Y-73538072D01*
X123400000Y-73538072D01*
X123524482Y-73525812D01*
X123644180Y-73489502D01*
X123754494Y-73430537D01*
X123851185Y-73351185D01*
X123930537Y-73254494D01*
X123989502Y-73144180D01*
X124013966Y-73063534D01*
X124089731Y-73147588D01*
X124323080Y-73321641D01*
X124585901Y-73446825D01*
X124733110Y-73491476D01*
X124963000Y-73370155D01*
X124963000Y-72177000D01*
X124943000Y-72177000D01*
X124943000Y-71923000D01*
X124963000Y-71923000D01*
X124963000Y-70729845D01*
X124733110Y-70608524D01*
X124585901Y-70653175D01*
X124323080Y-70778359D01*
X124089731Y-70952412D01*
X124013966Y-71036466D01*
X123989502Y-70955820D01*
X123930537Y-70845506D01*
X123851185Y-70748815D01*
X123754494Y-70669463D01*
X123644180Y-70610498D01*
X123629573Y-70606067D01*
X123684180Y-70589502D01*
X123794494Y-70530537D01*
X123891185Y-70451185D01*
X123970537Y-70354494D01*
X124029502Y-70244180D01*
X124053966Y-70163534D01*
X124129731Y-70247588D01*
X124363080Y-70421641D01*
X124625901Y-70546825D01*
X124773110Y-70591476D01*
X125003000Y-70470155D01*
X125003000Y-69277000D01*
X124983000Y-69277000D01*
X124983000Y-69023000D01*
X125003000Y-69023000D01*
X125003000Y-69003000D01*
X125257000Y-69003000D01*
X125257000Y-69023000D01*
%TA.AperFunction,Conductor*%
D20*
G36*
X125257000Y-69023000D02*
G01*
X125277000Y-69023000D01*
X125277000Y-69277000D01*
X125257000Y-69277000D01*
X125257000Y-70470155D01*
X125486890Y-70591476D01*
X125634099Y-70546825D01*
X125896920Y-70421641D01*
X126130269Y-70247588D01*
X126325178Y-70031355D01*
X126394805Y-69914466D01*
X126516525Y-70096632D01*
X126723368Y-70303475D01*
X126966589Y-70465990D01*
X127236842Y-70577932D01*
X127327784Y-70596022D01*
X127196842Y-70622068D01*
X126926589Y-70734010D01*
X126683368Y-70896525D01*
X126476525Y-71103368D01*
X126354805Y-71285534D01*
X126285178Y-71168645D01*
X126090269Y-70952412D01*
X125856920Y-70778359D01*
X125594099Y-70653175D01*
X125446890Y-70608524D01*
X125217000Y-70729845D01*
X125217000Y-71923000D01*
X125237000Y-71923000D01*
X125237000Y-72177000D01*
X125217000Y-72177000D01*
X125217000Y-73370155D01*
X125446890Y-73491476D01*
X125594099Y-73446825D01*
X125856920Y-73321641D01*
X126090269Y-73147588D01*
X126285178Y-72931355D01*
X126354805Y-72814466D01*
X126476525Y-72996632D01*
X126683368Y-73203475D01*
X126815001Y-73291429D01*
X126815000Y-73720472D01*
X126785148Y-73729528D01*
X126631613Y-73811595D01*
X126497038Y-73922038D01*
X126386595Y-74056613D01*
X126335461Y-74152277D01*
X126288224Y-74177526D01*
X126172499Y-74272499D01*
X126148700Y-74301498D01*
X125764002Y-74686197D01*
X125734999Y-74709999D01*
X125698276Y-74754747D01*
X125640026Y-74825724D01*
X125601661Y-74897499D01*
X125569454Y-74957754D01*
X125525997Y-75101015D01*
X125515000Y-75212668D01*
X125515000Y-75212678D01*
X125511324Y-75250000D01*
X125515000Y-75287322D01*
X125515001Y-86458616D01*
X125413368Y-86526525D01*
X125206525Y-86733368D01*
X125090689Y-86906729D01*
X124848397Y-86831208D01*
X123999605Y-87680000D01*
X124013748Y-87694143D01*
X123834143Y-87873748D01*
X123820000Y-87859605D01*
X122971208Y-88708397D01*
X123048843Y-88957472D01*
X123312883Y-89083371D01*
X123596411Y-89155339D01*
X123799255Y-89165944D01*
X122963998Y-90001201D01*
X122935000Y-90024999D01*
X122911202Y-90053997D01*
X122911201Y-90053998D01*
X122840026Y-90140724D01*
X122769454Y-90272754D01*
X122741307Y-90365546D01*
X122725998Y-90416014D01*
X122721355Y-90463158D01*
X122711324Y-90565000D01*
X122715001Y-90602332D01*
X122715000Y-92962677D01*
X122711324Y-93000000D01*
X122715000Y-93037322D01*
X122715000Y-93037332D01*
X122725997Y-93148985D01*
X122756947Y-93251014D01*
X122769454Y-93292246D01*
X122840026Y-93424276D01*
X122879871Y-93472826D01*
X122934999Y-93540001D01*
X122964002Y-93563803D01*
X123311200Y-93911002D01*
X123334999Y-93940001D01*
X123450724Y-94034974D01*
X123582753Y-94105546D01*
X123726014Y-94149003D01*
X123837667Y-94160000D01*
X123837676Y-94160000D01*
X123874999Y-94163676D01*
X123912322Y-94160000D01*
X126496289Y-94160000D01*
X126540226Y-94203937D01*
X126709744Y-94317205D01*
X126898102Y-94395226D01*
X127098061Y-94435000D01*
X127301939Y-94435000D01*
X127501898Y-94395226D01*
X127690256Y-94317205D01*
X127859774Y-94203937D01*
X128003937Y-94059774D01*
X128117205Y-93890256D01*
X128195226Y-93701898D01*
X128235000Y-93501939D01*
X128235000Y-93298061D01*
X128195226Y-93098102D01*
X128117205Y-92909744D01*
X128003937Y-92740226D01*
X127859774Y-92596063D01*
X127690256Y-92482795D01*
X127501898Y-92404774D01*
X127301939Y-92365000D01*
X127098061Y-92365000D01*
X126898102Y-92404774D01*
X126709744Y-92482795D01*
X126540226Y-92596063D01*
X126496289Y-92640000D01*
X124235000Y-92640000D01*
X124235000Y-90879801D01*
X125993592Y-89121210D01*
X126213740Y-89165000D01*
X126506260Y-89165000D01*
X126793158Y-89107932D01*
X127063411Y-88995990D01*
X127306632Y-88833475D01*
X127513475Y-88626632D01*
X127630000Y-88452240D01*
X127746525Y-88626632D01*
X127953368Y-88833475D01*
X128140001Y-88958179D01*
X128140000Y-92412677D01*
X128136324Y-92450000D01*
X128140000Y-92487322D01*
X128140000Y-92487332D01*
X128150997Y-92598985D01*
X128179957Y-92694454D01*
X128194454Y-92742246D01*
X128265026Y-92874276D01*
X128289422Y-92904002D01*
X128359999Y-92990001D01*
X128389003Y-93013804D01*
X130811201Y-95436003D01*
X130834999Y-95465001D01*
X130863997Y-95488799D01*
X130950724Y-95559974D01*
X131082753Y-95630546D01*
X131226014Y-95674003D01*
X131375000Y-95688677D01*
X131412333Y-95685000D01*
X166937678Y-95685000D01*
X166975000Y-95688676D01*
X167012322Y-95685000D01*
X167012333Y-95685000D01*
X167123986Y-95674003D01*
X167267247Y-95630546D01*
X167399276Y-95559974D01*
X167515001Y-95465001D01*
X167538804Y-95435997D01*
X168711003Y-94263799D01*
X168740001Y-94240001D01*
X168834974Y-94124276D01*
X168905546Y-93992247D01*
X168949003Y-93848986D01*
X168960000Y-93737333D01*
X168963677Y-93700000D01*
X168960000Y-93662667D01*
X168960000Y-93140915D01*
X169053359Y-93336920D01*
X169227412Y-93570269D01*
X169443645Y-93765178D01*
X169693748Y-93914157D01*
X169968109Y-94011481D01*
X170198000Y-93890814D01*
X170198000Y-92697000D01*
X170178000Y-92697000D01*
X170178000Y-92443000D01*
X170198000Y-92443000D01*
X170198000Y-92423000D01*
X170452000Y-92423000D01*
X170452000Y-92443000D01*
X170472000Y-92443000D01*
X170472000Y-92697000D01*
X170452000Y-92697000D01*
X170452000Y-93890814D01*
X170681891Y-94011481D01*
X170956252Y-93914157D01*
X171206355Y-93765178D01*
X171422588Y-93570269D01*
X171596641Y-93336920D01*
X171698000Y-93124119D01*
X171698000Y-96448000D01*
X113302000Y-96448000D01*
X113302000Y-86813866D01*
X113328370Y-86845998D01*
X113384999Y-86915001D01*
X113414003Y-86938804D01*
X117236201Y-90761003D01*
X117259999Y-90790001D01*
X117288997Y-90813799D01*
X117375724Y-90884974D01*
X117507753Y-90955546D01*
X117651014Y-90999003D01*
X117800000Y-91013677D01*
X117837333Y-91010000D01*
X120371289Y-91010000D01*
X120415226Y-91053937D01*
X120584744Y-91167205D01*
X120773102Y-91245226D01*
X120973061Y-91285000D01*
X121176939Y-91285000D01*
X121376898Y-91245226D01*
X121565256Y-91167205D01*
X121734774Y-91053937D01*
X121878937Y-90909774D01*
X121992205Y-90740256D01*
X122070226Y-90551898D01*
X122110000Y-90351939D01*
X122110000Y-90148061D01*
X122070226Y-89948102D01*
X121992205Y-89759744D01*
X121878937Y-89590226D01*
X121734774Y-89446063D01*
X121565256Y-89332795D01*
X121376898Y-89254774D01*
X121176939Y-89215000D01*
X120973061Y-89215000D01*
X120773102Y-89254774D01*
X120584744Y-89332795D01*
X120415226Y-89446063D01*
X120371289Y-89490000D01*
X118417150Y-89490000D01*
X118517205Y-89340256D01*
X118595226Y-89151898D01*
X118635000Y-88951939D01*
X118635000Y-88748061D01*
X118595226Y-88548102D01*
X118587728Y-88530000D01*
X119791928Y-88530000D01*
X119804188Y-88654482D01*
X119840498Y-88774180D01*
X119899463Y-88884494D01*
X119978815Y-88981185D01*
X120075506Y-89060537D01*
X120185820Y-89119502D01*
X120305518Y-89155812D01*
X120430000Y-89168072D01*
X120994250Y-89165000D01*
X121153000Y-89006250D01*
X121153000Y-87807000D01*
X119953750Y-87807000D01*
X119795000Y-87965750D01*
X119791928Y-88530000D01*
X118587728Y-88530000D01*
X118517205Y-88359744D01*
X118485000Y-88311546D01*
X118485000Y-88166578D01*
X119741579Y-86910000D01*
X119792364Y-86910000D01*
X119795000Y-87394250D01*
X119953750Y-87553000D01*
X121153000Y-87553000D01*
X121153000Y-87533000D01*
X121407000Y-87533000D01*
X121407000Y-87553000D01*
X121427000Y-87553000D01*
X121427000Y-87807000D01*
X121407000Y-87807000D01*
X121407000Y-89006250D01*
X121565750Y-89165000D01*
X122130000Y-89168072D01*
X122254482Y-89155812D01*
X122374180Y-89119502D01*
X122484494Y-89060537D01*
X122581185Y-88981185D01*
X122660537Y-88884494D01*
X122719502Y-88774180D01*
X122755812Y-88654482D01*
X122768072Y-88530000D01*
X122768025Y-88521443D01*
X122791603Y-88528792D01*
X123640395Y-87680000D01*
X123626253Y-87665858D01*
X123805858Y-87486253D01*
X123820000Y-87500395D01*
X124668792Y-86651603D01*
X124591157Y-86402528D01*
X124364924Y-86294656D01*
X124995049Y-85664532D01*
X125028817Y-85636819D01*
X125063847Y-85594136D01*
X125139410Y-85502062D01*
X125139476Y-85501939D01*
X125221589Y-85348315D01*
X125272195Y-85181492D01*
X125285000Y-85051479D01*
X125285000Y-85051469D01*
X125289281Y-85008003D01*
X125285000Y-84964537D01*
X125285000Y-75388454D01*
X125317205Y-75340256D01*
X125395226Y-75151898D01*
X125435000Y-74951939D01*
X125435000Y-74748061D01*
X125395226Y-74548102D01*
X125317205Y-74359744D01*
X125203937Y-74190226D01*
X125059774Y-74046063D01*
X124890256Y-73932795D01*
X124701898Y-73854774D01*
X124501939Y-73815000D01*
X124298061Y-73815000D01*
X124098102Y-73854774D01*
X123909744Y-73932795D01*
X123740226Y-74046063D01*
X123596063Y-74190226D01*
X123482795Y-74359744D01*
X123404774Y-74548102D01*
X123365000Y-74748061D01*
X123365000Y-74951939D01*
X123404774Y-75151898D01*
X123482795Y-75340256D01*
X123515000Y-75388454D01*
X123515001Y-84249329D01*
X123490256Y-84232795D01*
X123327808Y-84165506D01*
X122563072Y-83400771D01*
X122563072Y-82874998D01*
X122546008Y-82701744D01*
X122495472Y-82535148D01*
X122413405Y-82381613D01*
X122302962Y-82247038D01*
X122168387Y-82136595D01*
X122014852Y-82054528D01*
X121848256Y-82003992D01*
X121675002Y-81986928D01*
X121149998Y-81986928D01*
X120976744Y-82003992D01*
X120810148Y-82054528D01*
X120656613Y-82136595D01*
X120522038Y-82247038D01*
X120500000Y-82273891D01*
X120477962Y-82247038D01*
X120343387Y-82136595D01*
X120189852Y-82054528D01*
X120023256Y-82003992D01*
X119850002Y-81986928D01*
X119324998Y-81986928D01*
X119151744Y-82003992D01*
X118985148Y-82054528D01*
X118831613Y-82136595D01*
X118697038Y-82247038D01*
X118586595Y-82381613D01*
X118504528Y-82535148D01*
X118495473Y-82565000D01*
X116985000Y-82565000D01*
X116985000Y-82543740D01*
X116927932Y-82256842D01*
X116815990Y-81986589D01*
X116653475Y-81743368D01*
X116446632Y-81536525D01*
X116272240Y-81420000D01*
X116446632Y-81303475D01*
X116653475Y-81096632D01*
X116815990Y-80853411D01*
X116927932Y-80583158D01*
X116985000Y-80296260D01*
X116985000Y-80003740D01*
X116927932Y-79716842D01*
X116815990Y-79446589D01*
X116653475Y-79203368D01*
X116446632Y-78996525D01*
X116272240Y-78880000D01*
X116446632Y-78763475D01*
X116653475Y-78556632D01*
X116815990Y-78313411D01*
X116927932Y-78043158D01*
X116985000Y-77756260D01*
X116985000Y-77463740D01*
X116927932Y-77176842D01*
X116815990Y-76906589D01*
X116653475Y-76663368D01*
X116446632Y-76456525D01*
X116272240Y-76340000D01*
X116446632Y-76223475D01*
X116653475Y-76016632D01*
X116815990Y-75773411D01*
X116927932Y-75503158D01*
X116985000Y-75216260D01*
X116985000Y-74923740D01*
X116927932Y-74636842D01*
X116815990Y-74366589D01*
X116653475Y-74123368D01*
X116446632Y-73916525D01*
X116272240Y-73800000D01*
X116446632Y-73683475D01*
X116653475Y-73476632D01*
X116815990Y-73233411D01*
X116927932Y-72963158D01*
X116985000Y-72676260D01*
X116985000Y-72425558D01*
X117084744Y-72492205D01*
X117273102Y-72570226D01*
X117473061Y-72610000D01*
X117511928Y-72610000D01*
X117511928Y-72900002D01*
X117528992Y-73073256D01*
X117579528Y-73239852D01*
X117661595Y-73393387D01*
X117772038Y-73527962D01*
X117798891Y-73550000D01*
X117772038Y-73572038D01*
X117661595Y-73706613D01*
X117579528Y-73860148D01*
X117528992Y-74026744D01*
X117511928Y-74199998D01*
X117511928Y-74725002D01*
X117528992Y-74898256D01*
X117579528Y-75064852D01*
X117661595Y-75218387D01*
X117772038Y-75352962D01*
X117906613Y-75463405D01*
X118060148Y-75545472D01*
X118226744Y-75596008D01*
X118399998Y-75613072D01*
X119300002Y-75613072D01*
X119473256Y-75596008D01*
X119639852Y-75545472D01*
X119793387Y-75463405D01*
X119927962Y-75352962D01*
X120035030Y-75222500D01*
X120200178Y-75222500D01*
X120237500Y-75226176D01*
X120274822Y-75222500D01*
X120274833Y-75222500D01*
X120315220Y-75218522D01*
X120398061Y-75235000D01*
X120601939Y-75235000D01*
X120801898Y-75195226D01*
X120990256Y-75117205D01*
X121159774Y-75003937D01*
X121303937Y-74859774D01*
X121417205Y-74690256D01*
X121495226Y-74501898D01*
X121535000Y-74301939D01*
X121535000Y-74098061D01*
X121495226Y-73898102D01*
X121417205Y-73709744D01*
X121303937Y-73540226D01*
X121159774Y-73396063D01*
X120990256Y-73282795D01*
X120801898Y-73204774D01*
X120601939Y-73165000D01*
X120398061Y-73165000D01*
X120198102Y-73204774D01*
X120121486Y-73236510D01*
X120171008Y-73073256D01*
X120188072Y-72900002D01*
X120188072Y-72374998D01*
X120171008Y-72201744D01*
X120120472Y-72035148D01*
X120038405Y-71881613D01*
X119927962Y-71747038D01*
X119793387Y-71636595D01*
X119639852Y-71554528D01*
X119473256Y-71503992D01*
X119300002Y-71486928D01*
X118610000Y-71486928D01*
X118610000Y-71473061D01*
X118570226Y-71273102D01*
X118492205Y-71084744D01*
X118417206Y-70972500D01*
X119675178Y-70972500D01*
X119712500Y-70976176D01*
X119749822Y-70972500D01*
X119749833Y-70972500D01*
X119861486Y-70961503D01*
X120004747Y-70918046D01*
X120136776Y-70847474D01*
X120252501Y-70752501D01*
X120276303Y-70723498D01*
X120664801Y-70335000D01*
X120726939Y-70335000D01*
X120926898Y-70295226D01*
X121115256Y-70217205D01*
X121137755Y-70202172D01*
X121150498Y-70244180D01*
X121209463Y-70354494D01*
X121288815Y-70451185D01*
X121385506Y-70530537D01*
X121495820Y-70589502D01*
X121510427Y-70593933D01*
X121455820Y-70610498D01*
X121345506Y-70669463D01*
X121248815Y-70748815D01*
X121169463Y-70845506D01*
X121110498Y-70955820D01*
X121074188Y-71075518D01*
X121061928Y-71200000D01*
X121061928Y-72900000D01*
X121074188Y-73024482D01*
X121110498Y-73144180D01*
X121169463Y-73254494D01*
X121248815Y-73351185D01*
X121345506Y-73430537D01*
X121455820Y-73489502D01*
X121575518Y-73525812D01*
X121700000Y-73538072D01*
X123400000Y-73538072D01*
X123524482Y-73525812D01*
X123644180Y-73489502D01*
X123754494Y-73430537D01*
X123851185Y-73351185D01*
X123930537Y-73254494D01*
X123989502Y-73144180D01*
X124013966Y-73063534D01*
X124089731Y-73147588D01*
X124323080Y-73321641D01*
X124585901Y-73446825D01*
X124733110Y-73491476D01*
X124963000Y-73370155D01*
X124963000Y-72177000D01*
X124943000Y-72177000D01*
X124943000Y-71923000D01*
X124963000Y-71923000D01*
X124963000Y-70729845D01*
X124733110Y-70608524D01*
X124585901Y-70653175D01*
X124323080Y-70778359D01*
X124089731Y-70952412D01*
X124013966Y-71036466D01*
X123989502Y-70955820D01*
X123930537Y-70845506D01*
X123851185Y-70748815D01*
X123754494Y-70669463D01*
X123644180Y-70610498D01*
X123629573Y-70606067D01*
X123684180Y-70589502D01*
X123794494Y-70530537D01*
X123891185Y-70451185D01*
X123970537Y-70354494D01*
X124029502Y-70244180D01*
X124053966Y-70163534D01*
X124129731Y-70247588D01*
X124363080Y-70421641D01*
X124625901Y-70546825D01*
X124773110Y-70591476D01*
X125003000Y-70470155D01*
X125003000Y-69277000D01*
X124983000Y-69277000D01*
X124983000Y-69023000D01*
X125003000Y-69023000D01*
X125003000Y-69003000D01*
X125257000Y-69003000D01*
X125257000Y-69023000D01*
G37*
%TD.AperFunction*%
D19*
X171698000Y-83736322D02*
X171626185Y-83648815D01*
X171529494Y-83569463D01*
X171419180Y-83510498D01*
X171299482Y-83474188D01*
X171175000Y-83461928D01*
X169475000Y-83461928D01*
X169350518Y-83474188D01*
X169230820Y-83510498D01*
X169120506Y-83569463D01*
X169023815Y-83648815D01*
X168944463Y-83745506D01*
X168885498Y-83855820D01*
X168849188Y-83975518D01*
X168836928Y-84100000D01*
X168836928Y-85800000D01*
X168849188Y-85924482D01*
X168885498Y-86044180D01*
X168944463Y-86154494D01*
X169023815Y-86251185D01*
X169120506Y-86330537D01*
X169230820Y-86389502D01*
X169303380Y-86411513D01*
X169171525Y-86543368D01*
X169009010Y-86786589D01*
X168897068Y-87056842D01*
X168840000Y-87343740D01*
X168840000Y-87636260D01*
X168883791Y-87856408D01*
X168479003Y-88261196D01*
X168449999Y-88284999D01*
X168401576Y-88344003D01*
X168355026Y-88400724D01*
X168332068Y-88443676D01*
X168284454Y-88532754D01*
X168240997Y-88676015D01*
X168230000Y-88787668D01*
X168230000Y-88787678D01*
X168226324Y-88825000D01*
X168230000Y-88862322D01*
X168230000Y-89345198D01*
X166314003Y-91261196D01*
X166284999Y-91284999D01*
X166229871Y-91352174D01*
X166190026Y-91400724D01*
X166150271Y-91475100D01*
X166119454Y-91532754D01*
X166075997Y-91676015D01*
X166065000Y-91787668D01*
X166065000Y-91787678D01*
X166061324Y-91825000D01*
X166065000Y-91862323D01*
X166065001Y-93185198D01*
X165760199Y-93490000D01*
X165067805Y-93490000D01*
X165108474Y-93463078D01*
X165281307Y-93291725D01*
X165417390Y-93089946D01*
X165511493Y-92865496D01*
X165560000Y-92627000D01*
X165560000Y-92352000D01*
X164452000Y-92352000D01*
X164452000Y-92372000D01*
X164198000Y-92372000D01*
X164198000Y-92352000D01*
X164178000Y-92352000D01*
X164178000Y-92098000D01*
X164198000Y-92098000D01*
X164198000Y-90881269D01*
X164452000Y-90881269D01*
X164452000Y-92098000D01*
X165560000Y-92098000D01*
X165560000Y-91823000D01*
X165511493Y-91584504D01*
X165417390Y-91360054D01*
X165281307Y-91158275D01*
X165108474Y-90986922D01*
X164905533Y-90852579D01*
X164680282Y-90760409D01*
X164642609Y-90756538D01*
X164452000Y-90881269D01*
X164198000Y-90881269D01*
X164007391Y-90756538D01*
X163969718Y-90760409D01*
X163744467Y-90852579D01*
X163541526Y-90986922D01*
X163368693Y-91158275D01*
X163325481Y-91222348D01*
X163202502Y-91072498D01*
X163085000Y-90976067D01*
X163085000Y-90737322D01*
X163088676Y-90699999D01*
X163085000Y-90662676D01*
X163085000Y-90662667D01*
X163074003Y-90551014D01*
X163030546Y-90407753D01*
X162959974Y-90275724D01*
X162865001Y-90159999D01*
X162836004Y-90136202D01*
X160738804Y-88039003D01*
X160715001Y-88009999D01*
X160599276Y-87915026D01*
X160520845Y-87873103D01*
X160535000Y-87801939D01*
X160535000Y-87598061D01*
X160495226Y-87398102D01*
X160417205Y-87209744D01*
X160303937Y-87040226D01*
X160159774Y-86896063D01*
X159990256Y-86782795D01*
X159801898Y-86704774D01*
X159601939Y-86665000D01*
X159398061Y-86665000D01*
X159198102Y-86704774D01*
X159009744Y-86782795D01*
X158840226Y-86896063D01*
X158696289Y-87040000D01*
X156489803Y-87040000D01*
X153388804Y-83939003D01*
X153365001Y-83909999D01*
X153249276Y-83815026D01*
X153228979Y-83804177D01*
X150503804Y-81079003D01*
X150480001Y-81049999D01*
X150364276Y-80955026D01*
X150232247Y-80884454D01*
X150088986Y-80840997D01*
X149977333Y-80830000D01*
X149977322Y-80830000D01*
X149952343Y-80827540D01*
X149103106Y-79978304D01*
X149190256Y-79942205D01*
X149359774Y-79828937D01*
X149503937Y-79684774D01*
X149617205Y-79515256D01*
X149695226Y-79326898D01*
X149735000Y-79126939D01*
X149735000Y-78923061D01*
X149695226Y-78723102D01*
X149617205Y-78534744D01*
X149503937Y-78365226D01*
X149462099Y-78323388D01*
X149439411Y-78280941D01*
X149390270Y-78221063D01*
X149356532Y-78179953D01*
X149356530Y-78179951D01*
X149328817Y-78146183D01*
X149295050Y-78118471D01*
X147664650Y-76488072D01*
X148475000Y-76488072D01*
X148648254Y-76471008D01*
X148814850Y-76420472D01*
X148968386Y-76338405D01*
X149102962Y-76227962D01*
X149213405Y-76093386D01*
X149295472Y-75939850D01*
X149346008Y-75773254D01*
X149363072Y-75600000D01*
X149363072Y-75428289D01*
X149430820Y-75464502D01*
X149550518Y-75500812D01*
X149675000Y-75513072D01*
X149889250Y-75510000D01*
X150048000Y-75351250D01*
X150048000Y-74277000D01*
X150028000Y-74277000D01*
X150028000Y-74023000D01*
X150048000Y-74023000D01*
X150048000Y-72948750D01*
X149889250Y-72790000D01*
X149675000Y-72786928D01*
X149550518Y-72799188D01*
X149430820Y-72835498D01*
X149355747Y-72875626D01*
X149350812Y-72825518D01*
X149345125Y-72806770D01*
X149423986Y-72799003D01*
X149567247Y-72755546D01*
X149699276Y-72684974D01*
X149815001Y-72590001D01*
X149838803Y-72560998D01*
X150284803Y-72114999D01*
X151765000Y-72114999D01*
X151765000Y-72301939D01*
X151804774Y-72501898D01*
X151882795Y-72690256D01*
X151915000Y-72738455D01*
X151915000Y-72786928D01*
X151825000Y-72786928D01*
X151651746Y-72803992D01*
X151485150Y-72854528D01*
X151331614Y-72936595D01*
X151197038Y-73047038D01*
X151191658Y-73053594D01*
X151126185Y-72973815D01*
X151029494Y-72894463D01*
X150919180Y-72835498D01*
X150799482Y-72799188D01*
X150675000Y-72786928D01*
X150460750Y-72790000D01*
X150302000Y-72948750D01*
X150302000Y-74023000D01*
X150322000Y-74023000D01*
X150322000Y-74277000D01*
X150302000Y-74277000D01*
X150302000Y-75351250D01*
X150460750Y-75510000D01*
X150675000Y-75513072D01*
X150799482Y-75500812D01*
X150919180Y-75464502D01*
X151029494Y-75405537D01*
X151126185Y-75326185D01*
X151191658Y-75246406D01*
X151197038Y-75252962D01*
X151331614Y-75363405D01*
X151485150Y-75445472D01*
X151651746Y-75496008D01*
X151825000Y-75513072D01*
X152325000Y-75513072D01*
X152498254Y-75496008D01*
X152664850Y-75445472D01*
X152818386Y-75363405D01*
X152952962Y-75252962D01*
X153063405Y-75118386D01*
X153145472Y-74964850D01*
X153196008Y-74798254D01*
X153213072Y-74625000D01*
X153213072Y-74263507D01*
X153395049Y-74081530D01*
X153428817Y-74053817D01*
X153458831Y-74017246D01*
X153539411Y-73919059D01*
X153558159Y-73883984D01*
X153621589Y-73765313D01*
X153672195Y-73598490D01*
X153685000Y-73468477D01*
X153685000Y-73468469D01*
X153689281Y-73425000D01*
X153685000Y-73381531D01*
X153685000Y-72738454D01*
X153717205Y-72690256D01*
X153795226Y-72501898D01*
X153835000Y-72301939D01*
X153835000Y-72114999D01*
X162068456Y-72114999D01*
X162015000Y-72383740D01*
X162015000Y-72676260D01*
X162072068Y-72963158D01*
X162184010Y-73233411D01*
X162346525Y-73476632D01*
X162553368Y-73683475D01*
X162727760Y-73800000D01*
X162553368Y-73916525D01*
X162346525Y-74123368D01*
X162184010Y-74366589D01*
X162072068Y-74636842D01*
X162015000Y-74923740D01*
X162015000Y-75216260D01*
X162072068Y-75503158D01*
X162184010Y-75773411D01*
X162346525Y-76016632D01*
X162553368Y-76223475D01*
X162727760Y-76340000D01*
X162553368Y-76456525D01*
X162346525Y-76663368D01*
X162184010Y-76906589D01*
X162072068Y-77176842D01*
X162015000Y-77463740D01*
X162015000Y-77756260D01*
X162072068Y-78043158D01*
X162184010Y-78313411D01*
X162346525Y-78556632D01*
X162553368Y-78763475D01*
X162727760Y-78880000D01*
X162553368Y-78996525D01*
X162346525Y-79203368D01*
X162184010Y-79446589D01*
X162072068Y-79716842D01*
X162015000Y-80003740D01*
X162015000Y-80296260D01*
X162072068Y-80583158D01*
X162184010Y-80853411D01*
X162346525Y-81096632D01*
X162553368Y-81303475D01*
X162727760Y-81420000D01*
X162553368Y-81536525D01*
X162346525Y-81743368D01*
X162184010Y-81986589D01*
X162072068Y-82256842D01*
X162015000Y-82543740D01*
X162015000Y-82836260D01*
X162072068Y-83123158D01*
X162184010Y-83393411D01*
X162346525Y-83636632D01*
X162553368Y-83843475D01*
X162727760Y-83960000D01*
X162553368Y-84076525D01*
X162346525Y-84283368D01*
X162184010Y-84526589D01*
X162072068Y-84796842D01*
X162015000Y-85083740D01*
X162015000Y-85376260D01*
X162072068Y-85663158D01*
X162184010Y-85933411D01*
X162346525Y-86176632D01*
X162553368Y-86383475D01*
X162796589Y-86545990D01*
X163066842Y-86657932D01*
X163353740Y-86715000D01*
X163646260Y-86715000D01*
X163933158Y-86657932D01*
X164203411Y-86545990D01*
X164446632Y-86383475D01*
X164653475Y-86176632D01*
X164815990Y-85933411D01*
X164927932Y-85663158D01*
X164985000Y-85376260D01*
X164985000Y-85083740D01*
X164927932Y-84796842D01*
X164815990Y-84526589D01*
X164653475Y-84283368D01*
X164446632Y-84076525D01*
X164272240Y-83960000D01*
X164446632Y-83843475D01*
X164653475Y-83636632D01*
X164815990Y-83393411D01*
X164927932Y-83123158D01*
X164985000Y-82836260D01*
X164985000Y-82543740D01*
X164927932Y-82256842D01*
X164815990Y-81986589D01*
X164653475Y-81743368D01*
X164446632Y-81536525D01*
X164272240Y-81420000D01*
X164446632Y-81303475D01*
X164653475Y-81096632D01*
X164815990Y-80853411D01*
X164927932Y-80583158D01*
X164985000Y-80296260D01*
X164985000Y-80003740D01*
X164927932Y-79716842D01*
X164815990Y-79446589D01*
X164653475Y-79203368D01*
X164446632Y-78996525D01*
X164272240Y-78880000D01*
X164446632Y-78763475D01*
X164653475Y-78556632D01*
X164815990Y-78313411D01*
X164927932Y-78043158D01*
X164985000Y-77756260D01*
X164985000Y-77463740D01*
X164927932Y-77176842D01*
X164863750Y-77021890D01*
X167908524Y-77021890D01*
X167953175Y-77169099D01*
X168078359Y-77431920D01*
X168252412Y-77665269D01*
X168468645Y-77860178D01*
X168718748Y-78009157D01*
X168993109Y-78106481D01*
X169223000Y-77985814D01*
X169223000Y-76792000D01*
X169477000Y-76792000D01*
X169477000Y-77985814D01*
X169706891Y-78106481D01*
X169981252Y-78009157D01*
X170231355Y-77860178D01*
X170447588Y-77665269D01*
X170621641Y-77431920D01*
X170746825Y-77169099D01*
X170791476Y-77021890D01*
X170670155Y-76792000D01*
X169477000Y-76792000D01*
X169223000Y-76792000D01*
X168029845Y-76792000D01*
X167908524Y-77021890D01*
X164863750Y-77021890D01*
X164815990Y-76906589D01*
X164653475Y-76663368D01*
X164446632Y-76456525D01*
X164272240Y-76340000D01*
X164446632Y-76223475D01*
X164653475Y-76016632D01*
X164815990Y-75773411D01*
X164927932Y-75503158D01*
X164985000Y-75216260D01*
X164985000Y-74923740D01*
X164927932Y-74636842D01*
X164815990Y-74366589D01*
X164653475Y-74123368D01*
X164446632Y-73916525D01*
X164272240Y-73800000D01*
X164446632Y-73683475D01*
X164653475Y-73476632D01*
X164815990Y-73233411D01*
X164927932Y-72963158D01*
X164985000Y-72676260D01*
X164985000Y-72383740D01*
X164931544Y-72114999D01*
X165540198Y-72114999D01*
X167461200Y-74036002D01*
X167484999Y-74065001D01*
X167600724Y-74159974D01*
X167732753Y-74230546D01*
X167861928Y-74269730D01*
X167861928Y-74975000D01*
X167874188Y-75099482D01*
X167910498Y-75219180D01*
X167969463Y-75329494D01*
X168048815Y-75426185D01*
X168145506Y-75505537D01*
X168255820Y-75564502D01*
X168336466Y-75588966D01*
X168252412Y-75664731D01*
X168078359Y-75898080D01*
X167953175Y-76160901D01*
X167908524Y-76308110D01*
X168029845Y-76538000D01*
X169223000Y-76538000D01*
X169223000Y-76518000D01*
X169477000Y-76518000D01*
X169477000Y-76538000D01*
X170670155Y-76538000D01*
X170791476Y-76308110D01*
X170746825Y-76160901D01*
X170621641Y-75898080D01*
X170447588Y-75664731D01*
X170363534Y-75588966D01*
X170444180Y-75564502D01*
X170554494Y-75505537D01*
X170651185Y-75426185D01*
X170730537Y-75329494D01*
X170789502Y-75219180D01*
X170825812Y-75099482D01*
X170838072Y-74975000D01*
X170838072Y-73275000D01*
X170825812Y-73150518D01*
X170789502Y-73030820D01*
X170730537Y-72920506D01*
X170651185Y-72823815D01*
X170554494Y-72744463D01*
X170444180Y-72685498D01*
X170324482Y-72649188D01*
X170200000Y-72636928D01*
X168500000Y-72636928D01*
X168375518Y-72649188D01*
X168259257Y-72684455D01*
X166418803Y-70844002D01*
X166395000Y-70814998D01*
X166279275Y-70720025D01*
X166147246Y-70649453D01*
X166003985Y-70605996D01*
X165892332Y-70594999D01*
X165892321Y-70594999D01*
X165854999Y-70591323D01*
X165817677Y-70594999D01*
X164848765Y-70594999D01*
X164896825Y-70494099D01*
X164941476Y-70346890D01*
X164820155Y-70117000D01*
X163627000Y-70117000D01*
X163627000Y-70137000D01*
X163373000Y-70137000D01*
X163373000Y-70117000D01*
X162179845Y-70117000D01*
X162058524Y-70346890D01*
X162103175Y-70494099D01*
X162151235Y-70594999D01*
X150007324Y-70594999D01*
X149970001Y-70591323D01*
X149932678Y-70594999D01*
X149932668Y-70594999D01*
X149821015Y-70605996D01*
X149677754Y-70649453D01*
X149545725Y-70720025D01*
X149430000Y-70814998D01*
X149406202Y-70843997D01*
X148960199Y-71290000D01*
X146688178Y-71290000D01*
X146563475Y-71103368D01*
X146356632Y-70896525D01*
X146113411Y-70734010D01*
X145843158Y-70622068D01*
X145752216Y-70603978D01*
X145883158Y-70577932D01*
X146153411Y-70465990D01*
X146396632Y-70303475D01*
X146603475Y-70096632D01*
X146765990Y-69853411D01*
X146877932Y-69583158D01*
X146935000Y-69296260D01*
X146935000Y-69003740D01*
X146877932Y-68716842D01*
X146765990Y-68446589D01*
X146668043Y-68300000D01*
X162011928Y-68300000D01*
X162024188Y-68424482D01*
X162060498Y-68544180D01*
X162119463Y-68654494D01*
X162198815Y-68751185D01*
X162295506Y-68830537D01*
X162405820Y-68889502D01*
X162486466Y-68913966D01*
X162402412Y-68989731D01*
X162228359Y-69223080D01*
X162103175Y-69485901D01*
X162058524Y-69633110D01*
X162179845Y-69863000D01*
X163373000Y-69863000D01*
X163373000Y-67577000D01*
X163627000Y-67577000D01*
X163627000Y-69863000D01*
X164820155Y-69863000D01*
X164941476Y-69633110D01*
X164896825Y-69485901D01*
X164771641Y-69223080D01*
X164597588Y-68989731D01*
X164513534Y-68913966D01*
X164594180Y-68889502D01*
X164704494Y-68830537D01*
X164801185Y-68751185D01*
X164880537Y-68654494D01*
X164939502Y-68544180D01*
X164975812Y-68424482D01*
X164988072Y-68300000D01*
X164985000Y-67735750D01*
X164826250Y-67577000D01*
X163627000Y-67577000D01*
X163373000Y-67577000D01*
X162173750Y-67577000D01*
X162015000Y-67735750D01*
X162011928Y-68300000D01*
X146668043Y-68300000D01*
X146603475Y-68203368D01*
X146396632Y-67996525D01*
X146210000Y-67871822D01*
X146210000Y-67487333D01*
X146213677Y-67450000D01*
X146199003Y-67301014D01*
X146155546Y-67157753D01*
X146084974Y-67025724D01*
X146014644Y-66940027D01*
X145990001Y-66909999D01*
X145961003Y-66886201D01*
X145674802Y-66600000D01*
X162011928Y-66600000D01*
X162015000Y-67164250D01*
X162173750Y-67323000D01*
X163373000Y-67323000D01*
X163373000Y-66123750D01*
X163627000Y-66123750D01*
X163627000Y-67323000D01*
X164826250Y-67323000D01*
X164985000Y-67164250D01*
X164988072Y-66600000D01*
X164975812Y-66475518D01*
X164939502Y-66355820D01*
X164880537Y-66245506D01*
X164801185Y-66148815D01*
X164704494Y-66069463D01*
X164594180Y-66010498D01*
X164474482Y-65974188D01*
X164350000Y-65961928D01*
X163785750Y-65965000D01*
X163627000Y-66123750D01*
X163373000Y-66123750D01*
X163214250Y-65965000D01*
X162650000Y-65961928D01*
X162525518Y-65974188D01*
X162405820Y-66010498D01*
X162295506Y-66069463D01*
X162198815Y-66148815D01*
X162119463Y-66245506D01*
X162060498Y-66355820D01*
X162024188Y-66475518D01*
X162011928Y-66600000D01*
X145674802Y-66600000D01*
X145163803Y-66089002D01*
X145140001Y-66059999D01*
X145057935Y-65992649D01*
X145086632Y-65973475D01*
X145211710Y-65848397D01*
X145831208Y-65848397D01*
X145908843Y-66097472D01*
X146172883Y-66223371D01*
X146456411Y-66295339D01*
X146748531Y-66310611D01*
X147038019Y-66268599D01*
X147313747Y-66170919D01*
X147451157Y-66097472D01*
X147528792Y-65848397D01*
X146680000Y-64999605D01*
X145831208Y-65848397D01*
X145211710Y-65848397D01*
X145293475Y-65766632D01*
X145409311Y-65593271D01*
X145651603Y-65668792D01*
X146500395Y-64820000D01*
X146859605Y-64820000D01*
X147708397Y-65668792D01*
X147950689Y-65593271D01*
X148066525Y-65766632D01*
X148273368Y-65973475D01*
X148516589Y-66135990D01*
X148786842Y-66247932D01*
X149073740Y-66305000D01*
X149366260Y-66305000D01*
X149653158Y-66247932D01*
X149923411Y-66135990D01*
X150166632Y-65973475D01*
X150373475Y-65766632D01*
X150535990Y-65523411D01*
X150647932Y-65253158D01*
X150705000Y-64966260D01*
X150705000Y-64673740D01*
X150647932Y-64386842D01*
X150535990Y-64116589D01*
X150373475Y-63873368D01*
X150166632Y-63666525D01*
X149923411Y-63504010D01*
X149653158Y-63392068D01*
X149366260Y-63335000D01*
X149073740Y-63335000D01*
X148786842Y-63392068D01*
X148516589Y-63504010D01*
X148273368Y-63666525D01*
X148066525Y-63873368D01*
X147950689Y-64046729D01*
X147708397Y-63971208D01*
X146859605Y-64820000D01*
X146500395Y-64820000D01*
X145651603Y-63971208D01*
X145409311Y-64046729D01*
X145293475Y-63873368D01*
X145211710Y-63791603D01*
X145831208Y-63791603D01*
X146680000Y-64640395D01*
X147528792Y-63791603D01*
X147451157Y-63542528D01*
X147187117Y-63416629D01*
X146903589Y-63344661D01*
X146611469Y-63329389D01*
X146321981Y-63371401D01*
X146046253Y-63469081D01*
X145908843Y-63542528D01*
X145831208Y-63791603D01*
X145211710Y-63791603D01*
X145086632Y-63666525D01*
X144843411Y-63504010D01*
X144573158Y-63392068D01*
X144286260Y-63335000D01*
X143993740Y-63335000D01*
X143706842Y-63392068D01*
X143436589Y-63504010D01*
X143193368Y-63666525D01*
X142986525Y-63873368D01*
X142870000Y-64047760D01*
X142753475Y-63873368D01*
X142546632Y-63666525D01*
X142303411Y-63504010D01*
X142033158Y-63392068D01*
X141746260Y-63335000D01*
X141453740Y-63335000D01*
X141166842Y-63392068D01*
X140896589Y-63504010D01*
X140721793Y-63620805D01*
X140742205Y-63590256D01*
X140820226Y-63401898D01*
X140835124Y-63327000D01*
X171698000Y-63327000D01*
X171698000Y-83736322D01*
%TA.AperFunction,Conductor*%
D20*
G36*
X171698000Y-83736322D02*
G01*
X171626185Y-83648815D01*
X171529494Y-83569463D01*
X171419180Y-83510498D01*
X171299482Y-83474188D01*
X171175000Y-83461928D01*
X169475000Y-83461928D01*
X169350518Y-83474188D01*
X169230820Y-83510498D01*
X169120506Y-83569463D01*
X169023815Y-83648815D01*
X168944463Y-83745506D01*
X168885498Y-83855820D01*
X168849188Y-83975518D01*
X168836928Y-84100000D01*
X168836928Y-85800000D01*
X168849188Y-85924482D01*
X168885498Y-86044180D01*
X168944463Y-86154494D01*
X169023815Y-86251185D01*
X169120506Y-86330537D01*
X169230820Y-86389502D01*
X169303380Y-86411513D01*
X169171525Y-86543368D01*
X169009010Y-86786589D01*
X168897068Y-87056842D01*
X168840000Y-87343740D01*
X168840000Y-87636260D01*
X168883791Y-87856408D01*
X168479003Y-88261196D01*
X168449999Y-88284999D01*
X168401576Y-88344003D01*
X168355026Y-88400724D01*
X168332068Y-88443676D01*
X168284454Y-88532754D01*
X168240997Y-88676015D01*
X168230000Y-88787668D01*
X168230000Y-88787678D01*
X168226324Y-88825000D01*
X168230000Y-88862322D01*
X168230000Y-89345198D01*
X166314003Y-91261196D01*
X166284999Y-91284999D01*
X166229871Y-91352174D01*
X166190026Y-91400724D01*
X166150271Y-91475100D01*
X166119454Y-91532754D01*
X166075997Y-91676015D01*
X166065000Y-91787668D01*
X166065000Y-91787678D01*
X166061324Y-91825000D01*
X166065000Y-91862323D01*
X166065001Y-93185198D01*
X165760199Y-93490000D01*
X165067805Y-93490000D01*
X165108474Y-93463078D01*
X165281307Y-93291725D01*
X165417390Y-93089946D01*
X165511493Y-92865496D01*
X165560000Y-92627000D01*
X165560000Y-92352000D01*
X164452000Y-92352000D01*
X164452000Y-92372000D01*
X164198000Y-92372000D01*
X164198000Y-92352000D01*
X164178000Y-92352000D01*
X164178000Y-92098000D01*
X164198000Y-92098000D01*
X164198000Y-90881269D01*
X164452000Y-90881269D01*
X164452000Y-92098000D01*
X165560000Y-92098000D01*
X165560000Y-91823000D01*
X165511493Y-91584504D01*
X165417390Y-91360054D01*
X165281307Y-91158275D01*
X165108474Y-90986922D01*
X164905533Y-90852579D01*
X164680282Y-90760409D01*
X164642609Y-90756538D01*
X164452000Y-90881269D01*
X164198000Y-90881269D01*
X164007391Y-90756538D01*
X163969718Y-90760409D01*
X163744467Y-90852579D01*
X163541526Y-90986922D01*
X163368693Y-91158275D01*
X163325481Y-91222348D01*
X163202502Y-91072498D01*
X163085000Y-90976067D01*
X163085000Y-90737322D01*
X163088676Y-90699999D01*
X163085000Y-90662676D01*
X163085000Y-90662667D01*
X163074003Y-90551014D01*
X163030546Y-90407753D01*
X162959974Y-90275724D01*
X162865001Y-90159999D01*
X162836004Y-90136202D01*
X160738804Y-88039003D01*
X160715001Y-88009999D01*
X160599276Y-87915026D01*
X160520845Y-87873103D01*
X160535000Y-87801939D01*
X160535000Y-87598061D01*
X160495226Y-87398102D01*
X160417205Y-87209744D01*
X160303937Y-87040226D01*
X160159774Y-86896063D01*
X159990256Y-86782795D01*
X159801898Y-86704774D01*
X159601939Y-86665000D01*
X159398061Y-86665000D01*
X159198102Y-86704774D01*
X159009744Y-86782795D01*
X158840226Y-86896063D01*
X158696289Y-87040000D01*
X156489803Y-87040000D01*
X153388804Y-83939003D01*
X153365001Y-83909999D01*
X153249276Y-83815026D01*
X153228979Y-83804177D01*
X150503804Y-81079003D01*
X150480001Y-81049999D01*
X150364276Y-80955026D01*
X150232247Y-80884454D01*
X150088986Y-80840997D01*
X149977333Y-80830000D01*
X149977322Y-80830000D01*
X149952343Y-80827540D01*
X149103106Y-79978304D01*
X149190256Y-79942205D01*
X149359774Y-79828937D01*
X149503937Y-79684774D01*
X149617205Y-79515256D01*
X149695226Y-79326898D01*
X149735000Y-79126939D01*
X149735000Y-78923061D01*
X149695226Y-78723102D01*
X149617205Y-78534744D01*
X149503937Y-78365226D01*
X149462099Y-78323388D01*
X149439411Y-78280941D01*
X149390270Y-78221063D01*
X149356532Y-78179953D01*
X149356530Y-78179951D01*
X149328817Y-78146183D01*
X149295050Y-78118471D01*
X147664650Y-76488072D01*
X148475000Y-76488072D01*
X148648254Y-76471008D01*
X148814850Y-76420472D01*
X148968386Y-76338405D01*
X149102962Y-76227962D01*
X149213405Y-76093386D01*
X149295472Y-75939850D01*
X149346008Y-75773254D01*
X149363072Y-75600000D01*
X149363072Y-75428289D01*
X149430820Y-75464502D01*
X149550518Y-75500812D01*
X149675000Y-75513072D01*
X149889250Y-75510000D01*
X150048000Y-75351250D01*
X150048000Y-74277000D01*
X150028000Y-74277000D01*
X150028000Y-74023000D01*
X150048000Y-74023000D01*
X150048000Y-72948750D01*
X149889250Y-72790000D01*
X149675000Y-72786928D01*
X149550518Y-72799188D01*
X149430820Y-72835498D01*
X149355747Y-72875626D01*
X149350812Y-72825518D01*
X149345125Y-72806770D01*
X149423986Y-72799003D01*
X149567247Y-72755546D01*
X149699276Y-72684974D01*
X149815001Y-72590001D01*
X149838803Y-72560998D01*
X150284803Y-72114999D01*
X151765000Y-72114999D01*
X151765000Y-72301939D01*
X151804774Y-72501898D01*
X151882795Y-72690256D01*
X151915000Y-72738455D01*
X151915000Y-72786928D01*
X151825000Y-72786928D01*
X151651746Y-72803992D01*
X151485150Y-72854528D01*
X151331614Y-72936595D01*
X151197038Y-73047038D01*
X151191658Y-73053594D01*
X151126185Y-72973815D01*
X151029494Y-72894463D01*
X150919180Y-72835498D01*
X150799482Y-72799188D01*
X150675000Y-72786928D01*
X150460750Y-72790000D01*
X150302000Y-72948750D01*
X150302000Y-74023000D01*
X150322000Y-74023000D01*
X150322000Y-74277000D01*
X150302000Y-74277000D01*
X150302000Y-75351250D01*
X150460750Y-75510000D01*
X150675000Y-75513072D01*
X150799482Y-75500812D01*
X150919180Y-75464502D01*
X151029494Y-75405537D01*
X151126185Y-75326185D01*
X151191658Y-75246406D01*
X151197038Y-75252962D01*
X151331614Y-75363405D01*
X151485150Y-75445472D01*
X151651746Y-75496008D01*
X151825000Y-75513072D01*
X152325000Y-75513072D01*
X152498254Y-75496008D01*
X152664850Y-75445472D01*
X152818386Y-75363405D01*
X152952962Y-75252962D01*
X153063405Y-75118386D01*
X153145472Y-74964850D01*
X153196008Y-74798254D01*
X153213072Y-74625000D01*
X153213072Y-74263507D01*
X153395049Y-74081530D01*
X153428817Y-74053817D01*
X153458831Y-74017246D01*
X153539411Y-73919059D01*
X153558159Y-73883984D01*
X153621589Y-73765313D01*
X153672195Y-73598490D01*
X153685000Y-73468477D01*
X153685000Y-73468469D01*
X153689281Y-73425000D01*
X153685000Y-73381531D01*
X153685000Y-72738454D01*
X153717205Y-72690256D01*
X153795226Y-72501898D01*
X153835000Y-72301939D01*
X153835000Y-72114999D01*
X162068456Y-72114999D01*
X162015000Y-72383740D01*
X162015000Y-72676260D01*
X162072068Y-72963158D01*
X162184010Y-73233411D01*
X162346525Y-73476632D01*
X162553368Y-73683475D01*
X162727760Y-73800000D01*
X162553368Y-73916525D01*
X162346525Y-74123368D01*
X162184010Y-74366589D01*
X162072068Y-74636842D01*
X162015000Y-74923740D01*
X162015000Y-75216260D01*
X162072068Y-75503158D01*
X162184010Y-75773411D01*
X162346525Y-76016632D01*
X162553368Y-76223475D01*
X162727760Y-76340000D01*
X162553368Y-76456525D01*
X162346525Y-76663368D01*
X162184010Y-76906589D01*
X162072068Y-77176842D01*
X162015000Y-77463740D01*
X162015000Y-77756260D01*
X162072068Y-78043158D01*
X162184010Y-78313411D01*
X162346525Y-78556632D01*
X162553368Y-78763475D01*
X162727760Y-78880000D01*
X162553368Y-78996525D01*
X162346525Y-79203368D01*
X162184010Y-79446589D01*
X162072068Y-79716842D01*
X162015000Y-80003740D01*
X162015000Y-80296260D01*
X162072068Y-80583158D01*
X162184010Y-80853411D01*
X162346525Y-81096632D01*
X162553368Y-81303475D01*
X162727760Y-81420000D01*
X162553368Y-81536525D01*
X162346525Y-81743368D01*
X162184010Y-81986589D01*
X162072068Y-82256842D01*
X162015000Y-82543740D01*
X162015000Y-82836260D01*
X162072068Y-83123158D01*
X162184010Y-83393411D01*
X162346525Y-83636632D01*
X162553368Y-83843475D01*
X162727760Y-83960000D01*
X162553368Y-84076525D01*
X162346525Y-84283368D01*
X162184010Y-84526589D01*
X162072068Y-84796842D01*
X162015000Y-85083740D01*
X162015000Y-85376260D01*
X162072068Y-85663158D01*
X162184010Y-85933411D01*
X162346525Y-86176632D01*
X162553368Y-86383475D01*
X162796589Y-86545990D01*
X163066842Y-86657932D01*
X163353740Y-86715000D01*
X163646260Y-86715000D01*
X163933158Y-86657932D01*
X164203411Y-86545990D01*
X164446632Y-86383475D01*
X164653475Y-86176632D01*
X164815990Y-85933411D01*
X164927932Y-85663158D01*
X164985000Y-85376260D01*
X164985000Y-85083740D01*
X164927932Y-84796842D01*
X164815990Y-84526589D01*
X164653475Y-84283368D01*
X164446632Y-84076525D01*
X164272240Y-83960000D01*
X164446632Y-83843475D01*
X164653475Y-83636632D01*
X164815990Y-83393411D01*
X164927932Y-83123158D01*
X164985000Y-82836260D01*
X164985000Y-82543740D01*
X164927932Y-82256842D01*
X164815990Y-81986589D01*
X164653475Y-81743368D01*
X164446632Y-81536525D01*
X164272240Y-81420000D01*
X164446632Y-81303475D01*
X164653475Y-81096632D01*
X164815990Y-80853411D01*
X164927932Y-80583158D01*
X164985000Y-80296260D01*
X164985000Y-80003740D01*
X164927932Y-79716842D01*
X164815990Y-79446589D01*
X164653475Y-79203368D01*
X164446632Y-78996525D01*
X164272240Y-78880000D01*
X164446632Y-78763475D01*
X164653475Y-78556632D01*
X164815990Y-78313411D01*
X164927932Y-78043158D01*
X164985000Y-77756260D01*
X164985000Y-77463740D01*
X164927932Y-77176842D01*
X164863750Y-77021890D01*
X167908524Y-77021890D01*
X167953175Y-77169099D01*
X168078359Y-77431920D01*
X168252412Y-77665269D01*
X168468645Y-77860178D01*
X168718748Y-78009157D01*
X168993109Y-78106481D01*
X169223000Y-77985814D01*
X169223000Y-76792000D01*
X169477000Y-76792000D01*
X169477000Y-77985814D01*
X169706891Y-78106481D01*
X169981252Y-78009157D01*
X170231355Y-77860178D01*
X170447588Y-77665269D01*
X170621641Y-77431920D01*
X170746825Y-77169099D01*
X170791476Y-77021890D01*
X170670155Y-76792000D01*
X169477000Y-76792000D01*
X169223000Y-76792000D01*
X168029845Y-76792000D01*
X167908524Y-77021890D01*
X164863750Y-77021890D01*
X164815990Y-76906589D01*
X164653475Y-76663368D01*
X164446632Y-76456525D01*
X164272240Y-76340000D01*
X164446632Y-76223475D01*
X164653475Y-76016632D01*
X164815990Y-75773411D01*
X164927932Y-75503158D01*
X164985000Y-75216260D01*
X164985000Y-74923740D01*
X164927932Y-74636842D01*
X164815990Y-74366589D01*
X164653475Y-74123368D01*
X164446632Y-73916525D01*
X164272240Y-73800000D01*
X164446632Y-73683475D01*
X164653475Y-73476632D01*
X164815990Y-73233411D01*
X164927932Y-72963158D01*
X164985000Y-72676260D01*
X164985000Y-72383740D01*
X164931544Y-72114999D01*
X165540198Y-72114999D01*
X167461200Y-74036002D01*
X167484999Y-74065001D01*
X167600724Y-74159974D01*
X167732753Y-74230546D01*
X167861928Y-74269730D01*
X167861928Y-74975000D01*
X167874188Y-75099482D01*
X167910498Y-75219180D01*
X167969463Y-75329494D01*
X168048815Y-75426185D01*
X168145506Y-75505537D01*
X168255820Y-75564502D01*
X168336466Y-75588966D01*
X168252412Y-75664731D01*
X168078359Y-75898080D01*
X167953175Y-76160901D01*
X167908524Y-76308110D01*
X168029845Y-76538000D01*
X169223000Y-76538000D01*
X169223000Y-76518000D01*
X169477000Y-76518000D01*
X169477000Y-76538000D01*
X170670155Y-76538000D01*
X170791476Y-76308110D01*
X170746825Y-76160901D01*
X170621641Y-75898080D01*
X170447588Y-75664731D01*
X170363534Y-75588966D01*
X170444180Y-75564502D01*
X170554494Y-75505537D01*
X170651185Y-75426185D01*
X170730537Y-75329494D01*
X170789502Y-75219180D01*
X170825812Y-75099482D01*
X170838072Y-74975000D01*
X170838072Y-73275000D01*
X170825812Y-73150518D01*
X170789502Y-73030820D01*
X170730537Y-72920506D01*
X170651185Y-72823815D01*
X170554494Y-72744463D01*
X170444180Y-72685498D01*
X170324482Y-72649188D01*
X170200000Y-72636928D01*
X168500000Y-72636928D01*
X168375518Y-72649188D01*
X168259257Y-72684455D01*
X166418803Y-70844002D01*
X166395000Y-70814998D01*
X166279275Y-70720025D01*
X166147246Y-70649453D01*
X166003985Y-70605996D01*
X165892332Y-70594999D01*
X165892321Y-70594999D01*
X165854999Y-70591323D01*
X165817677Y-70594999D01*
X164848765Y-70594999D01*
X164896825Y-70494099D01*
X164941476Y-70346890D01*
X164820155Y-70117000D01*
X163627000Y-70117000D01*
X163627000Y-70137000D01*
X163373000Y-70137000D01*
X163373000Y-70117000D01*
X162179845Y-70117000D01*
X162058524Y-70346890D01*
X162103175Y-70494099D01*
X162151235Y-70594999D01*
X150007324Y-70594999D01*
X149970001Y-70591323D01*
X149932678Y-70594999D01*
X149932668Y-70594999D01*
X149821015Y-70605996D01*
X149677754Y-70649453D01*
X149545725Y-70720025D01*
X149430000Y-70814998D01*
X149406202Y-70843997D01*
X148960199Y-71290000D01*
X146688178Y-71290000D01*
X146563475Y-71103368D01*
X146356632Y-70896525D01*
X146113411Y-70734010D01*
X145843158Y-70622068D01*
X145752216Y-70603978D01*
X145883158Y-70577932D01*
X146153411Y-70465990D01*
X146396632Y-70303475D01*
X146603475Y-70096632D01*
X146765990Y-69853411D01*
X146877932Y-69583158D01*
X146935000Y-69296260D01*
X146935000Y-69003740D01*
X146877932Y-68716842D01*
X146765990Y-68446589D01*
X146668043Y-68300000D01*
X162011928Y-68300000D01*
X162024188Y-68424482D01*
X162060498Y-68544180D01*
X162119463Y-68654494D01*
X162198815Y-68751185D01*
X162295506Y-68830537D01*
X162405820Y-68889502D01*
X162486466Y-68913966D01*
X162402412Y-68989731D01*
X162228359Y-69223080D01*
X162103175Y-69485901D01*
X162058524Y-69633110D01*
X162179845Y-69863000D01*
X163373000Y-69863000D01*
X163373000Y-67577000D01*
X163627000Y-67577000D01*
X163627000Y-69863000D01*
X164820155Y-69863000D01*
X164941476Y-69633110D01*
X164896825Y-69485901D01*
X164771641Y-69223080D01*
X164597588Y-68989731D01*
X164513534Y-68913966D01*
X164594180Y-68889502D01*
X164704494Y-68830537D01*
X164801185Y-68751185D01*
X164880537Y-68654494D01*
X164939502Y-68544180D01*
X164975812Y-68424482D01*
X164988072Y-68300000D01*
X164985000Y-67735750D01*
X164826250Y-67577000D01*
X163627000Y-67577000D01*
X163373000Y-67577000D01*
X162173750Y-67577000D01*
X162015000Y-67735750D01*
X162011928Y-68300000D01*
X146668043Y-68300000D01*
X146603475Y-68203368D01*
X146396632Y-67996525D01*
X146210000Y-67871822D01*
X146210000Y-67487333D01*
X146213677Y-67450000D01*
X146199003Y-67301014D01*
X146155546Y-67157753D01*
X146084974Y-67025724D01*
X146014644Y-66940027D01*
X145990001Y-66909999D01*
X145961003Y-66886201D01*
X145674802Y-66600000D01*
X162011928Y-66600000D01*
X162015000Y-67164250D01*
X162173750Y-67323000D01*
X163373000Y-67323000D01*
X163373000Y-66123750D01*
X163627000Y-66123750D01*
X163627000Y-67323000D01*
X164826250Y-67323000D01*
X164985000Y-67164250D01*
X164988072Y-66600000D01*
X164975812Y-66475518D01*
X164939502Y-66355820D01*
X164880537Y-66245506D01*
X164801185Y-66148815D01*
X164704494Y-66069463D01*
X164594180Y-66010498D01*
X164474482Y-65974188D01*
X164350000Y-65961928D01*
X163785750Y-65965000D01*
X163627000Y-66123750D01*
X163373000Y-66123750D01*
X163214250Y-65965000D01*
X162650000Y-65961928D01*
X162525518Y-65974188D01*
X162405820Y-66010498D01*
X162295506Y-66069463D01*
X162198815Y-66148815D01*
X162119463Y-66245506D01*
X162060498Y-66355820D01*
X162024188Y-66475518D01*
X162011928Y-66600000D01*
X145674802Y-66600000D01*
X145163803Y-66089002D01*
X145140001Y-66059999D01*
X145057935Y-65992649D01*
X145086632Y-65973475D01*
X145211710Y-65848397D01*
X145831208Y-65848397D01*
X145908843Y-66097472D01*
X146172883Y-66223371D01*
X146456411Y-66295339D01*
X146748531Y-66310611D01*
X147038019Y-66268599D01*
X147313747Y-66170919D01*
X147451157Y-66097472D01*
X147528792Y-65848397D01*
X146680000Y-64999605D01*
X145831208Y-65848397D01*
X145211710Y-65848397D01*
X145293475Y-65766632D01*
X145409311Y-65593271D01*
X145651603Y-65668792D01*
X146500395Y-64820000D01*
X146859605Y-64820000D01*
X147708397Y-65668792D01*
X147950689Y-65593271D01*
X148066525Y-65766632D01*
X148273368Y-65973475D01*
X148516589Y-66135990D01*
X148786842Y-66247932D01*
X149073740Y-66305000D01*
X149366260Y-66305000D01*
X149653158Y-66247932D01*
X149923411Y-66135990D01*
X150166632Y-65973475D01*
X150373475Y-65766632D01*
X150535990Y-65523411D01*
X150647932Y-65253158D01*
X150705000Y-64966260D01*
X150705000Y-64673740D01*
X150647932Y-64386842D01*
X150535990Y-64116589D01*
X150373475Y-63873368D01*
X150166632Y-63666525D01*
X149923411Y-63504010D01*
X149653158Y-63392068D01*
X149366260Y-63335000D01*
X149073740Y-63335000D01*
X148786842Y-63392068D01*
X148516589Y-63504010D01*
X148273368Y-63666525D01*
X148066525Y-63873368D01*
X147950689Y-64046729D01*
X147708397Y-63971208D01*
X146859605Y-64820000D01*
X146500395Y-64820000D01*
X145651603Y-63971208D01*
X145409311Y-64046729D01*
X145293475Y-63873368D01*
X145211710Y-63791603D01*
X145831208Y-63791603D01*
X146680000Y-64640395D01*
X147528792Y-63791603D01*
X147451157Y-63542528D01*
X147187117Y-63416629D01*
X146903589Y-63344661D01*
X146611469Y-63329389D01*
X146321981Y-63371401D01*
X146046253Y-63469081D01*
X145908843Y-63542528D01*
X145831208Y-63791603D01*
X145211710Y-63791603D01*
X145086632Y-63666525D01*
X144843411Y-63504010D01*
X144573158Y-63392068D01*
X144286260Y-63335000D01*
X143993740Y-63335000D01*
X143706842Y-63392068D01*
X143436589Y-63504010D01*
X143193368Y-63666525D01*
X142986525Y-63873368D01*
X142870000Y-64047760D01*
X142753475Y-63873368D01*
X142546632Y-63666525D01*
X142303411Y-63504010D01*
X142033158Y-63392068D01*
X141746260Y-63335000D01*
X141453740Y-63335000D01*
X141166842Y-63392068D01*
X140896589Y-63504010D01*
X140721793Y-63620805D01*
X140742205Y-63590256D01*
X140820226Y-63401898D01*
X140835124Y-63327000D01*
X171698000Y-63327000D01*
X171698000Y-83736322D01*
G37*
%TD.AperFunction*%
D19*
X142240000Y-80989802D02*
X142240001Y-82412668D01*
X142236324Y-82450000D01*
X142240001Y-82487333D01*
X142244014Y-82528072D01*
X142250998Y-82598985D01*
X142294454Y-82742246D01*
X142365026Y-82874276D01*
X142386732Y-82900724D01*
X142460000Y-82990001D01*
X142488998Y-83013799D01*
X142846196Y-83370997D01*
X142869999Y-83400001D01*
X142985724Y-83494974D01*
X143117753Y-83565546D01*
X143261014Y-83609003D01*
X143362484Y-83618997D01*
X143410000Y-83623677D01*
X143447333Y-83620000D01*
X143728141Y-83620000D01*
X143696916Y-83678418D01*
X143652071Y-83826255D01*
X143636928Y-83980000D01*
X143636928Y-84280000D01*
X143652071Y-84433745D01*
X143696916Y-84581582D01*
X143769742Y-84717829D01*
X143867749Y-84837251D01*
X143987171Y-84935258D01*
X144123418Y-85008084D01*
X144271255Y-85052929D01*
X144425000Y-85068072D01*
X146075000Y-85068072D01*
X146228745Y-85052929D01*
X146353783Y-85015000D01*
X147019316Y-85015000D01*
X147071324Y-85186446D01*
X147176717Y-85383622D01*
X147283012Y-85513143D01*
X148085000Y-86315132D01*
X148085000Y-86714893D01*
X148066525Y-86733368D01*
X147950689Y-86906729D01*
X147708397Y-86831208D01*
X146859605Y-87680000D01*
X147708397Y-88528792D01*
X147950689Y-88453271D01*
X148066525Y-88626632D01*
X148273368Y-88833475D01*
X148516589Y-88995990D01*
X148786842Y-89107932D01*
X149073740Y-89165000D01*
X149366260Y-89165000D01*
X149653158Y-89107932D01*
X149923411Y-88995990D01*
X150166632Y-88833475D01*
X150373475Y-88626632D01*
X150535990Y-88383411D01*
X150647932Y-88113158D01*
X150705000Y-87826260D01*
X150705000Y-87533740D01*
X150647932Y-87246842D01*
X150616976Y-87172107D01*
X156433013Y-92988146D01*
X156468551Y-93031449D01*
X156511854Y-93066987D01*
X156511856Y-93066989D01*
X156641377Y-93173284D01*
X156838553Y-93278676D01*
X157052501Y-93343577D01*
X157252953Y-93363320D01*
X157347038Y-93477962D01*
X157361706Y-93490000D01*
X132114802Y-93490000D01*
X131710000Y-93085199D01*
X131710000Y-92973061D01*
X131670226Y-92773102D01*
X131592205Y-92584744D01*
X131478937Y-92415226D01*
X131334774Y-92271063D01*
X131165256Y-92157795D01*
X130976898Y-92079774D01*
X130799426Y-92044473D01*
X130865256Y-92017205D01*
X131034774Y-91903937D01*
X131178937Y-91759774D01*
X131292205Y-91590256D01*
X131370226Y-91401898D01*
X131410000Y-91201939D01*
X131410000Y-90998061D01*
X131370226Y-90798102D01*
X131292205Y-90609744D01*
X131178937Y-90440226D01*
X131034774Y-90296063D01*
X130865256Y-90182795D01*
X130735001Y-90128841D01*
X130735001Y-89864800D01*
X130775997Y-89823804D01*
X130805000Y-89800002D01*
X130899973Y-89684277D01*
X130970545Y-89552248D01*
X131014002Y-89408987D01*
X131024999Y-89297334D01*
X131024999Y-89297325D01*
X131028675Y-89260002D01*
X131024999Y-89222679D01*
X131024999Y-89111544D01*
X131293740Y-89165000D01*
X131586260Y-89165000D01*
X131873158Y-89107932D01*
X132143411Y-88995990D01*
X132386632Y-88833475D01*
X132593475Y-88626632D01*
X132710000Y-88452240D01*
X132826525Y-88626632D01*
X133033368Y-88833475D01*
X133276589Y-88995990D01*
X133546842Y-89107932D01*
X133833740Y-89165000D01*
X134126260Y-89165000D01*
X134413158Y-89107932D01*
X134683411Y-88995990D01*
X134926632Y-88833475D01*
X135133475Y-88626632D01*
X135250000Y-88452240D01*
X135366525Y-88626632D01*
X135573368Y-88833475D01*
X135816589Y-88995990D01*
X136086842Y-89107932D01*
X136373740Y-89165000D01*
X136666260Y-89165000D01*
X136953158Y-89107932D01*
X137223411Y-88995990D01*
X137466632Y-88833475D01*
X137673475Y-88626632D01*
X137790000Y-88452240D01*
X137906525Y-88626632D01*
X138113368Y-88833475D01*
X138356589Y-88995990D01*
X138626842Y-89107932D01*
X138913740Y-89165000D01*
X139206260Y-89165000D01*
X139493158Y-89107932D01*
X139763411Y-88995990D01*
X140006632Y-88833475D01*
X140213475Y-88626632D01*
X140330000Y-88452240D01*
X140446525Y-88626632D01*
X140653368Y-88833475D01*
X140896589Y-88995990D01*
X141166842Y-89107932D01*
X141453740Y-89165000D01*
X141746260Y-89165000D01*
X142033158Y-89107932D01*
X142303411Y-88995990D01*
X142546632Y-88833475D01*
X142671710Y-88708397D01*
X143291208Y-88708397D01*
X143368843Y-88957472D01*
X143632883Y-89083371D01*
X143916411Y-89155339D01*
X144208531Y-89170611D01*
X144498019Y-89128599D01*
X144773747Y-89030919D01*
X144911157Y-88957472D01*
X144988792Y-88708397D01*
X145831208Y-88708397D01*
X145908843Y-88957472D01*
X146172883Y-89083371D01*
X146456411Y-89155339D01*
X146748531Y-89170611D01*
X147038019Y-89128599D01*
X147313747Y-89030919D01*
X147451157Y-88957472D01*
X147528792Y-88708397D01*
X146680000Y-87859605D01*
X145831208Y-88708397D01*
X144988792Y-88708397D01*
X144140000Y-87859605D01*
X143291208Y-88708397D01*
X142671710Y-88708397D01*
X142753475Y-88626632D01*
X142869311Y-88453271D01*
X143111603Y-88528792D01*
X143960395Y-87680000D01*
X144319605Y-87680000D01*
X145168397Y-88528792D01*
X145410000Y-88453486D01*
X145651603Y-88528792D01*
X146500395Y-87680000D01*
X145651603Y-86831208D01*
X145410000Y-86906514D01*
X145168397Y-86831208D01*
X144319605Y-87680000D01*
X143960395Y-87680000D01*
X143111603Y-86831208D01*
X142869311Y-86906729D01*
X142753475Y-86733368D01*
X142671710Y-86651603D01*
X143291208Y-86651603D01*
X144140000Y-87500395D01*
X144988792Y-86651603D01*
X145831208Y-86651603D01*
X146680000Y-87500395D01*
X147528792Y-86651603D01*
X147451157Y-86402528D01*
X147187117Y-86276629D01*
X146903589Y-86204661D01*
X146611469Y-86189389D01*
X146321981Y-86231401D01*
X146046253Y-86329081D01*
X145908843Y-86402528D01*
X145831208Y-86651603D01*
X144988792Y-86651603D01*
X144911157Y-86402528D01*
X144647117Y-86276629D01*
X144363589Y-86204661D01*
X144071469Y-86189389D01*
X143781981Y-86231401D01*
X143506253Y-86329081D01*
X143368843Y-86402528D01*
X143291208Y-86651603D01*
X142671710Y-86651603D01*
X142546632Y-86526525D01*
X142360000Y-86401822D01*
X142360000Y-86162322D01*
X142363676Y-86124999D01*
X142360000Y-86087676D01*
X142360000Y-86087667D01*
X142349003Y-85976014D01*
X142305546Y-85832753D01*
X142234974Y-85700724D01*
X142140001Y-85584999D01*
X142110998Y-85561197D01*
X141788804Y-85239003D01*
X141765001Y-85209999D01*
X141649276Y-85115026D01*
X141517247Y-85044454D01*
X141411966Y-85012518D01*
X141426582Y-85008084D01*
X141562829Y-84935258D01*
X141682251Y-84837251D01*
X141780258Y-84717829D01*
X141853084Y-84581582D01*
X141897929Y-84433745D01*
X141913072Y-84280000D01*
X141913072Y-83980000D01*
X141897929Y-83826255D01*
X141853084Y-83678418D01*
X141780258Y-83542171D01*
X141741546Y-83495000D01*
X141780258Y-83447829D01*
X141853084Y-83311582D01*
X141897929Y-83163745D01*
X141913072Y-83010000D01*
X141913072Y-82710000D01*
X141897929Y-82556255D01*
X141853084Y-82408418D01*
X141780258Y-82272171D01*
X141741546Y-82225000D01*
X141780258Y-82177829D01*
X141853084Y-82041582D01*
X141897929Y-81893745D01*
X141913072Y-81740000D01*
X141913072Y-81440000D01*
X141897929Y-81286255D01*
X141853084Y-81138418D01*
X141780258Y-81002171D01*
X141741546Y-80955000D01*
X141780258Y-80907829D01*
X141853084Y-80771582D01*
X141892347Y-80642148D01*
X142240000Y-80989802D01*
%TA.AperFunction,Conductor*%
D20*
G36*
X142240000Y-80989802D02*
G01*
X142240001Y-82412668D01*
X142236324Y-82450000D01*
X142240001Y-82487333D01*
X142244014Y-82528072D01*
X142250998Y-82598985D01*
X142294454Y-82742246D01*
X142365026Y-82874276D01*
X142386732Y-82900724D01*
X142460000Y-82990001D01*
X142488998Y-83013799D01*
X142846196Y-83370997D01*
X142869999Y-83400001D01*
X142985724Y-83494974D01*
X143117753Y-83565546D01*
X143261014Y-83609003D01*
X143362484Y-83618997D01*
X143410000Y-83623677D01*
X143447333Y-83620000D01*
X143728141Y-83620000D01*
X143696916Y-83678418D01*
X143652071Y-83826255D01*
X143636928Y-83980000D01*
X143636928Y-84280000D01*
X143652071Y-84433745D01*
X143696916Y-84581582D01*
X143769742Y-84717829D01*
X143867749Y-84837251D01*
X143987171Y-84935258D01*
X144123418Y-85008084D01*
X144271255Y-85052929D01*
X144425000Y-85068072D01*
X146075000Y-85068072D01*
X146228745Y-85052929D01*
X146353783Y-85015000D01*
X147019316Y-85015000D01*
X147071324Y-85186446D01*
X147176717Y-85383622D01*
X147283012Y-85513143D01*
X148085000Y-86315132D01*
X148085000Y-86714893D01*
X148066525Y-86733368D01*
X147950689Y-86906729D01*
X147708397Y-86831208D01*
X146859605Y-87680000D01*
X147708397Y-88528792D01*
X147950689Y-88453271D01*
X148066525Y-88626632D01*
X148273368Y-88833475D01*
X148516589Y-88995990D01*
X148786842Y-89107932D01*
X149073740Y-89165000D01*
X149366260Y-89165000D01*
X149653158Y-89107932D01*
X149923411Y-88995990D01*
X150166632Y-88833475D01*
X150373475Y-88626632D01*
X150535990Y-88383411D01*
X150647932Y-88113158D01*
X150705000Y-87826260D01*
X150705000Y-87533740D01*
X150647932Y-87246842D01*
X150616976Y-87172107D01*
X156433013Y-92988146D01*
X156468551Y-93031449D01*
X156511854Y-93066987D01*
X156511856Y-93066989D01*
X156641377Y-93173284D01*
X156838553Y-93278676D01*
X157052501Y-93343577D01*
X157252953Y-93363320D01*
X157347038Y-93477962D01*
X157361706Y-93490000D01*
X132114802Y-93490000D01*
X131710000Y-93085199D01*
X131710000Y-92973061D01*
X131670226Y-92773102D01*
X131592205Y-92584744D01*
X131478937Y-92415226D01*
X131334774Y-92271063D01*
X131165256Y-92157795D01*
X130976898Y-92079774D01*
X130799426Y-92044473D01*
X130865256Y-92017205D01*
X131034774Y-91903937D01*
X131178937Y-91759774D01*
X131292205Y-91590256D01*
X131370226Y-91401898D01*
X131410000Y-91201939D01*
X131410000Y-90998061D01*
X131370226Y-90798102D01*
X131292205Y-90609744D01*
X131178937Y-90440226D01*
X131034774Y-90296063D01*
X130865256Y-90182795D01*
X130735001Y-90128841D01*
X130735001Y-89864800D01*
X130775997Y-89823804D01*
X130805000Y-89800002D01*
X130899973Y-89684277D01*
X130970545Y-89552248D01*
X131014002Y-89408987D01*
X131024999Y-89297334D01*
X131024999Y-89297325D01*
X131028675Y-89260002D01*
X131024999Y-89222679D01*
X131024999Y-89111544D01*
X131293740Y-89165000D01*
X131586260Y-89165000D01*
X131873158Y-89107932D01*
X132143411Y-88995990D01*
X132386632Y-88833475D01*
X132593475Y-88626632D01*
X132710000Y-88452240D01*
X132826525Y-88626632D01*
X133033368Y-88833475D01*
X133276589Y-88995990D01*
X133546842Y-89107932D01*
X133833740Y-89165000D01*
X134126260Y-89165000D01*
X134413158Y-89107932D01*
X134683411Y-88995990D01*
X134926632Y-88833475D01*
X135133475Y-88626632D01*
X135250000Y-88452240D01*
X135366525Y-88626632D01*
X135573368Y-88833475D01*
X135816589Y-88995990D01*
X136086842Y-89107932D01*
X136373740Y-89165000D01*
X136666260Y-89165000D01*
X136953158Y-89107932D01*
X137223411Y-88995990D01*
X137466632Y-88833475D01*
X137673475Y-88626632D01*
X137790000Y-88452240D01*
X137906525Y-88626632D01*
X138113368Y-88833475D01*
X138356589Y-88995990D01*
X138626842Y-89107932D01*
X138913740Y-89165000D01*
X139206260Y-89165000D01*
X139493158Y-89107932D01*
X139763411Y-88995990D01*
X140006632Y-88833475D01*
X140213475Y-88626632D01*
X140330000Y-88452240D01*
X140446525Y-88626632D01*
X140653368Y-88833475D01*
X140896589Y-88995990D01*
X141166842Y-89107932D01*
X141453740Y-89165000D01*
X141746260Y-89165000D01*
X142033158Y-89107932D01*
X142303411Y-88995990D01*
X142546632Y-88833475D01*
X142671710Y-88708397D01*
X143291208Y-88708397D01*
X143368843Y-88957472D01*
X143632883Y-89083371D01*
X143916411Y-89155339D01*
X144208531Y-89170611D01*
X144498019Y-89128599D01*
X144773747Y-89030919D01*
X144911157Y-88957472D01*
X144988792Y-88708397D01*
X145831208Y-88708397D01*
X145908843Y-88957472D01*
X146172883Y-89083371D01*
X146456411Y-89155339D01*
X146748531Y-89170611D01*
X147038019Y-89128599D01*
X147313747Y-89030919D01*
X147451157Y-88957472D01*
X147528792Y-88708397D01*
X146680000Y-87859605D01*
X145831208Y-88708397D01*
X144988792Y-88708397D01*
X144140000Y-87859605D01*
X143291208Y-88708397D01*
X142671710Y-88708397D01*
X142753475Y-88626632D01*
X142869311Y-88453271D01*
X143111603Y-88528792D01*
X143960395Y-87680000D01*
X144319605Y-87680000D01*
X145168397Y-88528792D01*
X145410000Y-88453486D01*
X145651603Y-88528792D01*
X146500395Y-87680000D01*
X145651603Y-86831208D01*
X145410000Y-86906514D01*
X145168397Y-86831208D01*
X144319605Y-87680000D01*
X143960395Y-87680000D01*
X143111603Y-86831208D01*
X142869311Y-86906729D01*
X142753475Y-86733368D01*
X142671710Y-86651603D01*
X143291208Y-86651603D01*
X144140000Y-87500395D01*
X144988792Y-86651603D01*
X145831208Y-86651603D01*
X146680000Y-87500395D01*
X147528792Y-86651603D01*
X147451157Y-86402528D01*
X147187117Y-86276629D01*
X146903589Y-86204661D01*
X146611469Y-86189389D01*
X146321981Y-86231401D01*
X146046253Y-86329081D01*
X145908843Y-86402528D01*
X145831208Y-86651603D01*
X144988792Y-86651603D01*
X144911157Y-86402528D01*
X144647117Y-86276629D01*
X144363589Y-86204661D01*
X144071469Y-86189389D01*
X143781981Y-86231401D01*
X143506253Y-86329081D01*
X143368843Y-86402528D01*
X143291208Y-86651603D01*
X142671710Y-86651603D01*
X142546632Y-86526525D01*
X142360000Y-86401822D01*
X142360000Y-86162322D01*
X142363676Y-86124999D01*
X142360000Y-86087676D01*
X142360000Y-86087667D01*
X142349003Y-85976014D01*
X142305546Y-85832753D01*
X142234974Y-85700724D01*
X142140001Y-85584999D01*
X142110998Y-85561197D01*
X141788804Y-85239003D01*
X141765001Y-85209999D01*
X141649276Y-85115026D01*
X141517247Y-85044454D01*
X141411966Y-85012518D01*
X141426582Y-85008084D01*
X141562829Y-84935258D01*
X141682251Y-84837251D01*
X141780258Y-84717829D01*
X141853084Y-84581582D01*
X141897929Y-84433745D01*
X141913072Y-84280000D01*
X141913072Y-83980000D01*
X141897929Y-83826255D01*
X141853084Y-83678418D01*
X141780258Y-83542171D01*
X141741546Y-83495000D01*
X141780258Y-83447829D01*
X141853084Y-83311582D01*
X141897929Y-83163745D01*
X141913072Y-83010000D01*
X141913072Y-82710000D01*
X141897929Y-82556255D01*
X141853084Y-82408418D01*
X141780258Y-82272171D01*
X141741546Y-82225000D01*
X141780258Y-82177829D01*
X141853084Y-82041582D01*
X141897929Y-81893745D01*
X141913072Y-81740000D01*
X141913072Y-81440000D01*
X141897929Y-81286255D01*
X141853084Y-81138418D01*
X141780258Y-81002171D01*
X141741546Y-80955000D01*
X141780258Y-80907829D01*
X141853084Y-80771582D01*
X141892347Y-80642148D01*
X142240000Y-80989802D01*
G37*
%TD.AperFunction*%
D19*
X135740226Y-84878937D02*
X135909744Y-84992205D01*
X136098102Y-85070226D01*
X136298061Y-85110000D01*
X136360199Y-85110000D01*
X137511200Y-86261002D01*
X137534999Y-86290001D01*
X137650724Y-86384974D01*
X137782753Y-86455546D01*
X137926014Y-86499003D01*
X138037667Y-86510000D01*
X138037675Y-86510000D01*
X138075000Y-86513676D01*
X138112325Y-86510000D01*
X138138099Y-86510000D01*
X138113368Y-86526525D01*
X137906525Y-86733368D01*
X137790000Y-86907760D01*
X137673475Y-86733368D01*
X137466632Y-86526525D01*
X137223411Y-86364010D01*
X136953158Y-86252068D01*
X136666260Y-86195000D01*
X136373740Y-86195000D01*
X136086842Y-86252068D01*
X135816589Y-86364010D01*
X135573368Y-86526525D01*
X135366525Y-86733368D01*
X135250000Y-86907760D01*
X135133475Y-86733368D01*
X134926632Y-86526525D01*
X134683411Y-86364010D01*
X134413158Y-86252068D01*
X134126260Y-86195000D01*
X133833740Y-86195000D01*
X133546842Y-86252068D01*
X133276589Y-86364010D01*
X133033368Y-86526525D01*
X132826525Y-86733368D01*
X132710000Y-86907760D01*
X132593475Y-86733368D01*
X132492454Y-86632347D01*
X133764802Y-85360000D01*
X134637678Y-85360000D01*
X134675000Y-85363676D01*
X134712322Y-85360000D01*
X134712333Y-85360000D01*
X134823986Y-85349003D01*
X134967247Y-85305546D01*
X135099276Y-85234974D01*
X135215001Y-85140001D01*
X135238804Y-85110997D01*
X135605545Y-84744256D01*
X135740226Y-84878937D01*
%TA.AperFunction,Conductor*%
D20*
G36*
X135740226Y-84878937D02*
G01*
X135909744Y-84992205D01*
X136098102Y-85070226D01*
X136298061Y-85110000D01*
X136360199Y-85110000D01*
X137511200Y-86261002D01*
X137534999Y-86290001D01*
X137650724Y-86384974D01*
X137782753Y-86455546D01*
X137926014Y-86499003D01*
X138037667Y-86510000D01*
X138037675Y-86510000D01*
X138075000Y-86513676D01*
X138112325Y-86510000D01*
X138138099Y-86510000D01*
X138113368Y-86526525D01*
X137906525Y-86733368D01*
X137790000Y-86907760D01*
X137673475Y-86733368D01*
X137466632Y-86526525D01*
X137223411Y-86364010D01*
X136953158Y-86252068D01*
X136666260Y-86195000D01*
X136373740Y-86195000D01*
X136086842Y-86252068D01*
X135816589Y-86364010D01*
X135573368Y-86526525D01*
X135366525Y-86733368D01*
X135250000Y-86907760D01*
X135133475Y-86733368D01*
X134926632Y-86526525D01*
X134683411Y-86364010D01*
X134413158Y-86252068D01*
X134126260Y-86195000D01*
X133833740Y-86195000D01*
X133546842Y-86252068D01*
X133276589Y-86364010D01*
X133033368Y-86526525D01*
X132826525Y-86733368D01*
X132710000Y-86907760D01*
X132593475Y-86733368D01*
X132492454Y-86632347D01*
X133764802Y-85360000D01*
X134637678Y-85360000D01*
X134675000Y-85363676D01*
X134712322Y-85360000D01*
X134712333Y-85360000D01*
X134823986Y-85349003D01*
X134967247Y-85305546D01*
X135099276Y-85234974D01*
X135215001Y-85140001D01*
X135238804Y-85110997D01*
X135605545Y-84744256D01*
X135740226Y-84878937D01*
G37*
%TD.AperFunction*%
D19*
X129022038Y-77552962D02*
X129156613Y-77663405D01*
X129310148Y-77745472D01*
X129476744Y-77796008D01*
X129649998Y-77813072D01*
X130550002Y-77813072D01*
X130723256Y-77796008D01*
X130790000Y-77775762D01*
X130790001Y-84810197D01*
X129343745Y-86256453D01*
X129333158Y-86252068D01*
X129046260Y-86195000D01*
X128753740Y-86195000D01*
X128466842Y-86252068D01*
X128196589Y-86364010D01*
X127953368Y-86526525D01*
X127746525Y-86733368D01*
X127630000Y-86907760D01*
X127513475Y-86733368D01*
X127306632Y-86526525D01*
X127063411Y-86364010D01*
X127035000Y-86352242D01*
X127035000Y-78933854D01*
X127159744Y-79017205D01*
X127348102Y-79095226D01*
X127548061Y-79135000D01*
X127751939Y-79135000D01*
X127951898Y-79095226D01*
X128140256Y-79017205D01*
X128309774Y-78903937D01*
X128453937Y-78759774D01*
X128567205Y-78590256D01*
X128645226Y-78401898D01*
X128685000Y-78201939D01*
X128685000Y-77998061D01*
X128645226Y-77798102D01*
X128567205Y-77609744D01*
X128562284Y-77602379D01*
X128652962Y-77527962D01*
X128657445Y-77522500D01*
X128997038Y-77522500D01*
X129022038Y-77552962D01*
%TA.AperFunction,Conductor*%
D20*
G36*
X129022038Y-77552962D02*
G01*
X129156613Y-77663405D01*
X129310148Y-77745472D01*
X129476744Y-77796008D01*
X129649998Y-77813072D01*
X130550002Y-77813072D01*
X130723256Y-77796008D01*
X130790000Y-77775762D01*
X130790001Y-84810197D01*
X129343745Y-86256453D01*
X129333158Y-86252068D01*
X129046260Y-86195000D01*
X128753740Y-86195000D01*
X128466842Y-86252068D01*
X128196589Y-86364010D01*
X127953368Y-86526525D01*
X127746525Y-86733368D01*
X127630000Y-86907760D01*
X127513475Y-86733368D01*
X127306632Y-86526525D01*
X127063411Y-86364010D01*
X127035000Y-86352242D01*
X127035000Y-78933854D01*
X127159744Y-79017205D01*
X127348102Y-79095226D01*
X127548061Y-79135000D01*
X127751939Y-79135000D01*
X127951898Y-79095226D01*
X128140256Y-79017205D01*
X128309774Y-78903937D01*
X128453937Y-78759774D01*
X128567205Y-78590256D01*
X128645226Y-78401898D01*
X128685000Y-78201939D01*
X128685000Y-77998061D01*
X128645226Y-77798102D01*
X128567205Y-77609744D01*
X128562284Y-77602379D01*
X128652962Y-77527962D01*
X128657445Y-77522500D01*
X128997038Y-77522500D01*
X129022038Y-77552962D01*
G37*
%TD.AperFunction*%
D19*
X134161595Y-77643386D02*
X134272038Y-77777962D01*
X134406614Y-77888405D01*
X134560150Y-77970472D01*
X134705972Y-78014706D01*
X134697038Y-78022038D01*
X134586595Y-78156613D01*
X134504528Y-78310148D01*
X134453992Y-78476744D01*
X134436928Y-78649998D01*
X134436928Y-79550002D01*
X134453992Y-79723256D01*
X134504528Y-79889852D01*
X134586595Y-80043387D01*
X134697038Y-80177962D01*
X134831613Y-80288405D01*
X134985148Y-80370472D01*
X135151744Y-80421008D01*
X135324998Y-80438072D01*
X135850002Y-80438072D01*
X136023256Y-80421008D01*
X136189852Y-80370472D01*
X136343387Y-80288405D01*
X136424637Y-80221724D01*
X136448815Y-80251185D01*
X136545506Y-80330537D01*
X136655820Y-80389502D01*
X136775518Y-80425812D01*
X136900000Y-80438072D01*
X137126750Y-80435000D01*
X137285500Y-80276250D01*
X137285500Y-79227000D01*
X137539500Y-79227000D01*
X137539500Y-80276250D01*
X137698250Y-80435000D01*
X137925000Y-80438072D01*
X138049482Y-80425812D01*
X138169180Y-80389502D01*
X138279494Y-80330537D01*
X138376185Y-80251185D01*
X138455537Y-80154494D01*
X138514502Y-80044180D01*
X138550812Y-79924482D01*
X138563072Y-79800000D01*
X138560000Y-79385750D01*
X138401250Y-79227000D01*
X137539500Y-79227000D01*
X137285500Y-79227000D01*
X137265500Y-79227000D01*
X137265500Y-78973000D01*
X137285500Y-78973000D01*
X137285500Y-78953000D01*
X137539500Y-78953000D01*
X137539500Y-78973000D01*
X138401250Y-78973000D01*
X138560000Y-78814250D01*
X138563072Y-78400000D01*
X138550812Y-78275518D01*
X138514502Y-78155820D01*
X138473124Y-78078408D01*
X138499482Y-78075812D01*
X138619180Y-78039502D01*
X138729494Y-77980537D01*
X138826185Y-77901185D01*
X138861928Y-77857632D01*
X138861928Y-77950002D01*
X138878992Y-78123256D01*
X138929528Y-78289852D01*
X139011595Y-78443387D01*
X139122038Y-78577962D01*
X139180407Y-78625864D01*
X139129774Y-78748102D01*
X139090000Y-78948061D01*
X139090000Y-79151939D01*
X139129774Y-79351898D01*
X139168213Y-79444698D01*
X139037171Y-79514742D01*
X138917749Y-79612749D01*
X138819742Y-79732171D01*
X138746916Y-79868418D01*
X138702071Y-80016255D01*
X138686928Y-80170000D01*
X138686928Y-80470000D01*
X138702071Y-80623745D01*
X138746916Y-80771582D01*
X138778141Y-80830000D01*
X137802322Y-80830000D01*
X137764999Y-80826324D01*
X137727676Y-80830000D01*
X137727667Y-80830000D01*
X137616014Y-80840997D01*
X137472753Y-80884454D01*
X137340724Y-80955026D01*
X137224999Y-81049999D01*
X137201202Y-81078996D01*
X136127048Y-82153151D01*
X136122753Y-82154454D01*
X135990724Y-82225026D01*
X135874999Y-82319999D01*
X135851201Y-82348997D01*
X134360199Y-83840000D01*
X133487322Y-83840000D01*
X133449999Y-83836324D01*
X133412676Y-83840000D01*
X133412667Y-83840000D01*
X133301014Y-83850997D01*
X133285000Y-83855855D01*
X133285000Y-79653711D01*
X133328937Y-79609774D01*
X133442205Y-79440256D01*
X133520226Y-79251898D01*
X133560000Y-79051939D01*
X133560000Y-78848061D01*
X133520226Y-78648102D01*
X133442205Y-78459744D01*
X133328937Y-78290226D01*
X133184774Y-78146063D01*
X133015256Y-78032795D01*
X132899869Y-77985000D01*
X132952002Y-77985000D01*
X132952002Y-77826252D01*
X133110750Y-77985000D01*
X133550000Y-77988072D01*
X133674482Y-77975812D01*
X133794180Y-77939502D01*
X133904494Y-77880537D01*
X134001185Y-77801185D01*
X134080537Y-77704494D01*
X134137398Y-77598117D01*
X134161595Y-77643386D01*
%TA.AperFunction,Conductor*%
D20*
G36*
X134161595Y-77643386D02*
G01*
X134272038Y-77777962D01*
X134406614Y-77888405D01*
X134560150Y-77970472D01*
X134705972Y-78014706D01*
X134697038Y-78022038D01*
X134586595Y-78156613D01*
X134504528Y-78310148D01*
X134453992Y-78476744D01*
X134436928Y-78649998D01*
X134436928Y-79550002D01*
X134453992Y-79723256D01*
X134504528Y-79889852D01*
X134586595Y-80043387D01*
X134697038Y-80177962D01*
X134831613Y-80288405D01*
X134985148Y-80370472D01*
X135151744Y-80421008D01*
X135324998Y-80438072D01*
X135850002Y-80438072D01*
X136023256Y-80421008D01*
X136189852Y-80370472D01*
X136343387Y-80288405D01*
X136424637Y-80221724D01*
X136448815Y-80251185D01*
X136545506Y-80330537D01*
X136655820Y-80389502D01*
X136775518Y-80425812D01*
X136900000Y-80438072D01*
X137126750Y-80435000D01*
X137285500Y-80276250D01*
X137285500Y-79227000D01*
X137539500Y-79227000D01*
X137539500Y-80276250D01*
X137698250Y-80435000D01*
X137925000Y-80438072D01*
X138049482Y-80425812D01*
X138169180Y-80389502D01*
X138279494Y-80330537D01*
X138376185Y-80251185D01*
X138455537Y-80154494D01*
X138514502Y-80044180D01*
X138550812Y-79924482D01*
X138563072Y-79800000D01*
X138560000Y-79385750D01*
X138401250Y-79227000D01*
X137539500Y-79227000D01*
X137285500Y-79227000D01*
X137265500Y-79227000D01*
X137265500Y-78973000D01*
X137285500Y-78973000D01*
X137285500Y-78953000D01*
X137539500Y-78953000D01*
X137539500Y-78973000D01*
X138401250Y-78973000D01*
X138560000Y-78814250D01*
X138563072Y-78400000D01*
X138550812Y-78275518D01*
X138514502Y-78155820D01*
X138473124Y-78078408D01*
X138499482Y-78075812D01*
X138619180Y-78039502D01*
X138729494Y-77980537D01*
X138826185Y-77901185D01*
X138861928Y-77857632D01*
X138861928Y-77950002D01*
X138878992Y-78123256D01*
X138929528Y-78289852D01*
X139011595Y-78443387D01*
X139122038Y-78577962D01*
X139180407Y-78625864D01*
X139129774Y-78748102D01*
X139090000Y-78948061D01*
X139090000Y-79151939D01*
X139129774Y-79351898D01*
X139168213Y-79444698D01*
X139037171Y-79514742D01*
X138917749Y-79612749D01*
X138819742Y-79732171D01*
X138746916Y-79868418D01*
X138702071Y-80016255D01*
X138686928Y-80170000D01*
X138686928Y-80470000D01*
X138702071Y-80623745D01*
X138746916Y-80771582D01*
X138778141Y-80830000D01*
X137802322Y-80830000D01*
X137764999Y-80826324D01*
X137727676Y-80830000D01*
X137727667Y-80830000D01*
X137616014Y-80840997D01*
X137472753Y-80884454D01*
X137340724Y-80955026D01*
X137224999Y-81049999D01*
X137201202Y-81078996D01*
X136127048Y-82153151D01*
X136122753Y-82154454D01*
X135990724Y-82225026D01*
X135874999Y-82319999D01*
X135851201Y-82348997D01*
X134360199Y-83840000D01*
X133487322Y-83840000D01*
X133449999Y-83836324D01*
X133412676Y-83840000D01*
X133412667Y-83840000D01*
X133301014Y-83850997D01*
X133285000Y-83855855D01*
X133285000Y-79653711D01*
X133328937Y-79609774D01*
X133442205Y-79440256D01*
X133520226Y-79251898D01*
X133560000Y-79051939D01*
X133560000Y-78848061D01*
X133520226Y-78648102D01*
X133442205Y-78459744D01*
X133328937Y-78290226D01*
X133184774Y-78146063D01*
X133015256Y-78032795D01*
X132899869Y-77985000D01*
X132952002Y-77985000D01*
X132952002Y-77826252D01*
X133110750Y-77985000D01*
X133550000Y-77988072D01*
X133674482Y-77975812D01*
X133794180Y-77939502D01*
X133904494Y-77880537D01*
X134001185Y-77801185D01*
X134080537Y-77704494D01*
X134137398Y-77598117D01*
X134161595Y-77643386D01*
G37*
%TD.AperFunction*%
D19*
X143203502Y-78265192D02*
X143257958Y-78346691D01*
X143337310Y-78443382D01*
X143406618Y-78512690D01*
X143503309Y-78592042D01*
X143584808Y-78646498D01*
X143695125Y-78705464D01*
X143785681Y-78742973D01*
X143905377Y-78779282D01*
X144001510Y-78798404D01*
X144125991Y-78810664D01*
X144150550Y-78810664D01*
X144175000Y-78813072D01*
X144675000Y-78813072D01*
X144799482Y-78800812D01*
X144825000Y-78793071D01*
X144850518Y-78800812D01*
X144975000Y-78813072D01*
X145475000Y-78813072D01*
X145499450Y-78810664D01*
X145524009Y-78810664D01*
X145648490Y-78798404D01*
X145744623Y-78779282D01*
X145752186Y-78776988D01*
X146378053Y-79402855D01*
X146349482Y-79394188D01*
X146225000Y-79381928D01*
X145535750Y-79385000D01*
X145377000Y-79543750D01*
X145377000Y-80193000D01*
X146701250Y-80193000D01*
X146860000Y-80034250D01*
X146863072Y-80020000D01*
X146850812Y-79895518D01*
X146842145Y-79866947D01*
X147805198Y-80830000D01*
X146824870Y-80830000D01*
X146850812Y-80744482D01*
X146863072Y-80620000D01*
X146860000Y-80605750D01*
X146701250Y-80447000D01*
X145377000Y-80447000D01*
X145377000Y-80467000D01*
X145123000Y-80467000D01*
X145123000Y-80447000D01*
X145103000Y-80447000D01*
X145103000Y-80193000D01*
X145123000Y-80193000D01*
X145123000Y-79543750D01*
X144964250Y-79385000D01*
X144275000Y-79381928D01*
X144150518Y-79394188D01*
X144030820Y-79430498D01*
X143920506Y-79489463D01*
X143823815Y-79568815D01*
X143744463Y-79665506D01*
X143685498Y-79775820D01*
X143649188Y-79895518D01*
X143636928Y-80020000D01*
X143640000Y-80034250D01*
X143798748Y-80192998D01*
X143640000Y-80192998D01*
X143640000Y-80260126D01*
X143634974Y-80250723D01*
X143563799Y-80163997D01*
X143540001Y-80134999D01*
X143511004Y-80111202D01*
X142225512Y-78825710D01*
X142273256Y-78821008D01*
X142439852Y-78770472D01*
X142593387Y-78688405D01*
X142727962Y-78577962D01*
X142838405Y-78443387D01*
X142920472Y-78289852D01*
X142952278Y-78185000D01*
X143160638Y-78185000D01*
X143203502Y-78265192D01*
%TA.AperFunction,Conductor*%
D20*
G36*
X143203502Y-78265192D02*
G01*
X143257958Y-78346691D01*
X143337310Y-78443382D01*
X143406618Y-78512690D01*
X143503309Y-78592042D01*
X143584808Y-78646498D01*
X143695125Y-78705464D01*
X143785681Y-78742973D01*
X143905377Y-78779282D01*
X144001510Y-78798404D01*
X144125991Y-78810664D01*
X144150550Y-78810664D01*
X144175000Y-78813072D01*
X144675000Y-78813072D01*
X144799482Y-78800812D01*
X144825000Y-78793071D01*
X144850518Y-78800812D01*
X144975000Y-78813072D01*
X145475000Y-78813072D01*
X145499450Y-78810664D01*
X145524009Y-78810664D01*
X145648490Y-78798404D01*
X145744623Y-78779282D01*
X145752186Y-78776988D01*
X146378053Y-79402855D01*
X146349482Y-79394188D01*
X146225000Y-79381928D01*
X145535750Y-79385000D01*
X145377000Y-79543750D01*
X145377000Y-80193000D01*
X146701250Y-80193000D01*
X146860000Y-80034250D01*
X146863072Y-80020000D01*
X146850812Y-79895518D01*
X146842145Y-79866947D01*
X147805198Y-80830000D01*
X146824870Y-80830000D01*
X146850812Y-80744482D01*
X146863072Y-80620000D01*
X146860000Y-80605750D01*
X146701250Y-80447000D01*
X145377000Y-80447000D01*
X145377000Y-80467000D01*
X145123000Y-80467000D01*
X145123000Y-80447000D01*
X145103000Y-80447000D01*
X145103000Y-80193000D01*
X145123000Y-80193000D01*
X145123000Y-79543750D01*
X144964250Y-79385000D01*
X144275000Y-79381928D01*
X144150518Y-79394188D01*
X144030820Y-79430498D01*
X143920506Y-79489463D01*
X143823815Y-79568815D01*
X143744463Y-79665506D01*
X143685498Y-79775820D01*
X143649188Y-79895518D01*
X143636928Y-80020000D01*
X143640000Y-80034250D01*
X143798748Y-80192998D01*
X143640000Y-80192998D01*
X143640000Y-80260126D01*
X143634974Y-80250723D01*
X143563799Y-80163997D01*
X143540001Y-80134999D01*
X143511004Y-80111202D01*
X142225512Y-78825710D01*
X142273256Y-78821008D01*
X142439852Y-78770472D01*
X142593387Y-78688405D01*
X142727962Y-78577962D01*
X142838405Y-78443387D01*
X142920472Y-78289852D01*
X142952278Y-78185000D01*
X143160638Y-78185000D01*
X143203502Y-78265192D01*
G37*
%TD.AperFunction*%
D19*
X137777000Y-76823000D02*
X137797000Y-76823000D01*
X137797000Y-77077000D01*
X137777000Y-77077000D01*
X137777000Y-77097000D01*
X137523000Y-77097000D01*
X137523000Y-77077000D01*
X137503000Y-77077000D01*
X137503000Y-76823000D01*
X137523000Y-76823000D01*
X137523000Y-76803000D01*
X137777000Y-76803000D01*
X137777000Y-76823000D01*
%TA.AperFunction,Conductor*%
D20*
G36*
X137777000Y-76823000D02*
G01*
X137797000Y-76823000D01*
X137797000Y-77077000D01*
X137777000Y-77077000D01*
X137777000Y-77097000D01*
X137523000Y-77097000D01*
X137523000Y-77077000D01*
X137503000Y-77077000D01*
X137503000Y-76823000D01*
X137523000Y-76823000D01*
X137523000Y-76803000D01*
X137777000Y-76803000D01*
X137777000Y-76823000D01*
G37*
%TD.AperFunction*%
D19*
X132952000Y-76723000D02*
X132972000Y-76723000D01*
X132972000Y-76977000D01*
X132952000Y-76977000D01*
X132952000Y-76997000D01*
X132698000Y-76997000D01*
X132698000Y-76977000D01*
X132678000Y-76977000D01*
X132678000Y-76723000D01*
X132698000Y-76723000D01*
X132698000Y-76703000D01*
X132952000Y-76703000D01*
X132952000Y-76723000D01*
%TA.AperFunction,Conductor*%
D20*
G36*
X132952000Y-76723000D02*
G01*
X132972000Y-76723000D01*
X132972000Y-76977000D01*
X132952000Y-76977000D01*
X132952000Y-76997000D01*
X132698000Y-76997000D01*
X132698000Y-76977000D01*
X132678000Y-76977000D01*
X132678000Y-76723000D01*
X132698000Y-76723000D01*
X132698000Y-76703000D01*
X132952000Y-76703000D01*
X132952000Y-76723000D01*
G37*
%TD.AperFunction*%
D19*
X135502000Y-74873000D02*
X135522000Y-74873000D01*
X135522000Y-75127000D01*
X135502000Y-75127000D01*
X135502000Y-75147000D01*
X135248000Y-75147000D01*
X135248000Y-75127000D01*
X135228000Y-75127000D01*
X135228000Y-74873000D01*
X135248000Y-74873000D01*
X135248000Y-74853000D01*
X135502000Y-74853000D01*
X135502000Y-74873000D01*
%TA.AperFunction,Conductor*%
D20*
G36*
X135502000Y-74873000D02*
G01*
X135522000Y-74873000D01*
X135522000Y-75127000D01*
X135502000Y-75127000D01*
X135502000Y-75147000D01*
X135248000Y-75147000D01*
X135248000Y-75127000D01*
X135228000Y-75127000D01*
X135228000Y-74873000D01*
X135248000Y-74873000D01*
X135248000Y-74853000D01*
X135502000Y-74853000D01*
X135502000Y-74873000D01*
G37*
%TD.AperFunction*%
D19*
X146636928Y-72950000D02*
X146640000Y-73164250D01*
X146798750Y-73323000D01*
X147873000Y-73323000D01*
X147873000Y-73303000D01*
X148127000Y-73303000D01*
X148127000Y-73323000D01*
X148147000Y-73323000D01*
X148147000Y-73577000D01*
X148127000Y-73577000D01*
X148127000Y-73597000D01*
X147873000Y-73597000D01*
X147873000Y-73577000D01*
X146798750Y-73577000D01*
X146640000Y-73735750D01*
X146636928Y-73950000D01*
X146649188Y-74074482D01*
X146685498Y-74194180D01*
X146744463Y-74304494D01*
X146823815Y-74401185D01*
X146901574Y-74465000D01*
X146743476Y-74465000D01*
X146732052Y-74463875D01*
X146721008Y-74351744D01*
X146670472Y-74185148D01*
X146588405Y-74031613D01*
X146477962Y-73897038D01*
X146343387Y-73786595D01*
X146189852Y-73704528D01*
X146023256Y-73653992D01*
X145850002Y-73636928D01*
X145324998Y-73636928D01*
X145151744Y-73653992D01*
X144985148Y-73704528D01*
X144831613Y-73786595D01*
X144697038Y-73897038D01*
X144675000Y-73923891D01*
X144652962Y-73897038D01*
X144644614Y-73890187D01*
X145043592Y-73491209D01*
X145263740Y-73535000D01*
X145556260Y-73535000D01*
X145843158Y-73477932D01*
X146113411Y-73365990D01*
X146356632Y-73203475D01*
X146563475Y-72996632D01*
X146644240Y-72875759D01*
X146636928Y-72950000D01*
%TA.AperFunction,Conductor*%
D20*
G36*
X146636928Y-72950000D02*
G01*
X146640000Y-73164250D01*
X146798750Y-73323000D01*
X147873000Y-73323000D01*
X147873000Y-73303000D01*
X148127000Y-73303000D01*
X148127000Y-73323000D01*
X148147000Y-73323000D01*
X148147000Y-73577000D01*
X148127000Y-73577000D01*
X148127000Y-73597000D01*
X147873000Y-73597000D01*
X147873000Y-73577000D01*
X146798750Y-73577000D01*
X146640000Y-73735750D01*
X146636928Y-73950000D01*
X146649188Y-74074482D01*
X146685498Y-74194180D01*
X146744463Y-74304494D01*
X146823815Y-74401185D01*
X146901574Y-74465000D01*
X146743476Y-74465000D01*
X146732052Y-74463875D01*
X146721008Y-74351744D01*
X146670472Y-74185148D01*
X146588405Y-74031613D01*
X146477962Y-73897038D01*
X146343387Y-73786595D01*
X146189852Y-73704528D01*
X146023256Y-73653992D01*
X145850002Y-73636928D01*
X145324998Y-73636928D01*
X145151744Y-73653992D01*
X144985148Y-73704528D01*
X144831613Y-73786595D01*
X144697038Y-73897038D01*
X144675000Y-73923891D01*
X144652962Y-73897038D01*
X144644614Y-73890187D01*
X145043592Y-73491209D01*
X145263740Y-73535000D01*
X145556260Y-73535000D01*
X145843158Y-73477932D01*
X146113411Y-73365990D01*
X146356632Y-73203475D01*
X146563475Y-72996632D01*
X146644240Y-72875759D01*
X146636928Y-72950000D01*
G37*
%TD.AperFunction*%
D19*
X119964010Y-64116589D02*
X119852068Y-64386842D01*
X119795000Y-64673740D01*
X119795000Y-64966260D01*
X119852068Y-65253158D01*
X119964010Y-65523411D01*
X120083673Y-65702500D01*
X118887333Y-65702500D01*
X118850000Y-65698823D01*
X118812667Y-65702500D01*
X118701014Y-65713497D01*
X118557753Y-65756954D01*
X118425724Y-65827526D01*
X118309999Y-65922499D01*
X118215026Y-66038224D01*
X118144454Y-66170253D01*
X118100997Y-66313514D01*
X118086323Y-66462500D01*
X118090000Y-66499833D01*
X118090001Y-68350168D01*
X118086324Y-68387500D01*
X118100998Y-68536485D01*
X118144454Y-68679746D01*
X118215026Y-68811776D01*
X118278815Y-68889502D01*
X118310000Y-68927501D01*
X118338998Y-68951299D01*
X118840198Y-69452500D01*
X116884712Y-69452500D01*
X116815990Y-69286589D01*
X116653475Y-69043368D01*
X116521620Y-68911513D01*
X116594180Y-68889502D01*
X116704494Y-68830537D01*
X116801185Y-68751185D01*
X116880537Y-68654494D01*
X116939502Y-68544180D01*
X116975812Y-68424482D01*
X116988072Y-68300000D01*
X116988072Y-66600000D01*
X116975812Y-66475518D01*
X116939502Y-66355820D01*
X116880537Y-66245506D01*
X116801185Y-66148815D01*
X116704494Y-66069463D01*
X116594180Y-66010498D01*
X116474482Y-65974188D01*
X116350000Y-65961928D01*
X114650000Y-65961928D01*
X114525518Y-65974188D01*
X114405820Y-66010498D01*
X114295506Y-66069463D01*
X114198815Y-66148815D01*
X114119463Y-66245506D01*
X114060498Y-66355820D01*
X114035000Y-66439876D01*
X114035000Y-64314802D01*
X114289802Y-64060000D01*
X120001822Y-64060000D01*
X119964010Y-64116589D01*
%TA.AperFunction,Conductor*%
D20*
G36*
X119964010Y-64116589D02*
G01*
X119852068Y-64386842D01*
X119795000Y-64673740D01*
X119795000Y-64966260D01*
X119852068Y-65253158D01*
X119964010Y-65523411D01*
X120083673Y-65702500D01*
X118887333Y-65702500D01*
X118850000Y-65698823D01*
X118812667Y-65702500D01*
X118701014Y-65713497D01*
X118557753Y-65756954D01*
X118425724Y-65827526D01*
X118309999Y-65922499D01*
X118215026Y-66038224D01*
X118144454Y-66170253D01*
X118100997Y-66313514D01*
X118086323Y-66462500D01*
X118090000Y-66499833D01*
X118090001Y-68350168D01*
X118086324Y-68387500D01*
X118100998Y-68536485D01*
X118144454Y-68679746D01*
X118215026Y-68811776D01*
X118278815Y-68889502D01*
X118310000Y-68927501D01*
X118338998Y-68951299D01*
X118840198Y-69452500D01*
X116884712Y-69452500D01*
X116815990Y-69286589D01*
X116653475Y-69043368D01*
X116521620Y-68911513D01*
X116594180Y-68889502D01*
X116704494Y-68830537D01*
X116801185Y-68751185D01*
X116880537Y-68654494D01*
X116939502Y-68544180D01*
X116975812Y-68424482D01*
X116988072Y-68300000D01*
X116988072Y-66600000D01*
X116975812Y-66475518D01*
X116939502Y-66355820D01*
X116880537Y-66245506D01*
X116801185Y-66148815D01*
X116704494Y-66069463D01*
X116594180Y-66010498D01*
X116474482Y-65974188D01*
X116350000Y-65961928D01*
X114650000Y-65961928D01*
X114525518Y-65974188D01*
X114405820Y-66010498D01*
X114295506Y-66069463D01*
X114198815Y-66148815D01*
X114119463Y-66245506D01*
X114060498Y-66355820D01*
X114035000Y-66439876D01*
X114035000Y-64314802D01*
X114289802Y-64060000D01*
X120001822Y-64060000D01*
X119964010Y-64116589D01*
G37*
%TD.AperFunction*%
%TD*%
M02*
